<svg width="375" height="160" viewBox="0 0 375 160" fill="none" xmlns="http://www.w3.org/2000/svg">
<path d="M16.9444 32.8609C120.343 59.0796 207.278 61.6261 346.944 29" stroke="#4D4D4D" stroke-width="2.5"/>
<path d="M16.9444 33.1598C88.9478 75.8549 278.862 73.3615 341.944 31" stroke="#4D4D4D" stroke-width="2.5"/>
<path d="M341.197 4.49998C341.197 4.49987 341.197 4.49975 341.197 4.49963C341.197 3.85862 341.512 3.34567 342.17 2.93632C342.861 2.50588 343.867 2.25 344.947 2.25C346.026 2.25 347.032 2.50588 347.724 2.93632C348.382 3.34557 348.696 3.85838 348.697 4.4992C348.697 4.49946 348.697 4.49972 348.697 4.49998L348.496 157.75H341.306L341.197 4.49998Z" fill="white" stroke="#4D4D4D" stroke-width="2.5"/>
<path fill-rule="evenodd" clip-rule="evenodd" d="M335.947 72.9999C335.947 77.4182 339.752 80.9999 344.447 80.9999C349.141 80.9999 352.947 77.4182 352.947 72.9999H335.947Z" fill="white"/>
<path d="M335.947 72.9999V71.7499H334.697V72.9999H335.947ZM352.947 72.9999H354.197V71.7499H352.947V72.9999ZM344.447 79.7499C340.37 79.7499 337.197 76.6575 337.197 72.9999H334.697C334.697 78.1789 339.134 82.2499 344.447 82.2499V79.7499ZM351.697 72.9999C351.697 76.6575 348.523 79.7499 344.447 79.7499V82.2499C349.759 82.2499 354.197 78.1789 354.197 72.9999H351.697ZM352.947 71.7499H335.947V74.2499H352.947V71.7499Z" fill="#4D4D4D"/>
<path fill-rule="evenodd" clip-rule="evenodd" d="M353.25 72C353.635 72 353.953 71.6854 353.884 71.3067C353.34 68.3196 349.322 66 344.447 66C339.571 66 335.554 68.3196 335.009 71.3067C334.94 71.6854 335.259 72 335.644 72H353.25Z" fill="white"/>
<path d="M335.009 71.3067L333.78 71.0827L335.009 71.3067ZM344.447 67.25C346.697 67.25 348.703 67.7871 350.173 68.6207C351.663 69.465 352.471 70.5269 352.654 71.5308L355.114 71.0827C354.752 69.0995 353.28 67.508 351.406 66.4457C349.513 65.3727 347.072 64.75 344.447 64.75V67.25ZM336.239 71.5308C336.422 70.5269 337.231 69.465 338.72 68.6207C340.191 67.7871 342.197 67.25 344.447 67.25V64.75C341.821 64.75 339.381 65.3727 337.487 66.4457C335.613 67.508 334.141 69.0995 333.78 71.0827L336.239 71.5308ZM335.644 73.25H353.25V70.75H335.644V73.25ZM333.78 71.0827C333.543 72.3827 334.643 73.25 335.644 73.25V70.75C335.789 70.75 335.944 70.8089 336.065 70.9369C336.196 71.0757 336.282 71.2968 336.239 71.5308L333.78 71.0827ZM352.654 71.5308C352.612 71.2968 352.697 71.0757 352.829 70.9369C352.949 70.8089 353.104 70.75 353.25 70.75V73.25C354.25 73.25 355.351 72.3827 355.114 71.0827L352.654 71.5308Z" fill="#4D4D4D"/>
<rect x="345.947" y="28" width="16" height="21" rx="0.696842" fill="white" stroke="#4D4D4D" stroke-width="2.5"/>
<path d="M17.1944 3.51843C17.1944 2.86794 17.5125 2.35044 18.1697 1.93937C18.8611 1.50694 19.8657 1.25 20.9444 1.25C22.023 1.25 23.0276 1.50694 23.719 1.93937C24.3759 2.3503 24.6941 2.8676 24.6944 3.51781C24.6944 3.51801 24.6944 3.51822 24.6944 3.51843L24.5097 157.75H17.1944V3.51843Z" fill="white" stroke="#4D4D4D" stroke-width="2.5"/>
<path fill-rule="evenodd" clip-rule="evenodd" d="M11.9444 71.9999C11.9444 76.4182 15.5261 79.9999 19.9444 79.9999C24.3626 79.9999 27.9444 76.4182 27.9444 71.9999H11.9444Z" fill="white"/>
<path d="M11.9444 71.9999V70.7499H10.6944V71.9999H11.9444ZM27.9444 71.9999H29.1944V70.7499H27.9444V71.9999ZM19.9444 78.7499C16.2164 78.7499 13.1944 75.7278 13.1944 71.9999H10.6944C10.6944 77.1086 14.8357 81.2499 19.9444 81.2499V78.7499ZM26.6944 71.9999C26.6944 75.7278 23.6723 78.7499 19.9444 78.7499V81.2499C25.053 81.2499 29.1944 77.1086 29.1944 71.9999H26.6944ZM27.9444 70.7499H11.9444V73.2499H27.9444V70.7499Z" fill="#4D4D4D"/>
<path fill-rule="evenodd" clip-rule="evenodd" d="M30.2475 71C30.6324 71 30.9509 70.6852 30.8784 70.3072C30.306 67.3198 26.0767 65 20.9444 65C15.8121 65 11.5828 67.3198 11.0103 70.3072C10.9379 70.6852 11.2564 71 11.6412 71H30.2475Z" fill="white"/>
<path d="M11.0103 70.3072L12.238 70.5424L11.0103 70.3072ZM30.8784 70.3072L29.6508 70.5424L30.8784 70.3072ZM20.9444 66.25C23.3335 66.25 25.465 66.7918 27.0287 67.6339C28.6186 68.4901 29.4622 69.5583 29.6508 70.5424L32.1061 70.0719C31.7222 68.0687 30.1649 66.4833 28.214 65.4328C26.2369 64.3681 23.6876 63.75 20.9444 63.75V66.25ZM12.238 70.5424C12.4266 69.5583 13.2702 68.4901 14.8601 67.6339C16.4238 66.7918 18.5553 66.25 20.9444 66.25V63.75C18.2012 63.75 15.6519 64.3681 13.6748 65.4328C11.7239 66.4833 10.1666 68.0687 9.78267 70.0719L12.238 70.5424ZM11.6412 72.25H30.2475V69.75H11.6412V72.25ZM9.78267 70.0719C9.53149 71.3827 10.6458 72.25 11.6412 72.25V69.75C11.7868 69.75 11.9422 69.8088 12.0641 69.9382C12.1969 70.0792 12.2836 70.3047 12.238 70.5424L9.78267 70.0719ZM29.6508 70.5424C29.6052 70.3047 29.6918 70.0791 29.8247 69.9382C29.9466 69.8088 30.102 69.75 30.2475 69.75V72.25C31.2429 72.25 32.3573 71.3827 32.1061 70.0719L29.6508 70.5424Z" fill="#4D4D4D"/>
<rect x="20.9444" y="27" width="17" height="21" rx="0.696842" fill="white" stroke="#4D4D4D" stroke-width="2.5"/>
<path d="M70.9444 115H139.944L141 159H70.9444V115Z" fill="white"/>
<path d="M139.944 146.573V115H70.9444V159" stroke="#4D4D4D" stroke-width="2.5"/>
<path d="M99.9444 140H106.944" stroke="#4D4D4D" stroke-width="2.5" stroke-linecap="round"/>
<path d="M102.944 136H110.944" stroke="#4D4D4D" stroke-width="2.5" stroke-linecap="round"/>
<path d="M105.944 140V137" stroke="#4D4D4D" stroke-width="2.5"/>
<path d="M106.944 136V133" stroke="#4D4D4D" stroke-width="2.5" stroke-linecap="round"/>
<path d="M95.9444 158V125.697C95.9444 125.312 95.6324 125 95.2475 125H79.6412C79.2564 125 78.9444 125.312 78.9444 125.697V158" stroke="#4D4D4D" stroke-width="2.5"/>
<ellipse cx="87.9444" cy="134.5" rx="3" ry="2.5" stroke="#4D4D4D" stroke-width="2.5"/>
<path d="M70.9444 57.0001H139.944V115H70.9444V57.0001Z" fill="white" stroke="#4D4D4D" stroke-width="2.5"/>
<rect x="78.9444" y="85.0001" width="6" height="26" rx="0.696842" stroke="#4D4D4D" stroke-width="2.5"/>
<rect x="126.944" y="85.0001" width="5" height="27" rx="0.696842" stroke="#4D4D4D" stroke-width="2.5"/>
<path d="M104.944 65.2501C112.348 65.2501 119.018 65.8065 123.809 66.6937C126.214 67.1391 128.083 67.6569 129.321 68.1989C129.945 68.4719 130.338 68.7215 130.557 68.9193C130.779 69.1201 130.694 69.1466 130.694 69.0001H133.194C133.194 68.1633 132.732 67.5157 132.235 67.0656C131.734 66.6124 131.067 66.234 130.324 65.9088C128.829 65.2545 126.744 64.6948 124.264 64.2355C119.282 63.313 112.452 62.7501 104.944 62.7501V65.2501ZM79.1943 69.0001C79.1943 69.1466 79.1097 69.1201 79.3316 68.9193C79.5502 68.7215 79.9439 68.4719 80.5675 68.1989C81.8055 67.6569 83.6745 67.1391 86.0801 66.6937C90.8706 65.8065 97.5408 65.2501 104.944 65.2501V62.7501C97.4362 62.7501 90.6064 63.313 85.6248 64.2355C83.1443 64.6948 81.0593 65.2545 79.5648 65.9088C78.8221 66.234 78.1549 66.6124 77.6541 67.0656C77.1568 67.5157 76.6943 68.1633 76.6943 69.0001H79.1943ZM79.1943 74.3033V69.0001H76.6943V74.3033H79.1943ZM131.247 73.7501H78.6412V76.2501H131.247V73.7501ZM130.694 69.0001V74.3033H133.194V69.0001H130.694ZM131.247 76.2501C132.323 76.2501 133.194 75.3785 133.194 74.3033H130.694C130.694 73.9978 130.942 73.7501 131.247 73.7501V76.2501ZM76.6943 74.3033C76.6943 75.3785 77.566 76.2501 78.6412 76.2501V73.7501C78.9467 73.7501 79.1943 73.9978 79.1943 74.3033H76.6943Z" fill="#4D4D4D"/>
<path d="M88.9443 74.0001V66.0001" stroke="#4D4D4D" stroke-width="2.5"/>
<path d="M121.944 74.0001V66.0001" stroke="#4D4D4D" stroke-width="2.5"/>
<path fill-rule="evenodd" clip-rule="evenodd" d="M89.9444 77.6064H89.2475C88.8627 77.6064 88.5507 77.9184 88.5507 78.3032V79.0001V111V111.697C88.5507 112.082 88.8627 112.394 89.2475 112.394H89.9444H104.551H105.944H107.338H121.944H122.641C123.026 112.394 123.338 112.082 123.338 111.697V111V79.0001V78.3032C123.338 77.9184 123.026 77.6064 122.641 77.6064H121.944H107.338H105.944H104.551H89.9444ZM104.551 81.0906C104.551 80.7057 104.239 80.3937 103.854 80.3937H92.0349C91.6501 80.3937 91.3381 80.7057 91.3381 81.0906V108.91C91.3381 109.294 91.6501 109.606 92.0349 109.606H103.854C104.239 109.606 104.551 109.294 104.551 108.91V81.0906ZM108.035 80.3937C107.65 80.3937 107.338 80.7057 107.338 81.0906V108.91C107.338 109.294 107.65 109.606 108.035 109.606H119.854C120.239 109.606 120.551 109.294 120.551 108.91V81.0906C120.551 80.7057 120.239 80.3937 119.854 80.3937H108.035Z" fill="#4D4D4D"/>
<circle cx="101.444" cy="94.5001" r="1.5" fill="#4D4D4D"/>
<circle cx="110.444" cy="94.5001" r="1.5" fill="#4D4D4D"/>
<line x1="70.9444" y1="102.75" x2="113.944" y2="102.75" stroke="#4D4D4D" stroke-width="2.5"/>
<path d="M112.944 102L123.944 142.177V157" stroke="#4D4D4D" stroke-width="2.5" stroke-linecap="round"/>
<path d="M130.944 101L139.944 139.707V153" stroke="#4D4D4D" stroke-width="2.5" stroke-linecap="round"/>
<path d="M121.944 157L110.944 115" stroke="#4D4D4D" stroke-width="2.5"/>
<path d="M116.944 121H132.944" stroke="#4D4D4D" stroke-width="2.5" stroke-linecap="round"/>
<path d="M118.944 128H133.944" stroke="#4D4D4D" stroke-width="2.5" stroke-linecap="round"/>
<path d="M120.944 135H137.944" stroke="#4D4D4D" stroke-width="2.5" stroke-linecap="round"/>
<path d="M121.944 140H137.944" stroke="#4D4D4D" stroke-width="2.5" stroke-linecap="round"/>
<path d="M121.944 146H137.944" stroke="#4D4D4D" stroke-width="2.5" stroke-linecap="round"/>
<path d="M120.944 152H137.944" stroke="#4D4D4D" stroke-width="2.5" stroke-linecap="round"/>
<path d="M70.9444 30.6969C70.9444 30.3121 71.2564 30.0001 71.6412 30.0001H139.248C139.632 30.0001 139.944 30.3121 139.944 30.6969V56.3032C139.944 56.6881 139.632 57.0001 139.248 57.0001H71.6412C71.2564 57.0001 70.9444 56.6881 70.9444 56.3032V30.6969Z" fill="white" stroke="#4D4D4D" stroke-width="2.5"/>
<path d="M123.944 47.0001H131.944" stroke="#4D4D4D" stroke-width="2.5" stroke-linecap="round"/>
<path d="M125.944 44.0001H133.944" stroke="#4D4D4D" stroke-width="2.5" stroke-linecap="round"/>
<path d="M128.944 46.0001V44.0001" stroke="#4D4D4D" stroke-width="2.5"/>
<path d="M131.944 43.0001V40.0001" stroke="#4D4D4D" stroke-width="2.5" stroke-linecap="round"/>
<path fill-rule="evenodd" clip-rule="evenodd" d="M119.244 39C119.483 39 119.626 38.7346 119.494 38.5353L106.526 18.8815C106.251 18.4641 105.638 18.4641 105.363 18.8815L92.1157 38.9581C92.0985 38.9843 92.0692 39 92.0378 39C91.9863 39 91.9445 39.0418 91.9445 39.0934V49.3032C91.9445 49.6881 92.2565 50 92.6413 50H118.248C118.632 50 118.944 49.6881 118.944 49.3032V39.2997C118.944 39.1342 119.079 39 119.244 39Z" fill="white"/>
<path d="M92.1157 38.9581L91.0724 38.2697L92.1157 38.9581ZM119.494 38.5353L120.538 37.8469L119.494 38.5353ZM106.526 18.8815L107.569 18.1931L106.526 18.8815ZM105.363 18.8815L106.406 19.57L105.363 18.8815ZM105.483 19.57L118.451 39.2238L120.538 37.8469L107.569 18.1931L105.483 19.57ZM93.1591 39.6465L106.406 19.57L104.319 18.1931L91.0724 38.2697L93.1591 39.6465ZM93.1945 49.3032V39.0934H90.6945V49.3032H93.1945ZM118.248 48.75H92.6413V51.25H118.248V48.75ZM117.694 39.2997V49.3032H120.194V39.2997H117.694ZM120.194 39.2997C120.194 39.8246 119.769 40.25 119.244 40.25V37.75C118.388 37.75 117.694 38.4439 117.694 39.2997H120.194ZM118.248 51.25C119.323 51.25 120.194 50.3784 120.194 49.3032H117.694C117.694 48.9977 117.942 48.75 118.248 48.75V51.25ZM90.6945 49.3032C90.6945 50.3784 91.5661 51.25 92.6413 51.25V48.75C92.9468 48.75 93.1945 48.9977 93.1945 49.3032H90.6945ZM92.0378 37.75C91.2959 37.75 90.6945 38.3515 90.6945 39.0934H93.1945C93.1945 39.7322 92.6766 40.25 92.0378 40.25V37.75ZM91.0724 38.2697C91.2865 37.9453 91.6492 37.75 92.0378 37.75V40.25C92.4892 40.25 92.9105 40.0233 93.1591 39.6465L91.0724 38.2697ZM118.451 39.2238C118.034 38.5919 118.487 37.75 119.244 37.75V40.25C120.479 40.25 121.217 38.8772 120.538 37.8469L118.451 39.2238ZM107.569 18.1931C106.8 17.0269 105.089 17.0269 104.319 18.1931L106.406 19.57C106.188 19.9013 105.701 19.9013 105.483 19.57L107.569 18.1931Z" fill="#4D4D4D"/>
<path d="M99.9676 38.9873L101.212 38.8681L99.9676 38.9873ZM111.921 38.9873L113.165 39.1064L111.921 38.9873ZM110.694 38.5001C110.694 38.6244 110.688 38.7471 110.677 38.8681L113.165 39.1064C113.185 38.9064 113.194 38.7041 113.194 38.5001H110.694ZM105.944 34.2501C108.672 34.2501 110.694 36.253 110.694 38.5001H113.194C113.194 34.672 109.844 31.7501 105.944 31.7501V34.2501ZM101.194 38.5001C101.194 36.253 103.216 34.2501 105.944 34.2501V31.7501C102.045 31.7501 98.6944 34.672 98.6944 38.5001H101.194ZM101.212 38.8681C101.2 38.7471 101.194 38.6244 101.194 38.5001H98.6944C98.6944 38.7041 98.7041 38.9064 98.7233 39.1064L101.212 38.8681ZM101.194 49.3032V39.0117H98.6944V49.3032H101.194ZM111.248 48.7501H100.641V51.2501H111.248V48.7501ZM110.694 39.0117V49.3032H113.194V39.0117H110.694ZM113.194 39.0117C113.194 38.3149 112.63 37.7501 111.933 37.7501V40.2501C111.249 40.2501 110.694 39.6956 110.694 39.0117H113.194ZM111.248 51.2501C112.323 51.2501 113.194 50.3784 113.194 49.3032H110.694C110.694 48.9977 110.942 48.7501 111.248 48.7501V51.2501ZM99.956 37.7501C99.2593 37.7501 98.6944 38.3149 98.6944 39.0117H101.194C101.194 39.6957 100.64 40.2501 99.956 40.2501V37.7501ZM98.7233 39.1064C98.6538 38.3813 99.2234 37.7501 99.956 37.7501V40.2501C100.702 40.2501 101.283 39.607 101.212 38.8681L98.7233 39.1064ZM98.6944 49.3032C98.6944 50.3784 99.566 51.2501 100.641 51.2501V48.7501C100.947 48.7501 101.194 48.9977 101.194 49.3032H98.6944ZM110.677 38.8681C110.606 39.607 111.186 40.2501 111.933 40.2501V37.7501C112.665 37.7501 113.235 38.3813 113.165 39.1064L110.677 38.8681Z" fill="#4D4D4D"/>
<path d="M89.9444 44.0001L121.944 44.0001" stroke="#4D4D4D" stroke-width="2.5" stroke-linecap="round"/>
<path d="M96.9444 44.0001V49.0001" stroke="#4D4D4D" stroke-width="2.5"/>
<path d="M105.944 44.0001V49.0001" stroke="#4D4D4D" stroke-width="2.5"/>
<path d="M115.944 44.0001V49.0001" stroke="#4D4D4D" stroke-width="2.5"/>
<path d="M209.944 99.0001H278.944V158H209.944V99.0001Z" fill="white"/>
<path d="M278.944 158V99.0001H209.944V158" stroke="#4D4D4D" stroke-width="2.5"/>
<path d="M209.944 29.6969C209.944 29.312 210.256 29.0001 210.641 29.0001H278.248C278.632 29.0001 278.944 29.312 278.944 29.6969V98.3032C278.944 98.6881 278.632 99.0001 278.248 99.0001H210.641C210.256 99.0001 209.944 98.6881 209.944 98.3032V29.6969Z" fill="white" stroke="#4D4D4D" stroke-width="2.5"/>
<path d="M214.944 47H225.944" stroke="#4D4D4D" stroke-width="2.5" stroke-linecap="round"/>
<path d="M218.944 43H228.944" stroke="#4D4D4D" stroke-width="2.5" stroke-linecap="round"/>
<path d="M223.944 47V44" stroke="#4D4D4D" stroke-width="2.5"/>
<path d="M225.944 43V39" stroke="#4D4D4D" stroke-width="2.5" stroke-linecap="round"/>
<path d="M262.944 53.0001H271.944" stroke="#4D4D4D" stroke-width="2.5" stroke-linecap="round"/>
<path d="M266.944 49.0001H275.944" stroke="#4D4D4D" stroke-width="2.5" stroke-linecap="round"/>
<path d="M268.944 53.0001V50.0001" stroke="#4D4D4D" stroke-width="2.5"/>
<path d="M271.944 49.0001V45.0001" stroke="#4D4D4D" stroke-width="2.5" stroke-linecap="round"/>
<path d="M244.944 43.25C247.016 43.25 248.694 44.929 248.694 47H251.194C251.194 43.5483 248.396 40.75 244.944 40.75V43.25ZM241.194 47C241.194 44.929 242.873 43.25 244.944 43.25V40.75C241.493 40.75 238.694 43.5483 238.694 47H241.194ZM241.194 57.3032V47H238.694V57.3032H241.194ZM249.248 56.75H240.641V59.25H249.248V56.75ZM248.694 47V57.3032H251.194V47H248.694ZM249.248 59.25C250.323 59.25 251.194 58.3784 251.194 57.3032H248.694C248.694 56.9977 248.942 56.75 249.248 56.75V59.25ZM238.694 57.3032C238.694 58.3784 239.566 59.25 240.641 59.25V56.75C240.947 56.75 241.194 56.9977 241.194 57.3032H238.694Z" fill="#4D4D4D"/>
<rect x="233.944" y="37" width="22" height="21" rx="0.696842" stroke="#4D4D4D" stroke-width="2.5"/>
<path d="M244.314 14.3449C244.564 13.8103 245.325 13.8103 245.575 14.3449L255.737 36.0072C255.954 36.4693 255.617 37 255.106 37H234.783C234.272 37 233.935 36.4693 234.152 36.0072L244.314 14.3449Z" fill="white" stroke="#4D4D4D" stroke-width="2.5"/>
<line x1="235.194" y1="105.75" x2="254.694" y2="105.75" stroke="#4D4D4D" stroke-width="2.5" stroke-linecap="round"/>
<line x1="235.194" y1="110.75" x2="254.694" y2="110.75" stroke="#4D4D4D" stroke-width="2.5" stroke-linecap="round"/>
<line x1="235.194" y1="116.75" x2="254.694" y2="116.75" stroke="#4D4D4D" stroke-width="2.5" stroke-linecap="round"/>
<line x1="235.194" y1="122.75" x2="254.694" y2="122.75" stroke="#4D4D4D" stroke-width="2.5" stroke-linecap="round"/>
<line x1="235.194" y1="128.75" x2="254.694" y2="128.75" stroke="#4D4D4D" stroke-width="2.5" stroke-linecap="round"/>
<line x1="235.194" y1="134.75" x2="254.694" y2="134.75" stroke="#4D4D4D" stroke-width="2.5" stroke-linecap="round"/>
<line x1="235.194" y1="140.75" x2="254.694" y2="140.75" stroke="#4D4D4D" stroke-width="2.5" stroke-linecap="round"/>
<line x1="235.194" y1="151.75" x2="254.694" y2="151.75" stroke="#4D4D4D" stroke-width="2.5" stroke-linecap="round"/>
<line x1="235.194" y1="145.75" x2="254.694" y2="145.75" stroke="#4D4D4D" stroke-width="2.5" stroke-linecap="round"/>
<line x1="232.194" y1="97.25" x2="232.194" y2="153.75" stroke="#4D4D4D" stroke-width="2.5" stroke-linecap="round"/>
<line x1="257.194" y1="97.25" x2="257.194" y2="153.75" stroke="#4D4D4D" stroke-width="2.5" stroke-linecap="round"/>
<rect x="228.944" y="67" width="15" height="27" rx="0.696842" stroke="#4D4D4D" stroke-width="2.5"/>
<rect x="243.944" y="67" width="17" height="27" rx="0.696842" stroke="#4D4D4D" stroke-width="2.5"/>
<rect x="233.944" y="72" width="6" height="16" rx="0.696842" stroke="#4D4D4D" stroke-width="2.5"/>
<rect x="249.944" y="72" width="6" height="16" rx="0.696842" stroke="#4D4D4D" stroke-width="2.5"/>
<rect x="210.944" y="83.0001" width="27" height="16" rx="0.696842" fill="white" stroke="#4D4D4D" stroke-width="2.5"/>
<line x1="209.944" y1="87.7501" x2="237.944" y2="87.7501" stroke="#4D4D4D" stroke-width="2.5"/>
<line x1="215.194" y1="89.2501" x2="215.194" y2="97.7501" stroke="#4D4D4D" stroke-width="2.5" stroke-linecap="round"/>
<line x1="221.194" y1="89.2501" x2="221.194" y2="97.7501" stroke="#4D4D4D" stroke-width="2.5" stroke-linecap="round"/>
<line x1="227.194" y1="89.2501" x2="227.194" y2="97.7501" stroke="#4D4D4D" stroke-width="2.5" stroke-linecap="round"/>
<line x1="232.194" y1="89.2501" x2="232.194" y2="97.7501" stroke="#4D4D4D" stroke-width="2.5" stroke-linecap="round"/>
<rect x="252.944" y="83" width="26" height="16" rx="0.696842" fill="white" stroke="#4D4D4D" stroke-width="2.5"/>
<line x1="252.944" y1="87.75" x2="278.944" y2="87.75" stroke="#4D4D4D" stroke-width="2.5"/>
<line x1="257.194" y1="89.2501" x2="257.194" y2="97.7501" stroke="#4D4D4D" stroke-width="2.5" stroke-linecap="round"/>
<line x1="264.194" y1="89.2501" x2="264.194" y2="97.7501" stroke="#4D4D4D" stroke-width="2.5" stroke-linecap="round"/>
<line x1="269.194" y1="89.2501" x2="269.194" y2="97.7501" stroke="#4D4D4D" stroke-width="2.5" stroke-linecap="round"/>
<line x1="275.194" y1="89.2501" x2="275.194" y2="97.7501" stroke="#4D4D4D" stroke-width="2.5" stroke-linecap="round"/>
<rect x="263.944" y="109" width="11" height="22" rx="0.696842" stroke="#4D4D4D" stroke-width="2.5"/>
<rect x="213.944" y="109" width="12" height="22" rx="0.696842" stroke="#4D4D4D" stroke-width="2.5"/>
<path fill-rule="evenodd" clip-rule="evenodd" d="M208.759 40.0001C208.614 40.0001 208.472 39.9547 208.354 39.8702L175.349 16.2895C175.107 16.1164 174.782 16.1164 174.539 16.2895L141.434 39.9424C141.381 39.9799 141.318 40.0001 141.254 40.0001H141.137C141.031 40.0001 140.944 40.0864 140.944 40.1929C140.944 40.2551 140.914 40.3135 140.864 40.3497L140.698 40.4679C140.575 40.5558 140.637 40.7501 140.789 40.7501C140.875 40.7501 140.944 40.8197 140.944 40.9056V93.3032C140.944 93.6881 141.256 94.0001 141.641 94.0001H209.248C209.632 94.0001 209.944 93.6881 209.944 93.3032V40.6969C209.944 40.312 209.632 40.0001 209.248 40.0001H208.759Z" fill="white"/>
<path d="M140.698 40.4679L139.972 39.4508L140.698 40.4679ZM140.864 40.3497L141.59 41.3668L140.864 40.3497ZM141.434 39.9424L142.16 40.9595L141.434 39.9424ZM208.354 39.8702L209.081 38.8531L208.354 39.8702ZM175.349 16.2895L174.623 17.3066L175.349 16.2895ZM174.539 16.2895L173.813 15.2724L174.539 16.2895ZM174.623 17.3066L207.627 40.8873L209.081 38.8531L176.076 15.2724L174.623 17.3066ZM142.16 40.9595L175.266 17.3066L173.813 15.2724L140.707 38.9253L142.16 40.9595ZM141.137 41.2501H141.254V38.7501H141.137V41.2501ZM141.425 41.4849L141.59 41.3668L140.137 39.3327L139.972 39.4508L141.425 41.4849ZM142.194 93.3032V40.9056H139.694V93.3032H142.194ZM209.248 92.7501H141.641V95.2501H209.248V92.7501ZM208.694 40.6969V93.3032H211.194V40.6969H208.694ZM208.759 41.2501H209.248V38.7501H208.759V41.2501ZM211.194 40.6969C211.194 39.6217 210.323 38.7501 209.248 38.7501V41.2501C208.942 41.2501 208.694 41.0024 208.694 40.6969H211.194ZM209.248 95.2501C210.323 95.2501 211.194 94.3784 211.194 93.3032H208.694C208.694 92.9977 208.942 92.7501 209.248 92.7501V95.2501ZM139.694 93.3032C139.694 94.3784 140.566 95.2501 141.641 95.2501V92.7501C141.947 92.7501 142.194 92.9977 142.194 93.3032H139.694ZM140.789 42.0001C140.184 42.0001 139.694 41.5101 139.694 40.9056H142.194C142.194 40.1293 141.565 39.5001 140.789 39.5001V42.0001ZM139.972 39.4508C138.859 40.2457 139.421 42.0001 140.789 42.0001V39.5001C141.853 39.5001 142.291 40.866 141.425 41.4849L139.972 39.4508ZM139.694 40.1929C139.694 39.8515 139.859 39.5311 140.137 39.3327L141.59 41.3668C141.969 41.096 142.194 40.6588 142.194 40.1929H139.694ZM141.137 38.7501C140.34 38.7501 139.694 39.396 139.694 40.1929H142.194C142.194 40.7767 141.721 41.2501 141.137 41.2501V38.7501ZM140.707 38.9253C140.867 38.8113 141.058 38.7501 141.254 38.7501V41.2501C141.579 41.2501 141.896 41.1485 142.16 40.9595L140.707 38.9253ZM207.627 40.8873C207.957 41.1232 208.353 41.2501 208.759 41.2501V38.7501C208.874 38.7501 208.987 38.7861 209.081 38.8531L207.627 40.8873ZM176.076 15.2724C175.399 14.7887 174.49 14.7887 173.813 15.2724L175.266 17.3066C175.074 17.444 174.815 17.444 174.623 17.3066L176.076 15.2724Z" fill="#4D4D4D"/>
<path d="M140.944 94.0001H209.944L209.613 158H141.276L140.944 94.0001Z" fill="white"/>
<path d="M209.944 158V94.0001H140.944V158" stroke="#4D4D4D" stroke-width="2.5"/>
<path d="M147.944 145H158.944" stroke="#4D4D4D" stroke-width="2.5" stroke-linecap="round"/>
<path d="M149.944 140H160.944" stroke="#4D4D4D" stroke-width="2.5" stroke-linecap="round"/>
<path d="M154.944 144V140" stroke="#4D4D4D" stroke-width="2.5"/>
<path d="M156.944 139V136" stroke="#4D4D4D" stroke-width="2.5" stroke-linecap="round"/>
<path d="M190.944 114H199.944" stroke="#4D4D4D" stroke-width="2.5" stroke-linecap="round"/>
<path d="M192.944 109H203.944" stroke="#4D4D4D" stroke-width="2.5" stroke-linecap="round"/>
<path d="M197.944 114V109" stroke="#4D4D4D" stroke-width="2.5"/>
<path d="M199.944 109V105" stroke="#4D4D4D" stroke-width="2.5" stroke-linecap="round"/>
<path d="M187.944 54H197.944" stroke="#4D4D4D" stroke-width="2.5" stroke-linecap="round"/>
<path d="M190.944 50H199.944" stroke="#4D4D4D" stroke-width="2.5" stroke-linecap="round"/>
<path d="M194.944 54V51" stroke="#4D4D4D" stroke-width="2.5"/>
<path d="M197.944 50V46" stroke="#4D4D4D" stroke-width="2.5" stroke-linecap="round"/>
<rect x="171.944" y="71" width="5" height="5" rx="0.696842" stroke="#4D4D4D" stroke-width="2.5"/>
<rect x="166.944" y="66" width="16" height="28" rx="0.696842" stroke="#4D4D4D" stroke-width="2.5"/>
<path d="M173.944 89V153" stroke="#4D4D4D" stroke-width="2.5" stroke-linecap="round"/>
<path d="M165.537 97C162.9 99.6887 158.944 100.993 158.944 109.771C158.944 119.854 177.403 124.223 185.314 132.289C193.225 140.354 193.358 143.942 192.698 151" stroke="#4D4D4D" stroke-width="2.5" stroke-linecap="round"/>
<path d="M168.944 99H178.944M168.944 99H178.944" stroke="#4D4D4D" stroke-width="2.5" stroke-linecap="round"/>
<path d="M163.944 104H175.944M163.944 104H175.944" stroke="#4D4D4D" stroke-width="2.5" stroke-linecap="round"/>
<path d="M161.944 109H171.944M161.944 109H171.944" stroke="#4D4D4D" stroke-width="2.5" stroke-linecap="round"/>
<path d="M162.944 115H174.944M162.944 115H174.944" stroke="#4D4D4D" stroke-width="2.5" stroke-linecap="round"/>
<path d="M176.944 152H187.944M176.944 152H187.944" stroke="#4D4D4D" stroke-width="2.5" stroke-linecap="round"/>
<path d="M177.944 147H188.944M177.944 147H188.944" stroke="#4D4D4D" stroke-width="2.5" stroke-linecap="round"/>
<path d="M178.944 142H187.944M178.944 142H187.944" stroke="#4D4D4D" stroke-width="2.5" stroke-linecap="round"/>
<path d="M176.944 137H185.944M176.944 137H185.944" stroke="#4D4D4D" stroke-width="2.5" stroke-linecap="round"/>
<path d="M175.944 133H181.944M175.944 133H181.944" stroke="#4D4D4D" stroke-width="2.5" stroke-linecap="round"/>
<path d="M167.944 119H171.944M167.944 119H171.944" stroke="#4D4D4D" stroke-width="2.5" stroke-linecap="round"/>
<rect x="166.944" y="28.0001" width="16" height="16" rx="0.696842" stroke="#4D4D4D" stroke-width="2.5"/>
<path d="M167.242 60.1953L166.034 59.8756L167.242 60.1953ZM167.892 62.2501H181.997V59.7501H167.892V62.2501ZM174.944 55.2501C177.984 55.2501 180.622 57.4291 181.438 60.5149L183.855 59.8756C182.78 55.8124 179.238 52.7501 174.944 52.7501V55.2501ZM168.45 60.5149C169.267 57.4291 171.905 55.2501 174.944 55.2501V52.7501C170.651 52.7501 167.108 55.8124 166.034 59.8756L168.45 60.5149ZM181.997 62.2501C183.162 62.2501 184.197 61.1663 183.855 59.8756L181.438 60.5149C181.317 60.0573 181.693 59.7501 181.997 59.7501V62.2501ZM167.892 59.7501C168.195 59.7501 168.571 60.0573 168.45 60.5149L166.034 59.8756C165.692 61.1663 166.727 62.2501 167.892 62.2501V59.7501Z" fill="#4D4D4D"/>
<rect x="147.944" y="66.0001" width="11" height="17" rx="0.696842" stroke="#4D4D4D" stroke-width="2.5"/>
<rect x="191.944" y="66.0001" width="11" height="17" rx="0.696842" stroke="#4D4D4D" stroke-width="2.5"/>
<path d="M-2 158H376" stroke="#4D4D4D" stroke-width="2.5"/>
</svg>
