<svg width="218" height="269" viewBox="0 0 218 269" fill="none" xmlns="http://www.w3.org/2000/svg">
<path d="M27.9105 12.8951L2.38064 29.2037L64.2903 82.4936L27.9105 12.8951Z" fill="#5C63AB"/>
<path d="M63.3598 31.4747L73.6759 67.7584L81.7958 30.0038L63.3598 31.4747Z" fill="#5C63AB"/>
<path d="M20.037 91.3047L25.4412 73.1765L54.0154 91.4482L20.037 91.3047Z" fill="#5C63AB"/>
<path fill-rule="evenodd" clip-rule="evenodd" d="M179.576 205.731C180.017 202.672 181.85 200.013 184.409 198.28C204.565 184.635 217.812 161.557 217.812 135.384C217.812 93.4658 183.831 59.4844 141.913 59.4844C99.9945 59.4844 66.0131 93.4658 66.0131 135.384C66.0131 161.074 78.7764 183.783 98.3079 197.516C100.92 199.352 102.779 202.117 103.208 205.281V205.281C103.92 210.53 108.402 214.446 113.7 214.446H169.516C174.57 214.446 178.856 210.733 179.576 205.731V205.731Z" fill="#F89790"/>
<path fill-rule="evenodd" clip-rule="evenodd" d="M147.285 183.508C170.408 180.607 188.296 160.875 188.296 136.965C188.296 111.057 167.293 90.0547 141.386 90.0547C115.478 90.0547 94.4754 111.057 94.4754 136.965C94.4754 161.024 112.588 180.853 135.921 183.56L139.277 204.958H145.602L147.285 183.508Z" fill="white"/>
<path fill-rule="evenodd" clip-rule="evenodd" d="M181.346 200.249C203.212 186.928 217.812 162.861 217.812 135.384C217.812 93.4658 183.831 59.4844 141.913 59.4844C124.468 59.4844 108.398 65.3696 95.5796 75.2628C107.072 68.2613 120.571 64.2281 135.013 64.2281C176.931 64.2281 210.912 98.2095 210.912 140.128C210.912 164.601 199.329 186.37 181.346 200.249Z" fill="#F2463A"/>
<path fill-rule="evenodd" clip-rule="evenodd" d="M169.447 206.135C163.586 207.528 157.471 208.265 151.185 208.265C107.718 208.265 72.4818 173.029 72.4818 129.562C72.4818 110.724 79.1001 93.4324 90.1384 79.8845C75.294 93.7385 66.0131 113.478 66.0131 135.384C66.0131 177.302 99.9945 211.284 141.913 211.284C151.625 211.284 160.911 209.46 169.447 206.135Z" fill="#F2463A"/>
<circle cx="141.913" cy="255.558" r="12.6499" fill="#D1D5FF"/>
<path d="M106.071 207.067L177.754 207.067L172.439 236.272C170.073 249.272 158.749 258.721 145.535 258.721H138.291C125.077 258.721 113.753 249.272 111.387 236.272L106.071 207.067Z" fill="#ABB2FF"/>
<path d="M160.888 219.717L177.754 207.067L171.775 239.92C169.793 250.808 160.31 258.721 149.244 258.721V258.721C155.324 254.749 157.502 246.906 160.888 219.717Z" fill="#8991DC"/>
<path d="M106.071 207.067L115.472 217.609C120.246 248.749 127.533 254.99 141.05 258.721H138.291C125.077 258.721 113.753 249.272 111.387 236.272L106.071 207.067Z" fill="#D1D5FF"/>
<path d="M111.869 226.042L169.848 235.002" stroke="#5C63AB" stroke-width="10.0371" stroke-linecap="round"/>
<path d="M114.505 238.126L167.213 246.272" stroke="#5C63AB" stroke-width="10.0371" stroke-linecap="round"/>
<rect x="92.3676" y="202.85" width="99.0912" height="18.9749" rx="9.48746" fill="#E5E5E5"/>
<mask id="mask0" mask-type="alpha" maskUnits="userSpaceOnUse" x="92" y="202" width="100" height="20">
<rect x="92.3676" y="202.85" width="99.0912" height="18.9749" rx="9.48746" fill="#BCBCBC"/>
</mask>
<g mask="url(#mask0)">
<path d="M93.1819 234.571L89.7319 213.009L191.938 213.009L203.581 222.927L93.1819 234.571Z" fill="#D2D2D2"/>
</g>
<path fill-rule="evenodd" clip-rule="evenodd" d="M130.364 128.515C125.944 124.348 118.891 124.917 115.198 129.739L114.464 130.697C112.016 133.892 111.446 138.146 112.967 141.874L113.459 143.081C115.549 148.203 120.531 151.552 126.063 151.552H130.56L135.877 200.25C136.019 201.555 137.193 202.498 138.499 202.356C139.804 202.213 140.747 201.039 140.605 199.734L135.344 151.552H145.763C145.775 151.552 145.787 151.552 145.799 151.552H148.696L143.435 199.734C143.292 201.039 144.235 202.213 145.541 202.356C146.846 202.498 148.02 201.556 148.163 200.25L153.48 151.552H157.977C163.509 151.552 168.491 148.204 170.58 143.081L171.073 141.874C172.593 138.147 172.023 133.893 169.576 130.697L168.842 129.74C165.148 124.918 158.095 124.348 153.676 128.515C151.902 130.187 150.783 132.436 150.518 134.859L149.215 146.796H147.164C147.152 146.796 147.14 146.796 147.128 146.796H134.825L133.521 134.859C133.257 132.436 132.137 130.187 130.364 128.515ZM128.794 135.375L130.041 146.796H126.063C122.464 146.796 119.222 144.617 117.863 141.285L117.37 140.077C116.488 137.913 116.818 135.444 118.239 133.589L118.973 132.631C120.953 130.047 124.733 129.742 127.101 131.975C128.052 132.871 128.652 134.077 128.794 135.375ZM155.246 135.376L153.999 146.796H157.977C161.576 146.796 164.817 144.618 166.177 141.285L166.669 140.077C167.552 137.914 167.221 135.444 165.8 133.589L165.067 132.632C163.087 130.047 159.307 129.742 156.938 131.975C155.988 132.871 155.388 134.077 155.246 135.376Z" fill="#636363"/>
<path d="M115.198 129.739L116.377 130.643L116.377 130.643L115.198 129.739ZM130.364 128.515L129.344 129.596L129.344 129.596L130.364 128.515ZM114.464 130.697L113.284 129.793L114.464 130.697ZM112.967 141.874L111.591 142.435L111.591 142.435L112.967 141.874ZM113.459 143.081L114.835 142.52L114.835 142.52L113.459 143.081ZM130.56 151.552L132.037 151.39L131.893 150.065H130.56V151.552ZM135.877 200.25L137.354 200.088L137.354 200.088L135.877 200.25ZM138.499 202.356L138.66 203.833L138.66 203.833L138.499 202.356ZM140.605 199.734L142.082 199.572L142.082 199.572L140.605 199.734ZM135.344 151.552V150.065H133.687L133.867 151.713L135.344 151.552ZM145.763 151.552L145.785 150.066L145.774 150.065H145.763V151.552ZM148.696 151.552L150.173 151.713L150.353 150.066H148.696V151.552ZM143.435 199.734L144.912 199.895L144.912 199.895L143.435 199.734ZM145.541 202.356L145.379 203.833L145.379 203.833L145.541 202.356ZM148.163 200.25L149.64 200.411L149.64 200.411L148.163 200.25ZM153.48 151.552V150.066H152.147L152.002 151.391L153.48 151.552ZM170.58 143.081L169.204 142.52L169.204 142.52L170.58 143.081ZM171.073 141.874L172.449 142.435L172.449 142.435L171.073 141.874ZM169.576 130.697L170.755 129.793L170.755 129.793L169.576 130.697ZM168.842 129.74L167.662 130.643L167.662 130.643L168.842 129.74ZM153.676 128.515L152.656 127.434L152.656 127.434L153.676 128.515ZM150.518 134.859L149.041 134.698L149.041 134.698L150.518 134.859ZM149.215 146.796V148.282H150.548L150.692 146.957L149.215 146.796ZM147.164 146.796L147.142 148.282L147.153 148.282H147.164V146.796ZM134.825 146.796L133.347 146.957L133.492 148.282H134.825V146.796ZM133.521 134.859L134.999 134.698L134.999 134.698L133.521 134.859ZM130.041 146.796V148.282H131.698L131.518 146.634L130.041 146.796ZM128.794 135.375L127.316 135.537L127.316 135.537L128.794 135.375ZM117.863 141.285L119.239 140.723L119.239 140.723L117.863 141.285ZM117.37 140.077L115.994 140.639L115.994 140.639L117.37 140.077ZM118.239 133.589L119.419 134.493L119.419 134.493L118.239 133.589ZM118.973 132.631L117.793 131.728L117.793 131.728L118.973 132.631ZM127.101 131.975L126.082 133.056L126.082 133.056L127.101 131.975ZM153.999 146.796L152.522 146.635L152.342 148.282H153.999V146.796ZM155.246 135.376L153.768 135.214L153.768 135.214L155.246 135.376ZM166.177 141.285L164.801 140.723L164.801 140.723L166.177 141.285ZM166.669 140.077L168.045 140.639L168.045 140.639L166.669 140.077ZM165.8 133.589L164.62 134.493L164.62 134.493L165.8 133.589ZM165.067 132.632L163.887 133.535L163.887 133.535L165.067 132.632ZM156.938 131.975L155.919 130.894L155.919 130.894L156.938 131.975ZM116.377 130.643C119.535 126.52 125.566 126.033 129.344 129.596L131.384 127.433C126.323 122.662 118.247 123.314 114.018 128.836L116.377 130.643ZM115.644 131.601L116.377 130.643L114.018 128.836L113.284 129.793L115.644 131.601ZM114.343 141.312C113.022 138.074 113.517 134.377 115.644 131.601L113.284 129.793C110.515 133.408 109.871 138.219 111.591 142.435L114.343 141.312ZM114.835 142.52L114.343 141.312L111.591 142.435L112.083 143.642L114.835 142.52ZM126.063 150.065C121.135 150.065 116.697 147.083 114.835 142.52L112.083 143.642C114.401 149.324 119.927 153.038 126.063 153.038V150.065ZM130.56 150.065H126.063V153.038H130.56V150.065ZM137.354 200.088L132.037 151.39L129.082 151.713L134.399 200.411L137.354 200.088ZM138.338 200.878C137.848 200.932 137.408 200.578 137.354 200.088L134.399 200.411C134.631 202.533 136.539 204.065 138.66 203.833L138.338 200.878ZM139.127 199.895C139.181 200.384 138.827 200.825 138.338 200.878L138.66 203.833C140.782 203.601 142.314 201.694 142.082 199.572L139.127 199.895ZM133.867 151.713L139.127 199.895L142.082 199.572L136.821 151.39L133.867 151.713ZM145.763 150.065H135.344V153.038H145.763V150.065ZM145.741 153.038C145.76 153.038 145.78 153.038 145.799 153.038V150.066C145.794 150.066 145.789 150.066 145.785 150.066L145.741 153.038ZM145.799 153.038H148.696V150.066H145.799V153.038ZM147.218 151.391L141.957 199.573L144.912 199.895L150.173 151.713L147.218 151.391ZM141.957 199.573C141.726 201.694 143.258 203.602 145.379 203.833L145.702 200.878C145.212 200.825 144.859 200.385 144.912 199.895L141.957 199.573ZM145.379 203.833C147.501 204.065 149.408 202.533 149.64 200.411L146.685 200.089C146.632 200.578 146.192 200.932 145.702 200.878L145.379 203.833ZM149.64 200.411L154.957 151.713L152.002 151.391L146.685 200.089L149.64 200.411ZM153.48 153.038H157.977V150.066H153.48V153.038ZM157.977 153.038C164.113 153.038 169.639 149.324 171.956 143.643L169.204 142.52C167.343 147.083 162.905 150.066 157.977 150.066V153.038ZM171.956 143.643L172.449 142.435L169.697 141.312L169.204 142.52L171.956 143.643ZM172.449 142.435C174.169 138.219 173.524 133.408 170.755 129.793L168.396 131.601C170.523 134.378 171.018 138.074 169.697 141.312L172.449 142.435ZM170.755 129.793L170.022 128.836L167.662 130.643L168.396 131.601L170.755 129.793ZM170.022 128.836C165.793 123.315 157.716 122.662 152.656 127.434L154.695 129.596C158.474 126.034 164.504 126.521 167.662 130.643L170.022 128.836ZM152.656 127.434C150.625 129.348 149.344 131.924 149.041 134.698L151.996 135.021C152.222 132.949 153.179 131.026 154.695 129.596L152.656 127.434ZM149.041 134.698L147.737 146.635L150.692 146.957L151.996 135.021L149.041 134.698ZM149.215 145.31H147.164V148.282H149.215V145.31ZM147.128 148.282C147.133 148.282 147.137 148.282 147.142 148.282L147.186 145.31C147.166 145.31 147.147 145.31 147.128 145.31V148.282ZM134.825 148.282H147.128V145.31H134.825V148.282ZM132.044 135.02L133.347 146.957L136.302 146.634L134.999 134.698L132.044 135.02ZM129.344 129.596C130.861 131.026 131.818 132.949 132.044 135.02L134.999 134.698C134.696 131.923 133.414 129.348 131.384 127.433L129.344 129.596ZM131.518 146.634L130.271 135.214L127.316 135.537L128.563 146.957L131.518 146.634ZM126.063 148.282H130.041V145.31H126.063V148.282ZM116.487 141.846C118.074 145.738 121.86 148.282 126.063 148.282V145.31C123.068 145.31 120.37 143.497 119.239 140.723L116.487 141.846ZM115.994 140.639L116.487 141.846L119.239 140.723L118.746 139.516L115.994 140.639ZM117.06 132.685C115.318 134.959 114.912 137.986 115.994 140.639L118.746 139.516C118.063 137.841 118.319 135.929 119.419 134.493L117.06 132.685ZM117.793 131.728L117.06 132.685L119.419 134.493L120.153 133.535L117.793 131.728ZM128.121 130.894C125.111 128.056 120.308 128.444 117.793 131.728L120.153 133.535C121.597 131.65 124.354 131.427 126.082 133.056L128.121 130.894ZM130.271 135.214C130.091 133.564 129.329 132.032 128.121 130.894L126.082 133.056C126.775 133.71 127.213 134.589 127.316 135.537L130.271 135.214ZM155.476 146.957L156.723 135.537L153.768 135.214L152.522 146.635L155.476 146.957ZM157.977 145.31H153.999V148.282H157.977V145.31ZM164.801 140.723C163.669 143.497 160.972 145.31 157.977 145.31V148.282C162.18 148.282 165.965 145.738 167.553 141.846L164.801 140.723ZM165.293 139.516L164.801 140.723L167.553 141.846L168.045 140.639L165.293 139.516ZM164.62 134.493C165.72 135.929 165.977 137.841 165.293 139.516L168.045 140.639C169.127 137.987 168.722 134.959 166.98 132.685L164.62 134.493ZM163.887 133.535L164.62 134.493L166.98 132.685L166.246 131.728L163.887 133.535ZM157.958 133.057C159.685 131.428 162.443 131.65 163.887 133.535L166.246 131.728C163.731 128.444 158.928 128.056 155.919 130.894L157.958 133.057ZM156.723 135.537C156.827 134.59 157.264 133.71 157.958 133.057L155.919 130.894C154.711 132.033 153.949 133.564 153.768 135.214L156.723 135.537Z" fill="#636363"/>
<path d="M85.7687 108.807C90.603 96.467 107.948 78.3011 124.744 77.4362" stroke="white" stroke-width="20.2124" stroke-linecap="round"/>
</svg>
