<svg width="343" height="310" viewBox="0 0 343 310" fill="none" xmlns="http://www.w3.org/2000/svg">
<circle r="7.27249" transform="matrix(-0.907647 -0.419734 -0.419734 0.907647 159.491 218.99)" fill="#FFD081" stroke="#4D4D4D" stroke-width="4"/>
<path d="M198.256 197.755L150.564 175.701L145.733 194.379C142.95 205.139 148.43 216.429 158.518 221.094V221.094C168.606 225.759 180.758 222.623 187.153 213.533L198.256 197.755Z" fill="#48DEE2"/>
<path d="M157.894 189.306L150.564 175.701L145.636 198.838C144.026 206.399 148.2 213.997 155.445 216.693V216.693C152.622 212.18 151.781 208.437 157.894 189.306Z" fill="#4CA8AB"/>
<path d="M198.256 197.755L187.041 201.082C173.412 219.928 166.286 219.544 153.675 216.726L157.109 218.667C167.038 224.278 179.578 221.767 186.58 212.765L198.256 197.755Z" fill="#88FCFF"/>
<path d="M185.518 212.382L195.241 198.564L151.9 178.522L147.669 194.88C145.133 204.685 150.129 215.011 159.357 219.279C168.586 223.546 179.69 220.665 185.518 212.382Z" stroke="#4D4D4D" stroke-width="4"/>
<path d="M188.561 208.595L147.23 196.719" stroke="#4D4D4D" stroke-width="4"/>
<path d="M183.089 215.825L148.832 205.981" stroke="#4D4D4D" stroke-width="4"/>
<mask id="path-8-inside-1" fill="white">
<path fill-rule="evenodd" clip-rule="evenodd" d="M149.763 174.251C150.411 172.08 150.01 169.747 148.84 167.807C139.629 152.528 137.915 133.097 145.968 115.684C158.865 87.7957 191.928 75.6425 219.817 88.5394C247.705 101.436 259.859 134.499 246.962 162.388C239.058 179.48 223.579 190.662 206.36 193.789C204.057 194.207 201.969 195.475 200.711 197.448V197.448C198.622 200.721 194.435 201.947 190.91 200.317L153.775 183.145C150.413 181.59 148.704 177.801 149.763 174.251V174.251Z"/>
</mask>
<path fill-rule="evenodd" clip-rule="evenodd" d="M149.763 174.251C150.411 172.08 150.01 169.747 148.84 167.807C139.629 152.528 137.915 133.097 145.968 115.684C158.865 87.7957 191.928 75.6425 219.817 88.5394C247.705 101.436 259.859 134.499 246.962 162.388C239.058 179.48 223.579 190.662 206.36 193.789C204.057 194.207 201.969 195.475 200.711 197.448V197.448C198.622 200.721 194.435 201.947 190.91 200.317L153.775 183.145C150.413 181.59 148.704 177.801 149.763 174.251V174.251Z" fill="#FFD081"/>
<path d="M190.91 200.317L192.589 196.687L190.91 200.317ZM206.36 193.789L205.645 189.853L206.36 193.789ZM153.775 183.145L152.096 186.775L153.775 183.145ZM148.84 167.807L145.414 169.872L148.84 167.807ZM149.598 117.363C142.127 133.521 143.71 151.551 152.266 165.742L145.414 169.872C135.547 153.505 133.704 132.674 142.337 114.005L149.598 117.363ZM218.138 92.17C192.254 80.2003 161.568 91.4798 149.598 117.363L142.337 114.005C156.161 84.1117 191.602 71.0847 221.496 84.9088L218.138 92.17ZM243.331 160.709C255.301 134.826 244.021 104.14 218.138 92.17L221.496 84.9088C251.389 98.7329 264.416 134.173 250.592 164.067L243.331 160.709ZM205.645 189.853C221.638 186.949 235.997 176.569 243.331 160.709L250.592 164.067C242.119 182.391 225.521 194.375 207.075 197.725L205.645 189.853ZM155.454 179.514L192.589 196.687L189.231 203.948L152.096 186.775L155.454 179.514ZM204.083 199.599C200.917 204.56 194.573 206.418 189.231 203.948L192.589 196.687C194.297 197.477 196.326 196.882 197.338 195.296L204.083 199.599ZM207.075 197.725C205.724 197.97 204.668 198.681 204.083 199.599L197.338 195.296C199.27 192.269 202.39 190.445 205.645 189.853L207.075 197.725ZM152.096 186.775C146.929 184.386 144.302 178.563 145.93 173.107L153.596 175.395C153.106 177.039 153.897 178.794 155.454 179.514L152.096 186.775ZM152.266 165.742C153.944 168.526 154.605 172.017 153.596 175.395L145.93 173.107C146.218 172.144 146.076 170.969 145.414 169.872L152.266 165.742Z" fill="#4D4D4D" mask="url(#path-8-inside-1)"/>
<path fill-rule="evenodd" clip-rule="evenodd" d="M178.085 169.401C163.593 160.357 157.763 141.725 165.119 125.818C173.09 108.581 193.525 101.07 210.762 109.041C227.999 117.012 235.51 137.447 227.539 154.683C220.137 170.69 201.986 178.31 185.629 172.932L176.812 186.136L172.604 184.19L178.085 169.401Z" fill="#FFE8C1"/>
<mask id="path-11-inside-2" fill="white">
<path fill-rule="evenodd" clip-rule="evenodd" d="M149.763 174.251C150.411 172.08 150.01 169.747 148.84 167.807C139.629 152.528 137.915 133.097 145.968 115.684C158.865 87.7957 191.928 75.6425 219.817 88.5394C247.705 101.436 259.859 134.499 246.962 162.388C239.058 179.48 223.579 190.662 206.36 193.789C204.057 194.207 201.969 195.475 200.711 197.448V197.448C198.622 200.721 194.435 201.947 190.91 200.317L153.775 183.145C150.413 181.59 148.704 177.801 149.763 174.251V174.251Z"/>
</mask>
<path d="M190.91 200.317L192.589 196.687L190.91 200.317ZM206.36 193.789L205.645 189.853L206.36 193.789ZM153.775 183.145L152.096 186.775L153.775 183.145ZM148.84 167.807L145.414 169.872L148.84 167.807ZM149.598 117.363C142.127 133.521 143.71 151.551 152.266 165.742L145.414 169.872C135.547 153.505 133.704 132.674 142.337 114.005L149.598 117.363ZM218.138 92.17C192.254 80.2003 161.568 91.4798 149.598 117.363L142.337 114.005C156.161 84.1117 191.602 71.0847 221.496 84.9088L218.138 92.17ZM243.331 160.709C255.301 134.826 244.021 104.14 218.138 92.17L221.496 84.9088C251.389 98.7329 264.416 134.173 250.592 164.067L243.331 160.709ZM205.645 189.853C221.638 186.949 235.997 176.569 243.331 160.709L250.592 164.067C242.119 182.391 225.521 194.375 207.075 197.725L205.645 189.853ZM155.454 179.514L192.589 196.687L189.231 203.948L152.096 186.775L155.454 179.514ZM204.083 199.599C200.917 204.56 194.573 206.418 189.231 203.948L192.589 196.687C194.297 197.477 196.326 196.882 197.338 195.296L204.083 199.599ZM207.075 197.725C205.724 197.97 204.668 198.681 204.083 199.599L197.338 195.296C199.27 192.269 202.39 190.445 205.645 189.853L207.075 197.725ZM152.096 186.775C146.929 184.386 144.302 178.563 145.93 173.107L153.596 175.395C153.106 177.039 153.897 178.794 155.454 179.514L152.096 186.775ZM152.266 165.742C153.944 168.526 154.605 172.017 153.596 175.395L145.93 173.107C146.218 172.144 146.076 170.969 145.414 169.872L152.266 165.742Z" fill="#4D4D4D" mask="url(#path-11-inside-2)"/>
<rect x="-2.65476" y="0.975827" width="68.6345" height="9.90874" rx="4.95437" transform="matrix(-0.907647 -0.419734 -0.419734 0.907647 204.016 198.142)" fill="#E5E5E5" stroke="#4D4D4D" stroke-width="4"/>
<path fill-rule="evenodd" clip-rule="evenodd" d="M204.588 141.219C208.955 139.758 213.627 142.394 214.634 146.887L214.827 147.75C215.493 150.718 214.534 153.816 212.309 155.891L211.61 156.542C208.568 159.379 204.111 160.091 200.336 158.345L197.553 157.059L179.151 187.625C178.582 188.571 177.353 188.876 176.406 188.307C175.46 187.737 175.155 186.508 175.724 185.562L193.901 155.37L187.226 152.283C187.219 152.28 187.212 152.277 187.205 152.274L185.538 151.503L174.305 184.906C173.953 185.953 172.819 186.516 171.772 186.164C170.725 185.812 170.162 184.678 170.514 183.631L181.886 149.814L179.103 148.527C175.328 146.781 172.984 142.924 173.175 138.769L173.219 137.814C173.358 134.775 175.098 132.038 177.791 130.623L178.573 130.211C182.649 128.069 187.684 129.921 189.399 134.194C190.087 135.909 190.141 137.813 189.552 139.565L186.821 147.689L187.979 148.224C187.986 148.228 187.993 148.231 188 148.234L195.976 151.922L200.397 144.579C201.35 142.996 202.836 141.805 204.588 141.219ZM203.824 146.642L199.628 153.611L202.014 154.715C204.314 155.778 207.029 155.344 208.883 153.616L209.582 152.965C210.768 151.859 211.279 150.207 210.924 148.625L210.731 147.762C210.242 145.582 207.976 144.303 205.857 145.012C205.007 145.296 204.286 145.874 203.824 146.642ZM185.761 138.29L183.168 146L180.782 144.896C178.482 143.833 177.055 141.483 177.171 138.952L177.215 137.997C177.289 136.377 178.217 134.918 179.652 134.163L180.435 133.752C182.412 132.712 184.854 133.611 185.686 135.684C186.02 136.516 186.047 137.44 185.761 138.29Z" fill="#4D4D4D"/>
<path d="M210.314 97.1876C217.147 99.8542 232.214 108.188 237.814 128.188" stroke="white" stroke-width="4" stroke-linecap="round"/>
<path d="M239.814 148.188C240.147 147.521 240.614 144.488 239.814 137.688" stroke="white" stroke-width="4" stroke-linecap="round"/>
<path d="M233.332 26.6568C229.965 25.7594 228.864 24.3646 227.676 20.9999C227.191 24.5083 225.983 25.7699 222.019 26.6568C226.044 27.4783 227.285 28.7152 227.676 32.3137C228.746 28.4582 230.014 27.2636 233.332 26.6568Z" fill="#4D4D4D"/>
<path d="M336.314 282.657C332.947 281.759 331.845 280.365 330.657 277C330.172 280.508 328.964 281.77 325 282.657C329.025 283.478 330.266 284.715 330.657 288.314C331.728 284.458 332.995 283.264 336.314 282.657Z" fill="#4D4D4D"/>
<path d="M298.314 181.657C294.947 180.759 293.845 179.365 292.657 176C292.172 179.508 290.964 180.77 287 181.657C291.025 182.478 292.266 183.715 292.657 187.314C293.728 183.458 294.995 182.264 298.314 181.657Z" fill="#4D4D4D"/>
<path d="M71.3324 214.657C67.9653 213.759 66.8638 212.365 65.6755 209C65.1908 212.508 63.9828 213.77 60.0187 214.657C64.044 215.478 65.2847 216.715 65.6755 220.314C66.7462 216.458 68.0137 215.264 71.3324 214.657Z" fill="#4D4D4D"/>
<circle r="8" transform="matrix(-1 0 0 1 317.332 102)" fill="#F89790" stroke="#4D4D4D" stroke-width="4"/>
<path d="M37.3324 299.5C37.3324 304.194 41.138 308 45.8324 308C50.5268 308 54.3324 304.194 54.3324 299.5C54.3324 294.806 50.5268 291 45.8324 291C41.138 291 37.3324 294.806 37.3324 299.5Z" fill="#88FCFF" stroke="#4D4D4D" stroke-width="4"/>
<path d="M234.332 256C234.332 260.418 237.914 264 242.332 264C246.751 264 250.332 260.418 250.332 256C250.332 251.582 246.751 248 242.332 248C237.914 248 234.332 251.582 234.332 256Z" fill="#F89790"/>
<circle r="25.3382" transform="matrix(-0.804702 0.593679 0.593679 0.804702 47.666 57.4582)" fill="#F2463A"/>
<path fill-rule="evenodd" clip-rule="evenodd" d="M29.2581 40.04C37.1933 36.8098 48.4197 41.4079 55.822 51.4413C63.2239 61.4742 64.3047 73.5569 58.8776 80.1857C60.1989 79.532 61.4812 78.7535 62.7088 77.8479C73.9697 69.54 76.3636 53.6763 68.0557 42.4154C59.7478 31.1545 43.8842 28.7606 32.6233 37.0685C31.3953 37.9744 30.2728 38.9702 29.2581 40.04Z" fill="#F56F65"/>
<circle r="25.3382" transform="matrix(-0.804702 0.593679 0.593679 0.804702 47.666 57.4582)" stroke="#4D4D4D" stroke-width="4"/>
<path d="M65.7072 39.2319C73.7168 34.4768 79.3396 32.102 80.2897 33.3898C81.9512 35.642 68.6922 48.2435 50.6747 61.5361C32.6573 74.8287 16.7043 83.7788 15.0427 81.5266C14.0799 80.2216 18.1266 75.442 25.2057 69.0665" stroke="#4D4D4D" stroke-width="4"/>
<path d="M58.0196 45.8836C56.5154 43.8446 51.8439 41.7807 49.0528 42.2655" stroke="white" stroke-width="4" stroke-linecap="round"/>
</svg>
