<svg width="482" height="486" viewBox="0 0 482 486" fill="none" xmlns="http://www.w3.org/2000/svg">
<path fill-rule="evenodd" clip-rule="evenodd" d="M379.639 357.666C381.699 350.046 393.499 303.436 370.639 260.746C363.299 247.036 359.889 247.746 316.639 200.446C285.059 165.906 269.089 148.286 260.389 131.526C245.519 102.876 251.599 95.9562 235.639 69.0662C227.919 56.0662 214.039 32.6762 188.389 17.3762C151.869 -4.40378 94.0993 -8.22378 53.3893 21.6862C9.14932 54.1662 8.38932 109.316 8.38932 116.446C8.45932 147.516 22.1093 154.276 21.8893 191.826C21.7093 222.106 12.7393 232.826 6.13932 262.906C3.02932 277.036 -8.15068 334.466 10.6393 381.356C33.0093 437.196 95.9693 473.356 152.389 482.586C250.729 498.616 358.059 437.336 379.639 357.666Z" fill="#E9E9E9"/>
<path d="M268.19 233.585L254.079 220.133C298.14 207.707 321.229 201.154 323.287 200.488L323.29 200.487C324.712 200.022 325.917 198.949 326.921 197.672C327.933 196.384 328.809 194.803 329.548 193.182C330.753 190.54 331.636 187.7 332.167 185.638C332.927 186.124 333.325 186.594 333.558 187.036C333.904 187.693 333.974 188.427 334.043 189.506C334.045 189.541 334.047 189.576 334.049 189.612C334.114 190.63 334.192 191.873 334.675 193.248C335.176 194.676 336.089 196.194 337.765 197.827C338.191 198.332 338.684 198.714 339.249 198.937C339.836 199.167 340.44 199.204 341.031 199.098C342.169 198.895 343.27 198.164 344.281 197.268C346.306 195.477 348.462 192.572 350.472 189.865L350.511 189.812C352.59 187.013 354.492 184.461 356.08 183.149C356.899 182.473 357.399 182.329 357.65 182.358C357.785 182.374 358.146 182.483 358.549 183.464C358.55 183.478 358.552 183.498 358.553 183.526C358.558 183.627 358.556 183.776 358.544 183.976C358.519 184.375 358.457 184.912 358.361 185.557C358.168 186.844 357.847 188.501 357.448 190.223C357.048 191.945 356.575 193.715 356.082 195.232C355.592 196.736 355.111 197.901 354.702 198.539C351.382 202.301 346.144 204.717 341.298 206.273C337.665 207.439 334.431 208.075 332.427 208.47C331.735 208.606 331.189 208.714 330.825 208.804C329.886 209.024 327.863 209.72 324.832 210.85C321.764 211.995 317.599 213.609 312.339 215.691C301.927 219.814 287.21 225.779 268.19 233.585Z" fill="white" stroke="black" stroke-width="2"/>
<path d="M201.657 116.046L201.761 115.563L201.44 115.187C196.941 109.917 193.971 103.566 194.477 96.447L194.477 96.446C194.834 91.3526 196.856 87.9077 199.705 85.6992C202.581 83.469 206.396 82.4271 210.428 82.356C214.456 82.2849 218.625 83.1857 222.125 84.7535C225.645 86.3299 228.374 88.5264 229.678 90.9586C232.448 96.1247 233.73 105.461 233.35 113.832C233.162 117.999 232.564 121.84 231.579 124.727C231.086 126.172 230.511 127.335 229.873 128.176C229.236 129.016 228.581 129.48 227.93 129.648C226.712 129.96 224.6 129.754 221.866 128.905C219.18 128.071 216.045 126.664 212.863 124.758L211.066 123.682L211.359 125.756L215.268 153.366H193.657L201.657 116.046Z" fill="white" stroke="#636363" stroke-width="2"/>
<path fill-rule="evenodd" clip-rule="evenodd" d="M207.169 112.186C208.269 124.066 207.829 137.626 204.539 140.846H175.539C173.919 112.776 189.539 123.646 189.539 97.2162C190.539 96.2662 191.429 95.3162 192.339 94.5062V93.7262C197.359 83.4462 203.729 78.3062 211.449 78.3062C223.029 78.3062 226.689 83.6962 229.799 88.3062C227.469 96.3062 218.439 97.4761 210.409 102.446C209.725 101.891 208.918 101.508 208.056 101.33C207.194 101.152 206.301 101.183 205.453 101.422C204.605 101.66 203.827 102.099 203.184 102.701C202.541 103.303 202.052 104.05 201.758 104.88C201.464 105.71 201.374 106.599 201.495 107.471C201.616 108.344 201.944 109.174 202.453 109.893C202.962 110.612 203.636 111.198 204.418 111.602C205.2 112.007 206.069 112.217 206.949 112.216L207.169 112.186Z" fill="#32386B"/>
<path fill-rule="evenodd" clip-rule="evenodd" d="M436.499 295.836C437.737 297.795 439.288 299.538 441.089 300.996C443.32 302.415 445.661 303.652 448.089 304.696L479.859 258.096C476.679 254.156 474.039 253.383 471.939 255.776C469.849 258.166 468.079 260.136 466.649 261.686L442.229 276.766C442.117 276.835 442.019 276.925 441.941 277.032C441.864 277.138 441.808 277.259 441.777 277.387C441.746 277.516 441.742 277.649 441.763 277.779C441.783 277.909 441.83 278.034 441.899 278.146L444.329 281.836C444.054 284.322 443.264 286.723 442.009 288.886C440.629 290.56 438.929 291.944 437.009 292.956C436.557 293.23 436.231 293.672 436.103 294.186C435.976 294.699 436.057 295.242 436.329 295.696C436.379 295.75 436.437 295.797 436.499 295.836Z" fill="#E4E4E4"/>
<mask id="path-6-inside-1" fill="white">
<path fill-rule="evenodd" clip-rule="evenodd" d="M438.499 298.836C439.737 300.795 441.288 302.538 443.089 303.996C445.32 305.415 447.661 306.652 450.089 307.696L481.859 261.096C478.679 257.156 476.039 256.383 473.939 258.776C471.849 261.166 470.079 263.136 468.649 264.686L444.229 279.766C444.117 279.835 444.019 279.925 443.941 280.032C443.864 280.138 443.808 280.259 443.777 280.387C443.746 280.516 443.742 280.649 443.763 280.779C443.783 280.909 443.83 281.034 443.899 281.146L446.329 284.836C446.054 287.322 445.264 289.723 444.009 291.886C442.629 293.56 440.929 294.944 439.009 295.956C438.557 296.23 438.231 296.672 438.103 297.186C437.976 297.699 438.057 298.242 438.329 298.696C438.379 298.75 438.437 298.797 438.499 298.836Z"/>
</mask>
<path d="M438.499 298.836L440.19 297.768L439.945 297.379L439.555 297.137L438.499 298.836ZM443.089 303.996L441.831 305.551L441.92 305.622L442.016 305.684L443.089 303.996ZM450.089 307.696L449.3 309.534L450.814 310.184L451.742 308.823L450.089 307.696ZM481.859 261.096L483.512 262.223L484.348 260.996L483.416 259.84L481.859 261.096ZM473.939 258.776L472.436 257.457L472.434 257.46L473.939 258.776ZM468.649 264.686L469.7 266.388L469.933 266.244L470.119 266.042L468.649 264.686ZM444.229 279.766L445.27 281.474L445.28 281.468L444.229 279.766ZM446.329 284.836L448.317 285.056L448.397 284.339L448 283.736L446.329 284.836ZM444.009 291.886L445.552 293.159L445.657 293.032L445.739 292.889L444.009 291.886ZM438.329 298.696L436.614 299.725L436.722 299.904L436.864 300.058L438.329 298.696ZM436.809 299.905C438.163 302.048 439.86 303.955 441.831 305.551L444.348 302.441C442.716 301.121 441.311 299.542 440.19 297.768L436.809 299.905ZM442.016 305.684C444.337 307.16 446.772 308.447 449.3 309.534L450.879 305.859C448.549 304.857 446.303 303.67 444.163 302.309L442.016 305.684ZM451.742 308.823L483.512 262.223L480.207 259.969L448.437 306.569L451.742 308.823ZM483.416 259.84C481.755 257.783 479.979 256.205 478.057 255.642C477.041 255.344 475.99 255.333 474.969 255.682C473.967 256.025 473.13 256.666 472.436 257.457L475.443 260.095C475.799 259.69 476.079 259.53 476.262 259.467C476.426 259.411 476.627 259.391 476.932 259.48C477.65 259.691 478.783 260.469 480.303 262.352L483.416 259.84ZM472.434 257.46C470.353 259.839 468.595 261.795 467.179 263.33L470.119 266.042C471.564 264.477 473.345 262.493 475.445 260.093L472.434 257.46ZM467.599 262.984L443.178 278.064L445.28 281.468L469.7 266.388L467.599 262.984ZM443.188 278.058C442.85 278.264 442.557 278.535 442.324 278.855L445.558 281.208C445.481 281.315 445.383 281.405 445.27 281.474L443.188 278.058ZM442.324 278.855C442.092 279.174 441.924 279.537 441.832 279.922L445.722 280.853C445.692 280.981 445.636 281.102 445.558 281.208L442.324 278.855ZM441.832 279.922C441.74 280.308 441.725 280.707 441.788 281.097L445.737 280.461C445.758 280.591 445.753 280.724 445.722 280.853L441.832 279.922ZM441.788 281.097C441.851 281.487 441.99 281.862 442.198 282.198L445.6 280.094C445.67 280.206 445.716 280.331 445.737 280.461L441.788 281.097ZM442.229 282.246L444.659 285.936L448 283.736L445.57 280.046L442.229 282.246ZM444.341 284.616C444.097 286.825 443.395 288.96 442.279 290.883L445.739 292.889C447.134 290.486 448.011 287.818 448.317 285.056L444.341 284.616ZM442.466 290.614C441.254 292.084 439.762 293.298 438.076 294.187L439.942 297.725C442.096 296.589 444.003 295.037 445.552 293.159L442.466 290.614ZM437.974 294.245C437.069 294.792 436.417 295.677 436.162 296.704L440.044 297.667L440.044 297.667L437.974 294.245ZM436.162 296.704C435.907 297.731 436.07 298.817 436.614 299.725L440.044 297.667L440.044 297.667L436.162 296.704ZM436.864 300.058C437.036 300.242 437.231 300.402 437.444 300.535L439.555 297.137C439.643 297.192 439.723 297.258 439.794 297.335L436.864 300.058Z" fill="#636363" mask="url(#path-6-inside-1)"/>
<path fill-rule="evenodd" clip-rule="evenodd" d="M476.419 334.476C474.749 311.946 451.769 296.476 433.769 287.086C433.061 289.379 432.638 291.75 432.509 294.146C432.638 291.75 433.061 289.379 433.769 287.086C428.769 284.496 424.239 282.356 420.599 280.646C391.709 267.146 376.699 269.646 306.959 260.716C228.269 250.716 217.179 243.656 209.279 234.796C195.419 219.266 201.499 209.446 179.369 169.006C166.369 145.296 153.889 122.436 139.499 123.156C126.589 123.806 118.079 143.156 109.599 163.026C94.9994 197.246 73.2794 248.136 93.5994 306.566C97.4894 317.746 105.489 339.916 125.499 360.396C153.179 388.716 176.499 395.946 352.759 398.266C389.489 398.756 433.109 389.586 460.489 368.756C464.429 365.836 478.279 359.666 476.419 334.476Z" fill="#D1D5FF"/>
<path fill-rule="evenodd" clip-rule="evenodd" d="M85.5093 271.146C97.2154 295.677 113.509 317.741 133.509 336.146C189.759 387.656 261.429 396.146 283.509 396.756L243.509 395.756L220.509 393.756L192.509 390.756C175.509 389.756 157.509 382.756 149.509 377.146C99.4093 342.146 86.2593 278.836 85.5093 271.146Z" fill="#8991DC"/>
<path d="M157.087 203.403L176.418 199.931C162.797 256.425 155.7 286.042 155.14 288.733L155.14 288.736C154.442 292.145 155.898 295.866 157.721 299.109C159.074 301.515 160.73 303.821 162.07 305.688C162.302 306.011 162.524 306.321 162.734 306.616C161.867 307.005 161.198 306.962 160.609 306.764C159.806 306.496 159.075 305.927 158.151 305.209C158.028 305.114 157.902 305.016 157.772 304.915C156.74 304.119 155.48 303.211 153.9 302.95C152.262 302.68 150.466 303.124 148.382 304.6C146.748 305.755 145.241 307.045 143.807 308.271C143.65 308.406 143.493 308.54 143.337 308.673C141.745 310.031 140.24 311.282 138.665 312.257C137.101 313.227 135.5 313.902 133.736 314.126C131.978 314.349 129.992 314.13 127.644 313.215C127.331 313.091 126.832 312.643 126.661 311.995C126.514 311.438 126.575 310.581 127.635 309.525C130.823 306.352 134.636 302.103 137.761 298.254C139.323 296.329 140.723 294.493 141.789 292.933C142.822 291.422 143.629 290.051 143.892 289.088C144.223 287.952 144.742 285.297 145.446 281.201C146.156 277.066 147.064 271.402 148.17 264.211C150.363 249.956 153.335 229.686 157.087 203.403Z" fill="white" stroke="#636363" stroke-width="2"/>
<path d="M384.947 276.935L381.65 257.518C389.865 257.393 397.921 257.297 405.229 257.209C409.582 257.157 413.67 257.108 417.368 257.058C422.464 256.99 426.821 256.919 430.104 256.835C433.35 256.753 435.63 256.657 436.507 256.525C437.672 256.352 438.767 256.813 439.702 257.769C440.648 258.734 441.369 260.156 441.696 261.686C442.024 263.219 441.935 264.759 441.388 265.971C440.858 267.144 439.878 268.069 438.244 268.429C428.313 270.616 404.441 274.684 384.947 276.935Z" fill="white" stroke="black" stroke-width="2"/>
<path d="M445.164 283.454L445.169 283.454C446.36 283.526 447.308 284.176 447.982 285.217C448.667 286.276 449.037 287.706 449.004 289.16C448.972 290.614 448.54 291.995 447.738 292.99C446.96 293.956 445.79 294.618 444.1 294.616H444.1C433.935 294.606 409.802 293.515 390.322 291.578L391.561 273.165C399.378 274.689 407.042 276.208 414.028 277.591C418.482 278.474 422.661 279.301 426.426 280.041C431.399 281.018 435.653 281.842 438.867 282.435C442.046 283.021 444.283 283.397 445.164 283.454Z" fill="white" stroke="black" stroke-width="2"/>
<path fill-rule="evenodd" clip-rule="evenodd" d="M433.509 280.146C433.509 280.146 432.899 279.216 432.509 279.146C421.639 277.366 350.509 263.146 325.509 251.146C309.989 246.836 222.319 236.216 209.119 234.526L185.279 287.206C202.629 289.436 307.149 280.356 316.199 280.926C316.623 280.957 317.05 280.937 317.469 280.866C326.839 282.866 343.609 285.866 362.469 288.866C382.059 291.866 418.139 296.946 431.529 297.196C431.529 292.546 432.599 286.856 433.529 282.196C433.56 281.513 433.553 280.829 433.509 280.146Z" fill="#32386B"/>
<path fill-rule="evenodd" clip-rule="evenodd" d="M294.539 257.756C269.539 261.756 241.709 257.046 229.539 255.756L169.539 251.146C170.539 286.146 183.039 305.076 213.219 305.076C234.159 305.076 295.329 295.356 297.519 294.756C297.759 294.686 319.789 290.756 336.519 286.756C365.729 279.686 405.819 275.246 422.269 273.586C422.52 273.583 422.766 273.523 422.99 273.412C423.214 273.3 423.409 273.139 423.562 272.941C423.715 272.743 423.821 272.512 423.873 272.267C423.924 272.023 423.92 271.769 423.859 271.526L419.519 254.756C412.339 253.956 350.519 257.756 318.519 255.756C310.599 255.256 296.949 257.366 294.539 257.756Z" fill="#5C63AB"/>
<path fill-rule="evenodd" clip-rule="evenodd" d="M204.369 140.306L221.509 141.456C225.739 179.656 248.729 203.786 300.229 195.616L307.119 244.836C258.989 251.056 216.779 231.786 208.119 179.616C205.839 166.086 204.119 152.026 204.369 140.306Z" fill="#E9E9E9"/>
<path d="M244.533 183.717C257.37 193.599 275.983 197.61 301.38 193.76L307.988 240.97C284.456 243.842 262.495 240.533 245.332 230.264C227.955 219.867 215.392 202.274 211.106 176.452L211.105 176.45C208.896 163.34 207.224 149.786 207.352 138.374L222.611 139.398C224.848 158.284 231.718 173.853 244.533 183.717Z" stroke="#636363" stroke-width="2"/>
<path fill-rule="evenodd" clip-rule="evenodd" d="M195.909 137.326L221.909 143.276C221.909 187.956 236.139 216.456 245.439 260.146H175.259C172.259 260.666 171.669 272.326 171.349 284.306H118.819C130.719 220.973 155.843 171.973 194.189 137.306H195.899L195.909 137.326Z" fill="white"/>
<path d="M196.575 135.306H197.709L222.911 141.074C222.994 163.168 226.543 181.333 231.219 199.334C232.843 205.587 234.598 211.804 236.391 218.154C239.733 229.994 243.206 242.294 246.202 256.146H177.259H177.173L177.089 256.161C176.386 256.283 175.85 256.717 175.453 257.23C175.058 257.738 174.745 258.393 174.486 259.12C173.967 260.578 173.591 262.544 173.307 264.804C172.768 269.091 172.535 274.653 172.376 280.306H122.027C133.956 217.865 158.826 169.562 196.575 135.306Z" stroke="#636363" stroke-width="2"/>
<path fill-rule="evenodd" clip-rule="evenodd" d="M432.479 268.376C434.164 269.973 436.095 271.286 438.199 272.266C440.719 273.096 443.3 273.725 445.919 274.146L465.379 221.206C461.379 218.206 458.589 218.046 457.129 220.886C455.669 223.726 454.449 226.056 453.439 227.886L433.439 248.466C433.253 248.654 433.148 248.907 433.148 249.171C433.148 249.435 433.253 249.689 433.439 249.876L436.699 252.876C437.033 255.354 436.85 257.874 436.159 260.276C435.248 262.231 433.952 263.983 432.349 265.426C432.163 265.612 432.016 265.833 431.915 266.075C431.815 266.318 431.763 266.578 431.763 266.841C431.763 267.104 431.815 267.364 431.915 267.607C432.016 267.85 432.163 268.07 432.349 268.256L432.479 268.376Z" fill="#E4E4E4"/>
<path d="M434.167 271.65L434.167 271.65L434.157 271.641L434.044 271.537C433.957 271.447 433.887 271.341 433.839 271.224C433.789 271.103 433.763 270.973 433.763 270.841C433.763 270.71 433.789 270.58 433.839 270.458C433.887 270.343 433.955 270.238 434.041 270.149C435.733 268.619 437.101 266.766 438.066 264.699L438.099 264.628L438.12 264.552C438.849 262.017 439.043 259.357 438.69 256.743L438.642 256.385L438.376 256.14L435.149 253.171L435.156 253.163L455.156 232.583L455.25 232.487L455.315 232.369C456.332 230.526 457.558 228.185 459.019 225.343C459.323 224.75 459.664 224.38 460.009 224.159C460.347 223.944 460.75 223.833 461.258 223.855C462.217 223.897 463.516 224.413 465.179 225.572L446.267 277.021C443.998 276.617 441.759 276.054 439.568 275.335C437.583 274.403 435.759 273.159 434.167 271.65Z" stroke="#636363" stroke-width="2"/>
<path d="M342.329 146.636L349.649 152.756C350.649 153.576 351.169 156.126 350.859 158.446L345.329 199.306C345.019 201.636 343.969 202.846 342.989 202.026L335.669 195.916C334.669 195.096 334.139 192.546 334.449 190.216L339.979 149.356C340.289 147.036 341.349 145.836 342.329 146.636Z" fill="#F89790"/>
<path d="M354.599 158.576C354.909 156.246 354.369 153.706 353.389 152.886L346.069 146.766L342.329 146.636L349.649 152.756C350.649 153.576 351.169 156.126 350.859 158.446L345.329 199.306C345.079 201.166 344.329 202.306 343.589 202.306L347.319 202.436C348.099 202.436 348.819 201.306 349.069 199.436L354.599 158.576Z" fill="#F2463A"/>
<path d="M339.984 194.725C340.138 193.632 339.966 192.703 339.599 192.652C339.233 192.6 338.811 193.445 338.657 194.539C338.504 195.633 338.676 196.561 339.042 196.613C339.409 196.664 339.831 195.819 339.984 194.725Z" fill="#F2463A"/>
</svg>
