<svg width="685" height="336" viewBox="0 0 685 336" fill="none" xmlns="http://www.w3.org/2000/svg">
<path fill-rule="evenodd" clip-rule="evenodd" d="M615.119 13.8361C591.939 -26.6939 400.239 34.3261 242.119 109.836C116.539 169.836 53.7494 199.836 56.1194 234.836C60.7794 303.616 297.749 373.066 495.119 312.836C595.649 282.156 691.499 216.136 684.119 170.836C678.569 136.776 616.589 126.286 608.119 72.8361C602.989 40.4361 623.169 27.9161 615.119 13.8361Z" fill="#E9E9E9"/>
<path opacity="0.85" d="M544.299 138.836C551.374 138.836 557.109 135.899 557.109 132.276C557.109 128.653 551.374 125.716 544.299 125.716C537.225 125.716 531.489 128.653 531.489 132.276C531.489 135.899 537.225 138.836 544.299 138.836Z" fill="#333333"/>
<path d="M596.449 184.976L604.759 195.556L604.789 195.596L526.559 197.516L505.109 153.816L572.009 151.886L572.179 151.876L572.279 152.006L572.239 152.416L596.449 184.976Z" fill="#F56F65"/>
<path d="M526.559 197.516L604.789 195.596L604.759 195.556L612.379 124.286L579.569 78.7161L581.159 79.056L613.849 124.406L606.199 195.086L605.449 195.576L605.639 195.566V195.586L605.589 196.606L605.449 199.356L526.379 201.296L526.559 197.516Z" fill="#F2463A"/>
<path d="M603.729 191.146L573.899 150.506L580.499 82.0862L610.969 125.546L603.729 191.146Z" fill="#F89790"/>
<path d="M454.287 176.869L499.011 169.091L499.193 169.06L499.352 168.965C507.59 164.051 516.968 161.374 526.558 161.198C527.159 161.365 527.751 161.637 528.226 161.969C528.748 162.334 529.035 162.704 529.132 162.995C529.205 163.21 529.211 163.473 528.895 163.851C528.546 164.269 527.817 164.793 526.45 165.323C522.202 165.735 519.028 166.991 517.009 168.517C515.991 169.286 515.232 170.151 514.805 171.046C514.376 171.946 514.259 172.94 514.669 173.841C515.069 174.719 515.815 175.21 516.519 175.528C517.038 175.762 517.649 175.948 518.198 176.116C518.365 176.166 518.526 176.216 518.677 176.264C520.084 176.713 521.012 177.185 521.35 178.337C521.288 178.396 521.141 178.505 520.835 178.633C520.087 178.944 518.792 179.205 516.862 179.37C513.037 179.696 507.088 179.621 498.98 179.128L498.739 179.113L498.518 179.21L462.541 194.965L454.287 176.869Z" fill="white" stroke="#636363" stroke-width="2"/>
<path fill-rule="evenodd" clip-rule="evenodd" d="M365.599 137.756L397.749 122.556C416.299 136.556 423.859 170.096 436.219 174.556C447.899 178.756 462.919 170.796 482.599 165.306L490.199 187.486C472.309 202.486 434.199 207.396 418.739 200.146C394.049 188.546 364.709 161.206 365.599 137.756Z" fill="#4B518C"/>
<path d="M132.372 210.437L132.399 210.434L132.426 210.429L238.595 190.31L232.218 225.391L41.7307 233.545L43.4352 222.338L132.372 210.437Z" fill="white" stroke="#636363" stroke-width="2"/>
<path d="M93.9942 182.036C83.9115 171.074 72.2752 156.302 59.86 136.593L66.5559 129.562C78.5498 143.681 91.3984 157.051 105.029 169.598L93.9942 182.036Z" fill="white" stroke="#636363" stroke-width="2"/>
<path fill-rule="evenodd" clip-rule="evenodd" d="M53.6294 216.156C52.3956 213.773 50.7848 211.605 48.8594 209.736C46.4273 207.866 43.849 206.194 41.1494 204.736L0.149414 255.486C3.41608 260.353 6.3694 261.506 9.0094 258.946C11.6494 256.386 13.8694 254.283 15.6694 252.636L45.1893 237.636C45.462 237.495 45.6684 237.252 45.7638 236.961C45.8592 236.669 45.836 236.351 45.6993 236.076L43.2694 231.566C44.1827 227.939 45.3027 225.303 46.6294 223.656C48.349 221.852 50.4175 220.416 52.7094 219.436C53.2487 219.15 53.6551 218.665 53.8419 218.084C54.0287 217.503 53.9811 216.872 53.7094 216.326C53.6794 216.246 53.6594 216.196 53.6294 216.156Z" fill="#F2463A"/>
<path d="M255.851 229.318L60.0231 237.622L61.3278 196.668L242.519 196.985L255.851 229.318Z" fill="#E9E9E9" stroke="#636363" stroke-width="2"/>
<path d="M417.674 106L417.993 105.621L417.885 105.138C416.152 97.3734 416.549 89.3145 420.848 82.4256L420.848 82.4247C423.934 77.4671 427.833 75.0708 431.918 74.3811C436.038 73.6852 440.468 74.7075 444.589 76.8233C448.705 78.9371 452.444 82.1082 455.152 85.5924C457.873 89.0934 459.476 92.8082 459.499 96.0034C459.547 102.732 455.861 112.835 451.024 121.051C448.614 125.143 445.963 128.692 443.423 131.073C442.152 132.263 440.942 133.131 439.836 133.639C438.731 134.147 437.793 134.268 437.008 134.075L437.005 134.075C435.579 133.728 433.536 132.358 431.227 130.02C428.954 127.718 426.537 124.594 424.347 120.942L423.262 119.133L422.548 121.118L411.751 151.136L389.677 139.268L417.674 106Z" fill="white" stroke="#636363" stroke-width="2"/>
<path fill-rule="evenodd" clip-rule="evenodd" d="M437.969 95.1061C432.103 108.439 431.153 116.186 435.119 118.346C441.119 121.536 448.119 120.466 450.739 121.876C452.639 122.876 450.959 125.046 448.739 126.136C446.919 127.026 441.109 125.716 439.909 127.966C438.709 130.216 443.649 130.626 442.909 131.966C441.729 134.176 440.239 138.716 436.389 136.656C432.539 134.596 422.069 127.166 423.199 120.366C423.939 115.973 427.223 107.826 433.049 95.9261C432.823 95.7744 432.589 95.6342 432.349 95.506C431.154 94.8605 429.793 94.5878 428.441 94.7229C427.09 94.8581 425.809 95.395 424.766 96.2644C423.722 97.1339 422.963 98.2959 422.585 99.6009C422.208 100.906 422.23 102.294 422.649 103.586C420.209 104.806 417.559 106.026 414.649 107.186C410.029 99.526 411.279 85.016 423.879 77.186C428.649 72.596 434.349 71.836 439.959 73.066C444.444 73.4388 448.672 75.3132 451.959 78.386C458.439 82.606 463.399 87.916 464.469 90.056C461.079 96.466 458.829 97.706 448.289 91.836C444.969 91.836 441.709 93.1261 437.969 95.1061Z" fill="#4D4D4D"/>
<path fill-rule="evenodd" clip-rule="evenodd" d="M63.8894 186.906L74.8894 142.246L159.989 191.956L178.478 191.843C195.817 185.43 239.282 162.336 245.119 159.076C250.309 156.176 261.839 152.956 268.669 152.956C276.215 153.184 283.662 154.738 290.669 157.546C306.799 164.436 313.279 198.816 303.579 215.666C296.742 227.564 281.565 229.808 278.526 230.194L277.799 235.446L139.189 243.766L63.8894 186.906Z" fill="white"/>
<mask id="path-15-inside-1" fill="white">
<path fill-rule="evenodd" clip-rule="evenodd" d="M68.8894 181.906L79.8894 137.246L164.989 186.956L183.478 186.843C200.817 180.43 244.282 157.336 250.119 154.076C255.309 151.176 266.839 147.956 273.669 147.956C281.215 148.184 288.662 149.738 295.669 152.546C311.799 159.436 318.279 193.816 308.579 210.666C301.742 222.564 286.565 224.808 283.526 225.194L282.799 230.446L144.189 238.766L68.8894 181.906Z"/>
</mask>
<path d="M79.8894 137.246L80.8982 135.519L78.5874 134.169L77.9474 136.768L79.8894 137.246ZM68.8894 181.906L66.9474 181.428L66.6322 182.708L67.6842 183.502L68.8894 181.906ZM164.989 186.956L163.981 188.683L164.454 188.959L165.002 188.956L164.989 186.956ZM183.478 186.843L183.49 188.843L183.842 188.841L184.172 188.719L183.478 186.843ZM250.119 154.076L251.095 155.822L251.095 155.822L250.119 154.076ZM273.669 147.956L273.73 145.957L273.7 145.956H273.669V147.956ZM295.669 152.546L296.455 150.707L296.434 150.698L296.413 150.69L295.669 152.546ZM308.579 210.666L306.846 209.668L306.845 209.67L308.579 210.666ZM283.526 225.194L283.274 223.21L281.755 223.403L281.545 224.92L283.526 225.194ZM282.799 230.446L282.919 232.443L284.556 232.344L284.781 230.72L282.799 230.446ZM144.189 238.766L142.984 240.362L143.573 240.807L144.309 240.763L144.189 238.766ZM77.9474 136.768L66.9474 181.428L70.8314 182.384L81.8314 137.724L77.9474 136.768ZM165.998 185.229L80.8982 135.519L78.8806 138.973L163.981 188.683L165.998 185.229ZM183.466 184.843L164.977 184.956L165.002 188.956L183.49 188.843L183.466 184.843ZM249.144 152.33C243.288 155.601 199.955 178.616 182.784 184.967L184.172 188.719C201.68 182.243 245.276 159.072 251.095 155.822L249.144 152.33ZM273.669 145.956C270.005 145.956 265.224 146.809 260.765 147.996C256.308 149.183 251.947 150.764 249.144 152.33L251.095 155.822C253.482 154.488 257.481 153.009 261.794 151.861C266.105 150.714 270.504 149.956 273.669 149.956V145.956ZM296.413 150.69C289.188 147.794 281.51 146.192 273.73 145.957L273.609 149.955C280.92 150.176 288.136 151.682 294.925 154.403L296.413 150.69ZM310.313 211.664C315.498 202.657 316.248 189.292 313.768 177.461C312.52 171.505 310.429 165.81 307.562 161.121C304.702 156.445 300.992 152.645 296.455 150.707L294.884 154.385C298.412 155.892 301.56 158.974 304.149 163.208C306.731 167.43 308.678 172.675 309.853 178.281C312.221 189.575 311.361 201.825 306.846 209.668L310.313 211.664ZM283.778 227.178C285.372 226.976 290.129 226.29 295.398 224.093C300.658 221.9 306.597 218.13 310.313 211.663L306.845 209.67C303.724 215.101 298.655 218.401 293.858 220.401C289.07 222.397 284.719 223.026 283.274 223.21L283.778 227.178ZM284.781 230.72L285.507 225.468L281.545 224.92L280.818 230.172L284.781 230.72ZM144.309 240.763L282.919 232.443L282.68 228.45L144.069 236.77L144.309 240.763ZM67.6842 183.502L142.984 240.362L145.395 237.17L70.0946 180.31L67.6842 183.502Z" fill="#636363" mask="url(#path-15-inside-1)"/>
<path fill-rule="evenodd" clip-rule="evenodd" d="M265.039 139.836C272.279 182.383 277.613 213.683 281.039 233.736C281.769 238.026 287.759 236.156 290.739 235.006C325.189 221.696 400.539 184.006 416.499 144.886L407.739 116.886C368.279 100.666 324.629 134.126 265.039 139.836Z" fill="#8991DC"/>
<path fill-rule="evenodd" clip-rule="evenodd" d="M76.4893 133.686C76.2781 131.008 75.6365 128.381 74.5892 125.906C73.0637 123.241 71.3318 120.7 69.4093 118.306L11.9692 148.926C13.0892 154.686 15.3626 156.91 18.7893 155.596C22.216 154.283 25.0759 153.216 27.3693 152.396L60.3693 150.136C60.5204 150.126 60.668 150.086 60.8037 150.019C60.9394 149.951 61.0605 149.858 61.1599 149.744C61.2593 149.629 61.3351 149.496 61.3831 149.353C61.431 149.209 61.4501 149.057 61.4392 148.906L60.9492 143.796C63.1892 140.796 65.2392 138.796 67.0992 137.796C69.3892 136.822 71.8507 136.315 74.3392 136.306C74.9513 136.268 75.5233 135.988 75.9299 135.529C76.3366 135.07 76.5449 134.468 76.5093 133.856C76.5075 133.799 76.5008 133.742 76.4893 133.686Z" fill="#F2463A"/>
<path d="M469.052 195.231L514.192 191.012L514.379 190.994L514.546 190.911C523.877 186.252 532.386 183.195 540.081 181.717C540.538 181.723 541.028 181.78 541.435 181.896C541.908 182.031 542.077 182.19 542.111 182.245C542.111 182.245 542.111 182.246 542.112 182.246C542.115 182.251 542.12 182.259 542.117 182.297C542.113 182.355 542.083 182.496 541.941 182.734C541.647 183.224 540.985 183.944 539.689 184.916C537.019 186.92 534.281 189.102 532.31 191.092C531.328 192.084 530.494 193.07 529.958 193.996C529.444 194.884 529.073 195.946 529.439 196.957C529.768 197.866 530.473 198.415 531.152 198.787C531.652 199.063 532.249 199.297 532.784 199.507C532.945 199.57 533.101 199.631 533.246 199.69C534.619 200.248 535.506 200.79 535.748 201.967C535.683 202.02 535.53 202.118 535.213 202.223C534.446 202.476 533.136 202.636 531.199 202.651C527.361 202.68 521.436 202.141 513.388 201.016L513.149 200.982L512.921 201.061L475.852 213.928L469.052 195.231Z" fill="white" stroke="#636363" stroke-width="2"/>
<path fill-rule="evenodd" clip-rule="evenodd" d="M369.359 161.716L401.519 146.516C420.059 160.516 427.629 194.056 439.979 198.516C451.669 202.716 466.679 194.756 486.369 189.266L493.969 211.446C476.079 226.446 437.969 231.356 422.509 224.106C397.809 212.506 368.469 185.176 369.359 161.716Z" fill="#8991DC"/>
<path d="M552.949 130.956C552.547 131.773 552.025 132.525 551.399 133.186C550.931 133.666 550.411 134.092 549.849 134.456C549.116 134.955 548.336 135.38 547.519 135.726C546.126 136.326 544.635 136.665 543.119 136.726C541.372 136.836 539.619 136.622 537.949 136.096C536.45 135.593 535.047 134.839 533.799 133.866C532.821 133.142 531.949 132.283 531.209 131.316L529.119 101.656H554.799L552.949 130.956Z" fill="white" stroke="#636363" stroke-width="2"/>
<path d="M556.973 95.9894C556.975 93.6588 550.185 91.7623 541.807 91.7536C533.429 91.7448 526.635 93.627 526.633 95.9576C526.63 98.2883 533.42 100.185 541.798 100.194C550.176 100.202 556.97 98.3201 556.973 95.9894Z" fill="#797979"/>
<path d="M546.799 99.5861C538.859 100.236 530.249 99.1761 527.569 97.2061C527.351 97.0848 527.163 96.914 527.023 96.7073C526.882 96.5007 526.792 96.264 526.759 96.0161V100.516C526.79 100.765 526.879 101.002 527.02 101.209C527.161 101.416 527.349 101.587 527.569 101.706C530.249 103.706 538.859 104.706 546.799 104.086C553.129 103.566 557.119 102.086 557.119 100.546V96.0461C557.119 97.6061 553.119 99.0661 546.799 99.5861Z" fill="#333333"/>
<path d="M554.979 108.336V120.056C554.978 120.288 554.951 120.52 554.899 120.746V109.026C554.949 108.799 554.979 108.568 554.989 108.336" fill="#F2463A"/>
<path d="M554.889 109.016V120.736C554.838 120.964 554.771 121.188 554.689 121.406V109.676C554.777 109.463 554.844 109.242 554.889 109.016Z" fill="#F2463A"/>
<path d="M554.689 109.676V121.406C554.597 121.632 554.487 121.849 554.359 122.056V110.336C554.482 110.124 554.589 109.904 554.679 109.676" fill="#F2463A"/>
<path d="M554.369 110.336V122.056C554.23 122.291 554.073 122.515 553.899 122.726V110.996C554.079 110.791 554.24 110.57 554.379 110.336" fill="#F2463A"/>
<path d="M553.889 110.996V122.726C553.669 122.995 553.425 123.242 553.159 123.466V111.746C553.419 111.516 553.66 111.265 553.879 110.996" fill="#F2463A"/>
<path d="M553.169 111.746V123.466C552.72 123.846 552.234 124.181 551.719 124.466V112.746C552.234 112.461 552.72 112.126 553.169 111.746Z" fill="#F2463A"/>
<path d="M551.719 112.766V124.486L551.589 124.566C550.78 124.987 549.929 125.322 549.049 125.566V113.846C549.927 113.581 550.775 113.226 551.579 112.786L551.719 112.716" fill="#F2463A"/>
<path d="M549.049 113.896V125.616C548.328 125.835 547.593 126.009 546.849 126.136V114.416C547.592 114.288 548.327 114.114 549.049 113.896Z" fill="#F2463A"/>
<path d="M546.849 114.416V126.136C546.339 126.226 545.849 126.296 545.279 126.346V114.616C545.819 114.616 546.339 114.496 546.859 114.416" fill="#F2463A"/>
<path d="M545.269 114.616V126.346C544.809 126.346 544.339 126.416 543.869 126.436V114.706C544.339 114.706 544.799 114.706 545.259 114.616" fill="#F2463A"/>
<path d="M543.879 114.706V126.436H542.539V114.706H543.879Z" fill="#F2463A"/>
<path d="M542.539 114.716V126.436C542.089 126.436 541.669 126.436 541.219 126.366V114.646C541.669 114.646 542.099 114.706 542.539 114.716Z" fill="#F2463A"/>
<path d="M541.219 114.646V126.366C540.769 126.366 540.329 126.286 539.879 126.226V114.506C540.329 114.566 540.779 114.616 541.229 114.646" fill="#F2463A"/>
<path d="M539.879 114.506V126.226C539.409 126.166 538.949 126.086 538.489 125.986V114.266C538.949 114.356 539.419 114.436 539.889 114.506" fill="#F2463A"/>
<path d="M538.479 114.276V125.996C537.959 125.896 537.479 125.776 536.949 125.646V113.916C537.456 114.056 537.966 114.176 538.479 114.276Z" fill="#F2463A"/>
<path d="M536.949 113.916V125.646C536.339 125.476 535.739 125.286 535.149 125.066V113.346C535.729 113.556 536.319 113.746 536.939 113.916" fill="#F2463A"/>
<path d="M528.699 106.836V106.926C528.769 108.846 530.219 110.836 533.039 112.376C533.739 112.758 534.464 113.092 535.209 113.376L528.699 106.836Z" fill="#F2463A"/>
<path d="M528.699 106.836C528.696 106.869 528.696 106.903 528.699 106.936V118.506C528.699 120.506 530.159 122.506 533.039 124.096C533.743 124.478 534.471 124.812 535.219 125.096V113.376L528.699 106.836Z" fill="#F2463A"/>
<path d="M554.049 92.9761C554.049 91.3082 548.78 89.9561 542.279 89.9561C535.779 89.9561 530.509 91.3082 530.509 92.9761C530.509 94.644 535.779 95.9961 542.279 95.9961C548.78 95.9961 554.049 94.644 554.049 92.9761Z" fill="#797979"/>
<path d="M545.839 95.3162C539.679 95.7662 532.999 95.0362 530.919 93.6762C530.499 93.4062 530.299 93.1262 530.299 92.8462V95.9462C530.299 96.2162 530.499 96.4962 530.919 96.7762C532.999 98.1362 539.689 98.8662 545.839 98.4162C550.749 98.0562 553.839 97.0462 553.839 95.9662V92.8362C553.849 93.9462 550.749 94.9562 545.839 95.3162Z" fill="#333333"/>
<path d="M542.499 93.076C547.403 93.076 551.379 92.5433 551.379 91.886C551.379 91.2288 547.403 90.696 542.499 90.696C537.595 90.696 533.619 91.2288 533.619 91.886C533.619 92.5433 537.595 93.076 542.499 93.076Z" fill="#333333"/>
<path d="M551.379 91.886C551.379 92.546 547.739 91.1761 542.839 91.1761C537.939 91.1761 533.619 92.546 533.619 91.886C533.619 91.226 537.619 90.696 542.499 90.696C547.379 90.696 551.379 91.226 551.379 91.886Z" fill="#202020"/>
<path d="M544.039 93.9462C544.08 93.9682 544.115 93.9997 544.141 94.038C544.167 94.0762 544.184 94.1202 544.189 94.1662V94.3662C544.189 94.5462 543.959 94.6862 543.679 94.6862H540.429C540.304 94.6872 540.18 94.6563 540.069 94.5962C540.026 94.5748 539.989 94.5421 539.963 94.5016C539.937 94.4612 539.922 94.4145 539.919 94.3662V94.1762C539.919 93.9962 540.139 93.8562 540.429 93.8562H543.669C543.798 93.8564 543.925 93.8872 544.039 93.9462Z" fill="#E9E9E9"/>
</svg>
