<svg width="813" height="901" viewBox="0 0 813 901" fill="none" xmlns="http://www.w3.org/2000/svg">
<path d="M22.0742 128.032L53 0.5H833.139C875.12 0.5 908.198 36.2701 904.92 78.1227L847.313 813.528C843.78 858.632 800.014 889.34 756.399 877.317L722.866 868.073C691.635 859.464 670 831.058 670 798.662V746.536C670 710.022 642.666 679.289 606.401 675.028L546.905 668.038C512.246 663.966 485.496 635.625 483.432 600.789L479.465 533.849C479.156 528.632 478.28 523.464 476.852 518.436L469.862 493.828C461.068 462.865 432.79 441.5 400.602 441.5H365.177C360.735 441.5 356.303 441.089 351.937 440.272L224.848 416.496C179.555 408.022 155.221 358.299 176.321 317.335C199.912 271.532 166.66 217 115.138 217H92.0463C45.4152 217 11.0849 173.35 22.0742 128.032Z" fill="#E9E9E9"/>
<rect x="559.001" y="207.5" width="110" height="146.845" rx="14" fill="#F56F65" stroke="#4D4D4D" stroke-width="4"/>
<rect x="559.001" y="207.5" width="110" height="136.076" rx="14" fill="#F89790"/>
<path d="M664.001 278.475C664.001 310.645 635.347 336.724 600.001 336.724C585.772 336.724 572.628 332.498 562.001 325.35V231.601C572.628 224.453 585.772 220.227 600.001 220.227C635.347 220.227 664.001 246.305 664.001 278.475Z" fill="#F56F65"/>
<rect x="559.001" y="207.5" width="110" height="146.845" rx="14" stroke="#4D4D4D" stroke-width="4"/>
<rect x="672.001" y="201.626" width="37" height="158.593" rx="12" fill="#F56F65" stroke="#4D4D4D" stroke-width="4"/>
<rect x="672.001" y="201.626" width="37" height="145.866" rx="12" fill="#F89790"/>
<rect x="672.001" y="201.626" width="37" height="158.593" rx="12" stroke="#4D4D4D" stroke-width="4"/>
<rect width="110" height="146.845" rx="14" transform="matrix(-1 0 0 1 236.001 413.083)" fill="#F56F65" stroke="#4D4D4D" stroke-width="4"/>
<rect width="110" height="136.076" rx="14" transform="matrix(-1 0 0 1 236.001 413.083)" fill="#F89790"/>
<path d="M131.001 484.058C131.001 516.228 159.655 542.307 195.001 542.307C209.23 542.307 222.374 538.081 233.001 530.933V437.184C222.374 430.036 209.23 425.81 195.001 425.81C159.655 425.81 131.001 451.889 131.001 484.058Z" fill="#F56F65"/>
<rect width="110" height="146.845" rx="14" transform="matrix(-1 0 0 1 236.001 413.083)" stroke="#4D4D4D" stroke-width="4"/>
<rect width="37" height="158.593" rx="12" transform="matrix(-1 0 0 1 123.001 407.21)" fill="#F56F65" stroke="#4D4D4D" stroke-width="4"/>
<rect width="37" height="145.866" rx="12" transform="matrix(-1 0 0 1 123.001 407.21)" fill="#F89790"/>
<rect width="37" height="158.593" rx="12" transform="matrix(-1 0 0 1 123.001 407.21)" stroke="#4D4D4D" stroke-width="4"/>
<rect x="177.001" y="417.978" width="118" height="45.0325" fill="#A6A6A6" stroke="#4D4D4D" stroke-width="4"/>
<rect x="177.001" y="452.242" width="118" height="10.7686" fill="#797979"/>
<rect x="177.001" y="417.978" width="118" height="45.0325" stroke="#4D4D4D" stroke-width="4"/>
<rect x="177.001" y="510.001" width="118" height="45.0325" fill="#A6A6A6" stroke="#4D4D4D" stroke-width="4"/>
<rect x="177.001" y="544.265" width="118" height="10.7686" fill="#797979"/>
<rect x="177.001" y="510.001" width="118" height="45.0325" stroke="#4D4D4D" stroke-width="4"/>
<rect width="139.868" height="35.2769" transform="matrix(0.97802 0.208512 -0.215175 0.976575 485.402 211.006)" fill="#797979" stroke="#4D4D4D" stroke-width="4"/>
<path d="M480.649 232.475L543.501 226.101C545.509 241.224 547.013 245.033 556.501 248.569L617.473 261.506L614.6 274.48L477.777 245.449L480.649 232.475Z" fill="#4D4D4D"/>
<rect width="139.868" height="35.2769" transform="matrix(0.97802 0.208512 -0.215175 0.976575 485.402 211.006)" stroke="#4D4D4D" stroke-width="4"/>
<rect width="139.582" height="35.3523" transform="matrix(0.995583 -0.11916 0.123579 0.989534 476.091 301.301)" fill="#797979" stroke="#4D4D4D" stroke-width="4"/>
<path d="M478.815 323.106L544.001 296.586C544.001 309.313 550.501 313.885 555.855 313.885L617.781 306.474L619.426 319.65L480.461 336.283L478.815 323.106Z" fill="#4D4D4D"/>
<rect width="139.582" height="35.3523" transform="matrix(0.995583 -0.11916 0.123579 0.989534 476.091 301.301)" stroke="#4D4D4D" stroke-width="4"/>
<rect x="541.499" y="144.846" width="488.266" height="274.497" rx="21" transform="rotate(90 541.499 144.846)" fill="#F56F65" stroke="#4D4D4D" stroke-width="4" stroke-linecap="round" stroke-linejoin="round"/>
<rect x="541.001" y="245.846" width="286" height="273" transform="rotate(90 541.001 245.846)" fill="white"/>
<rect x="541.499" y="144.846" width="488.266" height="274.497" rx="21" transform="rotate(90 541.499 144.846)" stroke="#4D4D4D" stroke-width="4" stroke-linecap="round" stroke-linejoin="round"/>
<path fill-rule="evenodd" clip-rule="evenodd" d="M469.616 404.923C468.99 404.618 468.861 403.781 469.365 403.301L488.273 385.297C488.926 384.674 488.486 383.573 487.583 383.573L358.296 383.573C358.296 383.573 358.296 383.573 358.296 383.573C358.296 383.573 358.296 383.573 358.296 383.573L487.583 383.573C488.486 383.573 488.926 382.471 488.273 381.848L469.365 363.845C468.861 363.364 468.99 362.527 469.616 362.222L476.325 358.948C477.317 358.464 476.908 356.965 475.807 357.053L405.751 362.596C404.77 362.674 404.279 361.436 405.047 360.82L445.472 328.379C446.357 327.669 445.563 326.267 444.499 326.661L436.437 329.646C435.732 329.907 435.002 329.326 435.097 328.581L438.989 298.194C439.066 297.597 438.6 297.067 437.997 297.067L409.832 297.067C409.006 297.067 408.536 296.122 409.035 295.464L416.843 285.154L367.253 340.763C367.063 340.975 366.792 341.097 366.506 341.097L350.441 341.097C349.888 341.097 349.441 341.545 349.441 342.097L349.441 379.003C349.441 379.555 348.993 380.003 348.441 380.003L320.228 380.003C319.676 380.003 319.228 380.451 319.228 381.003L319.228 386.142C319.228 386.694 319.676 387.142 320.228 387.142L348.441 387.142C348.993 387.142 349.441 387.59 349.441 388.142L349.441 425.048C349.441 425.601 349.888 426.048 350.441 426.048L366.506 426.048C366.792 426.048 367.063 426.17 367.253 426.383L416.843 481.992L409.035 471.682C408.536 471.023 409.006 470.078 409.832 470.078L437.997 470.078C438.6 470.078 439.066 469.549 438.989 468.951L435.097 438.564C435.002 437.819 435.732 437.239 436.437 437.5L444.499 440.484C445.563 440.878 446.357 439.477 445.472 438.767L405.047 406.326C404.279 405.709 404.77 404.471 405.751 404.549L475.807 410.093C476.908 410.18 477.317 408.681 476.325 408.197L469.616 404.923Z" fill="#F56F65"/>
<path d="M416.843 285.154L418.836 286.663C419.646 285.593 419.467 284.075 418.431 283.223C417.394 282.37 415.87 282.488 414.977 283.49L416.843 285.154ZM416.843 481.992L414.977 483.656C415.87 484.657 417.394 484.775 418.431 483.923C419.467 483.07 419.646 481.552 418.836 480.482L416.843 481.992ZM475.807 410.093L476.004 407.6L475.807 410.093ZM476.325 408.197L477.421 405.95L476.325 408.197ZM405.047 406.326L406.611 404.376L405.047 406.326ZM405.751 404.549L405.949 402.057L405.751 404.549ZM444.499 440.484L443.631 442.829L444.499 440.484ZM445.472 438.767L443.907 440.716L445.472 438.767ZM409.035 471.682L407.042 473.191L409.035 471.682ZM409.832 470.078L409.832 467.578L409.832 470.078ZM367.253 426.383L369.119 424.719L367.253 426.383ZM367.253 340.763L365.387 339.099L367.253 340.763ZM409.035 295.464L407.042 293.954L409.035 295.464ZM438.989 298.194L436.509 297.877L438.989 298.194ZM436.437 329.646L437.305 331.99L436.437 329.646ZM435.097 328.581L432.618 328.263L435.097 328.581ZM445.472 328.379L443.907 326.429L445.472 328.379ZM444.499 326.661L443.631 324.316L444.499 326.661ZM405.751 362.596L405.949 365.089L405.751 362.596ZM405.047 360.82L403.482 358.87L405.047 360.82ZM476.325 358.948L475.228 356.701L476.325 358.948ZM475.807 357.053L475.61 354.56L475.807 357.053ZM469.365 363.845L467.641 365.655L469.365 363.845ZM469.616 362.222L468.52 359.975L469.616 362.222ZM488.273 381.848L489.996 380.038L488.273 381.848ZM435.097 438.564L432.618 438.882L435.097 438.564ZM436.437 437.5L435.569 439.844L436.437 437.5ZM469.365 403.301L467.641 401.49L469.365 403.301ZM469.616 404.923L470.713 402.677L469.616 404.923ZM437.997 470.078L437.997 472.578L437.997 470.078ZM438.989 468.951L441.469 468.633L438.989 468.951ZM488.273 385.297L486.549 383.486L488.273 385.297ZM486.549 383.486L467.641 401.49L471.089 405.111L489.997 387.107L486.549 383.486ZM358.296 386.073L487.583 386.073L487.583 381.073L358.296 381.073L358.296 386.073ZM358.296 386.073L487.583 386.073L487.583 381.073L358.296 381.073L358.296 386.073ZM489.996 380.038L471.089 362.034L467.641 365.655L486.549 383.659L489.996 380.038ZM470.713 364.469L477.421 361.195L475.228 356.701L468.52 359.975L470.713 364.469ZM475.61 354.56L405.554 360.104L405.949 365.089L476.004 359.545L475.61 354.56ZM406.611 362.769L447.037 330.328L443.907 326.429L403.482 358.87L406.611 362.769ZM443.631 324.316L435.569 327.301L437.305 331.99L445.367 329.005L443.631 324.316ZM437.577 328.898L441.469 298.512L436.509 297.877L432.618 328.263L437.577 328.898ZM437.997 294.567L409.832 294.567L409.832 299.567L437.997 299.567L437.997 294.567ZM411.028 296.973L418.836 286.663L414.85 283.644L407.042 293.954L411.028 296.973ZM414.977 283.49L365.387 339.099L369.119 342.426L418.709 286.817L414.977 283.49ZM366.506 338.597L350.441 338.597L350.441 343.597L366.506 343.597L366.506 338.597ZM346.941 342.097L346.941 379.003L351.941 379.003L351.941 342.097L346.941 342.097ZM320.228 382.503L348.441 382.503L348.441 377.503L320.228 377.503L320.228 382.503ZM321.728 386.142L321.728 381.003L316.728 381.003L316.728 386.142L321.728 386.142ZM348.441 384.642L320.228 384.642L320.228 389.642L348.441 389.642L348.441 384.642ZM351.941 425.048L351.941 388.142L346.941 388.142L346.941 425.048L351.941 425.048ZM366.506 423.548L350.441 423.548L350.441 428.548L366.506 428.548L366.506 423.548ZM418.709 480.328L369.119 424.719L365.387 428.047L414.977 483.656L418.709 480.328ZM407.042 473.191L414.85 483.501L418.836 480.482L411.028 470.172L407.042 473.191ZM437.997 467.578L409.832 467.578L409.832 472.578L437.997 472.578L437.997 467.578ZM432.618 438.882L436.509 469.268L441.469 468.633L437.577 438.247L432.618 438.882ZM445.367 438.14L437.305 435.155L435.569 439.844L443.631 442.829L445.367 438.14ZM403.482 408.275L443.907 440.716L447.037 436.817L406.611 404.376L403.482 408.275ZM476.004 407.6L405.949 402.057L405.554 407.041L475.61 412.585L476.004 407.6ZM468.52 407.17L475.228 410.444L477.421 405.95L470.713 402.677L468.52 407.17ZM475.61 412.585C479.462 412.89 480.894 407.645 477.421 405.95L475.228 410.444C473.74 409.718 474.353 407.47 476.004 407.6L475.61 412.585ZM406.611 404.376C407.763 405.3 407.027 407.157 405.554 407.041L405.949 402.057C402.513 401.785 400.794 406.118 403.482 408.275L406.611 404.376ZM443.631 442.829C447.354 444.207 450.133 439.302 447.037 436.817L443.907 440.716C442.58 439.651 443.771 437.549 445.367 438.14L443.631 442.829ZM411.028 470.172C411.776 471.16 411.072 472.578 409.832 472.578L409.832 467.578C406.941 467.578 405.296 470.886 407.042 473.191L411.028 470.172ZM366.506 428.548C366.079 428.548 365.672 428.366 365.387 428.047L369.119 424.719C368.455 423.974 367.504 423.548 366.506 423.548L366.506 428.548ZM346.941 425.048C346.941 426.981 348.508 428.548 350.441 428.548L350.441 423.548C351.269 423.548 351.941 424.22 351.941 425.048L346.941 425.048ZM348.441 389.642C347.612 389.642 346.941 388.971 346.941 388.142L351.941 388.142C351.941 386.209 350.374 384.642 348.441 384.642L348.441 389.642ZM316.728 386.142C316.728 388.075 318.295 389.642 320.228 389.642L320.228 384.642C321.057 384.642 321.728 385.314 321.728 386.142L316.728 386.142ZM320.228 377.503C318.295 377.503 316.728 379.07 316.728 381.003L321.728 381.003C321.728 381.831 321.057 382.503 320.228 382.503L320.228 377.503ZM346.941 379.003C346.941 378.175 347.612 377.503 348.441 377.503L348.441 382.503C350.374 382.503 351.941 380.936 351.941 379.003L346.941 379.003ZM350.441 338.597C348.508 338.597 346.941 340.164 346.941 342.097L351.941 342.097C351.941 342.925 351.269 343.597 350.441 343.597L350.441 338.597ZM365.387 339.099C365.672 338.779 366.079 338.597 366.506 338.597L366.506 343.597C367.504 343.597 368.455 343.171 369.119 342.426L365.387 339.099ZM409.832 294.567C411.072 294.567 411.776 295.985 411.028 296.973L407.042 293.954C405.296 296.26 406.941 299.567 409.832 299.567L409.832 294.567ZM441.469 298.512C441.737 296.42 440.107 294.567 437.997 294.567L437.997 299.567C437.093 299.567 436.395 298.774 436.509 297.877L441.469 298.512ZM435.569 327.301C436.626 326.91 437.72 327.78 437.577 328.898L432.618 328.263C432.284 330.872 434.838 332.903 437.305 331.99L435.569 327.301ZM447.037 330.328C450.133 327.843 447.354 322.938 443.631 324.316L445.367 329.005C443.771 329.596 442.58 327.494 443.907 326.429L447.037 330.328ZM405.554 360.104C407.027 359.988 407.763 361.845 406.611 362.769L403.482 358.87C400.794 361.027 402.513 365.361 405.949 365.089L405.554 360.104ZM477.421 361.195C480.894 359.5 479.462 354.255 475.61 354.56L476.004 359.545C474.353 359.675 473.74 357.428 475.228 356.701L477.421 361.195ZM471.089 362.034C471.846 362.755 471.652 364.01 470.713 364.469L468.52 359.975C466.328 361.045 465.875 363.973 467.641 365.655L471.089 362.034ZM487.583 386.073C490.743 386.073 492.285 382.217 489.996 380.038L486.549 383.659C485.568 382.725 486.229 381.073 487.583 381.073L487.583 386.073ZM360.796 383.573C360.796 384.953 359.676 386.073 358.296 386.073L358.296 381.073C356.915 381.073 355.796 382.192 355.796 383.573L360.796 383.573ZM358.296 381.073C359.676 381.073 360.796 382.192 360.796 383.573L355.796 383.573C355.796 384.953 356.915 386.073 358.296 386.073L358.296 381.073ZM437.577 438.247C437.72 439.365 436.626 440.235 435.569 439.844L437.305 435.155C434.838 434.242 432.284 436.273 432.618 438.882L437.577 438.247ZM467.641 401.49C465.875 403.172 466.328 406.1 468.52 407.17L470.713 402.677C471.652 403.135 471.846 404.39 471.089 405.111L467.641 401.49ZM437.997 472.578C440.107 472.578 441.737 470.726 441.469 468.633L436.509 469.268C436.395 468.372 437.093 467.578 437.997 467.578L437.997 472.578ZM489.997 387.107C492.285 384.929 490.743 381.073 487.583 381.073L487.583 386.073C486.229 386.073 485.568 384.42 486.549 383.486L489.997 387.107Z" fill="#F56F65"/>
<path d="M427.001 197.71C427.001 208.944 437.97 214.353 451.501 214.353C465.032 214.353 476.001 214.353 476.001 197.71C476.001 181.068 465.032 181.068 451.501 181.068C437.97 181.068 427.001 186.477 427.001 197.71Z" fill="#E9E9E9" stroke="#4D4D4D" stroke-width="4"/>
<path d="M429.001 197.711C425.813 185.129 429.501 214.353 451.501 214.353C473.501 214.353 476.001 197.711 476.001 197.711C479.408 207.225 432.189 210.292 429.001 197.711Z" fill="#A6A6A6"/>
<path d="M427.001 197.71C427.001 208.944 437.97 214.353 451.501 214.353C465.032 214.353 476.001 214.353 476.001 197.71C476.001 181.068 465.032 181.068 451.501 181.068C437.97 181.068 427.001 186.477 427.001 197.71Z" stroke="#4D4D4D" stroke-width="4"/>
<path d="M445.658 187.929C455.624 183.232 463.683 182.269 467.219 182.087C468.401 182.026 469.434 182.766 469.864 183.869L472.67 191.081C472.98 191.879 472.935 192.771 472.546 193.533L465.938 206.471C465.362 207.599 463.787 207.698 463.074 206.651C462.809 206.262 462.721 205.78 462.831 205.322L463.545 202.351C464.061 200.204 462.159 198.254 460 198.717L449.259 201.017C448.863 201.102 448.45 201.106 448.053 201.023C438.402 198.988 432.432 194.164 445.658 187.929Z" fill="white" stroke="#4D4D4D" stroke-width="4"/>
<path d="M439.658 190.866C443.724 183.226 439.505 189.943 439.892 195.57C445.217 199.544 469.319 192.261 473.157 190.377L465.839 206.391C465.32 207.526 463.76 207.659 463.057 206.627C462.803 206.253 462.718 205.79 462.823 205.35L463.544 202.351C464.06 200.204 462.158 198.254 459.999 198.716L448.658 201.145C442.076 202.026 440.128 199.001 439.892 195.57C438.672 194.66 438.438 193.158 439.658 190.866Z" fill="#D2D2D2"/>
<path d="M445.658 187.929C455.624 183.232 463.683 182.269 467.219 182.087C468.401 182.026 469.434 182.766 469.864 183.869L472.67 191.081C472.98 191.879 472.935 192.771 472.546 193.533L465.938 206.471C465.362 207.599 463.787 207.698 463.074 206.651C462.809 206.262 462.721 205.78 462.831 205.322L463.545 202.351C464.061 200.204 462.159 198.254 460 198.717L449.259 201.017C448.863 201.102 448.45 201.106 448.053 201.023C438.402 198.988 432.432 194.164 445.658 187.929Z" stroke="#4D4D4D" stroke-width="4"/>
<path d="M493.462 339.405C500.527 347.721 507.442 351.874 510.586 353.481C511.641 354.021 512.9 353.769 513.757 352.941L519.381 347.512C519.996 346.918 520.329 346.097 520.299 345.253L519.777 330.79C519.732 329.531 518.333 328.798 517.241 329.46C516.839 329.704 516.558 330.101 516.465 330.556L515.848 333.575C515.408 335.73 512.847 336.717 511.073 335.415L502.296 328.968C501.968 328.727 501.591 328.553 501.19 328.467C491.551 326.395 484.078 328.358 493.462 339.405Z" fill="white" stroke="#4D4D4D" stroke-width="4"/>
<path d="M489.001 328.892C489.001 342.109 512.347 354.303 512.347 354.303L521.001 347.982C508.918 348.703 501.381 342.49 489.001 328.892Z" fill="#D2D2D2"/>
<path d="M493.462 339.405C500.527 347.721 507.442 351.874 510.586 353.481C511.641 354.021 512.9 353.769 513.757 352.941L519.381 347.512C519.996 346.918 520.329 346.097 520.299 345.253L519.777 330.79C519.732 329.531 518.333 328.798 517.241 329.46C516.839 329.704 516.558 330.101 516.465 330.556L515.848 333.575C515.408 335.73 512.847 336.717 511.073 335.415L502.296 328.968C501.968 328.727 501.591 328.553 501.19 328.467C491.551 326.395 484.078 328.358 493.462 339.405Z" stroke="#4D4D4D" stroke-width="4"/>
<path d="M515.117 354.728C668.304 399.822 664.238 300.906 661.353 277.928C661.044 275.464 658.521 274.131 656.211 275.041L622.17 288.453C620.641 289.055 619.632 290.493 619.531 292.133C618.61 307.056 609.637 377.918 522.226 342.264C520.64 341.617 518.733 341.988 517.591 343.266L513.147 348.238C511.207 350.409 512.324 353.906 515.117 354.728Z" fill="#90F8F2" stroke="#4D4D4D" stroke-width="4"/>
<path d="M514.34 354.498C668.091 400.089 664.255 301.236 661.366 278.03C661.055 275.532 658.477 274.2 656.155 275.17L636.138 283.535C632.196 285.182 631.478 296.665 633.463 300.448C646.334 324.969 627.289 383.522 515.818 349.367C515.016 349.121 514.1 349.246 513.417 349.733C511.606 351.022 512.209 353.867 514.34 354.498Z" fill="#48DEE2"/>
<path d="M515.117 354.728C668.304 399.822 664.238 300.906 661.353 277.928C661.044 275.464 658.521 274.131 656.211 275.041L622.17 288.453C620.641 289.055 619.632 290.493 619.531 292.133C618.61 307.056 609.637 377.918 522.226 342.264C520.64 341.617 518.733 341.988 517.591 343.266L513.147 348.238C511.207 350.409 512.324 353.906 515.117 354.728Z" stroke="#4D4D4D" stroke-width="4"/>
<path d="M472.007 180.984C664.455 130.727 663.643 244.456 661.239 269.521C660.998 272.032 658.448 273.415 656.1 272.49L621.987 259.05C620.551 258.485 619.565 257.154 619.352 255.625C617.189 240.045 599.81 158.088 476.084 195.467C473.908 196.124 471.503 194.903 470.905 192.709L469.055 185.918C468.474 183.782 469.865 181.544 472.007 180.984Z" fill="#90F8F2" stroke="#4D4D4D" stroke-width="4"/>
<path d="M473.426 190.093C615.075 153.646 637.112 234.695 651.941 263.622C653.81 267.267 651.876 269.635 648.018 268.258L622.102 259.005C620.604 258.47 619.56 257.1 619.338 255.525C617.109 239.654 599.451 157.724 475.076 195.773C473.451 196.27 471.647 195.344 471.226 193.696C470.824 192.124 471.854 190.497 473.426 190.093Z" fill="#48DEE2"/>
<path d="M472.007 180.984C664.455 130.727 663.643 244.456 661.239 269.521C660.998 272.032 658.448 273.415 656.1 272.49L621.987 259.05C620.551 258.485 619.565 257.154 619.352 255.625C617.189 240.045 599.81 158.088 476.084 195.467C473.908 196.124 471.503 194.903 470.905 192.709L469.055 185.918C468.474 183.782 469.865 181.544 472.007 180.984Z" stroke="#4D4D4D" stroke-width="4"/>
<path d="M673.001 276.646C673.001 303.68 650.615 325.594 623.001 325.594C598.635 325.594 578.34 308.532 573.902 285.946C573.311 282.935 563.501 279.826 563.501 276.646C563.501 273.466 573.311 270.357 573.902 267.346C578.34 244.76 598.635 227.698 623.001 227.698C650.615 227.698 673.001 249.613 673.001 276.646Z" fill="white" stroke="#4D4D4D" stroke-width="4"/>
<path d="M673.001 276.646C673.001 303.68 650.615 325.594 623.001 325.594C598.635 325.594 578.34 308.532 573.902 285.946C573.311 282.935 563.501 279.826 563.501 276.646C563.501 273.56 577.21 278.066 578.567 280.838C598.728 322.012 668.113 354.883 673.001 276.646Z" fill="#D2D2D2"/>
<path d="M673.001 276.646C673.001 303.68 650.615 325.594 623.001 325.594C598.635 325.594 578.34 308.532 573.902 285.946C573.311 282.935 563.501 279.826 563.501 276.646C563.501 273.466 573.311 270.357 573.902 267.346C578.34 244.76 598.635 227.698 623.001 227.698C650.615 227.698 673.001 249.613 673.001 276.646Z" stroke="#4D4D4D" stroke-width="4"/>
<path d="M688.001 276.646C688.001 305.842 663.615 333.426 636.001 333.426C599.501 333.426 589.001 305.842 589.001 276.646C589.001 260.857 593.096 224.168 601.501 214.482C608.638 206.256 606.501 228.677 636.001 223.781C663.227 219.264 688.001 247.45 688.001 276.646Z" fill="#A6A6A6" stroke="#4D4D4D" stroke-width="4"/>
<path d="M688.001 276.646C688.001 305.842 663.615 333.426 636.001 333.426C599.501 333.426 589.001 305.842 589.001 276.646C581.438 272.939 634.534 367.391 688.001 276.646Z" fill="#797979"/>
<path d="M688.001 278.021C688.001 307.844 663.615 336.021 636.001 336.021C599.501 336.021 589.001 307.844 589.001 278.021C589.001 261.893 593.096 224.416 601.501 214.521C608.638 206.119 606.501 229.021 636.001 224.021C663.227 219.406 688.001 248.198 688.001 278.021Z" stroke="#4D4D4D" stroke-width="4"/>
<rect width="83.0084" height="66.4067" rx="6" transform="matrix(0.714582 0.699552 0.714582 -0.699552 425.488 517.297)" fill="#FFEFB6" stroke="#4D4D4D" stroke-width="4"/>
<rect width="73.0474" height="58.1059" rx="6" transform="matrix(0.714582 0.699552 0.714582 -0.699552 429.047 520.781)" fill="white" stroke="#4D4D4D" stroke-width="4"/>
<rect width="83.0084" height="66.4067" rx="6" transform="matrix(-0.714582 -0.699552 -0.714582 0.699552 487.77 572.463)" fill="#FFEFB6" stroke="#4D4D4D" stroke-width="4"/>
<rect width="73.0474" height="58.1059" rx="6" transform="matrix(-0.714582 -0.699552 -0.714582 0.699552 484.211 568.979)" fill="white" stroke="#4D4D4D" stroke-width="4"/>
<line x1="2" y1="-2" x2="11.2813" y2="-2" transform="matrix(0.714582 -0.699552 0.714582 0.699552 432.606 530.072)" stroke="#4D4D4D" stroke-width="4" stroke-linecap="round" stroke-linejoin="round"/>
<line x1="2" y1="-2" x2="11.2813" y2="-2" transform="matrix(0.714582 -0.699552 0.714582 0.699552 438.538 535.879)" stroke="#4D4D4D" stroke-width="4" stroke-linecap="round" stroke-linejoin="round"/>
<line x1="2" y1="-2" x2="11.2813" y2="-2" transform="matrix(0.714582 -0.699552 0.714582 0.699552 444.47 541.686)" stroke="#4D4D4D" stroke-width="4" stroke-linecap="round" stroke-linejoin="round"/>
<line x1="2" y1="-2" x2="11.2813" y2="-2" transform="matrix(0.714582 -0.699552 0.714582 0.699552 450.401 547.493)" stroke="#4D4D4D" stroke-width="4" stroke-linecap="round" stroke-linejoin="round"/>
<line x1="2" y1="-2" x2="11.2813" y2="-2" transform="matrix(0.714582 -0.699552 0.714582 0.699552 456.333 553.3)" stroke="#4D4D4D" stroke-width="4" stroke-linecap="round" stroke-linejoin="round"/>
<line x1="2" y1="-2" x2="11.2813" y2="-2" transform="matrix(0.714582 -0.699552 0.714582 0.699552 462.264 559.107)" stroke="#4D4D4D" stroke-width="4" stroke-linecap="round" stroke-linejoin="round"/>
<line x1="2" y1="-2" x2="11.2813" y2="-2" transform="matrix(0.714582 -0.699552 0.714582 0.699552 468.196 564.914)" stroke="#4D4D4D" stroke-width="4" stroke-linecap="round" stroke-linejoin="round"/>
<line x1="2" y1="-2" x2="11.2813" y2="-2" transform="matrix(0.714582 -0.699552 0.714582 0.699552 474.127 570.72)" stroke="#4D4D4D" stroke-width="4" stroke-linecap="round" stroke-linejoin="round"/>
<rect width="75.2923" height="119.572" rx="6" transform="matrix(-1 -8.55841e-08 -8.9301e-08 1 365.293 423.41)" fill="#E9E9E9" stroke="#4D4D4D" stroke-width="4" stroke-linejoin="round"/>
<path d="M413.815 418.712C413.815 414.84 410.201 411.981 406.432 412.874L366.564 422.317C363.858 422.958 361.947 425.374 361.947 428.155L361.947 538.237C361.947 541.018 363.858 543.435 366.564 544.076L406.432 553.518C410.201 554.411 413.815 551.552 413.815 547.68L413.815 418.712Z" fill="#E9E9E9" stroke="#4D4D4D" stroke-width="4" stroke-linejoin="round"/>
<path d="M402.103 429.893C402.103 425.857 398.199 422.972 394.341 424.157L372.041 431.01C369.522 431.784 367.803 434.11 367.803 436.745L367.803 530.466C367.803 533.101 369.522 535.427 372.041 536.201L394.341 543.054C398.199 544.239 402.103 541.354 402.103 537.318L402.103 429.893Z" fill="#797979" stroke="#4D4D4D" stroke-width="4" stroke-linejoin="round"/>
<path d="M400.01 448.385L385.01 451.82L369.555 455.365" stroke="#E9E9E9" stroke-width="25"/>
<path d="M399.896 469.785L384.268 472.501L368.639 475.217" stroke="#E9E9E9" stroke-width="8"/>
<path d="M402.103 429.893C402.103 425.857 398.199 422.972 394.341 424.157L372.041 431.01C369.522 431.784 367.803 434.11 367.803 436.745L367.803 530.466C367.803 533.101 369.522 535.427 372.041 536.201L394.341 543.054C398.199 544.239 402.103 541.354 402.103 537.318L402.103 429.893Z" stroke="#4D4D4D" stroke-width="4" stroke-linejoin="round"/>
<line x1="2" y1="-2" x2="129.857" y2="-2" transform="matrix(-4.50827e-08 1 1 4.32062e-08 409.632 417.677)" stroke="white" stroke-width="4" stroke-linecap="round" stroke-linejoin="round"/>
<rect width="40.1559" height="92.5453" rx="5" transform="matrix(-1 -8.55841e-08 -8.9301e-08 1 351.908 436.514)" fill="#A6A6A6" stroke="#4D4D4D" stroke-width="4"/>
<rect width="14.2219" height="21.2936" rx="4" transform="matrix(-1 -8.55841e-08 -8.9301e-08 1 309.242 473.368)" fill="#A6A6A6" stroke="#4D4D4D" stroke-width="4"/>
<path d="M407.103 232.785C407.103 229.471 409.789 226.785 413.103 226.785H477.296C480.61 226.785 483.296 229.471 483.296 232.785V341.787C483.296 345.101 480.61 347.787 477.296 347.787H413.103C409.789 347.787 407.103 345.101 407.103 341.787V232.785Z" fill="#E9E9E9" stroke="#4D4D4D" stroke-width="4" stroke-linejoin="round"/>
<path d="M358.001 221.94C358.001 218.067 361.615 215.209 365.384 216.102L405.872 225.691C408.579 226.332 410.49 228.749 410.49 231.53V343.042C410.49 345.823 408.579 348.24 405.872 348.881L365.384 358.47C361.615 359.363 358.001 356.505 358.001 352.632V221.94Z" fill="#E9E9E9" stroke="#4D4D4D" stroke-width="4" stroke-linejoin="round"/>
<path d="M369.853 233.248C369.853 229.212 373.758 226.327 377.615 227.512L400.326 234.491C402.844 235.265 404.563 237.591 404.563 240.226V335.175C404.563 337.809 402.844 340.136 400.326 340.91L377.615 347.888C373.758 349.074 369.853 346.189 369.853 342.153V233.248Z" fill="#797979" stroke="#4D4D4D" stroke-width="4" stroke-linejoin="round"/>
<path d="M371.971 252.058L387.151 255.535L402.791 259.121" stroke="#E9E9E9" stroke-width="25"/>
<path d="M372.086 273.715L387.902 276.463L403.717 279.211" stroke="#E9E9E9" stroke-width="8"/>
<path d="M369.853 233.248C369.853 229.212 373.758 226.327 377.615 227.512L400.326 234.491C402.844 235.265 404.563 237.591 404.563 240.226V335.175C404.563 337.809 402.844 340.136 400.326 340.91L377.615 347.888C373.758 349.074 369.853 346.189 369.853 342.153V233.248Z" stroke="#4D4D4D" stroke-width="4" stroke-linejoin="round"/>
<line x1="364.234" y1="222.983" x2="364.234" y2="352.418" stroke="white" stroke-width="4" stroke-linecap="round" stroke-linejoin="round"/>
<rect x="419.001" y="242.743" width="40" height="93.9809" rx="5" fill="#A6A6A6" stroke="#4D4D4D" stroke-width="4"/>
<rect x="466.001" y="278.965" width="12" height="23.4952" rx="4" fill="#A6A6A6" stroke="#4D4D4D" stroke-width="4"/>
<path d="M163.526 552.913C170.576 566.567 174.59 573.786 197.398 574.675" stroke="#4D4D4D" stroke-width="4"/>
<rect width="58.9116" height="32.1432" rx="16.0716" transform="matrix(0.98468 0.174374 0.181702 -0.983354 181.788 586.831)" fill="#D2D2D2"/>
<path fill-rule="evenodd" clip-rule="evenodd" d="M236.138 565.291C234.301 564.017 232.164 563.109 229.812 562.693L203.454 558.025C195.74 556.659 188.297 561.033 185.546 568.08C185.723 574.677 190.495 580.448 197.264 581.647L220.717 585.8C228.494 587.177 235.961 581.998 237.396 574.231C237.982 571.064 237.473 567.955 236.138 565.291Z" fill="white"/>
<rect width="58.9116" height="32.1432" rx="16.0716" transform="matrix(0.98468 0.174374 0.181702 -0.983354 181.788 586.831)" stroke="#4D4D4D" stroke-width="4"/>
<rect width="76.8417" height="42.6999" rx="21.35" transform="matrix(0.74079 -0.671737 -0.687285 -0.726388 268.078 590.6)" fill="#D2D2D2" stroke="#4D4D4D" stroke-width="4"/>
<path fill-rule="evenodd" clip-rule="evenodd" d="M311.708 525.083C311.279 524.531 310.819 523.994 310.328 523.474C302.224 514.909 288.573 514.387 279.838 522.307L254.546 545.241C248.897 550.365 246.687 557.765 248.024 564.671C248.453 565.224 248.912 565.761 249.404 566.281C257.508 574.846 271.159 575.368 279.893 567.447L305.185 544.513C310.835 539.39 313.044 531.99 311.708 525.083Z" fill="white"/>
<rect width="76.8417" height="42.6999" rx="21.35" transform="matrix(0.74079 -0.671737 -0.687285 -0.726388 268.078 590.6)" stroke="#4D4D4D" stroke-width="4"/>
<path d="M241.577 580.907L252.329 573.934" stroke="#4D4D4D" stroke-width="4"/>
<path d="M322.522 523.647C323.472 521.672 325.879 520.877 328.046 521.411C335.819 523.325 343.282 520.268 350.688 516.356C351.316 515.792 352.523 516.431 352.167 517.172C346.818 528.289 333.226 533.099 321.44 528.223C320.925 528.01 320.708 527.418 320.945 526.924L322.522 523.647Z" fill="#88FCFF" stroke="#4D4D4D" stroke-width="4"/>
<path d="M317.482 515.497C319.712 515.426 321.414 513.58 321.772 511.422C323.059 503.677 328.886 498.182 335.494 493.077C336.271 492.736 336.151 491.398 335.315 491.424C322.768 491.822 312.867 502.129 312.765 514.655C312.761 515.202 313.23 515.632 313.787 515.614L317.482 515.497Z" fill="#88FCFF" stroke="#4D4D4D" stroke-width="4"/>
<path d="M321.89 522.128L317.4 516.87" stroke="#4D4D4D" stroke-width="4"/>
<path d="M272.163 563.024L283.501 574.124L307.501 551.118L296.945 540.427C294.725 538.18 291.144 538.038 288.753 540.102L272.438 554.196C269.781 556.491 269.654 560.567 272.163 563.024Z" stroke="#4D4D4D" stroke-width="4"/>
<path d="M274.354 552.73L289.001 568.739M281.001 547.691L295.647 563.701M286.854 541.471L301.501 557.481" stroke="#4D4D4D" stroke-width="4"/>
<path d="M163.526 423.882C170.576 410.228 174.59 403.009 197.398 402.12" stroke="#4D4D4D" stroke-width="4"/>
<rect width="58.9116" height="32.1432" rx="16.0716" transform="matrix(0.98468 -0.174374 0.181702 0.983354 181.788 389.965)" fill="#D2D2D2"/>
<path fill-rule="evenodd" clip-rule="evenodd" d="M235.172 384.593C235.589 385.636 235.911 386.736 236.122 387.882C237.846 397.212 231.67 406.117 222.327 407.772L201.738 411.418C194.89 412.63 188.241 409.611 184.5 404.237C183.784 396.086 189.386 388.619 197.614 387.162L223.972 382.495C227.986 381.784 231.927 382.627 235.172 384.593Z" fill="white"/>
<rect width="58.9116" height="32.1432" rx="16.0716" transform="matrix(0.98468 -0.174374 0.181702 0.983354 181.788 389.965)" stroke="#4D4D4D" stroke-width="4"/>
<rect width="76.8417" height="42.6999" rx="21.35" transform="matrix(0.74079 0.671737 -0.687285 0.726388 268.078 386.196)" fill="#D2D2D2"/>
<path fill-rule="evenodd" clip-rule="evenodd" d="M309.782 424.034C314.51 430.561 314.089 439.661 308.305 445.774C301.673 452.783 290.501 453.211 283.353 446.728L255.945 421.875C251.068 417.453 249.323 410.956 250.814 405.048C251.548 403.874 252.412 402.753 253.404 401.704C261.508 393.139 275.159 392.617 283.893 400.537L309.185 423.472C309.389 423.656 309.588 423.844 309.782 424.034Z" fill="white"/>
<rect width="76.8417" height="42.6999" rx="21.35" transform="matrix(0.74079 0.671737 -0.687285 0.726388 268.078 386.196)" stroke="#4D4D4D" stroke-width="4"/>
<path d="M241.577 395.889L252.329 402.862" stroke="#4D4D4D" stroke-width="4"/>
<ellipse cx="301.001" cy="433.642" rx="7" ry="6.85277" fill="#F2463A" stroke="#4D4D4D" stroke-width="4"/>
<path d="M303.001 432.173C303.001 433.525 301.882 434.621 300.501 434.621C299.12 434.621 298.001 433.525 298.001 432.173C298.001 430.822 299.12 429.726 300.501 429.726C301.882 429.726 303.001 430.822 303.001 432.173Z" fill="#F89790"/>
<ellipse cx="301.001" cy="433.642" rx="7" ry="6.85277" stroke="#4D4D4D" stroke-width="4"/>
<ellipse cx="289.501" cy="423.362" rx="4.5" ry="4.40535" fill="#F2463A" stroke="#4D4D4D" stroke-width="4"/>
<path d="M322.197 455.121C323.907 456.52 326.432 456.248 328.17 454.87C334.397 449.933 342.48 449.632 350.88 450.13C351.692 450.383 352.512 449.306 351.871 448.781C342.239 440.899 327.842 442.135 319.247 451.414C318.871 451.819 318.928 452.446 319.355 452.796L322.197 455.121Z" fill="#88FCFF" stroke="#4D4D4D" stroke-width="4"/>
<path d="M317.066 461.13C318.776 462.529 318.95 465.01 317.873 466.929C314.015 473.804 315.146 481.645 317.137 489.65C317.535 490.387 316.597 491.369 315.956 490.843C306.324 482.962 305.013 468.872 312.816 458.945C313.157 458.511 313.797 458.455 314.224 458.805L317.066 461.13Z" fill="#88FCFF" stroke="#4D4D4D" stroke-width="4"/>
<path d="M321.89 454.668L317.401 459.925" stroke="#4D4D4D" stroke-width="4"/>
<rect x="110.001" y="418.153" width="101" height="137.055" rx="20" fill="#48DEE2"/>
<rect x="110.001" y="417.978" width="101" height="125.308" rx="20" fill="#88FCFF"/>
<rect x="110.001" y="418.153" width="101" height="137.055" rx="20" stroke="#4D4D4D" stroke-width="4"/>
<rect x="207.001" y="443.606" width="17" height="39.1587" rx="6" fill="#FFD081" stroke="#4D4D4D" stroke-width="4" stroke-linecap="round" stroke-linejoin="round"/>
<rect x="207.001" y="443.431" width="17" height="30.348" rx="6" fill="#FFEFB6"/>
<rect x="207.001" y="443.606" width="17" height="39.1587" rx="6" stroke="#4D4D4D" stroke-width="4" stroke-linecap="round" stroke-linejoin="round"/>
<rect x="207.001" y="491.576" width="17" height="39.1587" rx="6" fill="#FFD081" stroke="#4D4D4D" stroke-width="4" stroke-linecap="round" stroke-linejoin="round"/>
<rect x="207.001" y="491.401" width="17" height="30.348" rx="6" fill="#FFEFB6"/>
<rect x="207.001" y="491.576" width="17" height="39.1587" rx="6" stroke="#4D4D4D" stroke-width="4" stroke-linecap="round" stroke-linejoin="round"/>
<path d="M157.17 390.792C158.309 386.99 163.692 386.99 164.832 390.792L172.447 416.185C173.217 418.751 171.295 421.334 168.616 421.334H153.386C150.707 421.334 148.785 418.751 149.555 416.185L157.17 390.792Z" fill="#A6A6A6" stroke="#4D4D4D" stroke-width="4"/>
<path d="M167.001 407.699C167.001 401.825 171.001 418.957 171.001 418.957C171.001 418.957 156.45 418.169 151.016 417.959C150.804 418.048 150.57 418.089 150.313 418.067C148.143 417.884 148.866 417.876 151.016 417.959C152.679 417.26 153.001 413.573 153.001 413.573C157.468 420.867 167.001 413.573 167.001 407.699Z" fill="#797979"/>
<path d="M157.17 390.792C158.309 386.99 163.692 386.99 164.832 390.792L172.447 416.185C173.217 418.751 171.295 421.334 168.616 421.334H153.386C150.707 421.334 148.785 418.751 149.555 416.185L157.17 390.792Z" stroke="#4D4D4D" stroke-width="4"/>
<ellipse cx="160.501" cy="378.504" rx="12.5" ry="12.2371" fill="#FFD081" stroke="#4D4D4D" stroke-width="4"/>
<ellipse cx="158.501" cy="375.393" rx="7.5" ry="7.34226" fill="#FFEFB6"/>
<ellipse cx="160.501" cy="378.504" rx="12.5" ry="12.2371" stroke="#4D4D4D" stroke-width="4"/>
<ellipse rx="12.5" ry="12.2371" transform="matrix(1 0 0 -1 160.501 594.856)" fill="#FFD081" stroke="#4D4D4D" stroke-width="4"/>
<ellipse rx="7.5" ry="7.34226" transform="matrix(1 0 0 -1 158.501 592.724)" fill="#FFEFB6"/>
<ellipse rx="12.5" ry="12.2371" transform="matrix(1 0 0 -1 160.501 594.856)" stroke="#4D4D4D" stroke-width="4"/>
<path d="M157.17 582.569C158.309 586.37 163.692 586.37 164.832 582.569L172.447 557.175C173.217 554.609 171.295 552.026 168.616 552.026H153.386C150.707 552.026 148.785 554.609 149.555 557.175L157.17 582.569Z" fill="#A6A6A6" stroke="#4D4D4D" stroke-width="4"/>
<path d="M161.688 585.382C161.688 585.382 172.546 550.543 169.444 555.52C168.89 556.408 168.202 553.877 167.501 555.52C164.27 563.087 159.752 579.976 156.001 574.322L161.688 585.382Z" fill="#797979"/>
<path d="M157.17 582.569C158.309 586.37 163.692 586.37 164.832 582.569L172.447 557.175C173.217 554.609 171.295 552.026 168.616 552.026H153.386C150.707 552.026 148.785 554.609 149.555 557.175L157.17 582.569Z" stroke="#4D4D4D" stroke-width="4"/>
<path d="M494.896 522.631C496.788 522.664 498.295 524.224 498.261 526.116C498.227 528.008 496.665 529.515 494.773 529.483L467.774 529.018C466.792 529.001 465.864 528.563 465.227 527.815C464.107 526.5 464.142 524.556 465.308 523.28C465.972 522.555 466.915 522.149 467.897 522.166L494.896 522.631Z" fill="#4D4D4D"/>
<line x1="1.5" y1="-1.5" x2="4.5" y2="-1.5" transform="matrix(-0.999852 -0.0172189 0.0179665 -0.999839 501.287 524.699)" stroke="#4D4D4D" stroke-width="3" stroke-linecap="round"/>
<line x1="0.5" y1="-0.5" x2="5.5" y2="-0.5" transform="matrix(-0.999852 -0.0172189 0.0179665 -0.999839 468.274 525.11)" stroke="#4D4D4D" stroke-linecap="round"/>
<path d="M495.217 528.511L495.147 532.426L484.149 532.237" stroke="#4D4D4D" stroke-width="2" stroke-linecap="round" stroke-linejoin="round"/>
</svg>
