<svg width="1359" height="861" viewBox="0 0 1359 861" fill="none" xmlns="http://www.w3.org/2000/svg">
<g clip-path="url(#clip0)">
<path d="M1197.33 711.939H161.437C148.792 711.939 138.567 701.715 138.567 689.069V86.1C138.567 73.4541 148.792 63.2297 161.437 63.2297H1197.33C1209.97 63.2297 1220.2 73.4541 1220.2 86.1V689.069C1220.2 701.715 1209.97 711.939 1197.33 711.939Z" fill="#E6E6E6"/>
<path d="M1261.9 796.425H96.8625V25.5609C96.8625 11.5697 108.432 0 122.423 0H1236.34C1250.33 0 1261.9 11.5697 1261.9 25.5609V796.425ZM102.244 791.044H1256.52V25.5609C1256.52 14.5294 1247.37 5.38125 1236.34 5.38125H122.423C111.392 5.38125 102.244 14.5294 102.244 25.5609V791.044Z" fill="#CCCCCC"/>
<path d="M679.383 44.3953C685.327 44.3953 690.145 39.5768 690.145 33.6328C690.145 27.6888 685.327 22.8703 679.383 22.8703C673.439 22.8703 668.62 27.6888 668.62 33.6328C668.62 39.5768 673.439 44.3953 679.383 44.3953Z" fill="#E6E6E6"/>
<path d="M939.028 584.135H419.737C407.092 584.135 396.867 573.91 396.867 561.264V214.174C396.867 201.528 407.092 191.303 419.737 191.303H939.028C951.674 191.303 961.898 201.528 961.898 214.174V561.264C961.898 573.91 951.674 584.135 939.028 584.135Z" fill="white"/>
<path d="M505.299 339.288C493.461 339.288 483.774 329.602 483.774 317.763C483.774 305.924 493.461 296.238 505.299 296.238C517.138 296.238 526.824 305.924 526.824 317.763C526.555 329.602 517.138 339.288 505.299 339.288Z" fill="#CCCCCC"/>
<path d="M505.299 409.244C493.461 409.244 483.774 399.558 483.774 387.719C483.774 375.88 493.461 366.194 505.299 366.194C517.138 366.194 526.824 375.88 526.824 387.719C526.555 399.558 517.138 409.244 505.299 409.244Z" fill="#6C63FF"/>
<path d="M505.299 479.2C493.461 479.2 483.774 469.514 483.774 457.675C483.774 445.837 493.461 436.15 505.299 436.15C517.138 436.15 526.824 445.837 526.824 457.675C526.555 469.514 517.138 479.2 505.299 479.2Z" fill="#6C63FF"/>
<path d="M607.543 300.274C597.857 300.274 590.054 308.077 590.054 317.763C590.054 327.449 597.857 335.252 607.543 335.252H857.771C867.458 335.252 875.26 327.449 875.26 317.763C875.26 308.077 867.458 300.274 857.771 300.274H607.543Z" fill="#CCCCCC"/>
<path d="M607.543 370.23C597.857 370.23 590.054 378.033 590.054 387.719C590.054 397.405 597.857 405.208 607.543 405.208H857.771C867.458 405.208 875.26 397.405 875.26 387.719C875.26 378.033 867.458 370.23 857.771 370.23H607.543Z" fill="#6C63FF"/>
<path d="M607.543 440.186C597.857 440.186 590.054 447.989 590.054 457.675C590.054 467.362 597.857 475.164 607.543 475.164H857.771C867.458 475.164 875.26 467.362 875.26 457.675C875.26 447.989 867.458 440.186 857.771 440.186H607.543Z" fill="#6C63FF"/>
<path d="M1282.08 761.447H1235V753.375C1235 747.456 1230.15 742.612 1224.23 742.612H1167.73C1161.81 742.612 1156.97 747.456 1156.97 753.375V761.447H1148.9V753.375C1148.9 747.456 1144.05 742.612 1138.13 742.612H1081.63C1075.71 742.612 1070.87 747.456 1070.87 753.375V761.447H1062.8V753.375C1062.8 747.456 1057.95 742.612 1052.03 742.612H995.531C989.612 742.612 984.769 747.456 984.769 753.375V761.447H976.697V753.375C976.697 747.456 971.854 742.612 965.934 742.612H909.431C903.512 742.612 898.669 747.456 898.669 753.375V761.447H890.597V753.375C890.597 747.456 885.754 742.612 879.834 742.612H823.331C817.412 742.612 812.569 747.456 812.569 753.375V761.447H804.497V753.375C804.497 747.456 799.654 742.612 793.734 742.612H737.231C731.312 742.612 726.469 747.456 726.469 753.375V761.447H718.397V753.375C718.397 747.456 713.554 742.612 707.634 742.612H651.131C645.212 742.612 640.369 747.456 640.369 753.375V761.447H632.297V753.375C632.297 747.456 627.454 742.612 621.534 742.612H565.031C559.112 742.612 554.269 747.456 554.269 753.375V761.447H546.197V753.375C546.197 747.456 541.354 742.612 535.434 742.612H478.931C473.012 742.612 468.169 747.456 468.169 753.375V761.447H460.097V753.375C460.097 747.456 455.254 742.612 449.334 742.612H392.831C386.912 742.612 382.069 747.456 382.069 753.375V761.447H373.997V753.375C373.997 747.456 369.154 742.612 363.234 742.612H306.731C300.812 742.612 295.969 747.456 295.969 753.375V761.447H287.897V753.375C287.897 747.456 283.054 742.612 277.134 742.612H220.631C214.712 742.612 209.869 747.456 209.869 753.375V761.447H201.797V753.375C201.797 747.456 196.954 742.612 191.034 742.612H134.531C128.612 742.612 123.769 747.456 123.769 753.375V761.447H76.6828C34.44 761.447 0 795.887 0 838.13C0 850.776 10.2244 861 22.8703 861H1335.9C1348.54 861 1358.77 850.776 1358.77 838.13C1358.77 795.887 1324.33 761.447 1282.08 761.447Z" fill="#3F3D56"/>
</g>
<defs>
<clipPath id="clip0">
<rect width="1358.77" height="861" fill="white"/>
</clipPath>
</defs>
</svg>
