<svg width="968" height="674" viewBox="0 0 968 674" fill="none" xmlns="http://www.w3.org/2000/svg">
<g clip-path="url(#clip0)" filter="url(#filter0_d)">
<path d="M877.76 346.76C864.822 383.347 846.791 417.927 824.2 449.48C823.68 450.22 823.15 450.93 822.62 451.66L754.09 429.47C754.4 428.76 754.74 427.97 755.09 427.1C776.67 376.05 906.56 64.87 892.76 0C894.04 5.37 937.07 181.57 877.76 346.76Z" fill="#E6E6E6"/>
<path d="M837.37 453.76C836.54 454.4 835.67 455.02 834.8 455.63L783.4 438.98L785.55 436.98C799.01 424.4 838.99 386.72 877.71 346.76C919.32 303.83 959.49 258.29 963.71 238.48C962.96 243 937.6 380.48 837.37 453.76Z" fill="#E6E6E6"/>
<path d="M914.82 665.04H33.55C25.7128 665.04 18.1967 661.927 12.655 656.385C7.11333 650.843 4 643.327 4 635.49C323.46 598.357 636.917 598.357 944.37 635.49C944.37 643.327 941.257 650.843 935.715 656.385C930.173 661.927 922.657 665.04 914.82 665.04Z" fill="#1F244D"/>
<path d="M944.37 637.23L4 635.49L113 452.11L113.52 451.24V47.09C113.52 37.1832 117.455 27.6821 124.459 20.676C131.463 13.6699 140.963 9.73263 150.87 9.72998H792.31C802.216 9.72998 811.716 13.6651 818.72 20.6695C825.725 27.674 829.66 37.1742 829.66 47.08V454.02L944.37 637.23Z" fill="#4B518C"/>
<path d="M150.01 35.8101C146.785 35.8127 143.692 37.0944 141.411 39.3739C139.129 41.6535 137.845 44.7449 137.84 47.9701V416.47C137.842 419.697 139.126 422.791 141.407 425.073C143.689 427.354 146.783 428.637 150.01 428.64H798.36C801.585 428.635 804.676 427.351 806.956 425.069C809.235 422.788 810.517 419.695 810.52 416.47V47.9701C810.517 44.7458 809.235 41.6544 806.955 39.3746C804.675 37.0947 801.584 35.8127 798.36 35.8101H150.01Z" fill="white"/>
<path d="M154.27 477.31C153.276 477.307 152.302 477.588 151.463 478.119C150.623 478.651 149.952 479.411 149.53 480.31L115.95 553.31C115.372 554.566 115.316 556 115.794 557.297C116.272 558.595 117.245 559.649 118.5 560.23C119.184 560.542 119.927 560.706 120.68 560.71H826.89C827.779 560.71 828.654 560.482 829.43 560.05C830.207 559.617 830.86 558.992 831.328 558.236C831.796 557.48 832.063 556.617 832.103 555.728C832.144 554.84 831.957 553.956 831.56 553.16L795.05 480.16C794.619 479.293 793.954 478.564 793.131 478.055C792.307 477.546 791.358 477.278 790.39 477.28L154.27 477.31Z" fill="#1F244D"/>
<path d="M471.58 29.7201C475.899 29.7201 479.4 26.2189 479.4 21.9001C479.4 17.5812 475.899 14.0801 471.58 14.0801C467.261 14.0801 463.76 17.5812 463.76 21.9001C463.76 26.2189 467.261 29.7201 471.58 29.7201Z" fill="white"/>
<path d="M402.16 574.65C401.019 574.659 399.913 575.041 399.01 575.738C398.107 576.435 397.457 577.409 397.16 578.51L388.74 609.8C388.534 610.57 388.507 611.377 388.661 612.159C388.815 612.941 389.146 613.677 389.629 614.311C390.111 614.946 390.733 615.461 391.445 615.818C392.158 616.175 392.943 616.363 393.74 616.37H553.93C554.762 616.371 555.582 616.173 556.322 615.793C557.062 615.412 557.699 614.86 558.182 614.183C558.665 613.505 558.978 612.722 559.096 611.899C559.214 611.075 559.133 610.236 558.86 609.45L548.03 578.16C547.676 577.134 547.011 576.245 546.127 575.616C545.243 574.986 544.185 574.649 543.1 574.65H402.16Z" fill="#1F244D"/>
<path d="M829.651 445.16V452.11H112.98L113.53 451.24V445.16H829.651Z" fill="#1F244D"/>
<path d="M741.19 461.08C740.91 461.081 740.639 461.173 740.417 461.343C740.194 461.513 740.034 461.751 739.96 462.02L737.96 469.64C737.874 469.965 737.919 470.31 738.085 470.602C738.252 470.894 738.526 471.109 738.85 471.2C738.959 471.215 739.07 471.215 739.18 471.2H778.18C778.517 471.2 778.84 471.066 779.078 470.828C779.316 470.59 779.45 470.267 779.45 469.93C779.446 469.787 779.422 469.646 779.38 469.51L776.74 461.9C776.654 461.65 776.493 461.432 776.278 461.278C776.062 461.124 775.805 461.04 775.54 461.04L741.19 461.08Z" fill="#F2463A"/>
<path d="M684.23 461.08C683.95 461.081 683.679 461.173 683.457 461.343C683.234 461.513 683.074 461.751 683 462.02L681 469.64C680.914 469.965 680.959 470.31 681.125 470.602C681.292 470.894 681.566 471.109 681.89 471.2C681.999 471.215 682.11 471.215 682.22 471.2H721.22C721.557 471.2 721.88 471.066 722.118 470.828C722.356 470.59 722.49 470.267 722.49 469.93C722.491 469.787 722.467 469.645 722.42 469.51L719.79 461.9C719.704 461.65 719.543 461.432 719.328 461.278C719.112 461.124 718.854 461.04 718.59 461.04L684.23 461.08Z" fill="#F2463A"/>
<path d="M712.28 59.3701H185.2C184.014 59.3701 182.877 59.8411 182.039 60.6794C181.2 61.5176 180.729 62.6546 180.729 63.8401V336.01C180.729 337.196 181.2 338.333 182.039 339.171C182.877 340.009 184.014 340.48 185.2 340.48H712.28C712.979 340.479 713.668 340.314 714.292 339.998C714.915 339.682 715.456 339.224 715.87 338.66C716.107 338.356 716.299 338.019 716.44 337.66C716.643 337.144 716.748 336.595 716.75 336.04V63.8401C716.75 62.6546 716.279 61.5176 715.44 60.6794C714.602 59.8411 713.465 59.3701 712.28 59.3701ZM714.959 336.01C714.959 336.721 714.677 337.403 714.175 337.905C713.672 338.408 712.99 338.69 712.28 338.69H185.2C184.489 338.69 183.807 338.408 183.305 337.905C182.802 337.403 182.52 336.721 182.52 336.01V63.8401C182.52 63.1293 182.802 62.4477 183.305 61.9451C183.807 61.4425 184.489 61.1601 185.2 61.1601H712.28C712.99 61.1601 713.672 61.4425 714.175 61.9451C714.677 62.4477 714.959 63.1293 714.959 63.8401V336.01Z" fill="#E6E6E6"/>
<path d="M293.63 146.07C293.057 146.07 292.507 146.298 292.102 146.703C291.697 147.108 291.47 147.657 291.47 148.23C291.47 148.803 291.697 149.352 292.102 149.757C292.507 150.162 293.057 150.39 293.63 150.39H395.4C395.973 150.399 396.526 150.181 396.937 149.782C397.349 149.384 397.585 148.838 397.595 148.265C397.604 147.692 397.385 147.139 396.987 146.727C396.588 146.316 396.043 146.079 395.47 146.07H293.63Z" fill="#E6E6E6"/>
<path d="M293.63 126.37C293.057 126.37 292.507 126.598 292.102 127.003C291.697 127.408 291.47 127.957 291.47 128.53C291.47 129.103 291.697 129.652 292.102 130.057C292.507 130.463 293.057 130.69 293.63 130.69H322.76C323.333 130.699 323.886 130.481 324.297 130.082C324.709 129.684 324.945 129.138 324.955 128.565C324.964 127.992 324.745 127.439 324.347 127.028C323.948 126.616 323.403 126.379 322.83 126.37H293.63Z" fill="#E6E6E6"/>
<path d="M293.63 166.37C293.084 166.407 292.572 166.651 292.199 167.051C291.825 167.451 291.617 167.978 291.617 168.525C291.617 169.073 291.825 169.6 292.199 170C292.572 170.4 293.084 170.643 293.63 170.68H395.4C395.948 170.653 396.464 170.418 396.845 170.024C397.227 169.63 397.443 169.106 397.452 168.558C397.461 168.01 397.261 167.479 396.893 167.073C396.525 166.666 396.017 166.415 395.47 166.37H293.63Z" fill="#E6E6E6"/>
<path d="M602.06 146.07C602.633 146.07 603.183 146.298 603.588 146.703C603.993 147.108 604.22 147.657 604.22 148.23C604.22 148.803 603.993 149.352 603.588 149.757C603.183 150.162 602.633 150.39 602.06 150.39H500.29C499.717 150.401 499.164 150.183 498.751 149.786C498.339 149.388 498.101 148.843 498.09 148.27C498.08 147.697 498.297 147.144 498.695 146.731C499.092 146.318 499.637 146.081 500.21 146.07H602.06Z" fill="#E6E6E6"/>
<path d="M602.06 126.37C602.633 126.37 603.182 126.598 603.588 127.003C603.993 127.408 604.22 127.957 604.22 128.53C604.22 129.103 603.993 129.652 603.588 130.057C603.182 130.463 602.633 130.69 602.06 130.69H572.95C572.377 130.699 571.824 130.481 571.413 130.082C571.001 129.684 570.764 129.138 570.755 128.565C570.746 127.992 570.965 127.439 571.363 127.028C571.762 126.616 572.307 126.379 572.88 126.37H602.06Z" fill="#E6E6E6"/>
<path d="M602.061 166.37C602.607 166.407 603.118 166.65 603.492 167.051C603.866 167.451 604.074 167.978 604.074 168.525C604.074 169.072 603.866 169.6 603.492 170C603.118 170.4 602.607 170.643 602.061 170.68H500.291C499.996 170.705 499.7 170.669 499.419 170.575C499.139 170.48 498.882 170.329 498.662 170.131C498.443 169.933 498.266 169.692 498.144 169.423C498.021 169.155 497.955 168.863 497.95 168.568C497.944 168.272 497.999 167.979 498.112 167.705C498.224 167.432 498.392 167.185 498.604 166.979C498.816 166.773 499.068 166.612 499.344 166.508C499.62 166.403 499.915 166.356 500.21 166.37H602.061Z" fill="#E6E6E6"/>
<path d="M430.17 249.68H290.31C287.58 249.68 285.37 248.1 285.37 246.16V215.76C285.37 213.82 287.58 212.25 290.31 212.25H430.17C432.9 212.25 435.11 213.82 435.11 215.76V246.16C435.11 248.1 432.9 249.67 430.17 249.68Z" fill="#E6E6E6"/>
<path d="M275.43 108.8H201.57C200.775 108.8 200.012 109.116 199.449 109.679C198.886 110.241 198.57 111.004 198.57 111.8V185.65C198.57 186.446 198.886 187.209 199.449 187.771C200.012 188.334 200.775 188.65 201.57 188.65H275.43C276.226 188.65 276.989 188.334 277.552 187.771C278.114 187.209 278.43 186.446 278.43 185.65V111.78C278.425 110.988 278.107 110.23 277.545 109.672C276.983 109.113 276.222 108.8 275.43 108.8ZM277.21 185.63C277.21 186.103 277.023 186.557 276.69 186.892C276.356 187.228 275.903 187.417 275.43 187.42H201.57C201.097 187.417 200.645 187.228 200.311 186.892C199.978 186.557 199.79 186.103 199.79 185.63V111.78C199.79 111.307 199.978 110.853 200.311 110.518C200.645 110.182 201.097 109.993 201.57 109.99H275.43C275.903 109.993 276.356 110.182 276.69 110.518C277.023 110.853 277.21 111.307 277.21 111.78V185.63Z" fill="#4B518C"/>
<path d="M696.5 108.8H622.65C621.855 108.8 621.092 109.116 620.529 109.679C619.966 110.241 619.65 111.004 619.65 111.8V185.65C619.65 186.446 619.966 187.209 620.529 187.771C621.092 188.334 621.855 188.65 622.65 188.65H696.5C697.296 188.65 698.059 188.334 698.622 187.771C699.184 187.209 699.5 186.446 699.5 185.65V111.78C699.495 110.988 699.177 110.23 698.615 109.672C698.053 109.113 697.293 108.8 696.5 108.8ZM698.28 185.63C698.28 186.103 698.093 186.557 697.76 186.892C697.426 187.228 696.973 187.417 696.5 187.42H622.65C622.176 187.42 621.72 187.231 621.385 186.896C621.049 186.56 620.86 186.105 620.86 185.63V111.78C620.86 111.545 620.907 111.312 620.997 111.095C621.087 110.878 621.218 110.681 621.385 110.514C621.551 110.348 621.748 110.216 621.965 110.126C622.183 110.036 622.415 109.99 622.65 109.99H696.5C696.973 109.993 697.426 110.182 697.76 110.518C698.093 110.853 698.28 111.307 698.28 111.78V185.63Z" fill="#4B518C"/>
<path d="M716.75 82.2H182.52V83.39H716.75V82.2Z" fill="#E6E6E6"/>
<path d="M195.62 77.8301C198.58 77.8301 200.98 75.4304 200.98 72.4701C200.98 69.5099 198.58 67.1101 195.62 67.1101C192.66 67.1101 190.26 69.5099 190.26 72.4701C190.26 75.4304 192.66 77.8301 195.62 77.8301Z" fill="#E6E6E6"/>
<path d="M212.89 77.8301C215.851 77.8301 218.25 75.4304 218.25 72.4701C218.25 69.5099 215.851 67.1101 212.89 67.1101C209.93 67.1101 207.53 69.5099 207.53 72.4701C207.53 75.4304 209.93 77.8301 212.89 77.8301Z" fill="#E6E6E6"/>
<path d="M230.17 77.8301C233.13 77.8301 235.53 75.4304 235.53 72.4701C235.53 69.5099 233.13 67.1101 230.17 67.1101C227.209 67.1101 224.81 69.5099 224.81 72.4701C224.81 75.4304 227.209 77.8301 230.17 77.8301Z" fill="#E6E6E6"/>
<path d="M409.42 230.69H269.56C266.83 230.69 264.62 229.11 264.62 227.17V196.77C264.62 194.83 266.83 193.26 269.56 193.26H409.42C412.15 193.26 414.36 194.83 414.36 196.77V227.17C414.36 229.11 412.15 230.68 409.42 230.69ZM269.56 194.69C267.92 194.69 266.56 195.64 266.56 196.8V227.2C266.56 228.37 267.89 229.31 269.56 229.31H409.42C411.06 229.31 412.42 228.37 412.42 227.2V196.77C412.42 195.61 411.1 194.67 409.42 194.67L269.56 194.69Z" fill="#4B518C"/>
<path d="M290.03 223.05C296.282 223.05 301.35 217.982 301.35 211.73C301.35 205.478 296.282 200.41 290.03 200.41C283.778 200.41 278.71 205.478 278.71 211.73C278.71 217.982 283.778 223.05 290.03 223.05Z" fill="#1F244D"/>
<path d="M314.47 203.62C313.924 203.657 313.412 203.901 313.039 204.301C312.665 204.701 312.457 205.228 312.457 205.775C312.457 206.323 312.665 206.85 313.039 207.25C313.412 207.65 313.924 207.893 314.47 207.93H395.4C395.948 207.903 396.464 207.668 396.845 207.274C397.226 206.88 397.443 206.356 397.452 205.808C397.461 205.26 397.261 204.729 396.893 204.323C396.525 203.916 396.016 203.665 395.47 203.62H314.47Z" fill="#4B518C"/>
<path d="M314.47 215.53C313.924 215.567 313.412 215.81 313.039 216.211C312.665 216.611 312.457 217.138 312.457 217.685C312.457 218.232 312.665 218.759 313.039 219.16C313.412 219.56 313.924 219.803 314.47 219.84H395.4C395.948 219.813 396.464 219.578 396.845 219.184C397.226 218.79 397.443 218.266 397.452 217.718C397.461 217.17 397.261 216.639 396.893 216.232C396.525 215.826 396.016 215.575 395.47 215.53H314.47Z" fill="#4B518C"/>
<path d="M465.95 199.56C465.239 199.56 464.557 199.842 464.055 200.345C463.552 200.848 463.27 201.529 463.27 202.24V258.24C463.27 258.951 463.552 259.633 464.055 260.135C464.557 260.638 465.239 260.92 465.95 260.92H683.329C684.04 260.92 684.722 260.638 685.225 260.135C685.727 259.633 686.01 258.951 686.01 258.24V202.24C686.01 201.529 685.727 200.848 685.225 200.345C684.722 199.842 684.04 199.56 683.329 199.56H465.95Z" fill="#8991DC"/>
<path d="M683.33 413.37H465.951C464.765 413.37 463.628 412.899 462.79 412.061C461.951 411.223 461.48 410.086 461.48 408.9V202.83C461.483 201.646 461.955 200.512 462.793 199.676C463.631 198.84 464.767 198.37 465.951 198.37H683.33C684.514 198.37 685.65 198.84 686.488 199.676C687.326 200.512 687.798 201.646 687.801 202.83V408.9C687.801 409.487 687.685 410.068 687.46 410.611C687.236 411.153 686.906 411.646 686.491 412.061C686.076 412.476 685.583 412.805 685.041 413.03C684.499 413.254 683.917 413.37 683.33 413.37ZM465.951 200.15C465.241 200.153 464.56 200.436 464.058 200.938C463.556 201.44 463.273 202.12 463.271 202.83V408.9C463.271 409.611 463.553 410.293 464.055 410.795C464.558 411.298 465.24 411.58 465.951 411.58H683.33C684.041 411.58 684.723 411.298 685.226 410.795C685.728 410.293 686.01 409.611 686.01 408.9V202.83C686.008 202.12 685.725 201.44 685.223 200.938C684.721 200.436 684.04 200.153 683.33 200.15H465.951Z" fill="#4B518C"/>
<path d="M623.98 284.37H558.76V285.56H623.98C627.131 285.651 630.121 286.966 632.318 289.226C634.514 291.486 635.742 294.513 635.742 297.665C635.742 300.817 634.514 303.844 632.318 306.104C630.121 308.364 627.131 309.679 623.98 309.77H525.3C523.681 309.817 522.07 309.538 520.56 308.95C519.051 308.363 517.675 307.479 516.513 306.35C515.352 305.222 514.428 303.871 513.798 302.38C513.167 300.888 512.842 299.285 512.842 297.665C512.842 296.045 513.167 294.442 513.798 292.95C514.428 291.459 515.352 290.108 516.513 288.98C517.675 287.851 519.051 286.967 520.56 286.38C522.07 285.792 523.681 285.513 525.3 285.56H528.99V284.37H525.3C523.524 284.321 521.755 284.629 520.1 285.275C518.444 285.922 516.935 286.893 515.661 288.132C514.387 289.372 513.375 290.854 512.683 292.491C511.992 294.128 511.636 295.888 511.636 297.665C511.636 299.442 511.992 301.202 512.683 302.839C513.375 304.476 514.387 305.958 515.661 307.198C516.935 308.437 518.444 309.408 520.1 310.055C521.755 310.701 523.524 311.009 525.3 310.96H623.98C627.443 310.865 630.733 309.423 633.148 306.94C635.564 304.457 636.916 301.129 636.916 297.665C636.916 294.201 635.564 290.873 633.148 288.39C630.733 285.907 627.443 284.465 623.98 284.37Z" fill="#E6E6E6"/>
<path d="M623.98 325.37H558.76V326.56H623.98C627.192 326.56 630.272 327.836 632.543 330.107C634.814 332.378 636.09 335.458 636.09 338.67C636.09 341.882 634.814 344.962 632.543 347.233C630.272 349.504 627.192 350.78 623.98 350.78H525.3C522.088 350.78 519.008 349.504 516.737 347.233C514.466 344.962 513.19 341.882 513.19 338.67C513.19 335.458 514.466 332.378 516.737 330.107C519.008 327.836 522.088 326.56 525.3 326.56H528.99V325.37H525.3C521.773 325.37 518.39 326.771 515.896 329.266C513.401 331.76 512 335.143 512 338.67C512 342.197 513.401 345.58 515.896 348.075C518.39 350.569 521.773 351.97 525.3 351.97H623.98C627.507 351.97 630.89 350.569 633.385 348.075C635.879 345.58 637.28 342.197 637.28 338.67C637.28 335.143 635.879 331.76 633.385 329.266C630.89 326.771 627.507 325.37 623.98 325.37Z" fill="#E6E6E6"/>
<path d="M623.98 366.51H558.76V367.7H623.98C627.13 367.79 630.121 369.105 632.317 371.366C634.514 373.626 635.742 376.653 635.742 379.805C635.742 382.956 634.514 385.984 632.317 388.244C630.121 390.504 627.13 391.819 623.98 391.91H525.3C523.681 391.956 522.069 391.678 520.56 391.09C519.051 390.503 517.675 389.619 516.513 388.49C515.351 387.361 514.428 386.011 513.798 384.519C513.167 383.028 512.842 381.424 512.842 379.805C512.842 378.185 513.167 376.582 513.798 375.09C514.428 373.599 515.351 372.248 516.513 371.12C517.675 369.991 519.051 369.107 520.56 368.519C522.069 367.932 523.681 367.653 525.3 367.7H529V366.51H525.31C523.534 366.461 521.765 366.769 520.109 367.415C518.454 368.061 516.945 369.033 515.671 370.272C514.397 371.512 513.384 372.994 512.693 374.631C512.002 376.268 511.646 378.028 511.646 379.805C511.646 381.582 512.002 383.341 512.693 384.979C513.384 386.616 514.397 388.098 515.671 389.337C516.945 390.577 518.454 391.548 520.109 392.195C521.765 392.841 523.534 393.149 525.31 393.1H624C627.463 393.005 630.752 391.563 633.168 389.08C635.584 386.597 636.935 383.269 636.935 379.805C636.935 376.341 635.584 373.013 633.168 370.53C630.752 368.047 627.463 366.605 624 366.51H623.98Z" fill="#E6E6E6"/>
<path d="M536.35 281.17C535.412 281.17 534.511 281.543 533.847 282.207C533.183 282.871 532.811 283.771 532.811 284.71C532.811 285.649 533.183 286.549 533.847 287.213C534.511 287.877 535.412 288.25 536.35 288.25H551.88C552.819 288.266 553.726 287.908 554.401 287.256C555.076 286.603 555.465 285.709 555.48 284.77C555.496 283.831 555.139 282.924 554.486 282.249C553.833 281.574 552.939 281.186 552 281.17H536.35Z" fill="#4B518C"/>
<path d="M536.35 322.86C535.412 322.86 534.511 323.233 533.847 323.897C533.183 324.561 532.811 325.461 532.811 326.4C532.811 327.339 533.183 328.239 533.847 328.903C534.511 329.567 535.412 329.94 536.35 329.94H551.88C552.819 329.956 553.726 329.598 554.401 328.945C555.076 328.293 555.465 327.399 555.48 326.46C555.496 325.521 555.139 324.614 554.486 323.939C553.833 323.264 552.939 322.876 552 322.86H536.35Z" fill="#4B518C"/>
<path d="M536.35 363.37C535.412 363.37 534.511 363.743 533.847 364.407C533.183 365.071 532.811 365.971 532.811 366.91C532.811 367.849 533.183 368.749 533.847 369.413C534.511 370.077 535.412 370.45 536.35 370.45H551.88C552.345 370.459 552.807 370.376 553.24 370.206C553.673 370.035 554.068 369.782 554.403 369.459C554.737 369.137 555.005 368.751 555.191 368.325C555.377 367.899 555.477 367.44 555.485 366.975C555.494 366.51 555.411 366.048 555.241 365.615C555.071 365.183 554.817 364.788 554.495 364.453C554.172 364.118 553.786 363.85 553.36 363.664C552.934 363.479 552.475 363.379 552.01 363.37H536.35Z" fill="#4B518C"/>
<path d="M530.18 294.07C529.272 294.118 528.418 294.513 527.792 295.172C527.167 295.832 526.818 296.706 526.818 297.615C526.818 298.524 527.167 299.398 527.792 300.058C528.418 300.717 529.272 301.112 530.18 301.16H618.98C619.89 301.128 620.752 300.748 621.39 300.098C622.027 299.448 622.39 298.578 622.404 297.667C622.419 296.757 622.083 295.876 621.466 295.207C620.849 294.537 619.998 294.13 619.09 294.07H530.18Z" fill="#E6E6E6"/>
<path d="M530.18 335.17C529.241 335.17 528.34 335.543 527.677 336.207C527.013 336.871 526.64 337.771 526.64 338.71C526.64 339.649 527.013 340.549 527.677 341.213C528.34 341.877 529.241 342.25 530.18 342.25H618.98C619.444 342.257 619.906 342.173 620.339 342.002C620.771 341.83 621.165 341.576 621.499 341.252C621.833 340.928 622.1 340.542 622.284 340.115C622.469 339.689 622.567 339.23 622.575 338.765C622.582 338.3 622.497 337.838 622.326 337.406C622.155 336.974 621.9 336.579 621.577 336.246C621.253 335.912 620.867 335.645 620.44 335.46C620.013 335.276 619.554 335.177 619.09 335.17H530.18Z" fill="#E6E6E6"/>
<path d="M530.18 376.26C529.272 376.308 528.418 376.703 527.792 377.362C527.167 378.022 526.818 378.896 526.818 379.805C526.818 380.714 527.167 381.588 527.792 382.248C528.418 382.907 529.272 383.302 530.18 383.35H618.98C619.89 383.318 620.752 382.938 621.39 382.288C622.027 381.638 622.39 380.768 622.404 379.857C622.419 378.947 622.083 378.066 621.466 377.397C620.849 376.727 619.998 376.32 619.09 376.26H530.18Z" fill="#E6E6E6"/>
<path d="M508.48 230.23C508.48 233.059 507.641 235.824 506.069 238.176C504.497 240.528 502.263 242.36 499.65 243.442C497.036 244.524 494.161 244.807 491.386 244.255C488.612 243.702 486.064 242.339 484.065 240.338C482.065 238.337 480.704 235.788 480.153 233.014C479.603 230.239 479.887 227.364 480.971 224.751C482.055 222.138 483.89 219.905 486.243 218.335C488.595 216.765 491.361 215.928 494.19 215.93C497.965 215.917 501.591 217.403 504.27 220.062C506.95 222.721 508.464 226.335 508.48 230.11V230.23Z" fill="white"/>
<path d="M519.82 218.95C518.881 218.95 517.981 219.323 517.317 219.987C516.653 220.651 516.28 221.551 516.28 222.49C516.28 223.429 516.653 224.329 517.317 224.993C517.981 225.657 518.881 226.03 519.82 226.03H608.61C609.075 226.038 609.537 225.954 609.969 225.783C610.402 225.613 610.797 225.359 611.131 225.036C611.465 224.712 611.733 224.327 611.918 223.9C612.103 223.474 612.202 223.015 612.21 222.55C612.218 222.085 612.134 221.623 611.964 221.191C611.793 220.758 611.539 220.364 611.216 220.029C610.893 219.695 610.507 219.428 610.08 219.242C609.654 219.057 609.195 218.958 608.73 218.95H519.82Z" fill="white"/>
<path d="M519.82 234.43C518.881 234.43 517.981 234.803 517.317 235.467C516.653 236.131 516.28 237.031 516.28 237.97C516.28 238.909 516.653 239.809 517.317 240.473C517.981 241.137 518.881 241.51 519.82 241.51H665.82C666.759 241.525 667.665 241.166 668.339 240.512C669.014 239.858 669.401 238.964 669.415 238.025C669.43 237.086 669.071 236.18 668.417 235.506C667.764 234.831 666.869 234.445 665.93 234.43H519.82Z" fill="white"/>
<path d="M572.76 198.63C572.169 195.621 572.524 192.502 573.778 189.703C575.031 186.905 577.121 184.563 579.76 183C582.18 181.59 585.21 180.85 587.86 182.11C588.367 182.312 588.815 182.638 589.164 183.057C589.513 183.476 589.753 183.975 589.86 184.51C589.908 185.09 589.769 185.67 589.463 186.165C589.157 186.66 588.7 187.044 588.16 187.26C587.625 187.541 587.03 187.688 586.425 187.688C585.821 187.688 585.225 187.541 584.69 187.26C584.12 186.873 583.649 186.358 583.315 185.755C582.981 185.152 582.795 184.479 582.77 183.79C582.51 180.37 585.13 177.87 588.16 176.79C592.03 175.42 596.16 176.06 600.22 176.15C604.065 176.228 607.907 175.893 611.68 175.15C620.065 173.498 627.943 169.898 634.68 164.64C635.59 163.93 634.31 162.64 633.42 163.37C626.632 168.627 618.66 172.143 610.2 173.61C605.86 174.303 601.456 174.508 597.07 174.22C592.88 174.02 588.34 174.01 584.75 176.51C581.82 178.51 580.08 182.2 581.35 185.71C581.604 186.488 582.025 187.2 582.585 187.796C583.145 188.393 583.83 188.858 584.59 189.16C585.305 189.393 586.059 189.484 586.809 189.425C587.559 189.367 588.29 189.161 588.96 188.82C589.626 188.524 590.208 188.068 590.655 187.492C591.102 186.916 591.4 186.238 591.522 185.52C591.643 184.801 591.586 184.064 591.353 183.373C591.121 182.682 590.721 182.059 590.19 181.56C587.88 179.41 584.19 179.26 581.31 180.28C577.583 181.606 574.472 184.254 572.566 187.72C570.66 191.187 570.092 195.233 570.97 199.09C571.26 200.23 572.98 199.75 572.76 198.63Z" fill="#4B518C"/>
<path d="M681.228 160.858C683.364 147.703 674.431 135.308 661.276 133.173C648.122 131.038 635.727 139.971 633.592 153.125C631.457 166.28 640.389 178.674 653.544 180.81C666.698 182.945 679.093 174.012 681.228 160.858Z" fill="#8991DC"/>
<path d="M646.409 143.98C643.589 143.31 640.55 142.42 638.55 140.2C636.84 138.31 636.03 135.4 637.55 133.2C638.93 131.2 641.659 130.41 643.959 130.03C646.629 129.58 649.369 129.52 651.879 128.38C653.107 127.822 654.179 126.97 654.999 125.9C655.773 124.833 656.443 123.695 656.999 122.5C657.519 121.333 658.221 120.256 659.079 119.31C660.042 118.36 661.289 117.749 662.629 117.57C665.629 117.11 668.529 118.51 670.909 120.24C673.209 121.957 675.297 123.941 677.129 126.15C681.286 131.106 684.149 137.016 685.459 143.35C685.639 144.2 686.939 143.84 686.759 142.99C685.508 136.998 682.909 131.369 679.159 126.53C677.305 124.113 675.17 121.924 672.8 120.01C670.35 118.01 667.519 116.31 664.289 116.15C662.8 116.063 661.312 116.359 659.969 117.01C658.741 117.664 657.707 118.63 656.969 119.81C655.449 122.12 654.719 125.09 652.269 126.65C649.819 128.21 646.679 128.25 643.859 128.65C641.359 129.04 638.569 129.86 636.859 131.87C636.003 132.956 635.504 134.28 635.433 135.661C635.361 137.042 635.72 138.411 636.459 139.58C638.019 142.31 640.91 143.8 643.81 144.68C644.56 144.91 645.31 145.1 646.07 145.28C646.83 145.46 647.28 144.18 646.43 143.98H646.409Z" fill="#1F244D"/>
<path d="M656.33 165.03V164.12C657.822 164.224 659.31 163.876 660.6 163.12C660.91 162.882 661.166 162.58 661.351 162.235C661.535 161.891 661.644 161.51 661.67 161.12C661.69 160.876 661.653 160.631 661.563 160.404C661.473 160.177 661.332 159.974 661.15 159.81C660.728 159.559 660.246 159.427 659.755 159.427C659.264 159.427 658.782 159.559 658.36 159.81L657.62 160.15L659.05 149.7L659.94 149.82L658.73 158.71C659.227 158.528 659.761 158.472 660.284 158.547C660.808 158.622 661.305 158.826 661.73 159.14C662.012 159.387 662.234 159.697 662.378 160.043C662.522 160.39 662.584 160.765 662.56 161.14C662.534 161.674 662.392 162.196 662.143 162.669C661.894 163.143 661.545 163.556 661.12 163.88C659.674 164.734 658.006 165.135 656.33 165.03Z" fill="#1F244D"/>
<path d="M669.19 150.57H664.33V151.47H669.19V150.57Z" fill="#1F244D"/>
<path d="M653.87 150.57H649.01V151.47H653.87V150.57Z" fill="#1F244D"/>
<path d="M239.7 180.72C253.54 180.72 264.76 169.5 264.76 155.66C264.76 141.82 253.54 130.6 239.7 130.6C225.859 130.6 214.64 141.82 214.64 155.66C214.64 169.5 225.859 180.72 239.7 180.72Z" fill="#8991DC"/>
<path d="M238.63 164.03V163.09C240.38 163.04 241.91 162.93 243.07 162.09C243.396 161.837 243.664 161.517 243.856 161.151C244.047 160.785 244.158 160.382 244.18 159.97C244.2 159.719 244.161 159.466 244.068 159.232C243.974 158.998 243.828 158.788 243.64 158.62C243.201 158.36 242.7 158.222 242.19 158.222C241.68 158.222 241.179 158.36 240.74 158.62L239.97 158.98L241.45 148.12L242.38 148.24L241.12 157.48C241.638 157.289 242.195 157.23 242.742 157.309C243.288 157.387 243.807 157.601 244.25 157.93C244.545 158.191 244.777 158.516 244.928 158.88C245.078 159.243 245.144 159.637 245.12 160.03C245.091 160.585 244.942 161.128 244.683 161.62C244.424 162.112 244.061 162.542 243.62 162.88C242.111 163.759 240.371 164.16 238.63 164.03Z" fill="#1F244D"/>
<path d="M251.98 149.01H246.94V149.95H251.98V149.01Z" fill="#1F244D"/>
<path d="M236.06 149.01H231.02V149.95H236.06V149.01Z" fill="#1F244D"/>
<path d="M246.08 139.83C247.56 139.651 248.97 139.098 250.177 138.223C251.384 137.349 252.349 136.181 252.98 134.83C253.658 133.439 254.011 131.912 254.011 130.365C254.011 128.818 253.658 127.291 252.98 125.9C251.557 122.983 249.183 120.638 246.25 119.25C242.801 117.697 239.025 117.011 235.25 117.25C228.17 117.53 220.37 119.52 216.02 125.56C213.968 128.296 213.077 131.731 213.54 135.12C214.09 138.68 216.26 141.75 218.54 144.41C220.82 147.07 223.75 149.7 225.67 152.88C227.32 155.64 228.21 159.11 227.11 162.24C226.837 162.966 226.445 163.642 225.95 164.24C225.37 164.93 226.36 165.93 226.95 165.24C227.875 164.039 228.515 162.644 228.822 161.159C229.129 159.674 229.094 158.139 228.72 156.67C228.03 153.38 226.04 150.59 223.86 148.1C219.62 143.26 213.3 137.98 215.08 130.74C215.918 127.605 217.824 124.86 220.47 122.98C223.352 121.01 226.639 119.712 230.09 119.18C236.63 118.01 244.56 118.13 249.5 123.23C250.579 124.266 251.415 125.527 251.95 126.924C252.484 128.321 252.702 129.819 252.59 131.31C252.427 132.691 251.92 134.01 251.117 135.145C250.313 136.281 249.238 137.197 247.99 137.81C247.381 138.08 246.733 138.249 246.07 138.31C245.18 138.4 245.17 139.8 246.07 139.72L246.08 139.83Z" fill="#1F244D"/>
<path d="M322.81 270.37H25.7098C19.11 270.37 13.7598 275.72 13.7598 282.32V401.42C13.7598 408.02 19.11 413.37 25.7098 413.37H322.81C329.41 413.37 334.76 408.02 334.76 401.42V282.32C334.76 275.72 329.41 270.37 322.81 270.37Z" fill="#F56F65"/>
<path d="M192.37 379C190.568 379 188.806 378.466 187.307 377.464C185.809 376.463 184.641 375.039 183.952 373.374C183.263 371.709 183.083 369.877 183.436 368.109C183.788 366.342 184.657 364.718 185.932 363.445C187.207 362.171 188.831 361.304 190.599 360.954C192.366 360.603 194.199 360.785 195.863 361.476C197.527 362.167 198.95 363.337 199.949 364.836C200.949 366.336 201.482 368.098 201.48 369.9C201.48 371.096 201.244 372.28 200.786 373.385C200.328 374.489 199.657 375.493 198.811 376.338C197.965 377.183 196.961 377.854 195.855 378.31C194.75 378.767 193.566 379.001 192.37 379ZM192.37 361.31C190.671 361.31 189.01 361.814 187.597 362.758C186.185 363.702 185.084 365.043 184.434 366.613C183.783 368.182 183.613 369.91 183.945 371.576C184.276 373.242 185.094 374.773 186.296 375.974C187.497 377.175 189.028 377.994 190.694 378.325C192.36 378.656 194.087 378.486 195.657 377.836C197.227 377.186 198.568 376.085 199.512 374.672C200.456 373.26 200.96 371.599 200.96 369.9C200.96 367.622 200.055 365.437 198.444 363.826C196.833 362.215 194.648 361.31 192.37 361.31Z" fill="#3D4273"/>
<path d="M195.86 369.03H193.24V366.37C193.24 366.139 193.148 365.918 192.985 365.755C192.822 365.592 192.6 365.5 192.37 365.5C192.139 365.5 191.918 365.592 191.755 365.755C191.591 365.918 191.5 366.139 191.5 366.37V368.99H188.88C188.649 368.99 188.428 369.082 188.265 369.245C188.101 369.408 188.01 369.629 188.01 369.86C188.01 370.091 188.101 370.312 188.265 370.475C188.428 370.638 188.649 370.73 188.88 370.73H191.5V373.37C191.5 373.601 191.591 373.822 191.755 373.985C191.918 374.148 192.139 374.24 192.37 374.24C192.6 374.24 192.822 374.148 192.985 373.985C193.148 373.822 193.24 373.601 193.24 373.37V370.77H195.86C196.09 370.77 196.312 370.678 196.475 370.515C196.638 370.352 196.73 370.131 196.73 369.9C196.73 369.669 196.638 369.448 196.475 369.285C196.312 369.122 196.09 369.03 195.86 369.03Z" fill="white"/>
<g opacity="0.4">
<path opacity="0.4" d="M35.8898 380.13C36.6078 380.13 37.1898 379.548 37.1898 378.83C37.1898 378.112 36.6078 377.53 35.8898 377.53C35.1719 377.53 34.5898 378.112 34.5898 378.83C34.5898 379.548 35.1719 380.13 35.8898 380.13Z" fill="white"/>
<path opacity="0.4" d="M35.8898 374.72C36.6078 374.72 37.1898 374.138 37.1898 373.42C37.1898 372.702 36.6078 372.12 35.8898 372.12C35.1719 372.12 34.5898 372.702 34.5898 373.42C34.5898 374.138 35.1719 374.72 35.8898 374.72Z" fill="white"/>
<path opacity="0.4" d="M35.8898 369.32C36.6078 369.32 37.1898 368.738 37.1898 368.02C37.1898 367.302 36.6078 366.72 35.8898 366.72C35.1719 366.72 34.5898 367.302 34.5898 368.02C34.5898 368.738 35.1719 369.32 35.8898 369.32Z" fill="white"/>
<path opacity="0.4" d="M35.8898 363.91C36.6078 363.91 37.1898 363.328 37.1898 362.61C37.1898 361.892 36.6078 361.31 35.8898 361.31C35.1719 361.31 34.5898 361.892 34.5898 362.61C34.5898 363.328 35.1719 363.91 35.8898 363.91Z" fill="white"/>
<path opacity="0.4" d="M35.8898 358.51C36.6078 358.51 37.1898 357.928 37.1898 357.21C37.1898 356.492 36.6078 355.91 35.8898 355.91C35.1719 355.91 34.5898 356.492 34.5898 357.21C34.5898 357.928 35.1719 358.51 35.8898 358.51Z" fill="white"/>
<path opacity="0.4" d="M35.8898 353.11C36.6078 353.11 37.1898 352.528 37.1898 351.81C37.1898 351.092 36.6078 350.51 35.8898 350.51C35.1719 350.51 34.5898 351.092 34.5898 351.81C34.5898 352.528 35.1719 353.11 35.8898 353.11Z" fill="white"/>
<path opacity="0.4" d="M35.8898 347.7C36.6078 347.7 37.1898 347.118 37.1898 346.4C37.1898 345.682 36.6078 345.1 35.8898 345.1C35.1719 345.1 34.5898 345.682 34.5898 346.4C34.5898 347.118 35.1719 347.7 35.8898 347.7Z" fill="white"/>
<path opacity="0.4" d="M40.0002 380.13C40.7182 380.13 41.3002 379.548 41.3002 378.83C41.3002 378.112 40.7182 377.53 40.0002 377.53C39.2822 377.53 38.7002 378.112 38.7002 378.83C38.7002 379.548 39.2822 380.13 40.0002 380.13Z" fill="white"/>
<path opacity="0.4" d="M40.0002 374.72C40.7182 374.72 41.3002 374.138 41.3002 373.42C41.3002 372.702 40.7182 372.12 40.0002 372.12C39.2822 372.12 38.7002 372.702 38.7002 373.42C38.7002 374.138 39.2822 374.72 40.0002 374.72Z" fill="white"/>
<path opacity="0.4" d="M40.0002 369.32C40.7182 369.32 41.3002 368.738 41.3002 368.02C41.3002 367.302 40.7182 366.72 40.0002 366.72C39.2822 366.72 38.7002 367.302 38.7002 368.02C38.7002 368.738 39.2822 369.32 40.0002 369.32Z" fill="white"/>
<path opacity="0.4" d="M40.0002 363.91C40.7182 363.91 41.3002 363.328 41.3002 362.61C41.3002 361.892 40.7182 361.31 40.0002 361.31C39.2822 361.31 38.7002 361.892 38.7002 362.61C38.7002 363.328 39.2822 363.91 40.0002 363.91Z" fill="white"/>
<path opacity="0.4" d="M40.0002 358.51C40.7182 358.51 41.3002 357.928 41.3002 357.21C41.3002 356.492 40.7182 355.91 40.0002 355.91C39.2822 355.91 38.7002 356.492 38.7002 357.21C38.7002 357.928 39.2822 358.51 40.0002 358.51Z" fill="white"/>
<path opacity="0.4" d="M40.0002 353.11C40.7182 353.11 41.3002 352.528 41.3002 351.81C41.3002 351.092 40.7182 350.51 40.0002 350.51C39.2822 350.51 38.7002 351.092 38.7002 351.81C38.7002 352.528 39.2822 353.11 40.0002 353.11Z" fill="white"/>
<path opacity="0.4" d="M40.0002 347.7C40.7182 347.7 41.3002 347.118 41.3002 346.4C41.3002 345.682 40.7182 345.1 40.0002 345.1C39.2822 345.1 38.7002 345.682 38.7002 346.4C38.7002 347.118 39.2822 347.7 40.0002 347.7Z" fill="white"/>
<path opacity="0.4" d="M44.1096 380.13C44.8275 380.13 45.4096 379.548 45.4096 378.83C45.4096 378.112 44.8275 377.53 44.1096 377.53C43.3916 377.53 42.8096 378.112 42.8096 378.83C42.8096 379.548 43.3916 380.13 44.1096 380.13Z" fill="white"/>
<path opacity="0.4" d="M44.1096 374.72C44.8275 374.72 45.4096 374.138 45.4096 373.42C45.4096 372.702 44.8275 372.12 44.1096 372.12C43.3916 372.12 42.8096 372.702 42.8096 373.42C42.8096 374.138 43.3916 374.72 44.1096 374.72Z" fill="white"/>
<path opacity="0.4" d="M44.1096 369.32C44.8275 369.32 45.4096 368.738 45.4096 368.02C45.4096 367.302 44.8275 366.72 44.1096 366.72C43.3916 366.72 42.8096 367.302 42.8096 368.02C42.8096 368.738 43.3916 369.32 44.1096 369.32Z" fill="white"/>
<path opacity="0.4" d="M44.1096 363.91C44.8275 363.91 45.4096 363.328 45.4096 362.61C45.4096 361.892 44.8275 361.31 44.1096 361.31C43.3916 361.31 42.8096 361.892 42.8096 362.61C42.8096 363.328 43.3916 363.91 44.1096 363.91Z" fill="white"/>
<path opacity="0.4" d="M44.1096 358.51C44.8275 358.51 45.4096 357.928 45.4096 357.21C45.4096 356.492 44.8275 355.91 44.1096 355.91C43.3916 355.91 42.8096 356.492 42.8096 357.21C42.8096 357.928 43.3916 358.51 44.1096 358.51Z" fill="white"/>
<path opacity="0.4" d="M44.1096 353.11C44.8275 353.11 45.4096 352.528 45.4096 351.81C45.4096 351.092 44.8275 350.51 44.1096 350.51C43.3916 350.51 42.8096 351.092 42.8096 351.81C42.8096 352.528 43.3916 353.11 44.1096 353.11Z" fill="white"/>
<path opacity="0.4" d="M44.1096 347.7C44.8275 347.7 45.4096 347.118 45.4096 346.4C45.4096 345.682 44.8275 345.1 44.1096 345.1C43.3916 345.1 42.8096 345.682 42.8096 346.4C42.8096 347.118 43.3916 347.7 44.1096 347.7Z" fill="white"/>
<path opacity="0.4" d="M48.2102 380.13C48.9281 380.13 49.5102 379.548 49.5102 378.83C49.5102 378.112 48.9281 377.53 48.2102 377.53C47.4922 377.53 46.9102 378.112 46.9102 378.83C46.9102 379.548 47.4922 380.13 48.2102 380.13Z" fill="white"/>
<path opacity="0.4" d="M48.2102 374.72C48.9281 374.72 49.5102 374.138 49.5102 373.42C49.5102 372.702 48.9281 372.12 48.2102 372.12C47.4922 372.12 46.9102 372.702 46.9102 373.42C46.9102 374.138 47.4922 374.72 48.2102 374.72Z" fill="white"/>
<path opacity="0.4" d="M52.3195 380.13C53.0375 380.13 53.6195 379.548 53.6195 378.83C53.6195 378.112 53.0375 377.53 52.3195 377.53C51.6016 377.53 51.0195 378.112 51.0195 378.83C51.0195 379.548 51.6016 380.13 52.3195 380.13Z" fill="white"/>
<path opacity="0.4" d="M52.3195 374.72C53.0375 374.72 53.6195 374.138 53.6195 373.42C53.6195 372.702 53.0375 372.12 52.3195 372.12C51.6016 372.12 51.0195 372.702 51.0195 373.42C51.0195 374.138 51.6016 374.72 52.3195 374.72Z" fill="white"/>
<path opacity="0.4" d="M52.3195 369.32C53.0375 369.32 53.6195 368.738 53.6195 368.02C53.6195 367.302 53.0375 366.72 52.3195 366.72C51.6016 366.72 51.0195 367.302 51.0195 368.02C51.0195 368.738 51.6016 369.32 52.3195 369.32Z" fill="white"/>
<path opacity="0.4" d="M48.2102 369.32C48.9281 369.32 49.5102 368.738 49.5102 368.02C49.5102 367.302 48.9281 366.72 48.2102 366.72C47.4922 366.72 46.9102 367.302 46.9102 368.02C46.9102 368.738 47.4922 369.32 48.2102 369.32Z" fill="white"/>
<path opacity="0.4" d="M48.2102 363.91C48.9281 363.91 49.5102 363.328 49.5102 362.61C49.5102 361.892 48.9281 361.31 48.2102 361.31C47.4922 361.31 46.9102 361.892 46.9102 362.61C46.9102 363.328 47.4922 363.91 48.2102 363.91Z" fill="white"/>
<path opacity="0.4" d="M48.2102 358.51C48.9281 358.51 49.5102 357.928 49.5102 357.21C49.5102 356.492 48.9281 355.91 48.2102 355.91C47.4922 355.91 46.9102 356.492 46.9102 357.21C46.9102 357.928 47.4922 358.51 48.2102 358.51Z" fill="white"/>
<path opacity="0.4" d="M48.2102 353.11C48.9281 353.11 49.5102 352.528 49.5102 351.81C49.5102 351.092 48.9281 350.51 48.2102 350.51C47.4922 350.51 46.9102 351.092 46.9102 351.81C46.9102 352.528 47.4922 353.11 48.2102 353.11Z" fill="white"/>
<path opacity="0.4" d="M48.2102 347.7C48.9281 347.7 49.5102 347.118 49.5102 346.4C49.5102 345.682 48.9281 345.1 48.2102 345.1C47.4922 345.1 46.9102 345.682 46.9102 346.4C46.9102 347.118 47.4922 347.7 48.2102 347.7Z" fill="white"/>
</g>
<path d="M150.35 290.59H64.1896C63.767 290.593 63.3626 290.762 63.0647 291.062C62.7668 291.362 62.5996 291.767 62.5996 292.19V365.87C62.5996 366.292 62.7671 366.696 63.0653 366.994C63.3635 367.293 63.7679 367.46 64.1896 367.46H150.35C150.559 367.461 150.767 367.421 150.961 367.342C151.155 367.263 151.332 367.146 151.48 366.998C151.629 366.85 151.747 366.674 151.828 366.481C151.908 366.287 151.95 366.08 151.95 365.87V292.19C151.95 291.766 151.781 291.359 151.481 291.059C151.181 290.759 150.774 290.59 150.35 290.59ZM151.35 365.87C151.35 366.135 151.244 366.39 151.057 366.577C150.869 366.765 150.615 366.87 150.35 366.87H64.1896C63.9331 366.857 63.6914 366.746 63.5146 366.56C63.3377 366.374 63.2392 366.127 63.2396 365.87V292.19C63.2392 291.933 63.3377 291.686 63.5146 291.5C63.6914 291.314 63.9331 291.203 64.1896 291.19H150.35C150.615 291.19 150.869 291.295 151.057 291.483C151.244 291.671 151.35 291.925 151.35 292.19V365.87Z" fill="#3D4273"/>
<path d="M84.0801 354.37C84.0801 354.49 84.0801 354.6 84.0801 354.71C84.0801 356.434 83.3953 358.087 82.1763 359.306C80.9573 360.525 79.304 361.21 77.5801 361.21C75.8562 361.21 74.2029 360.525 72.9839 359.306C71.7649 358.087 71.0801 356.434 71.0801 354.71C71.0801 354.6 71.0801 354.49 71.0801 354.37C71.0801 352.646 71.7649 350.993 72.9839 349.774C74.2029 348.555 75.8562 347.87 77.5801 347.87C79.304 347.87 80.9573 348.555 82.1763 349.774C83.3953 350.993 84.0801 352.646 84.0801 354.37Z" fill="white"/>
<path d="M143.66 350.03H92.5898C92.3033 350.03 92.0287 350.144 91.8261 350.346C91.6236 350.549 91.5098 350.824 91.5098 351.11C91.5098 351.396 91.6236 351.671 91.8261 351.874C92.0287 352.076 92.3033 352.19 92.5898 352.19H143.66C143.946 352.19 144.221 352.076 144.423 351.874C144.626 351.671 144.74 351.396 144.74 351.11C144.74 350.824 144.626 350.549 144.423 350.346C144.221 350.144 143.946 350.03 143.66 350.03Z" fill="#3D4273"/>
<path d="M114.57 356.53H92.5703C92.2838 356.53 92.0091 356.644 91.8066 356.846C91.604 357.049 91.4902 357.324 91.4902 357.61C91.4902 357.896 91.604 358.171 91.8066 358.374C92.0091 358.576 92.2838 358.69 92.5703 358.69H114.57C114.857 358.69 115.131 358.576 115.334 358.374C115.536 358.171 115.65 357.896 115.65 357.61C115.65 357.324 115.536 357.049 115.334 356.846C115.131 356.644 114.857 356.53 114.57 356.53Z" fill="white"/>
<path d="M170.82 342.37H84.66C84.0764 342.365 83.5183 342.13 83.1066 341.716C82.6948 341.303 82.4626 340.744 82.46 340.16V302.37C82.46 301.786 82.6914 301.225 83.1037 300.811C83.516 300.397 84.0756 300.163 84.66 300.16H170.82C171.406 300.16 171.968 300.393 172.383 300.807C172.797 301.222 173.03 301.784 173.03 302.37V340.17C173.025 340.753 172.79 341.312 172.376 341.723C171.963 342.135 171.404 342.367 170.82 342.37ZM84.66 300.92C84.2798 300.923 83.9161 301.075 83.6482 301.345C83.3803 301.615 83.2299 301.98 83.2299 302.36V340.17C83.2299 340.549 83.3806 340.913 83.6488 341.181C83.917 341.449 84.2807 341.6 84.66 341.6H170.82C171.009 341.601 171.196 341.565 171.37 341.494C171.545 341.423 171.704 341.318 171.838 341.185C171.971 341.052 172.078 340.894 172.15 340.719C172.223 340.545 172.26 340.359 172.26 340.17V302.37C172.257 301.989 172.105 301.624 171.835 301.355C171.566 301.085 171.201 300.933 170.82 300.93L84.66 300.92Z" fill="white"/>
<path d="M102.21 313.94C101.941 313.966 101.69 314.091 101.508 314.292C101.326 314.493 101.225 314.754 101.225 315.025C101.225 315.296 101.326 315.557 101.508 315.758C101.69 315.958 101.941 316.084 102.21 316.11H153.28C153.55 316.084 153.801 315.958 153.983 315.758C154.165 315.557 154.266 315.296 154.266 315.025C154.266 314.754 154.165 314.493 153.983 314.292C153.801 314.091 153.55 313.966 153.28 313.94H102.21Z" fill="white"/>
<path d="M102.21 320.22C101.923 320.22 101.649 320.334 101.446 320.536C101.244 320.739 101.13 321.014 101.13 321.3C101.13 321.586 101.244 321.861 101.446 322.064C101.649 322.266 101.923 322.38 102.21 322.38H153.28C153.566 322.38 153.841 322.266 154.044 322.064C154.246 321.861 154.36 321.586 154.36 321.3C154.36 321.014 154.246 320.739 154.044 320.536C153.841 320.334 153.566 320.22 153.28 320.22H102.21Z" fill="white"/>
<path d="M102.21 326.42C101.923 326.42 101.649 326.534 101.446 326.736C101.244 326.939 101.13 327.214 101.13 327.5C101.13 327.787 101.243 328.063 101.446 328.267C101.648 328.471 101.923 328.587 102.21 328.59H124.21C124.48 328.564 124.73 328.438 124.912 328.238C125.095 328.037 125.196 327.776 125.196 327.505C125.196 327.234 125.095 326.973 124.912 326.772C124.73 326.571 124.48 326.446 124.21 326.42H102.21Z" fill="white"/>
<path d="M185.03 358.37L176.38 346.15L179.18 346.74C179.281 346.761 179.386 346.741 179.472 346.685C179.558 346.628 179.619 346.54 179.64 346.44C179.661 346.339 179.641 346.234 179.585 346.148C179.529 346.062 179.441 346.001 179.34 345.98L175.16 345.11L174.6 349.34C174.593 349.39 174.596 349.441 174.609 349.49C174.622 349.538 174.644 349.584 174.675 349.624C174.706 349.664 174.744 349.698 174.788 349.723C174.832 349.748 174.88 349.764 174.93 349.77C175.032 349.784 175.136 349.757 175.218 349.696C175.301 349.634 175.355 349.542 175.37 349.44L175.74 346.6L184.4 358.81C184.459 358.894 184.549 358.952 184.65 358.971C184.751 358.99 184.855 358.968 184.94 358.91C185.021 358.848 185.075 358.758 185.092 358.658C185.109 358.557 185.087 358.454 185.03 358.37Z" fill="white"/>
<path d="M138.03 393.94H76.5199C76.2176 393.94 75.9276 393.82 75.7138 393.606C75.5 393.392 75.3799 393.102 75.3799 392.8V377.55C75.3799 377.248 75.5 376.958 75.7138 376.744C75.9276 376.53 76.2176 376.41 76.5199 376.41H138.03C138.332 376.41 138.622 376.53 138.836 376.744C139.05 376.958 139.17 377.248 139.17 377.55V392.8C139.17 392.95 139.14 393.098 139.083 393.236C139.026 393.375 138.942 393.5 138.836 393.606C138.73 393.712 138.604 393.796 138.466 393.853C138.328 393.91 138.18 393.94 138.03 393.94ZM76.5199 376.86C76.4298 376.86 76.3405 376.878 76.2573 376.913C76.1742 376.947 76.0987 376.998 76.0355 377.063C75.9722 377.127 75.9223 377.203 75.8887 377.287C75.8552 377.37 75.8386 377.46 75.8399 377.55V392.8C75.8386 392.89 75.8552 392.98 75.8887 393.063C75.9223 393.147 75.9722 393.223 76.0355 393.287C76.0987 393.351 76.1742 393.402 76.2573 393.437C76.3405 393.472 76.4298 393.49 76.5199 393.49H138.03C138.12 393.49 138.209 393.472 138.292 393.437C138.376 393.402 138.451 393.351 138.514 393.287C138.578 393.223 138.627 393.147 138.661 393.063C138.695 392.98 138.711 392.89 138.71 392.8V377.55C138.711 377.46 138.695 377.37 138.661 377.287C138.627 377.203 138.578 377.127 138.514 377.063C138.451 376.998 138.376 376.947 138.292 376.913C138.209 376.878 138.12 376.86 138.03 376.86H76.5199Z" fill="#3D4273"/>
<path d="M86.0804 389.23C88.643 389.23 90.7204 387.153 90.7204 384.59C90.7204 382.027 88.643 379.95 86.0804 379.95C83.5178 379.95 81.4404 382.027 81.4404 384.59C81.4404 387.153 83.5178 389.23 86.0804 389.23Z" fill="white"/>
<path d="M96.7603 381.5C96.556 381.5 96.3602 381.581 96.2158 381.726C96.0714 381.87 95.9902 382.066 95.9902 382.27C95.9902 382.474 96.0714 382.67 96.2158 382.814C96.3602 382.959 96.556 383.04 96.7603 383.04H133.22C133.424 383.04 133.62 382.959 133.765 382.814C133.909 382.67 133.99 382.474 133.99 382.27C133.99 382.066 133.909 381.87 133.765 381.726C133.62 381.581 133.424 381.5 133.22 381.5H96.7603Z" fill="white"/>
<path d="M96.7603 386.14C96.556 386.14 96.3602 386.221 96.2158 386.366C96.0714 386.51 95.9902 386.706 95.9902 386.91C95.9902 387.114 96.0714 387.31 96.2158 387.455C96.3602 387.599 96.556 387.68 96.7603 387.68H112.45C112.551 387.68 112.652 387.66 112.745 387.622C112.838 387.583 112.923 387.526 112.995 387.455C113.066 387.383 113.123 387.298 113.162 387.205C113.2 387.111 113.22 387.011 113.22 386.91C113.22 386.809 113.2 386.709 113.162 386.615C113.123 386.522 113.066 386.437 112.995 386.366C112.923 386.294 112.838 386.237 112.745 386.199C112.652 386.16 112.551 386.14 112.45 386.14H96.7603Z" fill="white"/>
<path d="M246.34 336.61C245.786 336.61 245.254 336.83 244.862 337.222C244.47 337.614 244.25 338.146 244.25 338.7C244.25 339.254 244.47 339.786 244.862 340.178C245.254 340.57 245.786 340.79 246.34 340.79H298.76C299.034 340.794 299.307 340.745 299.562 340.644C299.818 340.543 300.051 340.393 300.248 340.202C300.445 340.012 300.603 339.784 300.713 339.532C300.822 339.28 300.88 339.009 300.885 338.735C300.89 338.46 300.84 338.188 300.739 337.932C300.639 337.677 300.488 337.444 300.298 337.247C300.107 337.049 299.879 336.892 299.627 336.782C299.375 336.673 299.104 336.614 298.83 336.61H246.34Z" fill="#3D4273"/>
<path d="M310.59 336.03C310.552 336.068 310.522 336.113 310.501 336.163C310.48 336.213 310.47 336.266 310.47 336.32C310.47 336.374 310.48 336.427 310.501 336.477C310.522 336.527 310.552 336.572 310.59 336.61L312.36 338.37H308.01C307.95 338.361 307.889 338.365 307.831 338.381C307.772 338.398 307.718 338.427 307.672 338.466C307.626 338.505 307.589 338.554 307.564 338.609C307.539 338.665 307.525 338.724 307.525 338.785C307.525 338.846 307.539 338.906 307.564 338.961C307.589 339.016 307.626 339.065 307.672 339.104C307.718 339.144 307.772 339.173 307.831 339.189C307.889 339.206 307.95 339.209 308.01 339.2H312.36L310.59 340.96C310.513 341.037 310.47 341.141 310.47 341.25C310.47 341.359 310.513 341.463 310.59 341.54C310.667 341.617 310.771 341.66 310.88 341.66C310.989 341.66 311.093 341.617 311.17 341.54L313.64 339.08C313.718 339.001 313.761 338.896 313.761 338.785C313.761 338.675 313.718 338.569 313.64 338.49L311.17 336.03C311.132 335.992 311.087 335.962 311.037 335.941C310.987 335.921 310.934 335.91 310.88 335.91C310.826 335.91 310.773 335.921 310.723 335.941C310.673 335.962 310.628 335.992 310.59 336.03Z" fill="white"/>
<path d="M234.44 336.03C234.478 336.068 234.508 336.113 234.529 336.163C234.549 336.213 234.56 336.266 234.56 336.32C234.56 336.374 234.549 336.427 234.529 336.477C234.508 336.527 234.478 336.572 234.44 336.61L232.67 338.37H237.02C237.079 338.361 237.141 338.365 237.199 338.381C237.257 338.398 237.311 338.427 237.357 338.466C237.403 338.505 237.44 338.554 237.466 338.609C237.491 338.665 237.504 338.724 237.504 338.785C237.504 338.846 237.491 338.906 237.466 338.961C237.44 339.016 237.403 339.065 237.357 339.104C237.311 339.144 237.257 339.173 237.199 339.189C237.141 339.206 237.079 339.209 237.02 339.2H232.67L234.44 340.96C234.516 341.037 234.56 341.141 234.56 341.25C234.56 341.359 234.516 341.463 234.44 341.54C234.363 341.617 234.258 341.66 234.15 341.66C234.041 341.66 233.936 341.617 233.86 341.54L231.39 339.08C231.312 339.001 231.269 338.896 231.269 338.785C231.269 338.675 231.312 338.569 231.39 338.49L233.86 336.03C233.898 335.992 233.943 335.962 233.993 335.941C234.042 335.921 234.096 335.91 234.15 335.91C234.203 335.91 234.257 335.921 234.307 335.941C234.356 335.962 234.401 335.992 234.44 336.03Z" fill="white"/>
<g opacity="0.4">
<path opacity="0.4" d="M248.46 293.25C249.697 293.25 250.7 292.247 250.7 291.01C250.7 289.773 249.697 288.77 248.46 288.77C247.223 288.77 246.22 289.773 246.22 291.01C246.22 292.247 247.223 293.25 248.46 293.25Z" fill="white"/>
<path opacity="0.4" d="M257.809 293.25C259.046 293.25 260.049 292.247 260.049 291.01C260.049 289.773 259.046 288.77 257.809 288.77C256.572 288.77 255.569 289.773 255.569 291.01C255.569 292.247 256.572 293.25 257.809 293.25Z" fill="white"/>
<path opacity="0.4" d="M267.16 293.25C268.397 293.25 269.4 292.247 269.4 291.01C269.4 289.773 268.397 288.77 267.16 288.77C265.923 288.77 264.92 289.773 264.92 291.01C264.92 292.247 265.923 293.25 267.16 293.25Z" fill="white"/>
<path opacity="0.4" d="M276.519 293.25C277.756 293.25 278.759 292.247 278.759 291.01C278.759 289.773 277.756 288.77 276.519 288.77C275.282 288.77 274.279 289.773 274.279 291.01C274.279 292.247 275.282 293.25 276.519 293.25Z" fill="white"/>
<path opacity="0.4" d="M285.87 293.25C287.107 293.25 288.11 292.247 288.11 291.01C288.11 289.773 287.107 288.77 285.87 288.77C284.633 288.77 283.63 289.773 283.63 291.01C283.63 292.247 284.633 293.25 285.87 293.25Z" fill="white"/>
<path opacity="0.4" d="M295.229 293.25C296.466 293.25 297.469 292.247 297.469 291.01C297.469 289.773 296.466 288.77 295.229 288.77C293.992 288.77 292.989 289.773 292.989 291.01C292.989 292.247 293.992 293.25 295.229 293.25Z" fill="white"/>
<path opacity="0.4" d="M304.58 293.25C305.817 293.25 306.82 292.247 306.82 291.01C306.82 289.773 305.817 288.77 304.58 288.77C303.343 288.77 302.34 289.773 302.34 291.01C302.34 292.247 303.343 293.25 304.58 293.25Z" fill="white"/>
<path opacity="0.4" d="M248.46 300.36C249.697 300.36 250.7 299.357 250.7 298.12C250.7 296.883 249.697 295.88 248.46 295.88C247.223 295.88 246.22 296.883 246.22 298.12C246.22 299.357 247.223 300.36 248.46 300.36Z" fill="white"/>
<path opacity="0.4" d="M257.809 300.36C259.046 300.36 260.049 299.357 260.049 298.12C260.049 296.883 259.046 295.88 257.809 295.88C256.572 295.88 255.569 296.883 255.569 298.12C255.569 299.357 256.572 300.36 257.809 300.36Z" fill="white"/>
<path opacity="0.4" d="M267.16 300.36C268.397 300.36 269.4 299.357 269.4 298.12C269.4 296.883 268.397 295.88 267.16 295.88C265.923 295.88 264.92 296.883 264.92 298.12C264.92 299.357 265.923 300.36 267.16 300.36Z" fill="white"/>
<path opacity="0.4" d="M276.519 300.36C277.756 300.36 278.759 299.357 278.759 298.12C278.759 296.883 277.756 295.88 276.519 295.88C275.282 295.88 274.279 296.883 274.279 298.12C274.279 299.357 275.282 300.36 276.519 300.36Z" fill="white"/>
<path opacity="0.4" d="M285.87 300.36C287.107 300.36 288.11 299.357 288.11 298.12C288.11 296.883 287.107 295.88 285.87 295.88C284.633 295.88 283.63 296.883 283.63 298.12C283.63 299.357 284.633 300.36 285.87 300.36Z" fill="white"/>
<path opacity="0.4" d="M295.229 300.36C296.466 300.36 297.469 299.357 297.469 298.12C297.469 296.883 296.466 295.88 295.229 295.88C293.992 295.88 292.989 296.883 292.989 298.12C292.989 299.357 293.992 300.36 295.229 300.36Z" fill="white"/>
<path opacity="0.4" d="M304.58 300.36C305.817 300.36 306.82 299.357 306.82 298.12C306.82 296.883 305.817 295.88 304.58 295.88C303.343 295.88 302.34 296.883 302.34 298.12C302.34 299.357 303.343 300.36 304.58 300.36Z" fill="white"/>
<path opacity="0.4" d="M248.46 307.47C249.697 307.47 250.7 306.467 250.7 305.23C250.7 303.993 249.697 302.99 248.46 302.99C247.223 302.99 246.22 303.993 246.22 305.23C246.22 306.467 247.223 307.47 248.46 307.47Z" fill="white"/>
<path opacity="0.4" d="M257.809 307.47C259.046 307.47 260.049 306.467 260.049 305.23C260.049 303.993 259.046 302.99 257.809 302.99C256.572 302.99 255.569 303.993 255.569 305.23C255.569 306.467 256.572 307.47 257.809 307.47Z" fill="white"/>
<path opacity="0.4" d="M267.16 307.47C268.397 307.47 269.4 306.467 269.4 305.23C269.4 303.993 268.397 302.99 267.16 302.99C265.923 302.99 264.92 303.993 264.92 305.23C264.92 306.467 265.923 307.47 267.16 307.47Z" fill="white"/>
<path opacity="0.4" d="M276.519 307.47C277.756 307.47 278.759 306.467 278.759 305.23C278.759 303.993 277.756 302.99 276.519 302.99C275.282 302.99 274.279 303.993 274.279 305.23C274.279 306.467 275.282 307.47 276.519 307.47Z" fill="white"/>
<path opacity="0.4" d="M285.87 307.47C287.107 307.47 288.11 306.467 288.11 305.23C288.11 303.993 287.107 302.99 285.87 302.99C284.633 302.99 283.63 303.993 283.63 305.23C283.63 306.467 284.633 307.47 285.87 307.47Z" fill="white"/>
<path opacity="0.4" d="M295.229 307.47C296.466 307.47 297.469 306.467 297.469 305.23C297.469 303.993 296.466 302.99 295.229 302.99C293.992 302.99 292.989 303.993 292.989 305.23C292.989 306.467 293.992 307.47 295.229 307.47Z" fill="white"/>
<path opacity="0.4" d="M304.58 307.47C305.817 307.47 306.82 306.467 306.82 305.23C306.82 303.993 305.817 302.99 304.58 302.99C303.343 302.99 302.34 303.993 302.34 305.23C302.34 306.467 303.343 307.47 304.58 307.47Z" fill="white"/>
<path opacity="0.4" d="M248.46 314.58C249.697 314.58 250.7 313.577 250.7 312.34C250.7 311.103 249.697 310.1 248.46 310.1C247.223 310.1 246.22 311.103 246.22 312.34C246.22 313.577 247.223 314.58 248.46 314.58Z" fill="white"/>
<path opacity="0.4" d="M257.809 314.58C259.046 314.58 260.049 313.577 260.049 312.34C260.049 311.103 259.046 310.1 257.809 310.1C256.572 310.1 255.569 311.103 255.569 312.34C255.569 313.577 256.572 314.58 257.809 314.58Z" fill="white"/>
<path opacity="0.4" d="M248.46 321.69C249.697 321.69 250.7 320.687 250.7 319.45C250.7 318.213 249.697 317.21 248.46 317.21C247.223 317.21 246.22 318.213 246.22 319.45C246.22 320.687 247.223 321.69 248.46 321.69Z" fill="white"/>
<path opacity="0.4" d="M257.809 321.69C259.046 321.69 260.049 320.687 260.049 319.45C260.049 318.213 259.046 317.21 257.809 317.21C256.572 317.21 255.569 318.213 255.569 319.45C255.569 320.687 256.572 321.69 257.809 321.69Z" fill="white"/>
<path opacity="0.4" d="M267.16 321.69C268.397 321.69 269.4 320.687 269.4 319.45C269.4 318.213 268.397 317.21 267.16 317.21C265.923 317.21 264.92 318.213 264.92 319.45C264.92 320.687 265.923 321.69 267.16 321.69Z" fill="white"/>
<path opacity="0.4" d="M267.16 314.58C268.397 314.58 269.4 313.577 269.4 312.34C269.4 311.103 268.397 310.1 267.16 310.1C265.923 310.1 264.92 311.103 264.92 312.34C264.92 313.577 265.923 314.58 267.16 314.58Z" fill="white"/>
<path opacity="0.4" d="M276.519 314.58C277.756 314.58 278.759 313.577 278.759 312.34C278.759 311.103 277.756 310.1 276.519 310.1C275.282 310.1 274.279 311.103 274.279 312.34C274.279 313.577 275.282 314.58 276.519 314.58Z" fill="white"/>
<path opacity="0.4" d="M285.87 314.58C287.107 314.58 288.11 313.577 288.11 312.34C288.11 311.103 287.107 310.1 285.87 310.1C284.633 310.1 283.63 311.103 283.63 312.34C283.63 313.577 284.633 314.58 285.87 314.58Z" fill="white"/>
<path opacity="0.4" d="M295.229 314.58C296.466 314.58 297.469 313.577 297.469 312.34C297.469 311.103 296.466 310.1 295.229 310.1C293.992 310.1 292.989 311.103 292.989 312.34C292.989 313.577 293.992 314.58 295.229 314.58Z" fill="white"/>
<path opacity="0.4" d="M304.58 314.58C305.817 314.58 306.82 313.577 306.82 312.34C306.82 311.103 305.817 310.1 304.58 310.1C303.343 310.1 302.34 311.103 302.34 312.34C302.34 313.577 303.343 314.58 304.58 314.58Z" fill="white"/>
</g>
<path d="M252.76 351.56H289.96C290.371 351.56 290.765 351.723 291.056 352.014C291.347 352.305 291.51 352.699 291.51 353.11V391.86C291.51 392.271 291.347 392.665 291.056 392.956C290.765 393.247 290.371 393.41 289.96 393.41H252.76C252.349 393.41 251.955 393.247 251.664 392.956C251.373 392.665 251.21 392.271 251.21 391.86V353.11C251.21 352.699 251.373 352.305 251.664 352.014C251.955 351.723 252.349 351.56 252.76 351.56ZM289.96 392.79C290.207 392.79 290.443 392.692 290.618 392.518C290.792 392.343 290.89 392.107 290.89 391.86V353.11C290.89 352.863 290.792 352.627 290.618 352.452C290.443 352.278 290.207 352.18 289.96 352.18H252.76C252.513 352.18 252.277 352.278 252.102 352.452C251.928 352.627 251.83 352.863 251.83 353.11V391.86C251.83 392.107 251.928 392.343 252.102 392.518C252.277 392.692 252.513 392.79 252.76 392.79H289.96Z" fill="#3D4273"/>
<path d="M282.02 385.42C282.282 385.394 282.525 385.272 282.702 385.077C282.879 384.882 282.977 384.628 282.977 384.365C282.977 384.102 282.879 383.848 282.702 383.653C282.525 383.458 282.282 383.335 282.02 383.31H260.67C260.522 383.296 260.374 383.312 260.234 383.359C260.093 383.405 259.964 383.481 259.855 383.58C259.745 383.679 259.658 383.8 259.598 383.936C259.538 384.071 259.507 384.217 259.507 384.365C259.507 384.513 259.538 384.659 259.598 384.794C259.658 384.929 259.745 385.051 259.855 385.15C259.964 385.249 260.093 385.325 260.234 385.371C260.374 385.418 260.522 385.434 260.67 385.42H282.02Z" fill="white"/>
<path d="M282.02 379.22C282.282 379.194 282.525 379.072 282.702 378.877C282.879 378.682 282.977 378.428 282.977 378.165C282.977 377.902 282.879 377.648 282.702 377.453C282.525 377.258 282.282 377.136 282.02 377.11H260.67C260.522 377.096 260.374 377.112 260.234 377.159C260.093 377.205 259.964 377.281 259.855 377.38C259.745 377.479 259.658 377.6 259.598 377.736C259.538 377.871 259.507 378.017 259.507 378.165C259.507 378.313 259.538 378.459 259.598 378.594C259.658 378.729 259.745 378.851 259.855 378.95C259.964 379.049 260.093 379.125 260.234 379.171C260.374 379.218 260.522 379.234 260.67 379.22H282.03H282.02Z" fill="white"/>
<path d="M271.34 359.55C272.651 359.548 273.934 359.935 275.026 360.663C276.117 361.39 276.969 362.425 277.472 363.636C277.976 364.847 278.108 366.181 277.854 367.467C277.599 368.754 276.968 369.936 276.041 370.865C275.115 371.793 273.933 372.425 272.647 372.682C271.36 372.939 270.027 372.808 268.815 372.306C267.603 371.805 266.567 370.955 265.838 369.865C265.109 368.774 264.72 367.492 264.72 366.18C264.72 364.423 265.417 362.739 266.658 361.495C267.899 360.252 269.583 359.553 271.34 359.55Z" fill="white"/>
</g>
<defs>
<filter id="filter0_d" x="0" y="0" width="967.76" height="673.04" filterUnits="userSpaceOnUse" color-interpolation-filters="sRGB">
<feFlood flood-opacity="0" result="BackgroundImageFix"/>
<feColorMatrix in="SourceAlpha" type="matrix" values="0 0 0 0 0 0 0 0 0 0 0 0 0 0 0 0 0 0 127 0"/>
<feOffset dy="4"/>
<feGaussianBlur stdDeviation="2"/>
<feColorMatrix type="matrix" values="0 0 0 0 0 0 0 0 0 0 0 0 0 0 0 0 0 0 0.25 0"/>
<feBlend mode="normal" in2="BackgroundImageFix" result="effect1_dropShadow"/>
<feBlend mode="normal" in="SourceGraphic" in2="effect1_dropShadow" result="shape"/>
</filter>
<clipPath id="clip0">
<rect width="959.76" height="665.04" fill="white" transform="translate(4)"/>
</clipPath>
</defs>
</svg>
