<svg width="116" height="132" viewBox="0 0 116 132" fill="none" xmlns="http://www.w3.org/2000/svg">
<path fill-rule="evenodd" clip-rule="evenodd" d="M30.6197 60.7514C30.0674 60.7514 29.6197 61.1991 29.6197 61.7514V121.392C29.6197 121.664 29.3351 122.295 29.0633 122.295H22.3638C21.8115 122.295 21.3638 122.743 21.3638 123.295V129C21.3638 129.552 21.8115 130 22.3638 130H44.8232C45.3755 130 45.8232 129.552 45.8232 129V123.295C45.8232 122.743 45.3755 122.295 44.8232 122.295H38.3292C38.0573 122.295 37.7728 121.664 37.7728 121.392V61.7514C37.7728 61.1991 37.3251 60.7514 36.7728 60.7514H30.6197Z" fill="white"/>
<path d="M31.6197 61.7514C31.6197 62.3037 31.172 62.7514 30.6197 62.7514V58.7514C28.9628 58.7514 27.6197 60.0946 27.6197 61.7514H31.6197ZM31.6197 121.392V61.7514H27.6197V121.392H31.6197ZM22.3638 124.295H29.0633V120.295H22.3638V124.295ZM23.3638 129V123.295H19.3638V129H23.3638ZM44.8232 128H22.3638V132H44.8232V128ZM43.8232 123.295V129H47.8232V123.295H43.8232ZM38.3292 124.295H44.8232V120.295H38.3292V124.295ZM35.7728 61.7514V121.392H39.7728V61.7514H35.7728ZM36.7728 62.7514C36.2205 62.7514 35.7728 62.3037 35.7728 61.7514H39.7728C39.7728 60.0945 38.4297 58.7514 36.7728 58.7514V62.7514ZM30.6197 62.7514H36.7728V58.7514H30.6197V62.7514ZM38.3292 120.295C39.0301 120.295 39.4407 120.679 39.5249 120.761C39.6487 120.882 39.6986 120.976 39.7027 120.984C39.7136 121.004 39.7202 121.019 39.7277 121.043C39.732 121.056 39.7408 121.086 39.7496 121.132C39.7573 121.171 39.7728 121.263 39.7728 121.392H35.7728C35.7728 122.003 36.012 122.573 36.1955 122.907C36.3047 123.106 36.4766 123.375 36.7303 123.623C36.9442 123.832 37.4923 124.295 38.3292 124.295V120.295ZM47.8232 123.295C47.8232 121.638 46.48 120.295 44.8232 120.295V124.295C44.2709 124.295 43.8232 123.847 43.8232 123.295H47.8232ZM44.8232 132C46.48 132 47.8232 130.657 47.8232 129H43.8232C43.8232 128.448 44.2709 128 44.8232 128V132ZM19.3638 129C19.3638 130.657 20.7069 132 22.3638 132V128C22.9161 128 23.3638 128.448 23.3638 129H19.3638ZM22.3638 120.295C20.7069 120.295 19.3638 121.638 19.3638 123.295H23.3638C23.3638 123.847 22.9161 124.295 22.3638 124.295V120.295ZM27.6197 121.392C27.6197 121.263 27.6352 121.171 27.6428 121.132C27.6516 121.086 27.6605 121.056 27.6648 121.043C27.6723 121.019 27.6788 121.004 27.6898 120.984C27.6939 120.976 27.7437 120.882 27.8676 120.761C27.9518 120.679 28.3623 120.295 29.0633 120.295V124.295C29.9001 124.295 30.4482 123.832 30.6622 123.623C30.9159 123.375 31.0878 123.106 31.197 122.907C31.3804 122.573 31.6197 122.003 31.6197 121.392H27.6197Z" fill="#797979"/>
<rect width="58.0552" height="54.9368" rx="1" transform="matrix(0.994818 0.101669 -0.113688 0.993517 8.24561 2)" fill="white" stroke="#797979" stroke-width="4"/>
<rect width="43.5414" height="41.2026" rx="1" transform="matrix(0.994818 0.101669 -0.113688 0.993517 14.6841 9.56049)" fill="white" stroke="#797979" stroke-width="4"/>
<path d="M24 22.0457L45.0043 24" stroke="#797979" stroke-width="4" stroke-linecap="round"/>
<path d="M21 36.0524L46.0041 38" stroke="#797979" stroke-width="4" stroke-linecap="round"/>
<path fill-rule="evenodd" clip-rule="evenodd" d="M88.0143 66C86.9616 66 86.089 66.8161 86.0188 67.8665L82.0049 127.867C81.9276 129.021 82.8433 130 84.0004 130H112C113.157 130 114.073 129.021 113.995 127.866L109.981 67.8665C109.911 66.8161 109.039 66 107.986 66H88.0143ZM95.1107 72C94.5584 72 94.1107 72.4477 94.1107 73V79C94.1107 79.5523 94.5584 80 95.1107 80H101.18C101.732 80 102.18 79.5523 102.18 79V73C102.18 72.4477 101.732 72 101.18 72H95.1107ZM110.753 95C110.753 95.5523 110.305 96 109.753 96H87.0416C86.4893 96 86.0416 95.5523 86.0416 95V93C86.0416 92.4477 86.4893 92 87.0416 92H109.753C110.305 92 110.753 92.4477 110.753 93V95ZM86.0416 114C86.0416 114.552 86.4893 115 87.0416 115H109.753C110.305 115 110.753 114.552 110.753 114V112C110.753 111.448 110.305 111 109.753 111H87.0416C86.4893 111 86.0416 111.448 86.0416 112V114Z" fill="white"/>
<path d="M86.0188 67.8665L84.0232 67.733V67.733L86.0188 67.8665ZM82.0049 127.867L80.0093 127.733L82.0049 127.867ZM113.995 127.866L115.991 127.733L115.991 127.733L113.995 127.866ZM109.981 67.8665L111.977 67.733V67.733L109.981 67.8665ZM88.0143 68L88.0143 68V64C85.9088 64 84.1638 65.6322 84.0232 67.733L88.0143 68ZM84.0004 128L88.0143 68L84.0232 67.733L80.0093 127.733L84.0004 128ZM84.0004 128H84.0004L80.0093 127.733C79.8548 130.042 81.6862 132 84.0004 132V128ZM112 128H84.0004V132H112V128ZM112 128V128V132C114.314 132 116.145 130.042 115.991 127.733L112 128ZM107.986 68L112 128L115.991 127.733L111.977 67.733L107.986 68ZM107.986 68V68L111.977 67.733C111.836 65.6322 110.091 64 107.986 64V68ZM88.0143 68H107.986V64H88.0143V68ZM96.1107 73C96.1107 73.5523 95.6629 74 95.1107 74V70C93.4538 70 92.1107 71.3431 92.1107 73H96.1107ZM96.1107 79V73H92.1107V79H96.1107ZM95.1107 78C95.6629 78 96.1107 78.4477 96.1107 79H92.1107C92.1107 80.6569 93.4538 82 95.1107 82V78ZM101.18 78H95.1107V82H101.18V78ZM100.18 79C100.18 78.4477 100.627 78 101.18 78V82C102.836 82 104.18 80.6569 104.18 79H100.18ZM100.18 73V79H104.18V73H100.18ZM101.18 74C100.627 74 100.18 73.5523 100.18 73H104.18C104.18 71.3431 102.836 70 101.18 70V74ZM95.1107 74H101.18V70H95.1107V74ZM87.0416 98H109.753V94H87.0416V98ZM84.0416 93V95H88.0416V93H84.0416ZM109.753 90H87.0416V94H109.753V90ZM112.753 95V93H108.753V95H112.753ZM109.753 113H87.0416V117H109.753V113ZM108.753 112V114H112.753V112H108.753ZM87.0416 113H109.753V109H87.0416V113ZM88.0416 114V112H84.0416V114H88.0416ZM87.0416 109C85.3847 109 84.0416 110.343 84.0416 112H88.0416C88.0416 112.552 87.5938 113 87.0416 113V109ZM112.753 112C112.753 110.343 111.41 109 109.753 109V113C109.201 113 108.753 112.552 108.753 112H112.753ZM87.0416 113C87.5938 113 88.0416 113.448 88.0416 114H84.0416C84.0416 115.657 85.3847 117 87.0416 117V113ZM109.753 117C111.41 117 112.753 115.657 112.753 114H108.753C108.753 113.448 109.201 113 109.753 113V117ZM109.753 94C109.201 94 108.753 93.5523 108.753 93H112.753C112.753 91.3431 111.41 90 109.753 90V94ZM88.0416 93C88.0416 93.5523 87.5938 94 87.0416 94V90C85.3847 90 84.0416 91.3431 84.0416 93H88.0416ZM109.753 98C111.41 98 112.753 96.6569 112.753 95H108.753C108.753 94.4477 109.201 94 109.753 94V98ZM87.0416 94C87.5938 94 88.0416 94.4477 88.0416 95H84.0416C84.0416 96.6569 85.3847 98 87.0416 98V94Z" fill="#797979"/>
</svg>
