<svg width="412" height="178" viewBox="0 0 412 178" fill="none" xmlns="http://www.w3.org/2000/svg">
<path fill-rule="evenodd" clip-rule="evenodd" d="M142.66 5H210.255V34.1037H300.383V12.5106H341.691L341.691 81.984H383V177.745L341.691 177.745H300.383V176.806H210.255V177.745H142.66L52.5319 177.745H30V110.149H52.5319L52.5319 42.5532H142.66L142.66 5Z" fill="#F4F4F4"/>
<rect x="163.03" y="47.7452" width="8" height="128" rx="1" transform="rotate(6 163.03 47.7452)" fill="white" stroke="#4D4D4D" stroke-width="4"/>
<rect width="8" height="128" rx="1" transform="matrix(-0.994522 0.104528 0.104528 0.994522 283.912 47)" fill="white" stroke="#4D4D4D" stroke-width="4"/>
<rect x="126" y="41" width="195" height="16" rx="4" fill="white" stroke="#4D4D4D" stroke-width="4"/>
<rect x="126" y="100.773" width="195" height="16" rx="4" fill="white" stroke="#4D4D4D" stroke-width="4"/>
<rect x="169" y="78.9117" width="72" height="72" rx="4" transform="rotate(-45 169 78.9117)" fill="white" stroke="#4D4D4D" stroke-width="4"/>
<path fill-rule="evenodd" clip-rule="evenodd" d="M229.216 87.2158C229.216 87.9856 230.049 88.4667 230.716 88.0818L245.716 79.4216C246.383 79.0367 246.383 78.0744 245.716 77.6895L230.716 69.0293C230.049 68.6444 229.216 69.1255 229.216 69.8953V73.5556C229.216 74.1078 228.768 74.5556 228.216 74.5556H195.216C194.664 74.5556 194.216 75.0033 194.216 75.5556V81.5556C194.216 82.1078 194.664 82.5556 195.216 82.5556H228.216C228.768 82.5556 229.216 83.0033 229.216 83.5556V87.2158Z" fill="#4D4D4D"/>
<path fill-rule="evenodd" clip-rule="evenodd" d="M83.3383 89.3382C82.786 89.3382 82.3383 89.7859 82.3383 90.3382V166.633C82.3383 167.185 81.8905 167.633 81.3383 167.633H75.702C75.1497 167.633 74.702 168.081 74.702 168.633V174.633C74.702 175.185 75.1497 175.633 75.702 175.633H97.702C98.2543 175.633 98.702 175.185 98.702 174.633V168.633C98.702 168.081 98.2543 167.633 97.702 167.633H91.3383C90.786 167.633 90.3383 167.185 90.3383 166.633V90.3382C90.3383 89.7859 89.8905 89.3382 89.3383 89.3382H83.3383Z" fill="white"/>
<path d="M84.3383 90.3382C84.3383 90.8905 83.8905 91.3382 83.3383 91.3382V87.3382C81.6814 87.3382 80.3383 88.6814 80.3383 90.3382H84.3383ZM84.3383 166.633V90.3382H80.3383V166.633H84.3383ZM75.702 169.633H81.3383V165.633H75.702V169.633ZM76.702 174.633V168.633H72.702V174.633H76.702ZM97.702 173.633H75.702V177.633H97.702V173.633ZM96.702 168.633V174.633H100.702V168.633H96.702ZM91.3383 169.633H97.702V165.633H91.3383V169.633ZM88.3383 90.3382V166.633H92.3383V90.3382H88.3383ZM89.3383 91.3382C88.786 91.3382 88.3383 90.8905 88.3383 90.3382H92.3383C92.3383 88.6814 90.9951 87.3382 89.3383 87.3382V91.3382ZM83.3383 91.3382H89.3383V87.3382H83.3383V91.3382ZM91.3383 165.633C91.8905 165.633 92.3383 166.081 92.3383 166.633H88.3383C88.3383 168.29 89.6814 169.633 91.3383 169.633V165.633ZM100.702 168.633C100.702 166.976 99.3589 165.633 97.702 165.633V169.633C97.1497 169.633 96.702 169.185 96.702 168.633H100.702ZM97.702 177.633C99.3589 177.633 100.702 176.29 100.702 174.633H96.702C96.702 174.081 97.1497 173.633 97.702 173.633V177.633ZM72.702 174.633C72.702 176.29 74.0452 177.633 75.702 177.633V173.633C76.2543 173.633 76.702 174.081 76.702 174.633H72.702ZM75.702 165.633C74.0452 165.633 72.702 166.976 72.702 168.633H76.702C76.702 169.185 76.2543 169.633 75.702 169.633V165.633ZM80.3383 166.633C80.3383 166.081 80.786 165.633 81.3383 165.633V169.633C82.9951 169.633 84.3383 168.29 84.3383 166.633H80.3383Z" fill="#4D4D4D"/>
<rect x="56.8918" y="3" width="80" height="80" rx="4" transform="rotate(10 56.8918 3)" fill="white" stroke="#4D4D4D" stroke-width="4"/>
<rect x="63.0339" y="11.7717" width="64" height="64" rx="4" transform="rotate(10 63.0339 11.7717)" fill="white" stroke="#4D4D4D" stroke-width="4"/>
<path d="M80.3796 38.6759L78.6292 48.6027L81.3473 49.082L80.8472 51.9182L78.1291 51.439L77.4623 55.2206L74.2715 54.658L74.9383 50.8763L67.2568 49.5219L67.5902 47.6311L78.1342 38.2799L80.3796 38.6759ZM75.4384 48.0401L76.1219 44.1639L72.3422 47.4941L75.4384 48.0401ZM91.8078 49.2205C91.9439 48.4484 92.0258 47.7074 92.0535 46.9974C92.0812 46.2875 92.0371 45.6623 91.9212 45.122C91.808 44.5659 91.6124 44.109 91.3343 43.7512C91.0562 43.3935 90.6808 43.173 90.2081 43.0896C89.7354 43.0063 89.3072 43.0851 88.9235 43.3261C88.5398 43.5672 88.1997 43.9296 87.9032 44.4135C87.6094 44.8816 87.3542 45.4539 87.1374 46.1306C86.9206 46.8072 86.7441 47.5316 86.608 48.3037C86.4691 49.0915 86.3857 49.8404 86.358 50.5504C86.3331 51.2446 86.3772 51.8698 86.4904 52.4259C86.6063 52.9662 86.8033 53.4152 87.0814 53.773C87.3595 54.1307 87.7349 54.3512 88.2077 54.4346C88.6804 54.5179 89.1086 54.4391 89.4922 54.1981C89.8759 53.957 90.2146 53.6025 90.5084 53.1344C90.8049 52.6505 91.0602 52.0781 91.2742 51.4173C91.491 50.7406 91.6688 50.0084 91.8078 49.2205ZM83.4172 47.741C83.6256 46.5593 83.9225 45.4744 84.3079 44.4863C84.6961 43.4824 85.1854 42.6426 85.7757 41.9669C86.3845 41.2781 87.0903 40.7771 87.8929 40.4637C88.714 40.1373 89.6525 40.0672 90.7082 40.2534C91.7639 40.4395 92.6139 40.825 93.2581 41.4097C93.9209 41.9815 94.4127 42.6937 94.7335 43.5464C95.0729 44.3861 95.2533 45.3439 95.2747 46.42C95.299 47.4803 95.2069 48.6014 94.9985 49.7832C94.7902 50.9649 94.4919 52.0577 94.1036 53.0616C93.7182 54.0496 93.2211 54.8881 92.6122 55.5768C92.0219 56.2526 91.3162 56.7536 90.495 57.08C89.6924 57.3934 88.7633 57.457 87.7075 57.2708C86.6518 57.0847 85.7926 56.7057 85.1298 56.1339C84.4856 55.5492 83.9938 54.837 83.6544 53.9973C83.3336 53.1446 83.1611 52.1881 83.1368 51.1278C83.1154 50.0517 83.2088 48.9228 83.4172 47.741ZM109.093 43.7388L107.343 53.6656L110.061 54.1449L109.56 56.9812L106.842 56.5019L106.176 60.2836L102.985 59.7209L103.652 55.9393L95.9701 54.5848L96.3035 52.694L106.848 43.3429L109.093 43.7388ZM104.152 53.103L104.835 49.2268L101.055 52.5571L104.152 53.103Z" fill="#4D4D4D"/>
<path fill-rule="evenodd" clip-rule="evenodd" d="M343.014 111C341.961 111 341.089 111.816 341.018 112.867L337.005 172.867C336.927 174.021 337.843 175 339 175H366.999C368.157 175 369.072 174.021 368.995 172.866L364.981 112.867C364.911 111.816 364.038 111 362.986 111H343.014ZM350.11 117C349.558 117 349.11 117.448 349.11 118V124C349.11 124.552 349.558 125 350.11 125H356.179C356.732 125 357.179 124.552 357.179 124V118C357.179 117.448 356.732 117 356.179 117H350.11ZM365.753 140C365.753 140.552 365.305 141 364.753 141H342.041C341.489 141 341.041 140.552 341.041 140V138C341.041 137.448 341.489 137 342.041 137H364.753C365.305 137 365.753 137.448 365.753 138V140ZM339 159C339 159.552 339.448 160 340 160H366C366.552 160 367 159.552 367 159V157C367 156.448 366.552 156 366 156H340C339.448 156 339 156.448 339 157V159Z" fill="white"/>
<path d="M341.018 112.867L339.023 112.733V112.733L341.018 112.867ZM337.005 172.867L335.009 172.733L337.005 172.867ZM368.995 172.866L370.991 172.733L370.991 172.733L368.995 172.866ZM364.981 112.867L366.977 112.733V112.733L364.981 112.867ZM343.014 113L343.014 113V109C340.908 109 339.163 110.632 339.023 112.733L343.014 113ZM339 173L343.014 113L339.023 112.733L335.009 172.733L339 173ZM339 173H339L335.009 172.733C334.855 175.042 336.686 177 339 177V173ZM366.999 173H339V177H366.999V173ZM366.999 173V173V177C369.314 177 371.145 175.042 370.991 172.733L366.999 173ZM362.986 113L366.999 173L370.991 172.733L366.977 112.733L362.986 113ZM362.986 113V113L366.977 112.733C366.836 110.632 365.091 109 362.986 109V113ZM343.014 113H362.986V109H343.014V113ZM351.11 118C351.11 118.552 350.663 119 350.11 119V115C348.453 115 347.11 116.343 347.11 118H351.11ZM351.11 124V118H347.11V124H351.11ZM350.11 123C350.663 123 351.11 123.448 351.11 124H347.11C347.11 125.657 348.453 127 350.11 127V123ZM356.179 123H350.11V127H356.179V123ZM355.179 124C355.179 123.448 355.627 123 356.179 123V127C357.836 127 359.179 125.657 359.179 124H355.179ZM355.179 118V124H359.179V118H355.179ZM356.179 119C355.627 119 355.179 118.552 355.179 118H359.179C359.179 116.343 357.836 115 356.179 115V119ZM350.11 119H356.179V115H350.11V119ZM342.041 143H364.753V139H342.041V143ZM339.041 138V140H343.041V138H339.041ZM364.753 135H342.041V139H364.753V135ZM367.753 140V138H363.753V140H367.753ZM366 158H340V162H366V158ZM365 157V159H369V157H365ZM340 158H366V154H340V158ZM341 159V157H337V159H341ZM340 154C338.343 154 337 155.343 337 157H341C341 157.552 340.552 158 340 158V154ZM369 157C369 155.343 367.657 154 366 154V158C365.448 158 365 157.552 365 157H369ZM340 158C340.552 158 341 158.448 341 159H337C337 160.657 338.343 162 340 162V158ZM366 162C367.657 162 369 160.657 369 159H365C365 158.448 365.448 158 366 158V162ZM364.753 139C364.2 139 363.753 138.552 363.753 138H367.753C367.753 136.343 366.409 135 364.753 135V139ZM343.041 138C343.041 138.552 342.594 139 342.041 139V135C340.384 135 339.041 136.343 339.041 138H343.041ZM364.753 143C366.409 143 367.753 141.657 367.753 140H363.753C363.753 139.448 364.2 139 364.753 139V143ZM342.041 139C342.594 139 343.041 139.448 343.041 140H339.041C339.041 141.657 340.384 143 342.041 143V139Z" fill="#4D4D4D"/>
<path d="M2 176H410" stroke="#4D4D4D" stroke-width="4" stroke-linecap="round"/>
</svg>
