<svg width="68" height="128" viewBox="0 0 68 128" fill="none" xmlns="http://www.w3.org/2000/svg">
<path fill-rule="evenodd" clip-rule="evenodd" d="M15.2764 4C13.3025 4 11.6665 5.53021 11.5347 7.49974L4.00853 120.001C3.86371 122.166 5.5806 124.002 7.75022 124.002H60.2498C62.4194 124.002 64.1363 122.166 63.9914 120.001L56.4653 7.49974C56.3335 5.53021 54.6975 4 52.7236 4H15.2764ZM28.5821 15.2501C27.5466 15.2501 26.7071 16.0896 26.7071 17.1252V28.3753C26.7071 29.4109 27.5466 30.2503 28.5821 30.2503H39.9616C40.9972 30.2503 41.8366 29.4109 41.8366 28.3753V17.1252C41.8366 16.0896 40.9972 15.2501 39.9616 15.2501H28.5821ZM57.9116 58.3757C57.9116 59.4113 57.0721 60.2507 56.0365 60.2507H13.4524C12.4168 60.2507 11.5774 59.4112 11.5774 58.3757V54.6257C11.5774 53.5901 12.4168 52.7506 13.4524 52.7506H56.0365C57.0721 52.7506 57.9116 53.5901 57.9116 54.6257V58.3757ZM11.5774 94.0012C11.5774 95.0367 12.4168 95.8762 13.4524 95.8762H56.0365C57.0721 95.8762 57.9116 95.0367 57.9116 94.0012V90.2511C57.9116 89.2156 57.0721 88.3761 56.0365 88.3761H13.4524C12.4168 88.3761 11.5774 89.2156 11.5774 90.2511V94.0012Z" fill="white"/>
<path d="M11.5347 7.49974L7.79302 7.24943V7.24943L11.5347 7.49974ZM4.00853 120.001L7.75022 120.252L4.00853 120.001ZM63.9914 120.001L60.2498 120.252V120.252L63.9914 120.001ZM56.4653 7.49974L52.7236 7.75004V7.75005L56.4653 7.49974ZM15.2764 7.75005V7.75005V0.249952C11.3285 0.249952 8.05654 3.31038 7.79302 7.24943L15.2764 7.75005ZM7.75022 120.252L15.2764 7.75005L7.79302 7.24943L0.266849 119.751L7.75022 120.252ZM7.75022 120.252H7.75022L0.266849 119.751C-0.0227909 124.08 3.41099 127.752 7.75022 127.752V120.252ZM60.2498 120.252H7.75022V127.752H60.2498V120.252ZM60.2498 120.252L60.2498 120.252V127.752C64.589 127.752 68.0228 124.08 67.7331 119.751L60.2498 120.252ZM52.7236 7.75005L60.2498 120.252L67.7331 119.751L60.207 7.24942L52.7236 7.75005ZM52.7236 7.75005L52.7236 7.75004L60.207 7.24943C59.9434 3.31036 56.6714 0.249952 52.7236 0.249952V7.75005ZM15.2764 7.75005H52.7236V0.249952H15.2764V7.75005ZM30.4571 17.1252C30.4571 18.1607 29.6177 19.0002 28.5821 19.0002V11.5001C25.4755 11.5001 22.9571 14.0185 22.9571 17.1252H30.4571ZM30.4571 28.3753V17.1252H22.9571V28.3753H30.4571ZM28.5821 26.5003C29.6177 26.5003 30.4571 27.3398 30.4571 28.3753H22.9571C22.9571 31.482 25.4755 34.0004 28.5821 34.0004V26.5003ZM39.9616 26.5003H28.5821V34.0004H39.9616V26.5003ZM38.0866 28.3753C38.0866 27.3398 38.9261 26.5003 39.9616 26.5003V34.0004C43.0683 34.0004 45.5867 31.482 45.5867 28.3753H38.0866ZM38.0866 17.1252V28.3753H45.5867V17.1252H38.0866ZM39.9616 19.0002C38.9261 19.0002 38.0866 18.1607 38.0866 17.1252H45.5867C45.5867 14.0185 43.0683 11.5001 39.9616 11.5001V19.0002ZM28.5821 19.0002H39.9616V11.5001H28.5821V19.0002ZM13.4524 64.0008H56.0365V56.5007H13.4524V64.0008ZM7.82731 54.6257V58.3757H15.3274V54.6257H7.82731ZM56.0365 49.0006H13.4524V56.5007H56.0365V49.0006ZM61.6616 58.3757V54.6257H54.1615V58.3757H61.6616ZM56.0365 92.1261H13.4524V99.6262H56.0365V92.1261ZM54.1615 90.2511V94.0012H61.6616V90.2511H54.1615ZM13.4524 92.1261H56.0365V84.626H13.4524V92.1261ZM15.3274 94.0012V90.2511H7.82731V94.0012H15.3274ZM13.4524 84.626C10.3457 84.626 7.82731 87.1445 7.82731 90.2511H15.3274C15.3274 91.2867 14.4879 92.1261 13.4524 92.1261V84.626ZM61.6616 90.2511C61.6616 87.1445 59.1432 84.626 56.0365 84.626V92.1261C55.001 92.1261 54.1615 91.2867 54.1615 90.2511H61.6616ZM13.4524 92.1261C14.4879 92.1261 15.3274 92.9656 15.3274 94.0012H7.82731C7.82731 97.1078 10.3457 99.6262 13.4524 99.6262V92.1261ZM56.0365 99.6262C59.1432 99.6262 61.6616 97.1078 61.6616 94.0012H54.1615C54.1615 92.9656 55.001 92.1261 56.0365 92.1261V99.6262ZM56.0365 56.5007C55.001 56.5007 54.1615 55.6612 54.1615 54.6257H61.6616C61.6616 51.519 59.1432 49.0006 56.0365 49.0006V56.5007ZM15.3274 54.6257C15.3274 55.6612 14.4879 56.5007 13.4524 56.5007V49.0006C10.3457 49.0006 7.82731 51.519 7.82731 54.6257H15.3274ZM56.0365 64.0008C59.1432 64.0008 61.6616 61.4823 61.6616 58.3757H54.1615C54.1615 57.3402 55.001 56.5007 56.0365 56.5007V64.0008ZM13.4524 56.5007C14.4879 56.5007 15.3274 57.3402 15.3274 58.3757H7.82731C7.82731 61.4823 10.3457 64.0008 13.4524 64.0008V56.5007Z" fill="#797979"/>
</svg>
