<svg width="141" height="131" viewBox="0 0 141 131" fill="none" xmlns="http://www.w3.org/2000/svg">
<circle cx="65.25" cy="65.5" r="63" fill="#F4F4F4" stroke="#4D4D4D" stroke-width="4"/>
<circle r="15" transform="matrix(-1 0 0 1 82.5879 59.5)" fill="#F2463A" stroke="#4D4D4D" stroke-width="4"/>
<path fill-rule="evenodd" clip-rule="evenodd" d="M51.3321 94.6753C50.2491 96.9381 52.1424 99.25 54.6511 99.25H110.362C112.87 99.25 114.764 96.9381 113.681 94.6753C109.193 85.2974 96.9301 78.5673 82.5063 78.5673C68.0825 78.5673 55.8201 85.2974 51.3321 94.6753Z" fill="#F2463A"/>
<path d="M51.3321 94.6753L53.1361 95.5386L51.3321 94.6753ZM110.362 101.25H54.6511V97.25H110.362V101.25ZM111.877 95.5386C107.821 87.0635 96.4215 80.5673 82.5063 80.5673V76.5673C97.4388 76.5673 110.565 83.5312 115.485 93.8119L111.877 95.5386ZM82.5063 80.5673C68.5912 80.5673 57.1921 87.0635 53.1361 95.5386L49.528 93.8119C54.4481 83.5312 67.5739 76.5673 82.5063 76.5673V80.5673ZM54.6511 101.25C52.7852 101.25 51.0885 100.39 50.05 99.0182C48.9833 97.6089 48.6382 95.6711 49.528 93.8119L53.1361 95.5386C52.9429 95.9423 53.003 96.2918 53.2394 96.6042C53.504 96.9538 54.0083 97.25 54.6511 97.25V101.25ZM110.362 97.25C111.004 97.25 111.509 96.9538 111.773 96.6042C112.01 96.2918 112.07 95.9423 111.877 95.5386L115.485 93.8119C116.374 95.6711 116.029 97.6089 114.963 99.0182C113.924 100.39 112.227 101.25 110.362 101.25V97.25Z" fill="#4D4D4D"/>
<circle r="14.1781" transform="matrix(-1 0 0 1 48.737 45.1781)" stroke="#4D4D4D" stroke-width="4"/>
<path d="M63.7309 66.5029L65.6755 66.0356L63.7309 66.5029ZM18.0319 81.5721L19.9653 82.0839L18.0319 81.5721ZM53.5316 82.5407L52.3214 80.9484L53.5316 82.5407ZM68.3228 73.9713L69.6204 72.4494L68.3228 73.9713ZM68.2508 78.1856C62.9545 79.3182 58.3184 81.4148 54.7418 84.133L52.3214 80.9484C56.4211 77.8327 61.6146 75.5143 67.4143 74.274L68.2508 78.1856ZM52.916 84.75H18.9723V80.75H52.916V84.75ZM16.0985 81.0604C19.1889 69.3846 32.9519 61.2006 48.6605 61.2006V65.2006C33.9717 65.2006 22.4151 72.8283 19.9653 82.0839L16.0985 81.0604ZM48.6605 61.2006C54.1097 61.2006 59.2664 62.1726 63.8202 63.9066L62.3968 67.6448C58.3117 66.0892 53.6387 65.2006 48.6605 65.2006V61.2006ZM65.6755 66.0356C66.2852 68.5728 67.6917 70.8048 69.6204 72.4494L67.0251 75.4931C64.4701 73.3145 62.5987 70.3511 61.7862 66.9702L65.6755 66.0356ZM63.8202 63.9066C64.8083 64.2829 65.4562 65.1231 65.6755 66.0356L61.7862 66.9702C61.8473 67.2244 62.0415 67.5095 62.3968 67.6448L63.8202 63.9066ZM18.9723 84.75C17.1374 84.75 15.5758 83.035 16.0985 81.0604L19.9653 82.0839C20.167 81.3218 19.5528 80.75 18.9723 80.75V84.75ZM54.7418 84.133C54.2258 84.5252 53.5874 84.75 52.916 84.75V80.75C52.69 80.75 52.4828 80.8258 52.3214 80.9484L54.7418 84.133ZM67.4143 74.274C66.8977 74.3845 66.766 74.7789 66.7509 74.851C66.7368 74.9185 66.7048 75.22 67.0251 75.4931L69.6204 72.4494C70.6771 73.3504 70.8731 74.6799 70.6664 75.6692C70.4587 76.663 69.7137 77.8727 68.2508 78.1856L67.4143 74.274Z" fill="#4D4D4D"/>
<path fill-rule="evenodd" clip-rule="evenodd" d="M109 69C106.239 69 104 71.2386 104 74V94H84C81.2386 94 79 96.2386 79 99C79 101.761 81.2386 104 84 104H104V124C104 126.761 106.239 129 109 129C111.761 129 114 126.761 114 124V104H134C136.761 104 139 101.761 139 99C139 96.2386 136.761 94 134 94H114V74C114 71.2386 111.761 69 109 69Z" fill="#F4F4F4"/>
<path d="M104 94V96H106V94H104ZM104 104H106V102H104V104ZM114 104V102H112V104H114ZM114 94H112V96H114V94ZM106 74C106 72.3431 107.343 71 109 71V67C105.134 67 102 70.134 102 74H106ZM106 94V74H102V94H106ZM84 96H104V92H84V96ZM81 99C81 97.3431 82.3431 96 84 96V92C80.134 92 77 95.134 77 99H81ZM84 102C82.3431 102 81 100.657 81 99H77C77 102.866 80.134 106 84 106V102ZM104 102H84V106H104V102ZM106 124V104H102V124H106ZM109 127C107.343 127 106 125.657 106 124H102C102 127.866 105.134 131 109 131V127ZM112 124C112 125.657 110.657 127 109 127V131C112.866 131 116 127.866 116 124H112ZM112 104V124H116V104H112ZM134 102H114V106H134V102ZM137 99C137 100.657 135.657 102 134 102V106C137.866 106 141 102.866 141 99H137ZM134 96C135.657 96 137 97.3431 137 99H141C141 95.134 137.866 92 134 92V96ZM114 96H134V92H114V96ZM112 74V94H116V74H112ZM109 71C110.657 71 112 72.3431 112 74H116C116 70.134 112.866 67 109 67V71Z" fill="#4D4D4D"/>
</svg>
