<svg width="100" height="141" viewBox="0 0 100 141" fill="none" xmlns="http://www.w3.org/2000/svg">
<rect x="2" y="68" width="96" height="64" rx="1" fill="#F4F4F4" stroke="#4D4D4D" stroke-width="4"/>
<ellipse cx="50.4917" cy="100.143" rx="12.373" ry="12.2449" fill="#F2463A" stroke="#4D4D4D" stroke-width="4"/>
<rect x="2" y="131" width="96" height="8" rx="1" fill="#F4F4F4" stroke="#4D4D4D" stroke-width="4"/>
<path d="M30.8899 90.9591C27.178 100.143 29.3432 108.051 30.8899 110.857" stroke="#4D4D4D" stroke-width="4" stroke-linecap="round"/>
<path d="M69.052 90.9591C72.7639 100.143 70.5987 108.051 69.052 110.857" stroke="#4D4D4D" stroke-width="4" stroke-linecap="round"/>
<circle cx="50" cy="22" r="20" fill="#F4F4F4" stroke="#4D4D4D" stroke-width="4"/>
<path fill-rule="evenodd" clip-rule="evenodd" d="M85.2449 62.8008C86.9867 65.0777 85.1223 68 82.2556 68H17.6628C14.7961 68 12.9317 65.0777 14.6735 62.8008C21.4123 53.992 34.6861 48 49.9592 48C65.2323 48 78.5061 53.992 85.2449 62.8008Z" fill="#F2463A"/>
<path d="M85.2449 62.8008L86.8334 61.5856L85.2449 62.8008ZM14.6735 62.8008L13.085 61.5856L14.6735 62.8008ZM17.6628 70H82.2556V66H17.6628V70ZM16.262 64.016C22.5296 55.823 35.1386 50 49.9592 50V46C34.2336 46 20.2949 52.1609 13.085 61.5856L16.262 64.016ZM49.9592 50C64.7798 50 77.3888 55.823 83.6564 64.016L86.8334 61.5856C79.6235 52.1609 65.6848 46 49.9592 46V50ZM82.2556 70C84.3804 70 86.2212 68.91 87.1952 67.2803C88.1978 65.6028 88.23 63.4112 86.8334 61.5856L83.6564 64.016C84.0017 64.4673 83.9726 64.8753 83.7617 65.2282C83.5222 65.6289 82.9974 66 82.2556 66V70ZM17.6628 66C16.921 66 16.3962 65.6289 16.1567 65.2282C15.9458 64.8754 15.9167 64.4673 16.262 64.016L13.085 61.5856C11.6885 63.4112 11.7207 65.6028 12.7232 67.2803C13.6972 68.91 15.538 70 17.6628 70V66Z" fill="#4D4D4D"/>
</svg>
