<svg width="170" height="130" viewBox="0 0 170 130" fill="none" xmlns="http://www.w3.org/2000/svg">
<path d="M44.5 8.5H70.5C81.2696 8.5 90 17.2304 90 28V28V28C89.4412 41.6897 78.1807 52.5 64.4796 52.5H39.2559C27.3241 52.5 17.7311 62.3214 18.0118 74.2499V74.2499C18.2832 85.788 27.7146 95 39.2559 95H53.5" stroke="#F2463A" stroke-width="4" stroke-linecap="round" stroke-dasharray="4 8"/>
<circle cx="65" cy="65" r="63" stroke="#4D4D4D" stroke-width="4"/>
<rect width="116.318" height="11.543" transform="matrix(-1 0 0 1 167.161 104.521)" fill="#F9F9F9"/>
<path fill-rule="evenodd" clip-rule="evenodd" d="M126.51 109.795C126.51 115.448 131.217 120.031 137.023 120.031C140.38 120.031 143.37 118.498 145.295 116.112C145.652 115.67 145.313 115.051 144.745 115.051H130.557C130.155 115.051 129.83 114.726 129.83 114.324V105.818C129.83 105.417 130.155 105.092 130.557 105.092H145.153C145.701 105.092 146.045 104.51 145.732 104.06C143.842 101.344 140.647 99.5585 137.023 99.5585C131.217 99.5585 126.51 104.141 126.51 109.795Z" fill="white"/>
<path d="M145.295 116.112L143.738 114.857L145.295 116.112ZM137.023 122.031C130.163 122.031 124.51 116.602 124.51 109.795H128.51C128.51 114.293 132.271 118.031 137.023 118.031V122.031ZM146.851 117.368C144.556 120.213 140.999 122.031 137.023 122.031V118.031C139.762 118.031 142.184 116.783 143.738 114.857L146.851 117.368ZM130.557 113.051H144.745V117.051H130.557V113.051ZM131.83 114.324C131.83 113.621 131.26 113.051 130.557 113.051V117.051C129.051 117.051 127.83 115.83 127.83 114.324H131.83ZM131.83 105.818V114.324H127.83V105.818H131.83ZM130.557 107.092C131.26 107.092 131.83 106.521 131.83 105.818H127.83C127.83 104.312 129.051 103.092 130.557 103.092V107.092ZM145.153 107.092H130.557V103.092H145.153V107.092ZM137.023 97.5585C141.314 97.5585 145.117 99.6748 147.374 102.917L144.091 105.202C142.566 103.012 139.979 101.558 137.023 101.558V97.5585ZM124.51 109.795C124.51 102.987 130.163 97.5585 137.023 97.5585V101.558C132.271 101.558 128.51 105.296 128.51 109.795H124.51ZM145.153 103.092C144.688 103.092 144.26 103.349 144.03 103.751C143.788 104.173 143.776 104.75 144.091 105.202L147.374 102.917C148.735 104.873 147.094 107.092 145.153 107.092V103.092ZM143.738 114.857C143.382 115.299 143.361 115.902 143.599 116.351C143.824 116.777 144.266 117.051 144.745 117.051V113.051C146.741 113.051 148.42 115.424 146.851 117.368L143.738 114.857Z" fill="#4D4D4D"/>
<path d="M151.779 73.1907C151.662 73.0701 151.499 73 151.331 73H54.8353C54.4916 73 54.213 73.2786 54.213 73.6224V104.469C54.213 104.813 54.4916 105.091 54.8353 105.091H164.251C164.594 105.091 164.873 104.808 164.871 104.465C164.779 91.1054 161.712 83.4474 151.779 73.1907Z" fill="#F9F9F9" stroke="#4D4D4D" stroke-width="4"/>
<path d="M164.553 95H54.9999V105H165.383C165.383 100.556 165.248 98.27 164.553 95Z" fill="#F2463A" stroke="#4D4D4D" stroke-width="4"/>
<ellipse rx="10.5127" ry="10.2361" transform="matrix(-1 0 0 1 137.023 109.795)" fill="white" stroke="#4D4D4D" stroke-width="4"/>
<circle r="10.2361" transform="matrix(-1 0 0 1 72.01 109.795)" fill="white" stroke="#4D4D4D" stroke-width="4"/>
<path fill-rule="evenodd" clip-rule="evenodd" d="M62.1348 107.091H53.9999V113.051H62.3029C62.8143 114.576 63.6752 115.941 64.7905 117.051H52.7266C51.2207 117.051 49.9999 115.83 49.9999 114.324V105.818C49.9999 104.312 51.2207 103.091 52.7266 103.091H64.2739C63.2849 104.232 62.5439 105.593 62.1348 107.091ZM79.7463 103.091H129.077C128.062 104.232 127.301 105.593 126.88 107.091H81.8855C81.4763 105.593 80.7353 104.232 79.7463 103.091ZM79.2298 117.051C80.345 115.941 81.2059 114.576 81.7173 113.051H127.053C127.578 114.576 128.462 115.941 129.608 117.051H79.2298ZM166.36 103.091H144.968C145.984 104.232 146.745 105.593 147.165 107.091H165.086V113.051H146.992C146.467 114.576 145.583 115.941 144.437 117.051H166.36C167.866 117.051 169.086 115.83 169.086 114.324V105.818C169.086 104.312 167.866 103.091 166.36 103.091Z" fill="#4D4D4D"/>
<circle r="2.7665" transform="matrix(-1 0 0 1 137.023 109.518)" stroke="#4D4D4D" stroke-width="4"/>
<circle r="2.7665" transform="matrix(-1 0 0 1 71.7325 109.518)" stroke="#4D4D4D" stroke-width="4"/>
<path d="M149.017 78.1851C148.901 78.0661 148.742 78 148.575 78H137.622C137.279 78 137 78.2786 137 78.6224V89.3776C137 89.7214 137.279 90 137.622 90H154.378C154.721 90 155.002 89.7205 154.984 89.3772C154.732 84.5471 151.59 80.8164 149.017 78.1851Z" stroke="#4D4D4D" stroke-width="4"/>
<path fill-rule="evenodd" clip-rule="evenodd" d="M126.657 76C128.105 76 129.279 77.1741 129.279 78.6224V89.3776C129.279 90.8259 128.105 92 126.657 92H116H115.279H114H113.279H102.622C101.174 92 100 90.8259 100 89.3776V78.6224C100 77.1741 101.174 76 102.622 76H113.279H114H115.279H116H126.657ZM124.657 88C125.001 88 125.279 87.7214 125.279 87.3776V80.6224C125.279 80.2786 125.001 80 124.657 80H117.902C117.558 80 117.279 80.2786 117.279 80.6224V87.3776C117.279 87.7214 117.558 88 117.902 88H124.657ZM111.378 88C111.721 88 112 87.7214 112 87.3776V80.6224C112 80.2786 111.721 80 111.378 80H104.622C104.279 80 104 80.2786 104 80.6224V87.3776C104 87.7214 104.279 88 104.622 88H111.378Z" fill="#4D4D4D"/>
<path fill-rule="evenodd" clip-rule="evenodd" d="M91.6569 76C93.1052 76 94.2793 77.1741 94.2793 78.6224V89.3776C94.2793 90.8259 93.1052 92 91.6569 92H81.0001H80.2793H79.0001H78.2793H67.6225C66.1742 92 65.0001 90.8259 65.0001 89.3776V78.6224C65.0001 77.1741 66.1742 76 67.6225 76H78.2793H79.0001H80.2793H81.0001H91.6569ZM89.6569 88C90.0007 88 90.2793 87.7214 90.2793 87.3776V80.6224C90.2793 80.2786 90.0007 80 89.6569 80H82.9017C82.5579 80 82.2793 80.2786 82.2793 80.6224V87.3776C82.2793 87.7214 82.5579 88 82.9017 88H89.6569ZM76.3777 88C76.7215 88 77.0001 87.7214 77.0001 87.3776V80.6224C77.0001 80.2786 76.7215 80 76.3777 80H69.6225C69.2787 80 69.0001 80.2786 69.0001 80.6224V87.3776C69.0001 87.7214 69.2787 88 69.6225 88H76.3777Z" fill="#4D4D4D"/>
</svg>
