<svg width="130" height="130" viewBox="0 0 130 130" fill="none" xmlns="http://www.w3.org/2000/svg">
<path d="M89.7501 69.5V69.5C89.7501 64.8056 85.9445 61 81.2501 61H53.2215H41.2373C34.743 61 29.4803 55.7316 29.4873 49.2373V49.2373C29.4943 42.7529 34.7529 37.5 41.2373 37.5H77.1078C84.106 37.5 89.7962 31.8592 89.8573 24.8613V24.8613C89.9191 17.7764 84.1929 12 77.1078 12H50.4695C47.1558 12 44.4695 9.31371 44.4695 6V6" stroke="#F2463A" stroke-width="4" stroke-linecap="round" stroke-dasharray="4 8"/>
<circle cx="65" cy="65" r="63" stroke="#4D4D4D" stroke-width="4"/>
<rect width="116.318" height="11.543" transform="matrix(-1 0 0 1 122.161 102.521)" fill="#F9F9F9"/>
<path fill-rule="evenodd" clip-rule="evenodd" d="M81.5102 107.795C81.5102 113.448 86.2169 118.031 92.023 118.031C95.3804 118.031 98.3702 116.498 100.295 114.112C100.652 113.67 100.313 113.051 99.7446 113.051H85.5568C85.1554 113.051 84.8301 112.726 84.8301 112.324V103.818C84.8301 103.417 85.1554 103.092 85.5568 103.092H100.153C100.701 103.092 101.045 102.51 100.732 102.06C98.8419 99.3435 95.6465 97.5585 92.023 97.5585C86.2169 97.5585 81.5102 102.141 81.5102 107.795Z" fill="white"/>
<path d="M100.295 114.112L101.851 115.368L100.295 114.112ZM92.023 120.031C85.163 120.031 79.5102 114.602 79.5102 107.795H83.5102C83.5102 112.293 87.2709 116.031 92.023 116.031V120.031ZM101.851 115.368C99.556 118.213 95.9991 120.031 92.023 120.031V116.031C94.7616 116.031 97.1843 114.783 98.7382 112.857L101.851 115.368ZM85.5568 111.051H99.7446V115.051H85.5568V111.051ZM86.8301 112.324C86.8301 111.621 86.26 111.051 85.5568 111.051V115.051C84.0509 115.051 82.8301 113.83 82.8301 112.324H86.8301ZM86.8301 103.818V112.324H82.8301V103.818H86.8301ZM85.5568 105.092C86.26 105.092 86.8301 104.521 86.8301 103.818H82.8301C82.8301 102.312 84.0509 101.092 85.5568 101.092V105.092ZM100.153 105.092H85.5568V101.092H100.153V105.092ZM92.023 95.5585C96.3144 95.5585 100.117 97.6748 102.374 100.917L99.0905 103.202C97.5665 101.012 94.9787 99.5585 92.023 99.5585V95.5585ZM79.5102 107.795C79.5102 100.987 85.163 95.5585 92.023 95.5585V99.5585C87.2709 99.5585 83.5102 103.296 83.5102 107.795H79.5102ZM100.153 101.092C99.6882 101.092 99.2597 101.349 99.0297 101.751C98.7882 102.173 98.776 102.75 99.0905 103.202L102.374 100.917C103.735 102.873 102.094 105.092 100.153 105.092V101.092ZM98.7382 112.857C98.3816 113.299 98.3614 113.902 98.5989 114.351C98.8241 114.777 99.2662 115.051 99.7446 115.051V111.051C101.741 111.051 103.42 113.424 101.851 115.368L98.7382 112.857Z" fill="#4D4D4D"/>
<path d="M106.779 71.1907C106.662 71.0701 106.499 71 106.331 71H9.83534C9.49162 71 9.21297 71.2786 9.21297 71.6224V102.469C9.21297 102.813 9.49161 103.091 9.83533 103.091H119.251C119.594 103.091 119.873 102.808 119.871 102.465C119.779 89.1054 116.712 81.4474 106.779 71.1907Z" fill="#F9F9F9" stroke="#4D4D4D" stroke-width="4"/>
<path d="M119.553 93H9.99989V103H120.383C120.383 98.5556 120.248 96.27 119.553 93Z" fill="#F2463A" stroke="#4D4D4D" stroke-width="4"/>
<ellipse rx="10.5127" ry="10.2361" transform="matrix(-1 0 0 1 92.0227 107.795)" fill="white" stroke="#4D4D4D" stroke-width="4"/>
<circle r="10.2361" transform="matrix(-1 0 0 1 27.01 107.795)" fill="white" stroke="#4D4D4D" stroke-width="4"/>
<path fill-rule="evenodd" clip-rule="evenodd" d="M17.1348 105.091H8.99991V111.051H17.3029C17.8143 112.576 18.6752 113.941 19.7905 115.051H7.72659C6.22069 115.051 4.99991 113.83 4.99991 112.324V103.818C4.99991 102.312 6.22069 101.091 7.72659 101.091H19.2739C18.2849 102.232 17.5439 103.593 17.1348 105.091ZM34.7463 101.091H84.0774C83.0617 102.232 82.3006 103.593 81.8804 105.091H36.8855C36.4763 103.593 35.7353 102.232 34.7463 101.091ZM34.2298 115.051C35.345 113.941 36.2059 112.576 36.7173 111.051H82.0531C82.5783 112.576 83.4625 113.941 84.6079 115.051H34.2298ZM121.36 101.091H99.9679C100.984 102.232 101.745 103.593 102.165 105.091H120.086V111.051H101.992C101.467 112.576 100.583 113.941 99.4374 115.051H121.36C122.866 115.051 124.086 113.83 124.086 112.324V103.818C124.086 102.312 122.866 101.091 121.36 101.091Z" fill="#4D4D4D"/>
<circle r="2.7665" transform="matrix(-1 0 0 1 92.0226 107.518)" stroke="#4D4D4D" stroke-width="4"/>
<circle r="2.7665" transform="matrix(-1 0 0 1 26.7325 107.518)" stroke="#4D4D4D" stroke-width="4"/>
<path d="M104.017 76.1851C103.901 76.0661 103.742 76 103.575 76H92.6224C92.2786 76 92 76.2786 92 76.6224V87.3776C92 87.7214 92.2786 88 92.6224 88H109.378C109.721 88 110.002 87.7205 109.984 87.3772C109.732 82.5471 106.59 78.8164 104.017 76.1851Z" stroke="#4D4D4D" stroke-width="4"/>
<path fill-rule="evenodd" clip-rule="evenodd" d="M81.6569 74C83.1052 74 84.2793 75.1741 84.2793 76.6224V87.3776C84.2793 88.8259 83.1052 90 81.6569 90H71.0001H70.2793H69.0001H68.2793H57.6225C56.1742 90 55.0001 88.8259 55.0001 87.3776V76.6224C55.0001 75.1741 56.1742 74 57.6225 74H68.2793H69.0001H70.2793H71.0001H81.6569ZM79.6569 86C80.0007 86 80.2793 85.7214 80.2793 85.3776V78.6224C80.2793 78.2786 80.0007 78 79.6569 78H72.9017C72.5579 78 72.2793 78.2786 72.2793 78.6224V85.3776C72.2793 85.7214 72.5579 86 72.9017 86H79.6569ZM66.3777 86C66.7215 86 67.0001 85.7214 67.0001 85.3776V78.6224C67.0001 78.2786 66.7215 78 66.3777 78H59.6225C59.2787 78 59.0001 78.2786 59.0001 78.6224V85.3776C59.0001 85.7214 59.2787 86 59.6225 86H66.3777Z" fill="#4D4D4D"/>
<path fill-rule="evenodd" clip-rule="evenodd" d="M46.6569 74C48.1052 74 49.2793 75.1741 49.2793 76.6224V87.3776C49.2793 88.8259 48.1052 90 46.6569 90H36.0001H35.2793H34.0001H33.2793H22.6225C21.1742 90 20.0001 88.8259 20.0001 87.3776V76.6224C20.0001 75.1741 21.1742 74 22.6225 74H33.2793H34.0001H35.2793H36.0001H46.6569ZM44.6569 86C45.0007 86 45.2793 85.7214 45.2793 85.3776V78.6224C45.2793 78.2786 45.0007 78 44.6569 78H37.9017C37.5579 78 37.2793 78.2786 37.2793 78.6224V85.3776C37.2793 85.7214 37.5579 86 37.9017 86H44.6569ZM31.3777 86C31.7215 86 32.0001 85.7214 32.0001 85.3776V78.6224C32.0001 78.2786 31.7215 78 31.3777 78H24.6225C24.2787 78 24.0001 78.2786 24.0001 78.6224V85.3776C24.0001 85.7214 24.2787 86 24.6225 86H31.3777Z" fill="#4D4D4D"/>
</svg>
