<svg width="196" height="172" viewBox="0 0 196 172" fill="none" xmlns="http://www.w3.org/2000/svg">
<circle cx="95" cy="86" r="84" stroke="#4D4D4D" stroke-width="4"/>
<circle cx="45.3523" cy="78" r="20" fill="#F4F4F4" stroke="#4D4D4D" stroke-width="4"/>
<path fill-rule="evenodd" clip-rule="evenodd" d="M87.677 126.373C88.618 128.699 86.7208 131 84.2122 131H6.71011C4.20145 131 2.30429 128.699 3.24527 126.373C8.61326 113.107 25.4822 103.423 45.4611 103.423C65.4401 103.423 82.309 113.107 87.677 126.373Z" fill="#F4F4F4"/>
<path d="M87.677 126.373L85.823 127.124L87.677 126.373ZM3.24527 126.373L1.3913 125.623L3.24527 126.373ZM6.71011 133H84.2122V129H6.71011V133ZM5.09924 127.124C10.0619 114.859 25.9941 105.423 45.4611 105.423V101.423C24.9702 101.423 7.16458 111.356 1.3913 125.623L5.09924 127.124ZM45.4611 105.423C64.9282 105.423 80.8603 114.859 85.823 127.124L89.531 125.623C83.7577 111.356 65.952 101.423 45.4611 101.423V105.423ZM84.2122 133C87.8198 133 91.1186 129.547 89.531 125.623L85.823 127.124C86.0064 127.577 85.9252 127.988 85.6566 128.335C85.368 128.707 84.8524 129 84.2122 129V133ZM6.71011 129C6.06981 129 5.55421 128.707 5.26566 128.335C4.99705 127.988 4.91588 127.577 5.09924 127.124L1.3913 125.623C-0.196313 129.547 3.10249 133 6.71011 133V129Z" fill="#4D4D4D"/>
<circle cx="90.4866" cy="58.9041" r="18.9041" fill="#F2463A" stroke="#4D4D4D" stroke-width="4"/>
<path fill-rule="evenodd" clip-rule="evenodd" d="M63.5776 97.9371C62.8086 98.5244 63.0754 99.9162 64.0252 100.102C71.8771 101.635 78.8259 104.692 84.1856 108.79C84.3625 108.926 84.5781 109 84.8007 109H130.576C131.203 109 131.677 108.429 131.527 107.82C128.048 93.6722 111.043 82.9342 90.5893 82.9342C83.5697 82.9342 76.9563 84.199 71.1565 86.4323C70.8405 86.554 70.6129 86.831 70.537 87.1609C69.5332 91.5226 67.0204 95.3078 63.5776 97.9371Z" fill="#F2463A"/>
<path d="M70.537 87.1609L68.5879 86.7124L70.537 87.1609ZM131.527 107.82L133.469 107.342L131.527 107.82ZM84.1856 108.79L82.9707 110.379L84.1856 108.79ZM63.6419 102.065C71.2302 103.546 77.8852 106.49 82.9707 110.379L85.4006 107.202C79.7666 102.893 72.5239 99.7232 64.4084 98.1387L63.6419 102.065ZM84.8007 111H130.576V107H84.8007V111ZM133.469 107.342C129.685 91.9548 111.551 80.9342 90.5893 80.9342V84.9342C110.534 84.9342 126.41 95.3897 129.585 108.297L133.469 107.342ZM90.5893 80.9342C83.332 80.9342 76.4743 82.2415 70.4378 84.5659L71.8752 88.2987C77.4384 86.1565 83.8075 84.9342 90.5893 84.9342V80.9342ZM68.5879 86.7124C67.6915 90.6078 65.4458 93.9938 62.3637 96.3476L64.7915 99.5266C68.595 96.6218 71.375 92.4375 72.486 87.6095L68.5879 86.7124ZM70.4378 84.5659C69.4608 84.9421 68.8028 85.7786 68.5879 86.7124L72.486 87.6095C72.423 87.8834 72.2202 88.1658 71.8752 88.2987L70.4378 84.5659ZM130.576 111C132.424 111 133.947 109.285 133.469 107.342L129.585 108.297C129.407 107.572 129.983 107 130.576 107V111ZM82.9707 110.379C83.4899 110.776 84.1308 111 84.8007 111V107C85.0254 107 85.2351 107.075 85.4006 107.202L82.9707 110.379ZM64.4084 98.1387C64.9205 98.2387 65.0898 98.6374 65.1177 98.7762C65.1441 98.9079 65.1434 99.2578 64.7915 99.5266L62.3637 96.3476C61.2427 97.2037 60.991 98.5432 61.196 99.564C61.4025 100.592 62.1801 101.779 63.6419 102.065L64.4084 98.1387Z" fill="#4D4D4D"/>
<path fill-rule="evenodd" clip-rule="evenodd" d="M150 78C147.791 78 146 79.7909 146 82V106C146 108.209 147.791 110 150 110H176L187.293 121.293C187.923 121.923 189 121.477 189 120.586L189 110H190C192.209 110 194 108.209 194 106V82C194 79.7909 192.209 78 190 78H150Z" fill="#F4F4F4"/>
<path d="M176 110L177.414 108.586L176.828 108H176V110ZM187.293 121.293L188.707 119.879L188.707 119.879L187.293 121.293ZM189 120.586L187 120.586V120.586L189 120.586ZM189 110V108H187L187 110L189 110ZM148 82C148 80.8954 148.895 80 150 80V76C146.686 76 144 78.6863 144 82H148ZM148 106V82H144V106H148ZM150 108C148.895 108 148 107.105 148 106H144C144 109.314 146.686 112 150 112V108ZM176 108H150V112H176V108ZM188.707 119.879L177.414 108.586L174.586 111.414L185.879 122.707L188.707 119.879ZM187 120.586C187 119.695 188.077 119.249 188.707 119.879L185.879 122.707C187.769 124.597 191 123.259 191 120.586L187 120.586ZM187 110L187 120.586L191 120.586L191 110L187 110ZM190 108H189V112H190V108ZM192 106C192 107.105 191.105 108 190 108V112C193.314 112 196 109.314 196 106H192ZM192 82V106H196V82H192ZM190 80C191.105 80 192 80.8954 192 82H196C196 78.6863 193.314 76 190 76V80ZM150 80H190V76H150V80Z" fill="#4D4D4D"/>
<circle cx="156" cy="93" r="4" fill="#F2463A" stroke="#4D4D4D" stroke-width="4"/>
<circle cx="170" cy="93" r="4" fill="#F2463A" stroke="#4D4D4D" stroke-width="4"/>
<circle cx="184" cy="93" r="4" fill="#F2463A" stroke="#4D4D4D" stroke-width="4"/>
<path fill-rule="evenodd" clip-rule="evenodd" d="M163 31C165.209 31 167 32.7909 167 35V59C167 61.2091 165.209 63 163 63H142L129.707 75.2929C129.077 75.9229 128 75.4767 128 74.5858L128 63H123C120.791 63 119 61.2091 119 59V35C119 32.7909 120.791 31 123 31H163Z" fill="#F4F4F4"/>
<path d="M142 63L140.586 61.5858L141.172 61H142V63ZM129.707 75.2929L128.293 73.8787L128.293 73.8787L129.707 75.2929ZM128 74.5858L130 74.5858V74.5858L128 74.5858ZM128 63V61H130L130 63L128 63ZM165 35C165 33.8954 164.105 33 163 33V29C166.314 29 169 31.6863 169 35H165ZM165 59V35H169V59H165ZM163 61C164.105 61 165 60.1046 165 59H169C169 62.3137 166.314 65 163 65V61ZM142 61H163V65H142V61ZM128.293 73.8787L140.586 61.5858L143.414 64.4142L131.121 76.7071L128.293 73.8787ZM130 74.5858C130 73.6949 128.923 73.2487 128.293 73.8787L131.121 76.7071C129.231 78.597 126 77.2585 126 74.5858L130 74.5858ZM130 63L130 74.5858L126 74.5858L126 63L130 63ZM123 61H128V65H123V61ZM121 59C121 60.1046 121.895 61 123 61V65C119.686 65 117 62.3137 117 59H121ZM121 35V59H117V35H121ZM123 33C121.895 33 121 33.8954 121 35H117C117 31.6863 119.686 29 123 29V33ZM163 33H123V29H163V33Z" fill="#4D4D4D"/>
<path d="M131.824 42.2829L125.419 46.7078C124.787 47.1444 124.863 48.1012 125.556 48.4326L131.824 51.4305" stroke="#4D4D4D" stroke-width="4" stroke-linecap="round"/>
<path d="M154.515 42L160.92 46.4249C161.552 46.8615 161.476 47.8183 160.783 48.1497L154.515 51.1476" stroke="#4D4D4D" stroke-width="4" stroke-linecap="round"/>
<path d="M139.258 42L145.517 51.1476" stroke="#4D4D4D" stroke-width="4" stroke-linecap="round"/>
</svg>
