<svg width="134" height="131" viewBox="0 0 134 131" fill="none" xmlns="http://www.w3.org/2000/svg">
<circle cx="65.25" cy="65.5" r="63" fill="#F4F4F4" stroke="#4D4D4D" stroke-width="4"/>
<circle cx="99.5378" cy="80.5" r="15" fill="#F2463A" stroke="#4D4D4D" stroke-width="4"/>
<path fill-rule="evenodd" clip-rule="evenodd" d="M130.794 115.675C131.877 117.938 129.984 120.25 127.475 120.25H71.7644C69.2557 120.25 67.3624 117.938 68.4453 115.675C72.9334 106.297 85.1958 99.5673 99.6196 99.5673C114.043 99.5673 126.306 106.297 130.794 115.675Z" fill="#F2463A"/>
<path d="M130.794 115.675L128.99 116.539L130.794 115.675ZM71.7644 122.25H127.475V118.25H71.7644V122.25ZM70.2494 116.539C74.3054 108.064 85.7045 101.567 99.6196 101.567V97.5673C84.6872 97.5673 71.5614 104.531 66.6413 114.812L70.2494 116.539ZM99.6196 101.567C113.535 101.567 124.934 108.064 128.99 116.539L132.598 114.812C127.678 104.531 114.552 97.5673 99.6196 97.5673V101.567ZM127.475 122.25C129.341 122.25 131.037 121.39 132.076 120.018C133.143 118.609 133.488 116.671 132.598 114.812L128.99 116.539C129.183 116.942 129.123 117.292 128.887 117.604C128.622 117.954 128.118 118.25 127.475 118.25V122.25ZM71.7644 118.25C71.1216 118.25 70.6173 117.954 70.3527 117.604C70.1163 117.292 70.0562 116.942 70.2494 116.539L66.6413 114.812C65.7515 116.671 66.0966 118.609 67.1633 120.018C68.2018 121.39 69.8985 122.25 71.7644 122.25V118.25Z" fill="#4D4D4D"/>
<path d="M34 72L46.3333 86" stroke="#4D4D4D" stroke-width="4" stroke-linecap="round"/>
<path d="M95 38L46.3332 86" stroke="#4D4D4D" stroke-width="4" stroke-linecap="round"/>
</svg>
