<svg width="131" height="145" viewBox="0 0 131 145" fill="none" xmlns="http://www.w3.org/2000/svg">
<circle cx="65.25" cy="65.5" r="63" fill="#F4F4F4" stroke="#4D4D4D" stroke-width="4"/>
<path d="M29 23H53V27H29C27.8954 27 27 27.8954 27 29V53H23V29C23 25.6863 25.6863 23 29 23Z" fill="#4D4D4D"/>
<path d="M23 77H27V101C27 102.105 27.8954 103 29 103H53V107H29C25.6863 107 23 104.314 23 101V77Z" fill="#4D4D4D"/>
<path d="M77 107H101C104.314 107 107 104.314 107 101V77H103V101C103 102.105 102.105 103 101 103H77V107Z" fill="#4D4D4D"/>
<path d="M107 53V29C107 25.6863 104.314 23 101 23H77V27H101C102.105 27 103 27.8954 103 29V53H107Z" fill="#4D4D4D"/>
<circle cx="65.4041" cy="53" r="15" fill="#F2463A" stroke="#4D4D4D" stroke-width="4"/>
<path fill-rule="evenodd" clip-rule="evenodd" d="M96.6601 88.1753C97.7431 90.4381 95.8497 92.75 93.3411 92.75H37.6306C35.1219 92.75 33.2286 90.4381 34.3116 88.1753C38.7996 78.7974 51.062 72.0673 65.4858 72.0673C79.9096 72.0673 92.1721 78.7974 96.6601 88.1753Z" fill="#F2463A"/>
<path d="M96.6601 88.1753L94.8561 89.0386L96.6601 88.1753ZM37.6306 94.75H93.3411V90.75H37.6306V94.75ZM36.1156 89.0386C40.1716 80.5635 51.5707 74.0673 65.4858 74.0673V70.0673C50.5534 70.0673 37.4276 77.0312 32.5075 87.3119L36.1156 89.0386ZM65.4858 74.0673C79.401 74.0673 90.8001 80.5635 94.8561 89.0386L98.4642 87.3119C93.5441 77.0312 80.4183 70.0673 65.4858 70.0673V74.0673ZM93.3411 94.75C95.207 94.75 96.9037 93.8903 97.9422 92.5182C99.0088 91.1089 99.354 89.1711 98.4642 87.3119L94.8561 89.0386C95.0493 89.4423 94.9892 89.7918 94.7528 90.1042C94.4881 90.4538 93.9839 90.75 93.3411 90.75V94.75ZM37.6306 90.75C36.9878 90.75 36.4835 90.4538 36.2189 90.1042C35.9825 89.7918 35.9224 89.4423 36.1156 89.0386L32.5075 87.3119C31.6177 89.1711 31.9629 91.1089 33.0295 92.5182C34.068 93.8903 35.7647 94.75 37.6306 94.75V90.75Z" fill="#4D4D4D"/>
<rect x="80" y="83" width="48" height="60" rx="4" fill="#F4F4F4" stroke="#4D4D4D" stroke-width="4"/>
<path d="M92 113H116" stroke="#4D4D4D" stroke-width="4" stroke-linecap="round"/>
<path d="M100 131H116" stroke="#4D4D4D" stroke-width="4" stroke-linecap="round"/>
<circle cx="104" cy="93" r="4" stroke="#4D4D4D" stroke-width="4"/>
<path d="M92 105H116" stroke="#4D4D4D" stroke-width="4" stroke-linecap="round"/>
</svg>
