<svg width="175" height="131" viewBox="0 0 175 131" fill="none" xmlns="http://www.w3.org/2000/svg">
<circle cx="86.7502" cy="65.5" r="63" stroke="#4D4D4D" stroke-width="4"/>
<rect width="168.205" height="19.2895" transform="matrix(-1 0 0 1 171.968 73.037)" fill="white"/>
<path fill-rule="evenodd" clip-rule="evenodd" d="M154.995 36H5.11017C4.49718 36 4.00024 36.4969 4.00024 37.1099V78.8901C4.00024 79.5031 4.49718 80 5.11017 80H29.2235C29.6945 80 30.1103 79.7007 30.2917 79.2659C32.3851 74.248 37.3382 70.7211 43.1149 70.7211C48.8916 70.7211 53.8446 74.248 55.9381 79.2659C56.1195 79.7007 56.5352 80 57.0063 80H64.3816C64.9946 80 65.4915 79.5031 65.4915 78.8901V74.1469C65.4915 73.5339 65.9884 73.0369 66.6014 73.0369H105.275C105.888 73.0369 106.385 73.5339 106.385 74.1469V78.8901C106.385 79.5031 106.882 80 107.495 80H116.383C116.858 80 117.276 79.6962 117.455 79.2566C119.492 74.2436 124.305 70.7211 129.918 70.7211C134.977 70.7211 139.385 73.5823 141.698 77.8171C141.903 78.1908 142.288 78.4365 142.713 78.4365H168.495C169.088 78.4365 169.577 77.9641 169.598 77.3712C170.233 59.3047 165.564 49.2183 155.001 36.0079C155.001 36.007 155 36.006 155 36.0049C155 36.0022 154.998 36 154.995 36H154.995Z" fill="white"/>
<path d="M169.598 77.3712L171.947 77.4538L169.598 77.3712ZM117.455 79.2566L119.632 80.1414L117.455 79.2566ZM141.698 77.8171L139.636 78.9436L141.698 77.8171ZM30.2917 79.2659L28.1228 78.3611L30.2917 79.2659ZM155.001 36.0079L156.837 34.5404L155.001 36.0079ZM55.9381 79.2659L58.1069 78.3611L55.9381 79.2659ZM5.11017 33.65H154.995V38.35H5.11017V33.65ZM1.65024 78.8901V37.1099H6.35025V78.8901H1.65024ZM29.2235 82.35H5.11017V77.65H29.2235V82.35ZM43.1149 73.0711C38.3193 73.0711 34.2016 75.9973 32.4605 80.1708L28.1228 78.3611C30.5686 72.4987 36.357 68.3711 43.1149 68.3711V73.0711ZM53.7693 80.1708C52.0281 75.9973 47.9105 73.0711 43.1149 73.0711V68.3711C49.8728 68.3711 55.6611 72.4987 58.1069 78.3611L53.7693 80.1708ZM64.3816 82.35H57.0063V77.65H64.3816V82.35ZM67.8415 74.1469V78.8901H63.1415V74.1469H67.8415ZM66.6014 75.3869C67.2863 75.3869 67.8415 74.8317 67.8415 74.1469H63.1415C63.1415 72.236 64.6906 70.6869 66.6014 70.6869V75.3869ZM105.275 75.3869H66.6014V70.6869H105.275V75.3869ZM104.035 74.1469C104.035 74.8317 104.59 75.3869 105.275 75.3869V70.6869C107.186 70.6869 108.735 72.236 108.735 74.1469H104.035ZM104.035 78.8901V74.1469H108.735V78.8901H104.035ZM116.383 82.35H107.495V77.65H116.383V82.35ZM129.918 73.0711C125.325 73.0711 121.334 75.9541 119.632 80.1414L115.278 78.3717C117.651 72.5331 123.286 68.3711 129.918 68.3711V73.0711ZM139.636 78.9436C137.707 75.4113 134.06 73.0711 129.918 73.0711V68.3711C135.894 68.3711 141.064 71.7533 143.761 76.6907L139.636 78.9436ZM168.495 80.7865H142.713V76.0865H168.495V80.7865ZM156.837 34.5404C162.187 41.2321 166.167 47.2799 168.7 54.0444C171.241 60.8311 172.272 68.1906 171.947 77.4538L167.25 77.2886C167.559 68.4852 166.573 61.7683 164.298 55.6926C162.015 49.5947 158.378 43.9941 153.166 37.4754L156.837 34.5404ZM154.995 33.65H154.995V38.35H154.995V33.65ZM168.495 76.0865C167.822 76.0865 167.273 76.6166 167.25 77.2886L171.947 77.4538C171.881 79.3116 170.354 80.7865 168.495 80.7865V76.0865ZM116.383 77.65C115.826 77.65 115.43 77.998 115.278 78.3717L119.632 80.1414C119.123 81.3944 117.89 82.35 116.383 82.35V77.65ZM152.65 36.0049C152.65 37.3 153.7 38.35 154.995 38.35V33.65C156.296 33.65 157.35 34.7043 157.35 36.0049H152.65ZM64.3816 77.65C63.6967 77.65 63.1415 78.2052 63.1415 78.8901H67.8415C67.8415 80.8009 66.2924 82.35 64.3816 82.35V77.65ZM143.761 76.6907C143.585 76.3687 143.212 76.0865 142.713 76.0865V80.7865C141.363 80.7865 140.22 80.013 139.636 78.9436L143.761 76.6907ZM29.2235 77.65C28.6701 77.65 28.2764 77.9931 28.1228 78.3611L32.4605 80.1708C31.9442 81.4082 30.719 82.35 29.2235 82.35V77.65ZM6.35025 78.8901C6.35025 78.2052 5.79504 77.65 5.11017 77.65V82.35C3.1993 82.35 1.65024 80.8009 1.65024 78.8901H6.35025ZM153.166 37.4754C152.838 37.0656 152.65 36.5491 152.65 36.0049H157.35C157.35 35.4628 157.163 34.9484 156.837 34.5404L153.166 37.4754ZM58.1069 78.3611C57.9534 77.9931 57.5597 77.65 57.0063 77.65V82.35C55.5108 82.35 54.2856 81.4082 53.7693 80.1708L58.1069 78.3611ZM108.735 78.8901C108.735 78.2052 108.18 77.65 107.495 77.65V82.35C105.584 82.35 104.035 80.8009 104.035 78.8901H108.735ZM5.11017 38.35C5.79504 38.35 6.35025 37.7948 6.35025 37.1099H1.65024C1.65024 35.1991 3.19931 33.65 5.11017 33.65V38.35Z" fill="#4D4D4D"/>
<ellipse rx="13.5027" ry="13.8884" transform="matrix(-1 0 0 1 129.918 84.6096)" fill="white" stroke="#4D4D4D" stroke-width="4.7"/>
<circle r="13.8884" transform="matrix(-1 0 0 1 43.1174 84.6096)" fill="white" stroke="#4D4D4D" stroke-width="4.7"/>
<path fill-rule="evenodd" clip-rule="evenodd" d="M29.7997 80.6569H4.44006V90.1056H30.3586C31.0817 91.7821 32.1255 93.2878 33.4128 94.5453H3.33012C1.49113 94.5453 0.000335693 93.0545 0.000335693 91.2155V79.547C0.000335693 77.708 1.49113 76.2172 3.33012 76.2172H32.0509C31.0512 77.5332 30.281 79.0329 29.7997 80.6569ZM54.184 76.2172H65.4914V80.6569H56.4352C55.9539 79.0329 55.1836 77.5332 54.184 76.2172ZM52.8221 94.5453C54.1093 93.2878 55.1532 91.7821 55.8762 90.1056H117.513C118.216 91.7821 119.231 93.2878 120.483 94.5453H52.8221ZM119.159 76.2172H106.385V80.6569H116.97C117.438 79.0329 118.187 77.5332 119.159 76.2172ZM140.677 76.2172H170.858C172.697 76.2172 174.188 77.708 174.188 79.5469V91.2155C174.188 93.0545 172.697 94.5453 170.858 94.5453H139.353C140.604 93.2878 141.619 91.7821 142.322 90.1056H169.748V80.6569H142.866C142.398 79.0329 141.649 77.5332 140.677 76.2172Z" fill="#4D4D4D"/>
<path d="M148.593 43.2302C148.39 43.0471 148.125 42.9452 147.852 42.9452H141.445C140.832 42.9452 140.335 43.4421 140.335 44.0551V65.7543C140.335 66.3673 140.832 66.8642 141.445 66.8642H159.2C159.846 66.8642 160.356 66.3135 160.294 65.671C159.299 55.3731 155.637 49.6006 148.593 43.2302Z" stroke="#4D4D4D" stroke-width="4.7"/>
<rect width="95.676" height="23.919" rx="1.10993" transform="matrix(-1 0 0 1 130.307 42.9452)" stroke="#4D4D4D" stroke-width="4.7"/>
<rect width="40.8938" height="13.1169" rx="1.10993" transform="matrix(-1 0 0 1 106.385 73.037)" stroke="#4D4D4D" stroke-width="4.7"/>
<path d="M31.5437 48.3447L37.6989 53.8673C38.127 54.2514 38.1436 54.9167 37.7352 55.3217L31.5437 61.4616" stroke="#4D4D4D" stroke-width="8" stroke-linecap="round"/>
<path d="M19.1987 48.3447L25.3539 53.8673C25.782 54.2514 25.7987 54.9167 25.3902 55.3217L19.1987 61.4616" stroke="#4D4D4D" stroke-width="8" stroke-linecap="round"/>
<circle r="3.47211" transform="matrix(-1 0 0 1 129.921 84.9949)" stroke="#4D4D4D" stroke-width="4.7"/>
<circle r="3.47211" transform="matrix(-1 0 0 1 43.5023 84.9949)" stroke="#4D4D4D" stroke-width="4.7"/>
<line x1="2.35" y1="-2.35" x2="24.6553" y2="-2.35" transform="matrix(-1 0 0 1 99.4402 81.5228)" stroke="#4D4D4D" stroke-width="4.7" stroke-linecap="round"/>
<line y1="-2.35" x2="27.0053" y2="-2.35" transform="matrix(0 -1 -1 0 82.4685 68.4067)" stroke="#4D4D4D" stroke-width="4.7"/>
</svg>
