<svg width="1603" height="1065" viewBox="0 0 1603 1065" fill="none" xmlns="http://www.w3.org/2000/svg">
<path d="M669.295 907.078L512.161 860.246C479.593 875.923 443.905 884.04 407.76 883.992C284.872 883.992 184.898 792.461 184.898 679.962C184.898 567.464 284.872 475.933 407.76 475.933C530.649 475.933 630.623 567.448 630.623 679.962C630.623 736.745 604.555 791.253 559.025 829.798L669.295 907.078ZM511.91 856.856L512.506 857.028L651.654 898.525L553.892 829.987L555.462 828.668C601.243 790.656 627.5 736.431 627.5 679.931C627.5 569.159 528.938 479.041 407.776 479.041C286.614 479.041 188.052 569.159 188.052 679.931C188.052 790.703 286.614 880.821 407.776 880.821C443.654 880.874 479.074 872.77 511.36 857.123L511.91 856.856Z" fill="white"/>
<path d="M1078.56 558.988C1078.56 558.988 1063.86 514.683 1039.33 512.909C1039.33 512.909 1049.34 556.509 1078.07 570.492L1078.56 558.988Z" fill="#F2463A"/>
<path d="M1081.54 517.665C1081.54 517.665 1063.2 473.312 1047.02 472.308C1047.02 472.308 1054.99 515.986 1079.97 524.947L1081.54 517.665Z" fill="#F2463A"/>
<path d="M1076.84 556.462C1076.84 556.462 1102.67 517.57 1126.84 522.326C1126.84 522.326 1105.74 561.751 1074.34 567.715L1076.84 556.462Z" fill="#F2463A"/>
<path d="M1078.81 516.786C1078.81 516.786 1098.82 473.155 1115.08 472.841C1115.08 472.841 1105.48 516.174 1080.16 524.194L1078.81 516.786Z" fill="#F2463A"/>
<path d="M914.757 908.742C914.757 908.742 895.469 896.014 876.353 905.069C876.353 905.069 882.238 916.401 906.439 915.318L914.757 908.742Z" fill="#F2463A"/>
<path d="M917.08 909.417C917.08 909.417 922.95 931.766 908.229 946.974C908.229 946.974 899.377 937.761 908.229 915.193L917.08 909.417Z" fill="#F2463A"/>
<path d="M941.171 887.962C941.171 887.962 939.759 868.956 896.834 875.25C896.834 875.25 896.63 887.523 911.697 893.33C926.764 899.137 933.669 894.24 941.171 887.962Z" fill="#F2463A"/>
<path d="M943.761 887.837C943.761 887.837 961.904 893.66 945.723 933.916C945.723 933.916 933.748 931.248 931.598 915.224C929.447 899.2 935.914 893.628 943.761 887.837Z" fill="#F2463A"/>
<path d="M968.119 860.874C968.119 860.874 970.567 829.579 926.717 832.796C926.717 832.796 923.578 861.046 960.381 868.391L968.119 860.874Z" fill="#F2463A"/>
<path d="M997.122 825.561C997.122 825.561 991.111 790.107 947.261 800.669C947.261 800.669 947.104 831.321 989.966 834.005L997.122 825.561Z" fill="#F2463A"/>
<path d="M1018.28 789.056C1018.28 789.056 1008.22 754.528 964.776 764.855C964.776 764.855 975.119 795.914 1015.41 795.428L1018.28 789.056Z" fill="#F2463A"/>
<path d="M1038.41 753.397C1038.41 753.397 1028.56 717.567 986.623 728.286C986.623 728.286 1000.61 762.328 1035.64 759.456L1038.41 753.397Z" fill="#F2463A"/>
<path d="M1051.38 719.528C1051.38 719.528 1043.81 675.709 1004.7 685.408C1004.7 685.408 1016.07 725.273 1048.51 725.916L1051.38 719.528Z" fill="#F2463A"/>
<path d="M1063.54 678.612C1063.54 678.612 1054.45 634.432 1014.89 647.223C1014.89 647.223 1030.41 688.971 1060.75 684.655L1063.54 678.612Z" fill="#F2463A"/>
<path d="M1071.08 640.522C1071.08 640.522 1056.65 596.357 1026.06 597.55C1026.06 597.55 1040.8 644.21 1068.44 649.342L1071.08 640.522Z" fill="#F2463A"/>
<path d="M1075.85 603.373C1075.85 603.373 1060.15 550.2 1035.26 554.296C1035.26 554.296 1046.12 594.945 1074.97 611.659L1075.85 603.373Z" fill="#F2463A"/>
<path d="M1083.58 479.182C1083.58 479.182 1072.3 431.015 1056.07 427.013C1056.07 427.013 1058.3 466.422 1081.95 482.792L1083.58 479.182Z" fill="#F2463A"/>
<path d="M1089.72 428.818C1089.72 428.818 1077.87 390.429 1064.73 384.575C1064.73 384.575 1067.32 429.838 1086.71 438.219L1089.72 428.818Z" fill="#F2463A"/>
<path d="M1094.76 395.749L1097.14 328.043C1097.14 328.043 1072.63 379.144 1092.95 407.693L1094.76 395.749Z" fill="#F2463A"/>
<path d="M1113.72 328.467C1113.72 328.467 1131.41 279.029 1135.69 276.267C1135.69 276.267 1101.02 308.347 1104.39 349.608L1113.72 328.467Z" fill="#F2463A"/>
<path d="M969.312 860.669C969.312 860.669 1000.42 856.589 999.492 900.565C999.492 900.565 971.383 905.132 962.202 868.783L969.312 860.669Z" fill="#F2463A"/>
<path d="M998.582 824.368C998.582 824.368 1034.52 824.258 1031.54 869.255C1031.54 869.255 1001.38 874.638 991.425 832.875L998.582 824.368Z" fill="#F2463A"/>
<path d="M1018.64 791.958C1018.64 791.958 1051.27 776.656 1072.14 816.16C1072.14 816.16 1042.01 828.903 1015.75 798.346L1018.64 791.958Z" fill="#F2463A"/>
<path d="M1039.14 753.727C1039.14 753.727 1072.55 737.452 1092.17 776.029C1092.17 776.029 1057.36 788.019 1036.37 759.832L1039.14 753.727Z" fill="#F2463A"/>
<path d="M1050.95 720.486C1050.95 720.486 1083.11 689.756 1108.77 720.831C1108.77 720.831 1075.92 746.115 1049.48 727.328L1050.95 720.486Z" fill="#F2463A"/>
<path d="M1061.72 677.561C1061.72 677.561 1094.07 646.172 1119.52 679.005C1119.52 679.005 1083.21 704.791 1060.56 684.153L1061.72 677.561Z" fill="#F2463A"/>
<path d="M1067.75 639.267C1067.75 639.267 1092.67 600.03 1122.02 608.803C1122.02 608.803 1096.16 650.347 1068.03 648.495L1067.75 639.267Z" fill="#F2463A"/>
<path d="M1075.11 603.122C1075.11 603.122 1100.22 553.7 1123.98 562.316C1123.98 562.316 1105.87 600.297 1074.47 611.456L1075.11 603.122Z" fill="#F2463A"/>
<path d="M1082.78 478.24C1082.78 478.24 1105.02 434.029 1121.72 433.95C1121.72 433.95 1110.34 471.743 1083.52 482.117L1082.78 478.24Z" fill="#F2463A"/>
<path d="M1086.13 431.533C1086.13 431.533 1102.76 394.965 1116.53 390.821C1116.53 390.821 1108.21 435.394 1087.95 441.232L1086.13 431.533Z" fill="#F2463A"/>
<path d="M1096.74 394.541L1133.92 337.899C1133.92 337.899 1124.39 393.772 1091.31 405.386L1096.74 394.541Z" fill="#F2463A"/>
<path d="M1122.26 333.019C1122.26 333.019 1165.46 303.199 1167.03 298.365C1167.03 298.365 1145.06 340.144 1104.25 347.521L1122.26 333.019Z" fill="#F2463A"/>
<path d="M1124.84 319.6C1124.84 319.6 1174.47 271.92 1187.12 271.967C1187.12 271.967 1146.2 273.835 1123.65 317.073L1124.84 319.6Z" fill="#F2463A"/>
<path d="M1086.58 438.611L1088.4 438.847C1097.72 365.867 1111.32 322.707 1126.67 317.418L1126.07 315.691C1109.81 321.341 1096.16 363.858 1086.58 438.611Z" fill="#444053"/>
<path d="M1072.9 613.088L1075.63 613.323C1076.21 606.512 1076.65 599.543 1076.95 592.591C1079.55 532.198 1083.58 476.733 1088.89 435.159L1087.32 433.197C1082 474.85 1076.84 531.994 1074.23 592.481C1073.92 599.386 1073.48 606.323 1072.9 613.088Z" fill="#444053"/>
<path d="M863.813 943.474C864.284 943.27 912.356 921.8 962.249 870.589C991.483 840.606 1015.77 806.172 1034.21 768.574C1057.28 721.6 1071.34 663.875 1076.05 607.799L1073.21 609.133C1062.62 735.003 1005.31 821.009 959.754 867.858C910.347 918.598 862.808 939.849 862.337 940.053L863.813 943.474Z" fill="#444053"/>
<path d="M880.48 339.799V932.708C880.48 950.348 863.468 964.678 842.468 964.678H38.0122C17.0129 964.678 0 950.348 0 932.708V339.799C0 322.127 17.0129 304.125 38.0122 304.125H842.468C863.468 304.125 880.48 322.127 880.48 339.799Z" fill="#1F244D"/>
<path d="M880.481 342.137V435.347H0.0157471V342.137C0.0199027 332.06 4.02393 322.396 11.1483 315.269C18.2727 308.141 27.9348 304.133 38.0123 304.125H842.468C852.546 304.129 862.21 308.133 869.337 315.258C876.464 322.382 880.472 332.044 880.481 342.122V342.137Z" fill="#4B518C"/>
<path d="M48.2922 395.153C62.3255 395.153 73.7017 383.777 73.7017 369.743C73.7017 355.71 62.3255 344.334 48.2922 344.334C34.2589 344.334 22.8827 355.71 22.8827 369.743C22.8827 383.777 34.2589 395.153 48.2922 395.153Z" fill="white"/>
<path d="M122.229 395.153C136.263 395.153 147.639 383.777 147.639 369.743C147.639 355.71 136.263 344.334 122.229 344.334C108.196 344.334 96.8198 355.71 96.8198 369.743C96.8198 383.777 108.196 395.153 122.229 395.153Z" fill="white"/>
<path d="M196.182 395.153C210.215 395.153 221.591 383.777 221.591 369.743C221.591 355.71 210.215 344.334 196.182 344.334C182.149 344.334 170.772 355.71 170.772 369.743C170.772 383.777 182.149 395.153 196.182 395.153Z" fill="white"/>
<path d="M1052.05 188.691V342.749C1052.05 350.879 1044.21 357.486 1034.52 357.486H663.487C653.804 357.486 645.957 350.879 645.957 342.749V188.691C645.957 180.546 653.804 172.243 663.487 172.243H1034.52C1044.21 172.243 1052.05 180.546 1052.05 188.691Z" fill="#1F244D"/>
<path d="M1052.05 189.774V232.761H645.957V189.774C645.957 185.127 647.801 180.671 651.086 177.383C654.37 174.096 658.825 172.247 663.472 172.243H1034.52C1039.17 172.247 1043.62 174.093 1046.91 177.377C1050.19 180.66 1052.04 185.113 1052.05 189.758V189.774Z" fill="#3D4273"/>
<path d="M668.227 214.226C674.702 214.226 679.951 208.977 679.951 202.502C679.951 196.027 674.702 190.778 668.227 190.778C661.752 190.778 656.503 196.027 656.503 202.502C656.503 208.977 661.752 214.226 668.227 214.226Z" fill="white"/>
<path d="M713.165 206.989C715.643 201.007 712.802 194.149 706.82 191.671C700.838 189.194 693.98 192.034 691.502 198.016C689.024 203.998 691.865 210.856 697.847 213.334C703.829 215.812 710.687 212.971 713.165 206.989Z" fill="white"/>
<path d="M736.436 214.226C742.911 214.226 748.16 208.977 748.16 202.502C748.16 196.027 742.911 190.778 736.436 190.778C729.961 190.778 724.712 196.027 724.712 202.502C724.712 208.977 729.961 214.226 736.436 214.226Z" fill="white"/>
<path d="M972.058 339.987C997.368 339.987 1017.89 319.469 1017.89 294.159C1017.89 268.849 997.368 248.331 972.058 248.331C946.748 248.331 926.23 268.849 926.23 294.159C926.23 319.469 946.748 339.987 972.058 339.987Z" fill="#5C63AB"/>
<path d="M874.297 263.319H681.034V270.146H874.297V263.319Z" fill="#5C63AB"/>
<path d="M874.297 279.955H681.034V286.782H874.297V279.955Z" fill="#E9E9E9"/>
<path d="M874.297 296.576H681.034V303.403H874.297V296.576Z" fill="#E9E9E9"/>
<path d="M874.297 313.196H681.034V320.023H874.297V313.196Z" fill="#E9E9E9"/>
<path d="M903.85 574.48C903.85 574.48 890.227 571.341 881.312 580.522C881.312 580.522 887.056 585.701 900.522 579.973L903.85 574.48Z" fill="#F2463A"/>
<path d="M905.325 574.354C905.325 574.354 913.376 585.779 908.276 597.503C908.276 597.503 901.307 594.16 901.511 579.517L905.325 574.354Z" fill="#F2463A"/>
<path d="M914.412 557.121C914.412 557.121 909.594 546.653 886.617 559.303C886.617 559.303 889.097 566.287 898.859 566.396C908.621 566.506 911.493 562.269 914.412 557.121Z" fill="#F2463A"/>
<path d="M915.887 556.493C915.887 556.493 927.392 555.944 926.748 582.169C926.748 582.169 919.403 583.19 914.82 574.573C910.237 565.957 912.654 561.453 915.887 556.493Z" fill="#F2463A"/>
<path d="M923.939 536.075C923.939 536.075 918.713 517.837 894.559 528.934C894.559 528.934 898.78 545.633 921.145 541.976L923.939 536.075Z" fill="#F2463A"/>
<path d="M932.885 509.943C932.885 509.943 921.898 491.109 899.377 506.396C899.377 506.396 905.78 523.786 930.625 516.236L932.885 509.943Z" fill="#F2463A"/>
<path d="M937.154 484.785C937.154 484.785 924.127 467.317 901.731 482.415C901.731 482.415 914.161 497.812 936.871 489.007L937.154 484.785Z" fill="#F2463A"/>
<path d="M941.014 460.348C941.014 460.348 927.847 442.127 906.376 457.1C906.376 457.1 921.506 473.422 940.732 464.382L941.014 460.348Z" fill="#F2463A"/>
<path d="M941.187 438.486C941.187 438.486 927.627 415.258 907.538 429.069C907.538 429.069 922.401 449.237 940.905 442.739L941.187 438.486Z" fill="#F2463A"/>
<path d="M939.414 412.669C939.414 412.669 924.928 389.582 905.262 405.214C905.262 405.214 922.872 425.617 939.147 416.718L939.414 412.669Z" fill="#F2463A"/>
<path d="M935.615 389.519C935.615 389.519 918.116 367.547 901.087 374.703C901.087 374.703 919.309 397.994 936.102 395.106L935.615 389.519Z" fill="#F2463A"/>
<path d="M930.468 367.452C930.468 367.452 910.332 340.662 897.101 348.258C897.101 348.258 911.854 368.975 931.723 372.334L930.468 367.452Z" fill="#F2463A"/>
<path d="M922.62 341.744C922.62 341.744 904.917 319.772 890.619 323.962C890.619 323.962 905.513 346.531 924.739 348.383L922.62 341.744Z" fill="#F2463A"/>
<path d="M915.511 317.716C915.511 317.716 895.736 296.481 886.319 299.354C886.319 299.354 900.083 322.393 916.139 322.189L915.511 317.716Z" fill="#F2463A"/>
<path d="M908.574 295.492C908.574 295.492 891.969 270.554 881.956 271.762C881.956 271.762 891.545 293.609 908.401 297.878L908.574 295.492Z" fill="#F2463A"/>
<path d="M901.386 265.689C901.386 265.689 886.539 246.447 877.844 245.914C877.844 245.914 888.83 271.025 901.637 271.653L901.386 265.689Z" fill="#F2463A"/>
<path d="M897.242 245.882L884.279 207.022C884.279 207.022 881.14 241.158 898.749 253.023L897.242 245.882Z" fill="#F2463A"/>
<path d="M893.742 203.758C893.742 203.758 893.303 172.024 895.123 169.56C895.123 169.56 882.27 195.063 892.91 217.71L893.742 203.758Z" fill="#F2463A"/>
<path d="M924.566 535.698C924.566 535.698 941.328 526.799 950.101 551.895C950.101 551.895 935.144 560.433 922.259 541.788L924.566 535.698Z" fill="#F2463A"/>
<path d="M933.465 508.97C933.465 508.97 953.868 501.295 961.716 527.395C961.716 527.395 945.77 536.812 931.284 515.279L933.465 508.97Z" fill="#F2463A"/>
<path d="M937.97 486.37C937.97 486.37 953.209 470.801 973.392 488.74C973.392 488.74 959.016 502.347 937.687 490.592L937.97 486.37Z" fill="#F2463A"/>
<path d="M941.485 460.458C941.485 460.458 956.96 444.167 976.233 461.871C976.233 461.871 959.063 475.996 941.219 464.492L941.485 460.458Z" fill="#F2463A"/>
<path d="M941.14 439.051C941.14 439.051 952.864 414.85 973.973 427.013C973.973 427.013 960.711 448.279 941.752 443.226L941.14 439.051Z" fill="#F2463A"/>
<path d="M938.158 412.464C938.158 412.464 949.835 387.824 971.211 401.054C971.211 401.054 956.097 423.341 938.896 416.435L938.158 412.464Z" fill="#F2463A"/>
<path d="M933.481 389.503C933.481 389.503 939.304 362.022 957.776 360.767C957.776 360.767 951.922 389.754 935.6 394.667L933.481 389.503Z" fill="#F2463A"/>
<path d="M929.997 367.468C929.997 367.468 933.779 334.164 949.034 334.007C949.034 334.007 946.806 359.338 931.394 372.318L929.997 367.468Z" fill="#F2463A"/>
<path d="M921.098 340.678C921.098 340.678 927.502 313.196 942.192 310.764C942.192 310.764 938.598 337.57 922.071 347.583L921.098 340.678Z" fill="#F2463A"/>
<path d="M913.832 317.795C913.832 317.795 915.919 288.854 925.053 285.197C925.053 285.197 928.789 311.768 916.139 321.671L913.832 317.795Z" fill="#F2463A"/>
<path d="M907.915 295.116C907.915 295.116 911.163 265.39 920.596 261.796C920.596 261.796 922.165 285.605 909.154 297.172L907.915 295.116Z" fill="#F2463A"/>
<path d="M899.926 267.965C899.926 267.965 901.605 243.732 908.527 238.475C908.527 238.475 913.235 265.485 903.018 273.081L899.926 267.965Z" fill="#F2463A"/>
<path d="M898.09 244.737L907.161 204.794C907.161 204.794 913.596 238.443 897.305 251.987L898.09 244.737Z" fill="#F2463A"/>
<path d="M899.55 204.527C899.55 204.527 917.708 178.505 917.567 175.445C917.567 175.445 913.926 203.695 892.456 216.565L899.55 204.527Z" fill="#F2463A"/>
<path d="M898.247 196.397C898.247 196.397 916.248 158.887 923.358 156.235C923.358 156.235 900.585 165.95 896.96 195.204L898.247 196.397Z" fill="#F2463A"/>
<path d="M901.699 271.872L902.767 271.621C892.612 228.335 891.184 200.995 898.749 194.718L898.043 193.854C890.023 200.556 891.294 227.519 901.699 271.872Z" fill="#444053"/>
<path d="M930.86 373.589L932.43 373.15C931.315 369.163 930.091 365.114 928.788 361.128C917.488 326.364 908.04 294.112 902.249 269.44L900.931 268.671C906.738 293.374 915.903 326.835 927.219 361.63C928.522 365.616 929.746 369.634 930.86 373.589Z" fill="#444053"/>
<path d="M882.348 604.926C882.568 604.707 905.246 582.373 922.667 542.823C932.878 519.674 939.357 495.052 941.862 469.875C945.001 438.407 940.732 402.734 931.535 369.979L930.201 371.344C950.839 444.858 936.589 505.721 920.69 541.866C903.426 581.102 881.03 603.075 880.81 603.357L882.348 604.926Z" fill="#444053"/>
<path d="M254.315 863.95C359.196 863.95 444.219 783.845 444.219 685.032C444.219 586.218 359.196 506.114 254.315 506.114C149.434 506.114 64.4105 586.218 64.4105 685.032C64.4105 783.845 149.434 863.95 254.315 863.95Z" fill="#E9E9E9"/>
<path d="M206.446 706.219C215.981 706.219 223.71 698.49 223.71 688.955C223.71 679.421 215.981 671.691 206.446 671.691C196.911 671.691 189.182 679.421 189.182 688.955C189.182 698.49 196.911 706.219 206.446 706.219Z" fill="#5C63AB"/>
<path d="M256.669 706.219C266.203 706.219 273.933 698.49 273.933 688.955C273.933 679.421 266.203 671.691 256.669 671.691C247.134 671.691 239.405 679.421 239.405 688.955C239.405 698.49 247.134 706.219 256.669 706.219Z" fill="#5C63AB"/>
<path d="M306.891 706.219C316.426 706.219 324.155 698.49 324.155 688.955C324.155 679.421 316.426 671.691 306.891 671.691C297.357 671.691 289.627 679.421 289.627 688.955C289.627 698.49 297.357 706.219 306.891 706.219Z" fill="#5C63AB"/>
<path opacity="0.1" d="M597.147 276.958C598.092 276.958 598.857 276.192 598.857 275.247C598.857 274.302 598.092 273.536 597.147 273.536C596.202 273.536 595.436 274.302 595.436 275.247C595.436 276.192 596.202 276.958 597.147 276.958Z" fill="black"/>
<path fill-rule="evenodd" clip-rule="evenodd" d="M1377.9 479.558C1367.95 496.461 1350.02 536.545 1355.03 544.895L1397.41 556.273C1397.41 556.195 1397.41 556.116 1397.41 556.054C1405.36 557.3 1413.5 555.559 1420.25 551.166C1426.99 546.773 1431.88 540.039 1433.96 532.261L1441.98 502.347C1444.21 493.997 1443.04 485.102 1438.72 477.617C1434.39 470.133 1427.27 464.672 1418.92 462.436L1416 461.651C1408.56 459.645 1400.65 460.344 1393.67 463.623C1386.69 466.901 1381.1 472.548 1377.9 479.558Z" fill="#191847"/>
<path fill-rule="evenodd" clip-rule="evenodd" d="M1418.91 522.31C1427.76 516.268 1434.9 507.871 1437.02 496.885C1443.14 465.245 1397.7 460.395 1385.02 473.782C1372.34 487.17 1362.69 527.144 1372.91 532.951C1376.99 535.242 1387.03 535.007 1398.02 531.884L1380.9 571.999L1416.04 581.416L1418.91 522.31Z" fill="#A6A6A6"/>
<path fill-rule="evenodd" clip-rule="evenodd" d="M1410.81 514.51C1404.53 531.319 1399.95 551.173 1403.53 557.137L1445.9 568.515C1459.18 528.416 1432.09 538.052 1442.37 499.71C1441.32 497.937 1440.33 496.211 1439.31 494.688L1439.67 493.558C1436.31 476.692 1428.99 466.752 1417.7 463.739C1400.75 459.203 1393.29 465.575 1386.97 471.005C1387.27 483.561 1400.03 488.756 1409.84 499.13C1411.27 498.472 1412.86 498.234 1414.43 498.444C1415.99 498.653 1417.46 499.301 1418.67 500.313C1419.88 501.325 1420.78 502.659 1421.26 504.16C1421.75 505.662 1421.8 507.27 1421.4 508.798C1421.12 509.85 1420.62 510.836 1419.96 511.698C1419.29 512.56 1418.46 513.282 1417.51 513.823C1416.56 514.364 1415.52 514.712 1414.44 514.849C1413.35 514.986 1412.25 514.908 1411.2 514.62L1410.81 514.51Z" fill="#191847"/>
<path fill-rule="evenodd" clip-rule="evenodd" d="M1454.36 851.865C1418.01 862.003 1386.62 867.068 1360.19 867.057C1333.77 867.047 1309.27 859.246 1286.7 843.656C1322.27 833.267 1351.57 828.072 1374.59 828.072C1397.61 828.072 1424.2 836.003 1454.36 851.865Z" fill="#3D4273"/>
<path fill-rule="evenodd" clip-rule="evenodd" d="M1328.81 881.669C1329.16 881.127 1329.46 880.548 1329.68 879.942C1334.55 867.151 1412.4 729.039 1420.15 703.787H1332.53C1326.62 722.981 1300.08 843.468 1296.43 867.497C1284.64 905.415 1260.33 1028.21 1257.29 1036.72C1254.02 1045.68 1272.35 1055 1277.25 1044C1285.02 1026.48 1303.54 978.08 1311.78 948.465C1319.39 920.748 1325.67 895.794 1328.81 881.669Z" fill="#A6A6A6"/>
<path fill-rule="evenodd" clip-rule="evenodd" d="M1400.53 898.525C1436.11 907.486 1566.28 923.636 1575.23 926.226C1584.17 928.815 1592.49 909.966 1581.11 905.823C1563.03 899.309 1513.23 884.29 1483.04 878.153C1458.76 873.225 1436.6 869.207 1421.72 866.837C1422.97 825.215 1428.73 725.304 1424.95 703.724H1347.42C1351.03 724.409 1381.65 875.406 1387.33 890.489C1389.15 895.966 1394.53 898.336 1400.53 898.525Z" fill="#A6A6A6"/>
<path fill-rule="evenodd" clip-rule="evenodd" d="M1580.41 900.722C1583.82 899.914 1587.35 899.665 1590.84 899.984C1594.78 900.816 1598.64 901.96 1602.39 903.406C1601.85 906.545 1596.9 934.606 1587.55 987.591C1579.94 988.502 1576.28 986.55 1576.56 981.737C1576.83 976.919 1576.98 972.917 1577.08 969.715L1566.53 927.513C1566.45 927.124 1566.52 926.719 1566.72 926.378C1566.92 926.037 1567.25 925.787 1567.63 925.676L1574.17 924.232C1576.5 921.248 1578.18 917.811 1579.1 914.141C1579.39 910.884 1579.03 907.602 1578.04 904.489C1577.83 903.71 1577.95 902.884 1578.35 902.19C1578.76 901.496 1579.42 900.991 1580.2 900.785L1580.41 900.722Z" fill="#E9E9E9"/>
<path fill-rule="evenodd" clip-rule="evenodd" d="M1282.73 1042.73C1284.12 1045.96 1284.97 1049.39 1285.27 1052.9C1285.13 1056.91 1284.67 1060.91 1283.9 1064.86H1198.43C1196.2 1057.53 1197.48 1053.57 1202.28 1052.96C1207.07 1052.35 1211.04 1051.83 1214.2 1051.39L1253.93 1033.69C1254.29 1033.53 1254.71 1033.53 1255.08 1033.67C1255.45 1033.81 1255.76 1034.08 1255.94 1034.44L1258.49 1040.64C1261.84 1042.42 1265.51 1043.49 1269.29 1043.78C1272.55 1043.5 1275.72 1042.58 1278.61 1041.06C1278.98 1040.9 1279.38 1040.81 1279.78 1040.8C1280.18 1040.79 1280.58 1040.86 1280.95 1041.01C1281.33 1041.15 1281.67 1041.37 1281.96 1041.65C1282.24 1041.93 1282.47 1042.26 1282.63 1042.63C1282.67 1042.66 1282.7 1042.69 1282.73 1042.73Z" fill="#E9E9E9"/>
<path fill-rule="evenodd" clip-rule="evenodd" d="M1424.7 703.724C1390.54 693.983 1358.21 693.983 1327.71 703.724C1317.1 751.937 1291.33 771.069 1286.79 844.975C1338.32 870.478 1401.97 826.785 1455.02 851.661C1470.18 816.944 1448.95 733.167 1424.7 703.724Z" fill="#4B518C"/>
<path fill-rule="evenodd" clip-rule="evenodd" d="M1343.86 603.922L1297.04 566.553C1291.26 556.211 1284.1 546.706 1275.74 538.303C1273.39 536.734 1269.03 535.353 1271.9 543.482C1274.77 551.612 1277.44 560.26 1274.91 562.159C1272.38 564.058 1267.63 559.946 1264.43 563.273C1262.33 565.481 1270.7 571.058 1289.54 580.004L1321.15 620.935L1343.86 603.922ZM1258.53 613.449L1237.95 597.001C1236.9 584.351 1234.16 577.597 1229.73 576.739C1226.59 574.558 1229.84 590.864 1223.61 588.416C1217.37 585.968 1203.64 571.482 1200.52 573.381C1195.81 576.174 1197.55 587.584 1200.83 593.689C1206.97 605.099 1212.92 609.682 1228.28 617.011C1236.33 620.851 1244.64 627.166 1253.22 635.955L1258.53 613.449Z" fill="#A6A6A6"/>
<path fill-rule="evenodd" clip-rule="evenodd" d="M1370.19 602.086C1346.04 597.64 1323.65 586.429 1305.62 569.755L1291.5 590.472C1306.21 611.189 1328.7 630.054 1350.7 633.303C1368.04 635.877 1380.6 616.651 1370.19 602.086Z" fill="#1F244D"/>
<path fill-rule="evenodd" clip-rule="evenodd" d="M1339.4 633.868C1319.3 635.249 1287.99 623.912 1245.47 599.858C1230.14 621.035 1222.03 636.625 1221.14 646.627C1256.47 673.716 1288.22 688.61 1315.59 694.041C1311.86 710.112 1311.12 725.885 1315.29 741.124C1323.89 772.513 1408.85 759.817 1434.89 769.861C1461.41 718.257 1432.66 690.305 1438.79 655.369C1445.49 617.122 1425.01 552.805 1420.48 552.005L1379.03 544.738C1371.62 573.553 1354.45 603.718 1339.4 633.868Z" fill="#32386B"/>
<path d="M810.326 589.656H507.954V600.626H810.326V589.656Z" fill="#E9E9E9"/>
<path d="M810.326 625.094H507.954V636.065H810.326V625.094Z" fill="#5C63AB"/>
<path d="M810.326 660.532H507.954V671.503H810.326V660.532Z" fill="#E9E9E9"/>
<path d="M788.165 760.004H753.496V798.331H788.165V760.004Z" fill="#5C63AB"/>
<path d="M732.324 760.004H697.655V798.331H732.324V760.004Z" fill="#E9E9E9"/>
<path d="M676.482 760.004H641.813V798.331H676.482V760.004Z" fill="#5C63AB"/>
<path d="M620.626 760.004H585.956V798.331H620.626V760.004Z" fill="#5C63AB"/>
<path d="M564.784 760.004H530.115V798.331H564.784V760.004Z" fill="#5C63AB"/>
<path d="M810.326 695.955H507.954V706.926H810.326V695.955Z" fill="#E9E9E9"/>
<path fill-rule="evenodd" clip-rule="evenodd" d="M478.26 200.242L511.015 157.993C521.546 151.228 533.96 139.3 540.254 132.536C541.556 130.433 542.718 126.698 535.357 129.868C527.996 133.038 516.084 141.231 514.232 139.285C512.38 137.339 516.021 133.007 512.835 130.747C510.743 129.198 505.903 136.638 498.318 153.065L461.75 183.104L478.26 200.242Z" fill="#A6A6A6"/>
<path fill-rule="evenodd" clip-rule="evenodd" d="M331.344 59.3833C324.862 51.7715 320.467 42.4489 321.205 31.9963C323.308 1.87847 365.244 8.45449 373.389 23.7096C381.535 38.9647 380.577 77.4635 370.046 80.21C365.84 81.2929 356.879 78.6406 347.776 73.1475L353.489 113.608H319.714L331.344 59.3833Z" fill="#A6A6A6"/>
<path fill-rule="evenodd" clip-rule="evenodd" d="M328.754 66.1638C324.501 47.3304 312.431 34.4451 314.268 26.0172C314.672 23.4863 315.826 21.1348 317.58 19.266C319.334 17.3973 321.608 16.0971 324.108 15.5332C326.86 4.39005 335.754 -0.349716 350.789 1.31391C373.311 3.80934 387.043 13.1633 381.111 33.7389C375.649 33.7389 369.073 31.7771 359.97 35.1514C357.067 36.2186 355.011 39.5459 353.692 45.1331H349.581C345.594 38.51 341.655 36.0774 337.763 37.8352C333.87 39.5929 332.991 43.8566 335.126 50.6262L333.101 66.1638H328.754Z" fill="#191847"/>
<path fill-rule="evenodd" clip-rule="evenodd" d="M549.341 456.989C521.593 423.1 502.817 397.988 493.013 381.656C476.236 353.656 462.503 328.733 458.156 319.223C447.829 296.513 481.964 285.887 489.686 296.481C501.384 312.5 526.354 362.927 564.596 447.761L549.341 456.989Z" fill="#A6A6A6"/>
<path fill-rule="evenodd" clip-rule="evenodd" d="M492.48 447.134L440.844 317.151C429.858 293.453 483.141 277.915 491.255 288.901C509.681 313.934 553.484 412.7 558.977 420.171L492.48 447.134Z" fill="#5C63AB"/>
<path fill-rule="evenodd" clip-rule="evenodd" d="M354.948 421.065C365.008 406.391 401.592 357.031 421.525 336.597C427.253 330.743 432.84 325.109 438.129 319.851C453.824 304.251 485.119 330.476 469.44 344.695C430.392 380.087 373.405 427.877 368.65 432.13C361.979 438.094 348.623 430.294 354.948 421.065Z" fill="#A6A6A6"/>
<path fill-rule="evenodd" clip-rule="evenodd" d="M357.302 414.442C354.684 416.388 352.4 418.747 350.538 421.426C348.779 424.722 347.288 428.155 346.081 431.69L414.854 471.445C420.086 466.569 420.897 462.781 417.287 460.082C413.677 457.382 410.727 455.112 408.435 453.27L384.705 420.579C384.483 420.277 384.15 420.076 383.781 420.017C383.411 419.958 383.033 420.047 382.728 420.265L377.8 424.063C374.286 423.934 370.838 423.074 367.677 421.536C365.167 419.81 363.031 417.594 361.399 415.023C361.186 414.72 360.915 414.463 360.603 414.265C360.29 414.067 359.942 413.933 359.577 413.87C359.213 413.808 358.839 413.817 358.478 413.899C358.118 413.981 357.777 414.134 357.475 414.348L357.302 414.442Z" fill="#E9E9E9"/>
<path fill-rule="evenodd" clip-rule="evenodd" d="M537.413 451.92C536.118 454.91 535.318 458.09 535.043 461.337C535.173 465.063 535.598 468.774 536.315 472.433H615.745C617.837 465.622 616.645 461.96 612.166 461.447C607.688 460.934 603.995 460.442 601.086 459.972L564.204 443.524C563.862 443.37 563.474 443.358 563.124 443.49C562.774 443.623 562.49 443.889 562.336 444.23L559.966 449.974C556.859 451.62 553.444 452.604 549.937 452.862C546.908 452.603 543.962 451.739 541.274 450.319C540.593 450.011 539.818 449.984 539.118 450.246C538.418 450.508 537.85 451.037 537.539 451.716C537.539 451.716 537.429 451.857 537.413 451.92Z" fill="#E9E9E9"/>
<path fill-rule="evenodd" clip-rule="evenodd" d="M422.262 323.633C379.364 316.644 350.59 311.867 335.942 309.304C294.399 301.974 282.282 279.61 289.439 230.831H365.997C376.136 233.75 418.469 251.841 492.998 285.103C506.401 291.773 503.905 311.391 501.457 317.857C501.363 318.119 478.757 356.858 433.641 434.076L371.019 394.18L422.309 328.341C423.737 325.611 423.69 324.041 422.262 323.633Z" fill="#8991DC"/>
<path fill-rule="evenodd" clip-rule="evenodd" d="M235.591 205.39L264.767 209.094C239.572 265.061 226.044 294.734 224.181 298.114C219.959 305.725 225.295 318.768 227.414 325.689C217.37 328.828 220.32 313.133 207.623 317.23C196.025 320.981 186.546 329.205 174.822 319.819C173.393 318.658 172.122 314.828 176.595 312.521C187.738 306.73 204.076 296.215 206.572 292.401C209.993 287.253 219.666 258.249 235.591 205.39Z" fill="#A6A6A6"/>
<path fill-rule="evenodd" clip-rule="evenodd" d="M338.987 90.0669L351.166 87.9795C378.443 111.521 383.167 161.43 417.852 182.335C435.885 193.196 467.384 167.049 492.589 154.964L504.078 173.923C499.15 202.048 405.202 245.867 387.546 228.336C351.919 193.008 337.7 133.447 338.987 90.0669Z" fill="#D23B30"/>
<path fill-rule="evenodd" clip-rule="evenodd" d="M285.939 243.073H393.62C398.532 243.073 397.606 235.963 396.9 232.369C388.691 190.998 356.643 146.394 356.643 87.4928L325.584 82.6274C299.892 123.951 291.009 174.817 285.939 243.073Z" fill="#D2D2D2"/>
<path fill-rule="evenodd" clip-rule="evenodd" d="M286.802 123.245C284.495 122.536 282.355 121.367 280.513 119.808C278.67 118.249 277.163 116.332 276.083 114.173C264.736 93.6763 268.832 82.4076 280.964 78.7037C293.096 74.9998 303.91 82.6273 323.245 82.6273C324.212 82.6188 325.177 82.687 326.133 82.8314L335.864 83.3807C363.748 177.925 371.438 241.006 358.935 272.626L269.805 254.2C264.783 265.908 235.277 282.215 230.663 290.204L207.278 285.37C205.112 215.089 251.207 172.259 286.802 123.245Z" fill="#F2463A"/>
</svg>
