<svg width="226" height="167" viewBox="0 0 226 167" fill="none" xmlns="http://www.w3.org/2000/svg">
<rect x="78.5586" y="49.7024" width="80" height="40" rx="4" transform="rotate(-10 78.5586 49.7024)" stroke="#4D4D4D" stroke-width="4"/>
<path d="M42.3167 71.9651C41.9331 69.7895 43.3857 67.7149 45.5613 67.3313L80.2811 61.2093L83.3531 78.6316L48.6333 84.7536C46.4577 85.1372 44.3831 83.6845 43.9995 81.509L42.3167 71.9651Z" stroke="#4D4D4D" stroke-width="4"/>
<path d="M198.922 44.3513C198.539 42.1758 196.464 40.7231 194.289 41.1067L159.569 47.2287L162.641 64.651L197.361 58.529C199.536 58.1454 200.989 56.0707 200.605 53.8952L198.922 44.3513Z" stroke="#4D4D4D" stroke-width="4"/>
<ellipse cx="121.261" cy="62.4814" rx="11.8343" ry="12" transform="rotate(-10 121.261 62.4814)" fill="white" stroke="#4D4D4D" stroke-width="4"/>
<circle cx="121.424" cy="62.4526" r="4" transform="rotate(-10 121.424 62.4526)" stroke="#4D4D4D" stroke-width="4"/>
<ellipse cx="89.1777" cy="55.1495" rx="2.18086" ry="2.21138" transform="rotate(-10 89.1777 55.1495)" fill="#F56F65"/>
<ellipse cx="97.7687" cy="53.6347" rx="2.18086" ry="2.21138" transform="rotate(-10 97.7687 53.6347)" fill="#FFD081"/>
<path d="M90.9059 64.9496L99.4968 63.4348" stroke="#4D4D4D" stroke-width="4" stroke-linecap="round"/>
<path d="M92.4419 73.6607L101.033 72.1459" stroke="#4D4D4D" stroke-width="4" stroke-linecap="round"/>
<path d="M52.5932 61.1711C52.2095 58.9956 53.6622 56.9209 55.8378 56.5373L65.1411 54.8969C67.3167 54.5133 69.3913 55.9659 69.7749 58.1415L70.6164 62.9134L53.4346 65.943L52.5932 61.1711Z" stroke="#4D4D4D" stroke-width="4"/>
<rect x="53.1219" y="39.0522" width="8.72342" height="17.6911" transform="rotate(-10 53.1219 39.0522)" stroke="#4D4D4D" stroke-width="4"/>
<path d="M61.329 35.3596L61.6763 37.3292L63.6459 36.9819L63.2986 35.0123L61.329 35.3596ZM52.7381 36.8744L50.7685 37.2217L51.1158 39.1913L53.0854 38.844L52.7381 36.8744ZM56.6128 33.7311C57.8716 33.5091 59.1225 34.3633 59.3594 35.7069L63.2986 35.0123C62.6872 31.5449 59.4041 29.1772 55.9182 29.7918L56.6128 33.7311ZM54.7077 36.5271C54.4708 35.1835 55.354 33.953 56.6128 33.7311L55.9182 29.7918C52.4324 30.4065 50.1571 33.7543 50.7685 37.2217L54.7077 36.5271ZM53.0854 38.844L61.6763 37.3292L60.9817 33.39L52.3908 34.9048L53.0854 38.844Z" fill="#4D4D4D"/>
<path d="M27.3372 43.5272C26.9305 41.2208 28.5835 39.0599 30.916 38.8489L51.8228 36.9572C52.3403 36.9104 52.8075 37.2678 52.8977 37.7795L53.3465 40.3249C53.4368 40.8366 53.12 41.3322 52.6177 41.4652L32.3247 46.8382C30.0607 47.4377 27.7684 45.9725 27.3617 43.6661L27.3372 43.5272Z" stroke="#4D4D4D" stroke-width="4"/>
<path d="M88.5473 32.7341C88.1406 30.4277 85.8482 28.9625 83.5842 29.562L63.2913 34.935C62.7889 35.068 62.4722 35.5636 62.5624 36.0753L63.0112 38.6207C63.1015 39.1324 63.5686 39.4898 64.0862 39.443L84.993 37.5513C87.3254 37.3403 88.9784 35.1794 88.5718 32.873L88.5473 32.7341Z" stroke="#4D4D4D" stroke-width="4"/>
<path d="M18.9686 50.6881C14.6546 46.7625 15.99 38.9119 19.3022 37.1563" stroke="#4D4D4D" stroke-width="4" stroke-linecap="round"/>
<path d="M8.28136 52.5726C2.27715 45.9324 5.20935 35.1503 11.906 33.9695" stroke="#4D4D4D" stroke-width="4" stroke-linecap="round"/>
<path d="M168.392 40.7526C168.008 38.5771 169.461 36.5024 171.636 36.1188L180.94 34.4784C183.115 34.0948 185.19 35.5475 185.574 37.723L186.415 42.4949L169.233 45.5246L168.392 40.7526Z" stroke="#4D4D4D" stroke-width="4"/>
<rect x="168.921" y="18.6337" width="8.72342" height="17.6911" transform="rotate(-10 168.921 18.6337)" stroke="#4D4D4D" stroke-width="4"/>
<path d="M177.128 14.9412L177.475 16.9108L179.445 16.5635L179.097 14.5939L177.128 14.9412ZM168.537 16.456L166.567 16.8033L166.914 18.7729L168.884 18.4256L168.537 16.456ZM172.412 13.3126C173.67 13.0907 174.921 13.9449 175.158 15.2885L179.097 14.5939C178.486 11.1265 175.203 8.75877 171.717 9.37341L172.412 13.3126ZM170.506 16.1087C170.27 14.7651 171.153 13.5346 172.412 13.3126L171.717 9.37341C168.231 9.98806 165.956 13.3359 166.567 16.8033L170.506 16.1087ZM168.884 18.4256L177.475 16.9108L176.78 12.9716L168.19 14.4864L168.884 18.4256Z" fill="#4D4D4D"/>
<path d="M143.136 23.1087C142.729 20.8023 144.382 18.6414 146.715 18.4304L167.621 16.5388C168.139 16.4919 168.606 16.8493 168.696 17.361L169.145 19.9064C169.235 20.4182 168.919 20.9137 168.416 21.0467L148.123 26.4197C145.859 27.0192 143.567 25.554 143.16 23.2476L143.136 23.1087Z" stroke="#4D4D4D" stroke-width="4"/>
<path d="M204.346 12.3157C203.939 10.0093 201.647 8.54413 199.383 9.14357L179.09 14.5166C178.588 14.6496 178.271 15.1452 178.361 15.6569L178.81 18.2023C178.9 18.714 179.367 19.0714 179.885 19.0246L200.792 17.1329C203.124 16.9219 204.777 14.761 204.371 12.4546L204.346 12.3157Z" stroke="#4D4D4D" stroke-width="4"/>
<path d="M71.5406 80.7144L80.1314 79.1996L67.7712 107.867C67.6379 108.177 67.3581 108.398 67.0266 108.456L60.7929 109.555C60.0091 109.694 59.3859 108.906 59.7009 108.175L71.5406 80.7144Z" stroke="#4D4D4D" stroke-width="4"/>
<rect x="54.6713" y="110.635" width="17.4468" height="8.84553" rx="4" transform="rotate(-10 54.6713 110.635)" stroke="#4D4D4D" stroke-width="4"/>
<path d="M174.453 62.5681L165.863 64.0829L187.282 86.7944C187.513 87.0393 187.852 87.1516 188.184 87.0931L194.417 85.9939C195.201 85.8558 195.517 84.902 194.971 84.323L174.453 62.5681Z" stroke="#4D4D4D" stroke-width="4"/>
<rect width="17.4468" height="8.84553" rx="4" transform="matrix(-0.984808 0.173648 0.173648 0.984808 200.539 84.9145)" stroke="#4D4D4D" stroke-width="4"/>
<path d="M145.993 79.1359L154.857 77.573L167.197 97.4814C167.482 97.941 167.671 98.4537 167.752 98.9883L170.839 119.32C171.048 120.691 170.531 122.071 169.475 122.969L157.601 133.058C157.012 133.558 156.103 133.23 155.969 132.469L154.84 126.071C154.782 125.738 154.895 125.397 155.143 125.166L161.706 119.035C161.953 118.804 162.067 118.464 162.008 118.13L158.899 100.499C158.811 99.9982 158.628 99.5187 158.36 99.0864L145.993 79.1359Z" stroke="#4D4D4D" stroke-width="4"/>
<path d="M104.147 86.6218L95.2838 88.1846L90.4968 111.113C90.3863 111.642 90.3843 112.189 90.4908 112.719L94.5433 132.88C94.8165 134.24 95.7738 135.36 97.0736 135.842L111.682 141.262C112.406 141.531 113.149 140.912 113.014 140.151L111.886 133.752C111.827 133.419 111.604 133.138 111.293 133.005L103.028 129.489C102.717 129.356 102.494 129.075 102.435 128.742L99.3263 111.111C99.238 110.61 99.246 110.097 99.35 109.599L104.147 86.6218Z" stroke="#4D4D4D" stroke-width="4"/>
<rect x="110.593" y="127.72" width="44" height="24" rx="1" transform="rotate(-10 110.593 127.72)" fill="#F2463A" stroke="#4D4D4D" stroke-width="4"/>
<rect x="107.261" y="120.341" width="48" height="8" rx="1" transform="rotate(-10 107.261 120.341)" fill="#F2463A" stroke="#4D4D4D" stroke-width="4"/>
</svg>
