<svg width="20" height="20" viewBox="0 0 20 20" fill="none" xmlns="http://www.w3.org/2000/svg">
<path fill-rule="evenodd" clip-rule="evenodd" d="M10.026 0C4.517 0 0.052002 4.465 0.052002 9.974C0.052002 14.38 2.909 18.119 6.873 19.439C7.372 19.529 7.552 19.222 7.552 18.958C7.552 18.721 7.544 18.093 7.541 17.262C4.766 17.864 4.18 15.924 4.18 15.924C3.728 14.772 3.073 14.465 3.073 14.465C2.168 13.846 3.142 13.86 3.142 13.86C4.144 13.93 4.669 14.888 4.669 14.888C5.559 16.412 7.005 15.972 7.571 15.717C7.662 15.072 7.922 14.632 8.206 14.383C5.992 14.132 3.664 13.276 3.664 9.453C3.664 8.366 4.053 7.474 4.688 6.778C4.587 6.525 4.242 5.51 4.787 4.138C4.787 4.138 5.624 3.869 7.529 5.159C8.327 4.938 9.178 4.827 10.025 4.823C10.874 4.827 11.726 4.938 12.521 5.159C14.427 3.868 15.263 4.138 15.263 4.138C15.808 5.51 15.466 6.525 15.362 6.778C16.002 7.474 16.386 8.365 16.386 9.453C16.386 13.286 14.056 14.128 11.834 14.375C12.189 14.683 12.509 15.291 12.509 16.221C12.509 17.555 12.497 18.631 12.497 18.958C12.497 19.225 12.675 19.535 13.184 19.437C17.146 18.115 20 14.379 20 9.974C20 4.465 15.535 0 10.026 0Z" fill="#4D4D4D"/>
</svg>
