<svg width="379" height="369" viewBox="0 0 379 369" fill="none" xmlns="http://www.w3.org/2000/svg">
<path d="M14.397 145.579L14.2173 145.759L14.397 145.579Z" fill="#333333"/>
<path d="M17.1709 141.997C17.2495 141.862 17.3281 141.727 17.3955 141.592C17.3169 141.727 17.2383 141.862 17.1709 141.997Z" fill="#333333"/>
<path d="M17.5977 141.166C18.3881 139.569 18.8356 137.825 18.9115 136.045V135.641C18.9001 137.558 18.4508 139.448 17.5977 141.166Z" fill="#333333"/>
<path d="M16.5757 142.94L16.8003 142.615L16.5757 142.94Z" fill="#333333"/>
<path d="M13.2295 146.646L13.3867 146.511L13.2295 146.646Z" fill="#333333"/>
<path d="M12.1509 147.544L12.2407 147.477L12.1509 147.544Z" fill="#333333"/>
<path d="M15.1045 144.827L15.3066 144.602L15.1045 144.827Z" fill="#333333"/>
<path d="M15.8906 143.883L16.104 143.614L15.8906 143.883Z" fill="#333333"/>
<path d="M150.292 146.601C155.905 146.601 160.455 142.051 160.455 136.438C160.455 130.825 155.905 126.274 150.292 126.274C144.679 126.274 140.128 130.825 140.128 136.438C140.128 142.051 144.679 146.601 150.292 146.601Z" fill="#EC5049"/>
<path d="M204.869 146.601C210.482 146.601 215.032 142.051 215.032 136.438C215.032 130.825 210.482 126.274 204.869 126.274C199.256 126.274 194.706 130.825 194.706 136.438C194.706 142.051 199.256 146.601 204.869 146.601Z" fill="#EC5049"/>
<path d="M260.042 146.601C265.655 146.601 270.205 142.051 270.205 136.438C270.205 130.825 265.655 126.274 260.042 126.274C254.429 126.274 249.879 130.825 249.879 136.438C249.879 142.051 254.429 146.601 260.042 146.601Z" fill="#EC5049"/>
<path d="M314.62 146.601C320.233 146.601 324.783 142.051 324.783 136.438C324.783 130.825 320.233 126.274 314.62 126.274C309.007 126.274 304.457 130.825 304.457 136.438C304.457 142.051 309.007 146.601 314.62 146.601Z" fill="#EC5049"/>
<path d="M150.292 202.347C155.905 202.347 160.455 197.797 160.455 192.184C160.455 186.571 155.905 182.021 150.292 182.021C144.679 182.021 140.128 186.571 140.128 192.184C140.128 197.797 144.679 202.347 150.292 202.347Z" fill="#EC5049"/>
<path d="M204.869 202.347C210.482 202.347 215.032 197.797 215.032 192.184C215.032 186.571 210.482 182.021 204.869 182.021C199.256 182.021 194.706 186.571 194.706 192.184C194.706 197.797 199.256 202.347 204.869 202.347Z" fill="#EC5049"/>
<path d="M260.042 202.347C265.655 202.347 270.205 197.797 270.205 192.184C270.205 186.571 265.655 182.021 260.042 182.021C254.429 182.021 249.879 186.571 249.879 192.184C249.879 197.797 254.429 202.347 260.042 202.347Z" fill="#EC5049"/>
<path d="M314.62 202.347C320.233 202.347 324.783 197.797 324.783 192.184C324.783 186.571 320.233 182.021 314.62 182.021C309.007 182.021 304.457 186.571 304.457 192.184C304.457 197.797 309.007 202.347 314.62 202.347Z" fill="#EC5049"/>
<path d="M150.292 313.254C155.905 313.254 160.455 308.704 160.455 303.091C160.455 297.478 155.905 292.928 150.292 292.928C144.679 292.928 140.128 297.478 140.128 303.091C140.128 308.704 144.679 313.254 150.292 313.254Z" fill="#EC5049"/>
<path d="M204.869 313.254C210.482 313.254 215.032 308.704 215.032 303.091C215.032 297.478 210.482 292.928 204.869 292.928C199.256 292.928 194.706 297.478 194.706 303.091C194.706 308.704 199.256 313.254 204.869 313.254Z" fill="#EC5049"/>
<path d="M260.042 313.254C265.655 313.254 270.205 308.704 270.205 303.091C270.205 297.478 265.655 292.928 260.042 292.928C254.429 292.928 249.879 297.478 249.879 303.091C249.879 308.704 254.429 313.254 260.042 313.254Z" fill="#EC5049"/>
<path d="M314.62 313.254C320.233 313.254 324.783 308.704 324.783 303.091C324.783 297.478 320.233 292.928 314.62 292.928C309.007 292.928 304.457 297.478 304.457 303.091C304.457 308.704 309.007 313.254 314.62 313.254Z" fill="#EC5049"/>
<path d="M150.292 257.509C155.905 257.509 160.455 252.958 160.455 247.346C160.455 241.733 155.905 237.182 150.292 237.182C144.679 237.182 140.128 241.733 140.128 247.346C140.128 252.958 144.679 257.509 150.292 257.509Z" fill="#EC5049"/>
<path d="M204.869 257.509C210.482 257.509 215.032 252.958 215.032 247.346C215.032 241.733 210.482 237.182 204.869 237.182C199.256 237.182 194.706 241.733 194.706 247.346C194.706 252.958 199.256 257.509 204.869 257.509Z" fill="#EC5049"/>
<path d="M260.042 257.509C265.655 257.509 270.205 252.958 270.205 247.346C270.205 241.733 265.655 237.182 260.042 237.182C254.429 237.182 249.879 241.733 249.879 247.346C249.879 252.958 254.429 257.509 260.042 257.509Z" fill="#EC5049"/>
<path d="M314.62 257.509C320.233 257.509 324.783 252.958 324.783 247.346C324.783 241.733 320.233 237.182 314.62 237.182C309.007 237.182 304.457 241.733 304.457 247.346C304.457 252.958 309.007 257.509 314.62 257.509Z" fill="#EC5049"/>
<path d="M368.041 146.601C373.654 146.601 378.204 142.051 378.204 136.438C378.204 130.825 373.654 126.274 368.041 126.274C362.428 126.274 357.878 130.825 357.878 136.438C357.878 142.051 362.428 146.601 368.041 146.601Z" fill="#EC5049"/>
<path d="M368.041 202.347C373.654 202.347 378.204 197.797 378.204 192.184C378.204 186.571 373.654 182.021 368.041 182.021C362.428 182.021 357.878 186.571 357.878 192.184C357.878 197.797 362.428 202.347 368.041 202.347Z" fill="#EC5049"/>
<path d="M368.041 313.254C373.654 313.254 378.204 308.704 378.204 303.091C378.204 297.478 373.654 292.928 368.041 292.928C362.428 292.928 357.878 297.478 357.878 303.091C357.878 308.704 362.428 313.254 368.041 313.254Z" fill="#EC5049"/>
<path d="M150.292 369C155.905 369 160.455 364.45 160.455 358.837C160.455 353.224 155.905 348.674 150.292 348.674C144.679 348.674 140.128 353.224 140.128 358.837C140.128 364.45 144.679 369 150.292 369Z" fill="#EC5049"/>
<path d="M204.869 369C210.482 369 215.032 364.45 215.032 358.837C215.032 353.224 210.482 348.674 204.869 348.674C199.256 348.674 194.706 353.224 194.706 358.837C194.706 364.45 199.256 369 204.869 369Z" fill="#EC5049"/>
<path d="M260.042 369C265.655 369 270.205 364.45 270.205 358.837C270.205 353.224 265.655 348.674 260.042 348.674C254.429 348.674 249.879 353.224 249.879 358.837C249.879 364.45 254.429 369 260.042 369Z" fill="#EC5049"/>
<path d="M314.62 369C320.233 369 324.783 364.45 324.783 358.837C324.783 353.224 320.233 348.674 314.62 348.674C309.007 348.674 304.457 353.224 304.457 358.837C304.457 364.45 309.007 369 314.62 369Z" fill="#EC5049"/>
<path d="M368.041 369C373.654 369 378.204 364.45 378.204 358.837C378.204 353.224 373.654 348.674 368.041 348.674C362.428 348.674 357.878 353.224 357.878 358.837C357.878 364.45 362.428 369 368.041 369Z" fill="#EC5049"/>
<path d="M368.041 257.509C373.654 257.509 378.204 252.958 378.204 247.346C378.204 241.733 373.654 237.182 368.041 237.182C362.428 237.182 357.878 241.733 357.878 247.346C357.878 252.958 362.428 257.509 368.041 257.509Z" fill="#EC5049"/>
<path d="M267.353 138.302C267.246 138.206 267.119 138.133 266.982 138.088C267.117 138.138 267.243 138.21 267.353 138.302Z" fill="#3F3D56"/>
<path d="M39.6307 111.934C53.3538 111.238 65.5271 129.644 77.8128 151.509C83.3413 144.609 89.2579 138.028 95.5338 131.8H80.0588C78.2395 100.277 95.7808 112.484 95.7808 82.8035C96.9038 81.7367 97.9032 80.6698 98.9252 79.7602V78.8842C104.563 67.3398 111.716 61.5676 120.386 61.5676C133.39 61.5676 137.5 67.6205 140.993 72.7976C140.914 73.0671 140.813 73.3029 140.723 73.5612C141.146 74.0888 141.522 74.6525 141.846 75.2457C148.348 87.3741 147.585 118.144 139.174 120.312C135.805 121.176 128.673 119.054 121.396 114.697L123.339 128.397L133.929 129.116C134.008 129.79 134.098 130.441 134.187 131.115H134.378C134.378 131.654 134.378 132.171 134.378 132.71C140.173 173.486 166.137 198.798 222.309 189.893L224.252 203.784C237.346 200.079 244.459 198.038 245.589 197.664C250.777 195.968 254.158 184.851 255.157 180.381C257.661 181.504 258.526 182.784 258.874 184.211L264.68 141.312C264.972 139.066 265.882 137.808 266.814 138.01H266.645L270.845 138.156C271.095 138.172 271.332 138.271 271.519 138.437L279.74 145.31C280.863 146.231 281.447 149.083 281.098 151.7L276.606 184.727C280.806 179.112 284.658 174.474 286.579 179.292C287.095 180.572 284.333 193.891 282.087 197.26C274.226 206.244 257.482 208.49 254.641 209.197C252.327 209.736 242.935 213.304 226.464 219.899L230.002 245.201C200.557 248.996 173.099 244.291 152.616 229.759C153.739 233.69 154.783 237.688 155.85 241.787C190.551 246.279 236.964 252.467 248.408 255.656C251.137 256.959 254.349 258.295 257.942 259.631C275.473 242.506 288.586 221.381 296.152 198.071C303.719 174.761 305.514 149.963 301.383 125.806C297.252 101.649 287.319 78.8562 272.436 59.385C257.554 39.9137 238.167 24.3463 215.942 14.0197C212.303 12.3053 208.56 10.7443 204.712 9.33676C203.589 8.93248 202.466 8.53945 201.41 8.15763C188.494 3.73618 175.037 1.09162 161.409 0.296619C160.106 0.206779 158.804 0.15067 157.501 0.12821C155.715 0.0383703 153.941 0.0158691 152.144 0.0158691C143.423 0.0164687 134.717 0.76791 126.124 2.26187C121.58 3.06295 117.088 4.05496 112.648 5.23785C102.667 7.91988 92.991 11.6307 83.7759 16.3106C56.4001 30.159 33.8768 51.9967 19.1891 78.9315C4.50141 105.866 -1.65775 136.627 1.52731 167.141C3.0209 163.559 4.49203 160.1 5.90701 156.787C15.5199 134.394 25.0317 112.664 39.6307 111.934Z" fill="#1F244D"/>
<path d="M270.385 198.933C270.385 198.843 270.385 198.753 270.464 198.674C270.542 198.596 270.419 198.843 270.385 198.933Z" fill="#DEB488"/>
<path d="M254.697 209.208C257.538 208.501 274.282 206.255 282.143 197.271C284.389 193.902 287.151 180.583 286.635 179.303C284.714 174.485 280.862 179.123 276.662 184.738L274.922 197.596C274.641 199.696 273.799 200.965 272.957 200.965L268.768 200.819C268.948 200.81 269.123 200.752 269.273 200.651C269.093 200.745 268.889 200.781 268.689 200.755C268.488 200.729 268.3 200.642 268.15 200.505L259.93 193.643C258.807 192.723 258.212 189.859 258.56 187.242L258.964 184.255C258.616 182.829 257.751 181.571 255.247 180.426C254.247 184.918 250.867 196.013 245.679 197.709C244.533 198.076 237.421 200.116 224.342 203.829L226.588 219.91C243.006 213.307 252.376 209.74 254.697 209.208Z" fill="#F2F2F2"/>
<path d="M269.341 200.606C269.408 200.606 269.476 200.494 269.543 200.438C269.61 200.382 269.408 200.55 269.341 200.606Z" fill="#DEB488"/>
<path d="M270.576 198.304C270.639 198.041 270.687 197.775 270.722 197.507C270.687 197.775 270.639 198.041 270.576 198.304Z" fill="#DEB488"/>
<path d="M119.207 88.6767C118.432 88.0484 117.516 87.618 116.538 87.4223C115.56 87.2267 114.549 87.2718 113.592 87.5537C112.639 87.8221 111.765 88.315 111.043 88.9911C110.315 89.6631 109.763 90.5039 109.437 91.4393C109.111 92.372 109.011 93.3688 109.145 94.3478C109.294 95.331 109.68 96.2634 110.268 97.0654C110.846 97.8816 111.618 98.5415 112.514 98.9858C113.39 99.4446 114.365 99.6835 115.355 99.6821H115.602C116.512 109.475 116.478 120.278 114.939 126.769L121.958 128.375L123.362 128.465L121.419 114.764C128.696 119.121 135.827 121.244 139.196 120.379C147.608 118.212 148.371 87.4413 141.869 75.3129C141.545 74.7197 141.169 74.156 140.746 73.6284C137.736 81.8376 127.955 83.2526 119.207 88.6767Z" fill="#F2F2F2"/>
<path d="M103.832 124.456L108.324 103.714C103.147 97.6497 99.6437 90.2379 100.239 81.8603C101.845 58.9735 132.233 62.6794 140.757 73.5613C140.847 73.303 140.948 73.0672 141.026 72.7976C137.534 67.6206 133.424 61.5676 120.419 61.5676C111.75 61.5676 104.596 67.3398 98.9587 78.8843V79.7603C97.9368 80.6699 96.9373 81.7368 95.8143 82.8036C95.8143 112.485 78.273 100.278 80.0923 131.8H95.5335C98.064 129.285 100.647 126.836 103.282 124.456H103.832Z" fill="#202020"/>
<path d="M100.195 81.8602C99.5995 90.2378 103.103 97.6496 108.28 103.714L103.788 124.456H105.113L114.85 126.702C116.388 120.211 116.422 109.407 115.512 99.6148H115.265C114.276 99.6163 113.301 99.3773 112.424 98.9186C111.528 98.4743 110.756 97.8144 110.178 96.9982C109.59 96.1962 109.205 95.2638 109.055 94.2806C108.921 93.3016 109.021 92.3048 109.347 91.372C109.674 90.4367 110.225 89.5959 110.953 88.9238C111.676 88.2478 112.55 87.7549 113.502 87.4864C114.459 87.2045 115.47 87.1594 116.448 87.355C117.426 87.5507 118.342 87.9812 119.117 88.6094C127.865 83.1853 137.647 81.7703 140.623 73.4938C132.189 62.6793 101.801 58.9734 100.195 81.8602Z" fill="#202020"/>
<path d="M230.058 245.212L226.521 219.91C215.47 224.335 201.246 230.119 183.847 237.261L166.047 220.292C191.599 213.083 211.004 207.595 224.263 203.829L222.321 189.938C166.171 198.843 140.184 173.531 134.39 132.754C134.637 170.15 143.767 197.518 152.672 229.77C173.156 244.347 200.613 249.007 230.058 245.212Z" fill="#BCBCBC"/>
<path d="M134.176 131.115C134.086 130.441 133.997 129.79 133.918 129.116L123.328 128.397V128.633L134.176 131.115Z" fill="#BCBCBC"/>
<path d="M183.847 237.261C201.253 230.104 215.478 224.32 226.521 219.91L224.275 203.829C211.016 207.572 191.611 213.06 166.059 220.292L183.847 237.261Z" fill="#BCBCBC"/>
<path d="M123.362 128.644L123.328 128.408L121.913 128.307L123.362 128.644Z" fill="#BCBCBC"/>
<path d="M77.8133 151.509C65.4603 129.644 53.3431 111.238 39.6313 111.934C25.1333 112.664 15.5766 134.394 6.05353 156.708C4.63854 160.021 3.16742 163.446 1.67383 167.062C4.47412 194.072 14.4808 219.834 30.6472 241.652C41.8773 206.764 57.5993 176.716 77.8133 151.509Z" fill="#F2463A"/>
<path d="M155.906 241.798C157.029 246.29 158.152 250.782 159.275 255.521C171.303 258.149 187.126 260.878 208.261 263.831C210.08 263.618 211.899 263.371 213.696 263.09C216.402 262.652 231.731 260.282 240.648 260.844C245.331 261.136 250.587 261.316 256.19 261.405L258.032 259.642C254.438 258.306 251.227 256.97 248.498 255.667C237.021 252.478 190.607 246.245 155.906 241.798Z" fill="#4B518C"/>
<path d="M153.638 262.405C168.169 264.134 188.653 266.1 208.249 263.831C187.114 260.878 171.291 258.149 159.264 255.521C159.781 257.767 160.297 260.013 160.791 262.405H153.638Z" fill="#4B518C"/>
<path d="M212.169 290.39C182.701 292.31 135.805 295.769 108.909 296.443C142.974 306.593 179.523 304.451 212.169 290.39Z" fill="#8991DC"/>
<path d="M81.9789 262.405C79.1489 262.888 78.228 272.231 77.79 283.203C80.3505 284.652 82.9446 286.055 85.651 287.347C88.3575 288.638 90.8057 289.784 93.4223 290.884L106.314 262.405H81.9789Z" fill="#8991DC"/>
<path d="M247.644 268.862C250.587 266.481 253.424 263.996 256.157 261.405C250.542 261.316 245.297 261.136 240.614 260.844C231.72 260.282 216.391 262.652 213.662 263.09C211.866 263.371 210.046 263.618 208.227 263.831C214.246 264.673 220.692 265.527 227.61 266.414C234.797 267.324 241.445 268.132 247.644 268.862Z" fill="#8991DC"/>
<path d="M153.638 262.405H106.27L93.3779 290.884C98.4504 293.014 103.635 294.866 108.909 296.432C135.771 295.758 182.701 292.299 212.169 290.379C214.224 289.492 216.279 288.571 218.301 287.583C220.322 286.594 222.007 285.752 223.815 284.775C232.241 280.233 240.22 274.905 247.645 268.862C241.446 268.132 234.797 267.324 227.633 266.414C220.715 265.527 214.269 264.673 208.25 263.831C188.653 266.1 168.17 264.134 153.638 262.405Z" fill="#8991DC"/>
<path d="M117.735 237.059C122.822 237.71 137.758 239.541 155.917 241.854C154.85 237.755 153.772 233.757 152.683 229.827C135.568 217.676 123.317 198.686 118.892 172.026C117.488 163.693 116.287 155.181 115.523 147.039H99.0148L102.271 131.856H95.5335C89.2593 138.066 83.3427 144.627 77.8125 151.508C80.0024 155.394 82.1922 159.369 84.3933 163.424C109.088 208.624 102.44 219.764 117.735 237.059Z" fill="#D2D2D2"/>
<path d="M134.367 131.16H134.176C134.244 131.699 134.311 132.283 134.39 132.799C134.378 132.215 134.367 131.699 134.367 131.16Z" fill="#D2D2D2"/>
<path d="M114.67 127.825L121.924 128.308L114.872 126.702C114.584 128.569 113.81 130.328 112.626 131.8H102.272L99.0151 146.983H115.523C114.88 140.618 114.595 134.222 114.67 127.825Z" fill="#D2D2D2"/>
<path d="M103.833 124.456H103.238C100.603 126.836 98.0198 129.285 95.4893 131.8H102.227L103.833 124.456Z" fill="#D2D2D2"/>
<path d="M114.872 126.702L105.136 124.456H103.811L102.238 131.8H112.626C113.81 130.328 114.585 128.569 114.872 126.702Z" fill="#D2D2D2"/>
<path d="M125.956 146.983H115.512C116.275 155.136 117.477 163.637 118.881 171.969C123.305 198.629 135.557 217.619 152.672 229.77C143.766 197.518 134.636 170.15 134.389 132.754C134.311 132.215 134.243 131.631 134.176 131.115L123.361 128.678L125.956 146.983Z" fill="#D2D2D2"/>
<path d="M123.362 128.678L121.925 128.353L114.67 127.87C114.592 134.266 114.873 140.663 115.512 147.028H125.956L123.362 128.678Z" fill="#D2D2D2"/>
<path d="M49.3669 262.506C51.7103 247.024 54.7049 226.551 58.3509 201.089L63.4156 200.18C63.4718 199.708 63.5392 199.259 63.6065 198.798L87.8073 194.452C78.5238 232.949 71.8981 260.5 67.9301 277.105C70.3109 278.711 72.7141 280.261 75.1959 281.71C75.7911 282.069 76.3976 282.395 77.004 282.743C74.6772 273.901 73.4402 264.809 73.3205 255.667L108.134 258.34L117.769 237.003C102.474 219.709 109.122 208.568 84.3821 163.368C82.1361 159.336 79.9911 155.338 77.8013 151.453C57.5948 176.698 41.8765 206.764 30.6465 241.652C36.2239 249.171 42.4913 256.153 49.3669 262.506Z" fill="#D2D2D2"/>
<path d="M63.5845 198.798C63.5171 199.258 63.4497 199.708 63.3936 200.179L82.4846 196.743C74.092 231.556 67.8706 257.415 63.8203 274.32C64.247 274.623 64.6513 274.926 65.0781 275.218C65.9877 275.869 66.9311 276.487 67.8631 277.105C71.8311 260.499 78.4568 232.948 87.7403 194.452L63.5845 198.798Z" fill="#D2D2D2"/>
<path d="M58.3288 201.089C54.6977 226.544 51.703 247.016 49.3447 262.506C50.7597 263.808 52.2009 265.089 53.6683 266.346C56.094 250.542 59.3282 228.486 63.371 200.179L58.3288 201.089Z" fill="#D2D2D2"/>
<path d="M63.3931 200.179C59.3503 228.494 56.1161 250.55 53.6904 266.347C56.9471 269.117 60.3386 271.774 63.8648 274.32C67.9226 257.392 74.144 231.533 82.5291 196.743L63.3931 200.179Z" fill="#D2D2D2"/>
<path d="M117.736 237.059L117.938 237.306C123.676 243.74 130.931 249.333 159.264 255.521C158.141 250.804 157.018 246.245 155.895 241.798C137.77 239.484 122.834 237.654 117.713 237.002L117.736 237.059Z" fill="#D2D2D2"/>
<path d="M117.938 237.306L117.736 237.059L108.101 258.396L140.668 260.9C144.037 261.248 148.45 261.843 153.616 262.461H160.769C160.275 260.125 159.759 257.834 159.242 255.577C130.931 249.333 123.677 243.74 117.938 237.306Z" fill="#D2D2D2"/>
<path d="M76.9824 282.742C77.222 283.573 77.469 284.393 77.7236 285.202L77.7909 283.203L76.9824 282.742Z" fill="#D2D2D2"/>
<path d="M81.9792 262.405H106.27L108.1 258.34L73.2871 255.667C73.4031 264.808 74.6364 273.901 76.9593 282.743L77.7679 283.203C78.2284 272.231 79.1492 262.888 81.9792 262.405Z" fill="#D2D2D2"/>
<path d="M153.638 262.405C148.472 261.787 144.047 261.192 140.69 260.844L108.122 258.34L106.292 262.405H153.638Z" fill="#D2D2D2"/>
<path d="M271.542 191.431L276.932 151.565C277.28 148.959 276.697 146.096 275.574 145.175L267.353 138.302C267.243 138.21 267.117 138.138 266.983 138.089H266.848C265.916 137.886 265.006 139.212 264.714 141.39L258.908 184.289C259.582 187.051 258.313 190.465 263.052 195.058C265.264 197.697 268.319 195.261 271.542 191.431ZM263.232 192.094C263.4 190.87 263.883 189.915 264.287 189.971C264.692 190.027 264.894 191.094 264.725 192.307C264.557 193.52 264.074 194.474 263.602 194.418C263.131 194.362 263.108 193.318 263.232 192.094Z" fill="#E9E9E9"/>
<path d="M259.874 193.644L268.094 200.505C268.244 200.642 268.432 200.729 268.633 200.755C268.833 200.781 269.037 200.745 269.217 200.651H269.284C269.352 200.651 269.419 200.539 269.487 200.483C269.749 200.203 269.962 199.88 270.115 199.528V199.438C270.115 199.292 270.239 199.135 270.284 198.978C270.329 198.821 270.284 198.798 270.363 198.72C270.441 198.641 270.441 198.439 270.475 198.293C270.537 198.03 270.586 197.764 270.621 197.496L271.441 191.476C268.218 195.306 265.163 197.743 262.951 195.07C258.212 190.477 259.481 187.063 258.807 184.3L258.403 187.287C258.155 189.859 258.751 192.689 259.874 193.644Z" fill="#E9E9E9"/>
<path d="M267.353 138.302L271.553 138.448C271.366 138.282 271.129 138.183 270.879 138.167L266.679 138.021H266.848H266.982C267.126 138.085 267.252 138.181 267.353 138.302Z" fill="#BCBCBC"/>
<path d="M275.573 145.175C276.696 146.096 277.28 148.959 276.932 151.565L271.542 191.431C273.238 189.41 274.978 186.939 276.663 184.693L281.155 151.666C281.503 149.049 280.896 146.197 279.796 145.276L271.576 138.403L267.375 138.257L275.573 145.175Z" fill="#BCBCBC"/>
<path d="M270.722 197.45C270.687 197.719 270.639 197.985 270.576 198.248C270.576 198.405 270.509 198.529 270.464 198.674C270.419 198.82 270.464 198.843 270.385 198.933C270.307 199.023 270.273 199.247 270.217 199.393V199.483C270.07 199.839 269.857 200.163 269.588 200.438C269.52 200.494 269.453 200.561 269.386 200.606H269.318C269.168 200.707 268.994 200.765 268.813 200.774L273.002 200.92C273.878 200.92 274.686 199.652 274.967 197.551L276.708 184.693C275.023 186.939 273.282 189.365 271.587 191.431L270.722 197.45Z" fill="#BCBCBC"/>
<path d="M270.464 198.675C270.464 198.529 270.543 198.405 270.576 198.248C270.543 198.394 270.509 198.54 270.464 198.675Z" fill="#BCBCBC"/>
<path d="M270.217 199.427C270.217 199.281 270.34 199.124 270.385 198.966C270.34 199.09 270.273 199.247 270.217 199.427Z" fill="#BCBCBC"/>
<path d="M270.172 199.483C270.018 199.835 269.805 200.157 269.543 200.438C269.812 200.163 270.025 199.838 270.172 199.483Z" fill="#BCBCBC"/>
<path d="M263.658 194.419C264.074 194.475 264.546 193.531 264.781 192.307C265.017 191.083 264.781 190.061 264.343 189.971C263.905 189.882 263.456 190.87 263.288 192.094C263.119 193.318 263.254 194.362 263.658 194.419Z" fill="#AFB9C5"/>
</svg>
