<svg width="677" height="614" viewBox="0 0 677 614" fill="none" xmlns="http://www.w3.org/2000/svg">
<path d="M676.26 138.564H117.697V613.127H676.26V138.564Z" fill="#E9E9E9"/>
<path d="M589.19 550.071H24.6624V69.4453H589.19V550.071ZM30.6444 544.008H583.128V75.5087H30.6444V544.008Z" fill="#1F244D"/>
<path d="M140.808 185.467L212.624 89.5441L222.728 90.2338L223.354 236.605L200.484 267.21L209.834 300.703L301.602 290.998L324.295 308.114C335.634 298.072 369.409 304.729 409.007 290.71C419.666 286.818 429.083 280.131 436.271 271.349C437.299 257.376 436.3 243.329 433.304 229.643C432.614 227.862 431.283 223.612 433.304 220.019C433.764 219.324 434.302 218.683 434.908 218.11C434.735 217.81 434.611 217.485 434.539 217.147C434.426 216.667 434.426 216.168 434.539 215.688C435.394 212.035 436.988 208.596 439.222 205.582V205.149C428.845 211.373 418.661 214.404 413.85 213.169C401.838 210.073 400.715 166.122 410.017 148.798C410.271 148.33 410.55 147.875 410.851 147.435C410.556 147.022 410.362 146.545 410.287 146.043C410.212 145.541 410.257 145.029 410.418 144.547C412.892 141.848 415.669 139.442 418.694 137.377C419.832 136.671 421.019 136.014 422.222 135.42H422.029C421.179 135.709 421.596 133.929 422.414 133.287C426.263 130.384 440.954 129.325 453.784 131.988C463.038 133.982 471.719 138.052 479.172 143.89C485.362 149.023 489.596 157.187 491.777 165.208C494.015 173.574 494.479 182.316 493.141 190.873C492.868 192.75 492.258 194.546 491.922 196.391C491.65 198.444 491.232 200.476 490.671 202.47C490.254 203.705 489.564 204.924 489.211 206.16C488.908 207.539 488.952 208.972 489.34 210.33C489.785 212.695 490.429 215.019 491.264 217.276C491.489 218.062 491.681 218.88 491.826 219.666C491.921 220.119 491.917 220.587 491.815 221.038C491.713 221.489 491.514 221.913 491.232 222.28C490.947 222.636 490.592 222.931 490.19 223.147C489.843 223.336 489.461 223.45 489.067 223.483C489.299 224.982 489.443 226.492 489.5 228.007C489.308 235.706 510.349 249.87 515.16 253.672C524.783 261.195 527.028 284.919 531.198 331.998C556.249 279.294 560.523 219.084 543.167 163.369C525.812 107.654 488.102 60.5266 437.554 31.3808C431.636 27.932 425.557 24.74 419.303 21.8526C413.743 19.222 408.028 16.8373 402.159 14.6985C400.555 14.0729 398.807 13.4634 397.123 12.8699C396.112 12.517 395.102 12.1801 394.059 11.8593C375.194 5.66875 355.612 1.92743 335.794 0.727131C333.806 0.598806 331.801 0.502556 329.812 0.470475C327.07 0.34215 324.343 0.310059 321.617 0.310059C310.315 0.311248 299.027 1.12609 287.841 2.74824C285.789 3.03697 283.736 3.37383 281.731 3.72672C274.739 4.94581 267.858 6.45362 261.139 8.28226C253.427 10.3542 245.826 12.8169 238.365 15.661C231.009 18.5376 223.84 21.7457 216.858 25.2853C166.176 50.9216 126.651 94.2561 105.769 147.083C84.8878 199.91 84.0989 258.562 103.552 311.931L141.449 307.921L140.808 185.467Z" fill="#1F244D"/>
<path d="M422.254 324.748C427.989 311.208 432.191 297.068 434.779 282.593C435.325 279.305 435.822 275.551 436.143 271.365C435.758 275.551 435.325 279.305 434.715 282.593C432.146 297.066 427.966 311.205 422.254 324.748Z" fill="#3F3D56"/>
<path d="M172.402 304.665L179.298 303.927L179.892 294.656L172.402 304.665Z" fill="#3F3D56"/>
<path d="M444.674 200.626C443.969 198.845 443.295 197.049 442.621 195.284L442.285 194.37L441.082 192.477C438.548 188.531 435.998 184.601 433.56 180.575C429.337 173.226 424.689 166.129 419.64 159.321C418.036 157.364 416.528 155.439 415.021 153.466C414.155 152.344 413.305 151.189 412.503 150.034C411.854 149.21 411.264 148.342 410.739 147.435C410.437 147.875 410.159 148.33 409.905 148.799C400.603 166.122 401.725 210.074 413.738 213.17C418.549 214.405 428.733 211.373 439.109 205.149V205.582C439.301 205.348 439.504 205.123 439.719 204.909C441.788 202.936 444.45 202.31 444.674 200.626Z" fill="#F2F2F2"/>
<path d="M415.021 153.466C416.528 155.439 418.036 157.364 419.64 159.321C424.689 166.129 429.337 173.226 433.561 180.575C435.998 184.601 438.548 188.595 441.082 192.477L442.285 194.37L442.622 195.284C443.295 197.049 443.969 198.845 444.675 200.626C444.675 200.626 444.675 200.626 444.675 200.529C445.268 193.311 442.397 186.398 440.296 179.677C437.795 171.656 435.95 163.476 433.368 155.455C432.245 151.991 426.504 134.506 422.142 135.421C420.939 136.014 419.752 136.672 418.613 137.378C415.589 139.442 412.812 141.848 410.338 144.548C410.177 145.029 410.132 145.542 410.207 146.043C410.282 146.545 410.475 147.022 410.771 147.435C411.296 148.342 411.886 149.21 412.535 150.034C413.305 151.188 414.155 152.343 415.021 153.466Z" fill="#2C2C2C"/>
<path d="M481.369 213.603C483.12 213.492 484.846 214.067 486.18 215.207C487 216.108 487.555 217.218 487.784 218.415C488.292 220.086 488.683 221.79 488.955 223.516C489.348 223.483 489.731 223.368 490.077 223.179C490.48 222.963 490.834 222.669 491.12 222.313C491.401 221.945 491.6 221.522 491.703 221.07C491.805 220.619 491.809 220.151 491.713 219.698C491.569 218.896 491.377 218.094 491.152 217.308C490.316 215.051 489.673 212.728 489.228 210.362C488.84 209.004 488.796 207.571 489.099 206.192C489.452 204.957 490.142 203.738 490.559 202.502C491.12 200.508 491.538 198.477 491.81 196.423C492.146 194.578 492.756 192.782 493.028 190.905C494.367 182.348 493.902 173.607 491.665 165.24C489.484 157.22 485.25 149.055 479.059 143.922C471.606 138.084 462.926 134.015 453.672 132.02C440.842 129.357 426.151 130.416 422.302 133.319C421.484 133.961 421.067 135.741 421.917 135.453H422.109C426.536 134.538 432.277 152.023 433.336 155.487C435.918 163.508 437.762 171.688 440.264 179.709C442.365 186.43 445.236 193.343 444.643 200.561C444.643 200.561 444.643 200.561 444.643 200.658C444.418 202.262 441.756 202.968 439.735 204.941C439.52 205.155 439.317 205.379 439.126 205.614C436.892 208.628 435.298 212.067 434.443 215.72C434.33 216.2 434.33 216.7 434.443 217.18C434.515 217.518 434.639 217.842 434.811 218.142C435.304 217.66 435.841 217.225 436.415 216.843C443.728 212.319 479.621 213.603 481.369 213.603Z" fill="#E9E9E9"/>
<path d="M116.398 341.254C133.516 373.565 158.051 401.354 187.991 422.34C192.962 425.879 198.1 429.2 203.403 432.301C208.615 435.381 213.908 438.284 219.441 440.947C223.915 443.144 228.454 445.166 233.025 447.058V429.093L116.398 341.254Z" fill="#5C63AB"/>
<path d="M515.048 253.704C510.237 249.902 489.196 235.739 489.388 228.039C489.331 226.524 489.187 225.014 488.955 223.516C488.683 221.79 488.292 220.086 487.784 218.415C487.555 217.218 487 216.108 486.18 215.207C484.846 214.067 483.12 213.492 481.369 213.603C479.621 213.603 443.729 212.319 436.463 216.811C435.161 217.619 434.064 218.717 433.256 220.019C431.235 223.612 432.566 227.863 433.256 229.643C436.252 243.329 437.251 257.377 436.223 271.349C447.145 258.741 455.035 242.957 466.261 229.13L476.494 235.915C463.455 265.911 452.918 301.216 429.696 322.39C427.258 323.224 424.804 323.994 422.334 324.732C378.086 337.966 330.63 338.286 318.827 350.397C318.48 350.737 318.158 351.101 317.864 351.488C311.321 360.198 301.826 354.92 297.015 356.3V381.965C301.233 379.912 314.288 387.146 328.578 388.381C334.993 388.943 378.695 391.188 417.314 378.147L453.399 405.416H453.864V405.817L455.468 407.02L453.864 407.197V423.238C487.122 400.138 513.76 368.739 531.134 332.159C526.916 284.951 524.639 261.227 515.048 253.704Z" fill="#F2463A"/>
<path d="M303.366 345.136V343.708C290.039 350.413 283.126 352.467 282.661 349.804C281.827 344.992 288.29 343.532 288.242 340.179C288.22 339.895 288.144 339.617 288.018 339.361L274.578 358.065C281.387 359.044 288.114 360.524 294.706 362.492L296.935 362.283V356.364C301.746 354.985 311.24 360.262 317.784 351.552C318.078 351.166 318.399 350.801 318.746 350.461C307.199 349.242 306.958 343.339 303.366 345.136Z" fill="#8991DC"/>
<path d="M232.96 429.093V428.692L453.319 405.417L417.234 378.148C378.615 391.189 334.864 388.943 328.497 388.382C314.208 387.146 301.233 379.912 296.935 381.965V378.95C277.337 385.494 267.533 387.189 267.522 384.035C267.522 379.126 274.065 378.757 274.643 375.437C274.995 373.352 271.788 370.737 267.329 368.074L262.518 374.651L215.896 373.047L215.8 367.689L254.291 317.033L298.827 318.717L298.908 323.337C300.362 323.454 301.821 323.583 303.286 323.722V321.059C307.584 319.776 316.726 317.658 322.531 309.83C323.003 309.198 323.54 308.617 324.135 308.098L301.522 290.999L209.754 300.703L211.101 305.516L234.949 306.398L235.045 311.771L198.656 362.396L152.034 360.792L151.938 355.434L178.143 320.899L179.234 303.96L172.322 304.681L151.473 332.56L141.353 331.854L141.241 307.97L103.344 311.98C106.994 322.036 111.335 331.828 116.334 341.286L232.96 429.093ZM166.805 364.128L166.997 364.994H166.227L166.805 364.128Z" fill="#8991DC"/>
<path d="M455.372 406.973L453.768 405.754V407.133L455.372 406.973Z" fill="#F2463A"/>
<path d="M298.988 323.353L298.908 318.733L295.7 323.144C296.823 323.193 297.897 323.273 298.988 323.353Z" fill="#A6A6A6"/>
<path d="M285.741 337.052L270.97 357.584L274.578 358.065L288.018 339.361C287.488 338.395 286.699 337.595 285.741 337.052Z" fill="#A6A6A6"/>
<path d="M262.502 369.357L215.992 367.753L216.089 373.111L262.711 374.715L267.522 368.138C266.624 367.609 265.694 367.079 264.715 366.534L262.502 369.357Z" fill="#A6A6A6"/>
<path d="M282.565 335.351L269.157 354.472H262.646L277.625 333.41C276.759 333.105 275.861 332.801 274.947 332.512L258.011 356.701C262.341 356.798 266.672 357.102 270.97 357.6L285.741 337.068C284.725 336.419 283.664 335.846 282.565 335.351Z" fill="#BCBCBC"/>
<path d="M264.523 366.55C262.63 365.508 260.609 364.481 258.605 363.471C257.266 362.863 256.023 362.064 254.916 361.097L250.73 367.08L220.547 365.861L255.83 318.38L283.96 319.664L281.507 323.16C286.256 322.92 291.015 322.92 295.764 323.16L298.972 318.749L254.435 317.065L215.945 367.721L262.454 369.325L264.523 366.55Z" fill="#BCBCBC"/>
<path d="M270.328 331.036C261.572 328.405 265.517 325.566 268.291 324.491C272.67 323.834 277.064 323.401 281.474 323.16L283.928 319.663L255.798 318.38L220.515 365.86L250.698 367.079L254.884 361.096C252.222 358.562 255.365 357.134 257.658 356.669H257.979L274.915 332.48C273.424 331.998 271.868 331.501 270.328 331.036Z" fill="#E9E9E9"/>
<path d="M269.158 354.472L282.565 335.351C281.106 334.678 279.358 334.036 277.625 333.395L262.646 354.472H269.158Z" fill="#E9E9E9"/>
<path d="M422.334 324.733C424.804 323.995 427.258 323.225 429.695 322.391C452.918 301.217 463.375 265.912 476.493 235.916L466.261 229.13C455.035 242.957 447.144 258.741 436.223 271.349C435.902 275.536 435.405 279.29 434.86 282.578C432.271 297.053 428.069 311.193 422.334 324.733Z" fill="#F2463A"/>
<path d="M166.821 364.145L166.243 364.978L167.013 365.01L166.821 364.145Z" fill="#D2D2D2"/>
<path d="M281.474 323.16C277.064 323.401 272.67 323.834 268.291 324.491C265.517 325.566 261.572 328.405 270.328 331.036C271.932 331.501 273.424 331.998 274.947 332.496C275.861 332.784 276.759 333.089 277.625 333.394C279.422 334.036 281.106 334.677 282.565 335.351C283.674 335.839 284.746 336.407 285.773 337.051C286.732 337.595 287.52 338.395 288.05 339.361C288.176 339.617 288.253 339.895 288.274 340.179C288.274 343.532 281.859 344.991 282.693 349.804C283.158 352.466 290.071 350.413 303.398 343.708V323.786C301.933 323.636 300.474 323.508 299.02 323.401C297.929 323.32 296.855 323.24 295.812 323.192C291.037 322.938 286.251 322.927 281.474 323.16Z" fill="#F2F2F2"/>
<path d="M303.366 345.136C306.959 343.339 307.199 349.242 318.746 350.461C330.55 338.302 378.086 337.982 422.254 324.796C427.994 311.251 432.201 297.106 434.795 282.625C435.405 279.337 435.838 275.584 436.223 271.397C429.035 280.179 419.618 286.866 408.959 290.758C369.361 304.778 335.586 298.121 324.247 308.162C323.653 308.681 323.115 309.262 322.644 309.894C316.838 317.722 307.696 319.84 303.398 321.123V345.184L303.366 345.136Z" fill="#D23B30"/>
<path d="M453.784 405.754V405.353H453.319L232.96 428.628V446.994C263.212 459.488 295.766 465.434 328.48 464.441C361.194 463.449 393.328 455.54 422.767 441.236C425.638 439.872 428.46 438.412 431.235 436.921C439.008 432.728 446.537 428.095 453.784 423.045V405.754Z" fill="#4B518C"/>
<path d="M294.706 362.492C288.114 360.523 281.387 359.043 274.578 358.064L270.97 357.583C266.671 357.086 262.341 356.781 258.011 356.685H257.69C255.397 357.15 252.253 358.578 254.916 361.112C256.023 362.079 257.266 362.879 258.604 363.486C260.609 364.497 262.63 365.523 264.523 366.566C265.501 367.095 266.431 367.625 267.329 368.17C271.788 370.833 274.995 373.447 274.642 375.533C274.065 378.853 267.489 379.222 267.522 384.13C267.522 387.338 277.326 385.643 296.935 379.045V362.283L294.706 362.492Z" fill="#F2F2F2"/>
<path d="M180.678 352.419L176.219 352.114L178.224 320.867L152.002 355.402L198.576 357.054L234.965 306.43L211.117 305.532L212.384 310.071L180.678 352.419Z" fill="#BCBCBC"/>
<path d="M152.002 355.402H151.954L152.05 360.76L198.672 362.428L235.061 311.804L234.965 306.43L198.575 357.054L152.002 355.402Z" fill="#A6A6A6"/>
<path d="M222.712 90.2503L212.608 89.5605L140.792 185.484L141.305 307.954L141.401 331.838L151.521 332.544L150.895 186.189L222.712 90.2503Z" fill="#BCBCBC"/>
<path d="M180.677 352.418L184.799 288.111L179.891 294.656L179.298 303.927L178.223 320.866L176.219 352.113L180.677 352.418Z" fill="#A6A6A6"/>
<path d="M223.354 236.605L222.729 90.2339L150.911 186.173L151.537 332.528L172.386 304.649L179.892 294.64L184.703 288.111L180.597 352.402L212.304 310.055L211.037 305.531L209.69 300.719L200.484 267.21L223.354 236.605ZM155.177 306.911L154.552 189.413L219.328 101.51L219.938 219.008L155.177 306.911Z" fill="#D2D2D2"/>
<path d="M219.312 101.527L154.536 189.429L155.161 306.927L219.922 219.024L219.312 101.527Z" fill="#E9E9E9"/>
<path d="M29.4895 99.6821C45.672 99.6821 58.7905 86.5613 58.7905 70.3759C58.7905 54.1904 45.672 41.0696 29.4895 41.0696C13.307 41.0696 0.188477 54.1904 0.188477 70.3759C0.188477 86.5613 13.307 99.6821 29.4895 99.6821Z" fill="#F2463A"/>
</svg>
