<svg width="670" height="577" viewBox="0 0 670 577" fill="none" xmlns="http://www.w3.org/2000/svg">
<path d="M559.506 102.019H0.943359V576.581H559.506V102.019Z" fill="#E9E9E9"/>
<path d="M669.332 513.525H104.708V32.8511H669.332V513.525ZM110.77 507.462H663.27V38.9626H110.77V507.462Z" fill="#1F244D"/>
<path d="M552.464 197.957C552.301 197.83 552.117 197.732 551.92 197.669C552.116 197.733 552.301 197.83 552.464 197.957Z" fill="#3F3D56"/>
<path d="M227.107 160.294C246.69 159.316 263.994 185.606 281.636 216.837C289.536 206.98 297.985 197.576 306.943 188.67H284.907C282.309 143.644 307.36 161.08 307.36 118.685C308.964 117.161 310.391 115.637 311.851 114.338V113.054C319.902 96.5646 330.118 88.3197 342.499 88.3197C361.071 88.3197 366.941 96.9656 371.928 104.36C371.816 104.745 371.656 105.098 371.527 105.451C372.123 106.21 372.66 107.015 373.131 107.857C382.417 125.181 381.326 169.132 369.314 172.228C364.503 173.463 354.319 170.432 343.926 164.208L346.685 183.794L361.824 184.804C361.921 185.783 362.065 186.713 362.177 187.675H362.466C362.466 188.445 362.466 189.279 362.466 189.969C370.742 248.213 407.821 284.368 488.058 271.632L490.832 291.49C509.521 286.197 519.679 283.278 521.304 282.732C528.713 280.31 533.541 264.43 534.968 258.046C538.528 259.65 539.779 261.478 540.277 263.532L548.568 202.24C548.985 199.032 550.268 197.252 551.615 197.54H551.375L557.373 197.749C557.726 197.784 558.061 197.923 558.335 198.15L570.075 207.967C571.678 209.282 572.512 213.356 572.015 217.094L565.6 264.286C571.598 256.265 577.083 249.64 579.842 256.506C580.579 258.334 576.634 277.359 573.427 282.171C562.2 295.003 538.288 298.211 534.23 299.222C530.926 299.992 517.508 305.093 493.976 314.525L499.043 350.648C456.992 356.086 417.78 349.365 388.527 328.608C390.131 334.223 391.623 339.933 393.13 345.788C442.703 352.204 508.971 361.043 525.329 365.582C529.21 367.459 533.813 369.352 538.929 371.277C563.964 346.81 582.686 316.63 593.487 283.33C604.288 250.03 606.846 214.606 600.94 180.099C595.034 145.593 580.842 113.036 559.582 85.2253C538.322 57.4147 510.63 35.1816 478.884 20.4357C473.677 17.9869 468.331 15.7572 462.846 13.7468C461.242 13.1693 459.639 12.6079 458.035 12.1427C439.679 5.79912 420.548 1.97336 401.165 0.769912C399.305 0.641587 397.444 0.561382 395.584 0.5293C393.034 0.400975 390.484 0.368896 387.934 0.368896C375.478 0.369038 363.046 1.44238 350.774 3.57702C344.285 4.71056 337.869 6.12749 331.529 7.8278C317.267 11.6515 303.443 16.9522 290.28 23.6439C251.19 43.4316 219.03 74.6253 198.055 113.096C177.08 151.568 168.28 195.502 172.82 239.086C174.953 233.969 177.07 229.028 179.09 224.28C192.755 192.375 206.403 161.337 227.107 160.294Z" fill="#1F244D"/>
<path d="M556.731 284.561C556.761 284.441 556.799 284.323 556.843 284.208C556.799 284.323 556.761 284.441 556.731 284.561Z" fill="#F2F2F2"/>
<path d="M534.326 299.238C538.384 298.228 562.296 295.019 573.523 282.187C576.73 277.375 580.676 258.35 579.938 256.522C577.179 249.656 571.694 256.281 565.696 264.302L563.21 282.652C562.81 285.652 561.607 287.464 560.404 287.464L554.422 287.256C554.681 287.249 554.932 287.166 555.143 287.015C554.888 287.154 554.596 287.208 554.308 287.171C554.02 287.133 553.751 287.006 553.54 286.807L541.8 277.006C540.196 275.69 539.346 271.6 539.843 267.863L540.421 263.612C539.924 261.559 538.673 259.778 535.112 258.126C533.685 264.542 528.858 280.39 521.448 282.812C519.802 283.358 509.644 286.277 490.976 291.571L494.184 314.541C517.642 305.109 531.023 300.008 534.326 299.238Z" fill="#F2F2F2"/>
<path d="M555.24 286.967C555.342 286.894 555.434 286.808 555.512 286.71C555.434 286.808 555.342 286.894 555.24 286.967Z" fill="#F2F2F2"/>
<path d="M557.004 283.599C557.004 283.246 557.148 282.861 557.212 282.444C557.148 282.861 557.084 283.246 557.004 283.599Z" fill="#F2F2F2"/>
<path d="M556.426 285.347C556.421 285.309 556.421 285.272 556.426 285.234C556.421 285.272 556.421 285.309 556.426 285.347Z" fill="#F2F2F2"/>
<path d="M340.767 127.074C339.663 126.19 338.366 125.58 336.982 125.293C335.601 125.004 334.17 125.053 332.812 125.437C331.453 125.819 330.205 126.523 329.175 127.489C328.145 128.455 327.362 129.655 326.894 130.988C326.18 132.996 326.219 135.196 327.004 137.178C327.788 139.161 329.265 140.791 331.16 141.767C332.411 142.425 333.805 142.761 335.218 142.745H335.571C336.854 156.749 336.822 172.18 334.625 181.451L344.632 183.745L346.637 183.874L343.975 164.24C354.367 170.464 364.551 173.495 369.362 172.26C381.375 169.164 382.465 125.213 373.179 107.889C372.708 107.047 372.172 106.242 371.576 105.483C367.293 117.321 353.325 119.342 340.767 127.074Z" fill="#F2F2F2"/>
<path d="M318.876 178.18L325.291 148.553C317.897 139.891 312.894 129.304 313.744 117.337C316.037 84.6627 359.435 89.9561 371.591 105.483C371.72 105.131 371.88 104.778 371.992 104.393C367.005 96.998 361.135 88.3521 342.563 88.3521C330.139 88.3521 319.918 96.5862 311.899 113.055V114.306C310.44 115.605 309.012 117.129 307.409 118.653C307.409 161.048 282.358 143.612 284.956 188.638H306.992C310.616 185.066 314.31 181.57 318.074 178.148L318.876 178.18Z" fill="#202020"/>
<path d="M313.679 117.338C312.829 129.304 317.833 139.891 325.226 148.553L318.811 178.18H320.704L334.608 181.388C336.806 172.116 336.838 156.685 335.555 142.682H335.202C333.789 142.697 332.395 142.361 331.144 141.703C329.866 141.067 328.764 140.125 327.937 138.96C326.916 137.515 326.354 135.797 326.323 134.028C326.291 132.259 326.792 130.522 327.761 129.042C328.729 127.561 330.12 126.406 331.753 125.726C333.386 125.047 335.185 124.874 336.918 125.23C338.302 125.516 339.599 126.127 340.703 127.01C353.196 119.279 367.165 117.257 371.399 105.42C359.371 89.9563 315.973 84.6629 313.679 117.338Z" fill="#202020"/>
<path d="M499.14 350.664L494.072 314.541C478.301 320.839 457.987 329.095 433.128 339.307L407.709 315.07C444.2 304.783 471.913 296.949 490.848 291.57L488.074 271.712C407.885 284.448 370.758 248.293 362.482 190.049C362.851 243.465 375.89 282.556 388.608 328.624C417.877 349.381 457.089 356.102 499.14 350.664Z" fill="#BCBCBC"/>
<path d="M362.193 187.708C362.081 186.745 361.937 185.815 361.841 184.836L346.701 183.826V184.163L362.193 187.708Z" fill="#BCBCBC"/>
<path d="M433.144 339.308C458.003 329.106 478.317 320.85 494.088 314.541L490.88 291.571C471.923 296.918 444.21 304.751 407.74 315.07L433.144 339.308Z" fill="#BCBCBC"/>
<path d="M346.749 184.162L346.701 183.842L344.696 183.697L346.749 184.162Z" fill="#BCBCBC"/>
<path d="M281.636 216.837C263.994 185.606 246.69 159.316 227.108 160.294C206.403 161.337 192.755 192.375 179.155 224.248C177.134 229.06 175.017 233.872 172.884 239.054C176.898 277.656 191.211 314.47 214.326 345.644C230.353 295.736 252.789 252.8 281.636 216.837Z" fill="#F2463A"/>
<path d="M393.227 345.804C394.83 352.22 396.434 358.637 398.038 365.406C415.23 369.159 437.827 373.057 468.01 377.276C470.609 376.971 473.191 376.618 475.773 376.201C479.638 375.576 501.529 372.191 514.263 372.993C520.935 373.426 528.44 373.683 536.443 373.811C537.325 372.977 538.207 372.207 539.073 371.293C533.957 369.368 529.355 367.475 525.473 365.598C509.067 361.059 442.799 352.156 393.227 345.804Z" fill="#4B518C"/>
<path d="M390.003 375.222C410.756 377.709 439.993 380.516 467.994 377.275C437.811 373.057 415.214 369.159 398.022 365.406C398.776 368.614 399.497 371.902 400.219 375.222H390.003Z" fill="#4B518C"/>
<path d="M473.576 415.196C431.493 417.939 364.519 422.879 326.125 423.842C374.769 438.336 426.958 435.275 473.576 415.196Z" fill="#8991DC"/>
<path d="M287.666 375.222C283.608 375.928 282.293 389.274 281.684 404.946C285.34 407.015 289.045 409.02 292.91 410.865C296.775 412.709 300.288 414.329 304.009 415.901L322.42 375.222H287.666Z" fill="#8991DC"/>
<path d="M524.255 384.462C528.446 381.061 532.493 377.511 536.395 373.811C528.376 373.682 520.887 373.426 514.215 372.993C501.513 372.191 479.622 375.575 475.724 376.201C473.142 376.618 470.56 376.971 467.962 377.275C476.558 378.478 485.764 379.698 495.643 380.949C505.956 382.264 515.402 383.419 524.255 384.462Z" fill="#8991DC"/>
<path d="M390.003 375.222H322.34L303.88 415.901C311.126 418.958 318.536 421.609 326.076 423.842C364.423 422.879 431.444 417.939 473.527 415.196C476.478 413.928 479.397 412.613 482.3 411.202C485.203 409.79 487.576 408.587 490.158 407.175C502.201 400.698 513.601 393.093 524.207 384.462C515.354 383.419 505.859 382.264 495.627 380.949C485.748 379.698 476.542 378.479 467.946 377.276C439.992 380.516 410.756 377.725 390.003 375.222Z" fill="#8991DC"/>
<path d="M338.714 339.035V338.939C345.979 339.869 367.293 342.5 393.242 345.804C391.735 339.949 390.195 334.239 388.64 328.625C364.198 311.269 346.701 284.144 340.382 246.048C338.377 234.161 336.661 221.987 335.571 210.357H311.995L316.646 188.67H307.024C298.065 197.576 289.616 206.98 281.716 216.838C284.924 222.388 287.971 228.066 291.13 233.841C326.333 298.42 316.887 314.316 338.714 339.035Z" fill="#D2D2D2"/>
<path d="M362.482 187.755H362.193C362.306 188.525 362.386 189.359 362.498 190.097C362.498 189.279 362.482 188.525 362.482 187.755Z" fill="#D2D2D2"/>
<path d="M334.352 182.991L344.696 183.697L334.689 181.403C334.268 184.063 333.163 186.567 331.481 188.67H316.711L312.06 210.357H335.635C334.687 201.267 334.258 192.13 334.352 182.991Z" fill="#D2D2D2"/>
<path d="M318.875 178.18H318.026C314.262 181.591 310.568 185.088 306.943 188.67H316.566L318.875 178.18Z" fill="#D2D2D2"/>
<path d="M334.689 181.403L320.784 178.195H318.891L316.646 188.686H331.433C333.134 186.584 334.257 184.073 334.689 181.403Z" fill="#D2D2D2"/>
<path d="M350.47 210.357H335.555C336.645 222.018 338.361 234.161 340.366 246.047C346.685 284.144 364.182 311.268 388.624 328.624C375.906 282.556 362.867 243.465 362.498 190.049C362.386 189.28 362.306 188.445 362.193 187.708L346.749 184.163L350.47 210.357Z" fill="#D2D2D2"/>
<path d="M346.749 184.163L344.696 183.697L334.352 182.992C334.232 192.129 334.633 201.266 335.555 210.357H350.47L346.749 184.163Z" fill="#D2D2D2"/>
<path d="M241.092 375.383C244.428 353.247 248.705 324 253.923 287.641L261.14 286.358L261.428 284.369L295.99 278.161C282.732 333.17 273.269 372.528 267.603 396.236C270.987 398.53 274.435 400.743 277.979 402.813C278.813 403.326 279.695 403.791 280.545 404.288C277.241 391.651 275.485 378.659 275.317 365.598L325.034 369.432L338.778 339.035C316.887 314.316 326.333 298.42 291.05 233.84C287.842 228.098 284.763 222.387 281.636 216.837C252.768 252.801 230.315 295.72 214.277 345.596C222.272 356.336 231.249 366.308 241.092 375.383Z" fill="#D2D2D2"/>
<path d="M261.396 284.369L261.108 286.358L288.372 281.433C276.376 331.17 267.491 368.111 261.717 392.258L263.497 393.541C264.812 394.472 266.16 395.338 267.491 396.236C273.147 372.517 282.609 333.159 295.877 278.161L261.396 284.369Z" fill="#D2D2D2"/>
<path d="M253.891 287.641C248.694 323.999 244.418 353.247 241.061 375.383C243.081 377.244 245.139 379.072 247.235 380.869C250.678 358.305 255.291 326.801 261.075 286.357L253.891 287.641Z" fill="#D2D2D2"/>
<path d="M261.107 286.294C255.334 326.737 250.72 358.241 247.267 380.805C251.907 384.773 256.751 388.569 261.797 392.194C267.571 368.026 276.456 331.084 288.452 281.369L261.107 286.294Z" fill="#D2D2D2"/>
<path d="M338.714 339.035L339.019 339.372C347.214 348.579 357.559 356.567 398.022 365.406C396.418 358.668 394.814 352.156 393.21 345.804C367.326 342.499 346.011 339.869 338.682 338.938L338.714 339.035Z" fill="#D2D2D2"/>
<path d="M339.019 339.372L338.714 339.035L324.97 369.432L371.479 372.993C376.291 373.506 382.577 374.356 389.971 375.222H400.187C399.465 371.902 398.743 368.63 397.99 365.406C357.558 356.567 347.182 348.579 339.019 339.372Z" fill="#D2D2D2"/>
<path d="M280.513 404.288C280.855 405.475 281.208 406.646 281.572 407.801C281.572 406.839 281.572 405.892 281.684 404.946L280.513 404.288Z" fill="#D2D2D2"/>
<path d="M287.666 375.223H322.34L324.97 369.432L275.253 365.598C275.421 378.659 277.176 391.651 280.481 404.288L281.652 404.946C282.293 389.274 283.608 375.928 287.666 375.223Z" fill="#D2D2D2"/>
<path d="M390.003 375.223C382.61 374.356 376.307 373.506 371.511 372.993L325.002 369.432L322.372 375.223H390.003Z" fill="#D2D2D2"/>
<path d="M558.367 273.862L566.081 216.901C566.578 213.18 565.744 209.09 564.141 207.774L552.465 197.957C552.301 197.83 552.117 197.733 551.92 197.669C551.861 197.659 551.802 197.659 551.743 197.669C550.396 197.38 549.113 199.273 548.696 202.369L540.405 263.66C541.367 267.59 539.539 272.466 546.323 279.027C549.402 282.812 553.78 279.332 558.367 273.862ZM546.499 274.808C546.756 273.044 547.429 271.696 548.103 271.776C548.777 271.857 548.969 273.381 548.712 275.097C548.456 276.813 547.798 278.209 547.205 278.129C546.611 278.048 546.259 276.557 546.499 274.808Z" fill="#E9E9E9"/>
<path d="M541.72 277.006L553.459 286.807C553.671 287.006 553.94 287.133 554.228 287.171C554.516 287.208 554.808 287.154 555.063 287.015H555.159C555.262 286.943 555.353 286.856 555.432 286.759C555.82 286.366 556.13 285.903 556.346 285.395C556.341 285.358 556.341 285.32 556.346 285.283C556.421 285.08 556.501 284.855 556.587 284.609C556.617 284.489 556.654 284.372 556.699 284.256C556.699 284.048 556.811 283.855 556.859 283.647C556.908 283.438 557.004 282.909 557.068 282.492L558.223 273.91C553.636 279.38 549.258 282.861 546.114 279.027C539.33 272.466 541.158 267.59 540.196 263.66L539.619 267.911C539.266 271.6 540.116 275.691 541.72 277.006Z" fill="#E9E9E9"/>
<path d="M552.465 197.958L558.463 198.166C558.19 197.939 557.854 197.8 557.501 197.765L551.503 197.557H551.743H551.92C552.126 197.654 552.311 197.79 552.465 197.958Z" fill="#BCBCBC"/>
<path d="M551.679 197.621C551.738 197.611 551.797 197.611 551.855 197.621H551.679Z" fill="#BCBCBC"/>
<path d="M564.141 207.775C565.744 209.09 566.578 213.18 566.081 216.902L558.367 273.862C560.789 270.959 563.275 267.526 565.696 264.238L572.111 217.046C572.609 213.309 571.743 209.234 570.171 207.919L558.431 198.102L552.433 197.894L564.141 207.775Z" fill="#BCBCBC"/>
<path d="M557.276 282.443C557.276 282.86 557.148 283.245 557.068 283.598C556.988 283.951 556.956 283.999 556.908 284.208C556.863 284.323 556.825 284.441 556.795 284.56C556.72 284.796 556.64 285.02 556.555 285.234C556.549 285.271 556.549 285.309 556.555 285.346C556.343 285.857 556.032 286.32 555.641 286.71C555.562 286.808 555.47 286.894 555.368 286.967H555.272C555.061 287.117 554.809 287.201 554.55 287.207L560.532 287.416C561.783 287.416 562.938 285.603 563.339 282.603L565.824 264.253C563.403 267.461 560.917 270.91 558.495 273.877L557.276 282.443Z" fill="#BCBCBC"/>
<path d="M556.843 284.207C556.843 283.999 556.956 283.806 557.004 283.598C556.956 283.806 556.891 283.999 556.843 284.207Z" fill="#BCBCBC"/>
<path d="M556.491 285.234C556.566 285.031 556.646 284.807 556.731 284.561C556.656 284.807 556.576 285.031 556.491 285.234Z" fill="#BCBCBC"/>
<path d="M556.426 285.347C556.21 285.855 555.9 286.318 555.512 286.711C555.904 286.321 556.214 285.857 556.426 285.347Z" fill="#BCBCBC"/>
<path d="M547.124 278.128C547.718 278.128 548.391 276.861 548.632 275.097C548.873 273.332 548.632 271.888 548.023 271.776C547.413 271.664 546.756 273.043 546.419 274.808C546.082 276.572 546.531 278.048 547.124 278.128Z" fill="#AFB9C5"/>
<path d="M105.622 62.1895C121.804 62.1895 134.923 49.0686 134.923 32.8832C134.923 16.6978 121.804 3.5769 105.622 3.5769C89.4393 3.5769 76.3208 16.6978 76.3208 32.8832C76.3208 49.0686 89.4393 62.1895 105.622 62.1895Z" fill="#F2463A"/>
</svg>
