<svg width="380" height="399" viewBox="0 0 380 399" fill="none" xmlns="http://www.w3.org/2000/svg">
<path d="M10.1632 20.3263C15.7761 20.3263 20.3263 15.7761 20.3263 10.1631C20.3263 4.55019 15.7761 0 10.1632 0C4.5502 0 0 4.55019 0 10.1631C0 15.7761 4.5502 20.3263 10.1632 20.3263Z" fill="#EC5049"/>
<path d="M64.741 20.3263C70.354 20.3263 74.9042 15.7761 74.9042 10.1631C74.9042 4.55019 70.354 0 64.741 0C59.1281 0 54.5779 4.55019 54.5779 10.1631C54.5779 15.7761 59.1281 20.3263 64.741 20.3263Z" fill="#EC5049"/>
<path d="M119.914 20.3263C125.527 20.3263 130.077 15.7761 130.077 10.1631C130.077 4.55019 125.527 0 119.914 0C114.301 0 109.751 4.55019 109.751 10.1631C109.751 15.7761 114.301 20.3263 119.914 20.3263Z" fill="#EC5049"/>
<path d="M174.492 20.3263C180.105 20.3263 184.655 15.7761 184.655 10.1631C184.655 4.55019 180.105 0 174.492 0C168.879 0 164.329 4.55019 164.329 10.1631C164.329 15.7761 168.879 20.3263 174.492 20.3263Z" fill="#EC5049"/>
<path d="M10.1632 76.0723C15.7761 76.0723 20.3263 71.5221 20.3263 65.9091C20.3263 60.2962 15.7761 55.746 10.1632 55.746C4.5502 55.746 0 60.2962 0 65.9091C0 71.5221 4.5502 76.0723 10.1632 76.0723Z" fill="#EC5049"/>
<path d="M64.741 76.0723C70.354 76.0723 74.9042 71.5221 74.9042 65.9091C74.9042 60.2962 70.354 55.746 64.741 55.746C59.1281 55.746 54.5779 60.2962 54.5779 65.9091C54.5779 71.5221 59.1281 76.0723 64.741 76.0723Z" fill="#EC5049"/>
<path d="M119.914 76.0723C125.527 76.0723 130.077 71.5221 130.077 65.9091C130.077 60.2962 125.527 55.746 119.914 55.746C114.301 55.746 109.751 60.2962 109.751 65.9091C109.751 71.5221 114.301 76.0723 119.914 76.0723Z" fill="#EC5049"/>
<path d="M174.492 76.0723C180.105 76.0723 184.655 71.5221 184.655 65.9091C184.655 60.2962 180.105 55.746 174.492 55.746C168.879 55.746 164.329 60.2962 164.329 65.9091C164.329 71.5221 168.879 76.0723 174.492 76.0723Z" fill="#EC5049"/>
<path d="M10.1632 186.98C15.7761 186.98 20.3263 182.429 20.3263 176.817C20.3263 171.204 15.7761 166.653 10.1632 166.653C4.5502 166.653 0 171.204 0 176.817C0 182.429 4.5502 186.98 10.1632 186.98Z" fill="#EC5049"/>
<path d="M64.741 186.98C70.354 186.98 74.9042 182.429 74.9042 176.817C74.9042 171.204 70.354 166.653 64.741 166.653C59.1281 166.653 54.5779 171.204 54.5779 176.817C54.5779 182.429 59.1281 186.98 64.741 186.98Z" fill="#EC5049"/>
<path d="M119.914 186.98C125.527 186.98 130.077 182.429 130.077 176.817C130.077 171.204 125.527 166.653 119.914 166.653C114.301 166.653 109.751 171.204 109.751 176.817C109.751 182.429 114.301 186.98 119.914 186.98Z" fill="#EC5049"/>
<path d="M174.492 186.98C180.105 186.98 184.655 182.429 184.655 176.817C184.655 171.204 180.105 166.653 174.492 166.653C168.879 166.653 164.329 171.204 164.329 176.817C164.329 182.429 168.879 186.98 174.492 186.98Z" fill="#EC5049"/>
<path d="M10.1632 131.234C15.7761 131.234 20.3263 126.683 20.3263 121.07C20.3263 115.458 15.7761 110.907 10.1632 110.907C4.5502 110.907 0 115.458 0 121.07C0 126.683 4.5502 131.234 10.1632 131.234Z" fill="#EC5049"/>
<path d="M64.741 131.234C70.354 131.234 74.9042 126.683 74.9042 121.07C74.9042 115.458 70.354 110.907 64.741 110.907C59.1281 110.907 54.5779 115.458 54.5779 121.07C54.5779 126.683 59.1281 131.234 64.741 131.234Z" fill="#EC5049"/>
<path d="M119.914 131.234C125.527 131.234 130.077 126.683 130.077 121.07C130.077 115.458 125.527 110.907 119.914 110.907C114.301 110.907 109.751 115.458 109.751 121.07C109.751 126.683 114.301 131.234 119.914 131.234Z" fill="#EC5049"/>
<path d="M174.492 131.234C180.105 131.234 184.655 126.683 184.655 121.07C184.655 115.458 180.105 110.907 174.492 110.907C168.879 110.907 164.329 115.458 164.329 121.07C164.329 126.683 168.879 131.234 174.492 131.234Z" fill="#EC5049"/>
<path d="M227.913 20.3263C233.526 20.3263 238.076 15.7761 238.076 10.1631C238.076 4.55019 233.526 0 227.913 0C222.3 0 217.75 4.55019 217.75 10.1631C217.75 15.7761 222.3 20.3263 227.913 20.3263Z" fill="#EC5049"/>
<path d="M227.913 76.0723C233.526 76.0723 238.076 71.5221 238.076 65.9091C238.076 60.2962 233.526 55.746 227.913 55.746C222.3 55.746 217.75 60.2962 217.75 65.9091C217.75 71.5221 222.3 76.0723 227.913 76.0723Z" fill="#EC5049"/>
<path d="M227.913 186.98C233.526 186.98 238.076 182.429 238.076 176.817C238.076 171.204 233.526 166.653 227.913 166.653C222.3 166.653 217.75 171.204 217.75 176.817C217.75 182.429 222.3 186.98 227.913 186.98Z" fill="#EC5049"/>
<path d="M10.1632 242.725C15.7761 242.725 20.3263 238.175 20.3263 232.562C20.3263 226.949 15.7761 222.399 10.1632 222.399C4.5502 222.399 0 226.949 0 232.562C0 238.175 4.5502 242.725 10.1632 242.725Z" fill="#EC5049"/>
<path d="M64.741 242.725C70.354 242.725 74.9042 238.175 74.9042 232.562C74.9042 226.949 70.354 222.399 64.741 222.399C59.1281 222.399 54.5779 226.949 54.5779 232.562C54.5779 238.175 59.1281 242.725 64.741 242.725Z" fill="#EC5049"/>
<path d="M119.914 242.725C125.527 242.725 130.077 238.175 130.077 232.562C130.077 226.949 125.527 222.399 119.914 222.399C114.301 222.399 109.751 226.949 109.751 232.562C109.751 238.175 114.301 242.725 119.914 242.725Z" fill="#EC5049"/>
<path d="M174.492 242.725C180.105 242.725 184.655 238.175 184.655 232.562C184.655 226.949 180.105 222.399 174.492 222.399C168.879 222.399 164.329 226.949 164.329 232.562C164.329 238.175 168.879 242.725 174.492 242.725Z" fill="#EC5049"/>
<path d="M227.913 242.725C233.526 242.725 238.076 238.175 238.076 232.562C238.076 226.949 233.526 222.399 227.913 222.399C222.3 222.399 217.75 226.949 217.75 232.562C217.75 238.175 222.3 242.725 227.913 242.725Z" fill="#EC5049"/>
<path d="M227.913 131.234C233.526 131.234 238.076 126.683 238.076 121.07C238.076 115.458 233.526 110.907 227.913 110.907C222.3 110.907 217.75 115.458 217.75 121.07C217.75 126.683 222.3 131.234 227.913 131.234Z" fill="#EC5049"/>
<path d="M90.3565 202.589L140.645 135.434L147.719 135.917L148.157 238.391L132.121 259.818L138.657 283.266L202.915 276.528L218.805 288.51C226.745 281.48 250.407 286.141 278.122 276.326C285.587 273.603 292.182 268.921 297.213 262.771C297.939 252.989 297.239 243.154 295.136 233.573C294.653 232.326 293.721 229.351 295.136 226.835C295.452 226.344 295.83 225.895 296.259 225.499C296.132 225.291 296.041 225.063 295.989 224.825C295.911 224.489 295.911 224.139 295.989 223.803C296.588 221.246 297.704 218.838 299.268 216.728V216.425C292.003 220.782 284.872 222.905 281.503 222.04C273.091 219.872 272.305 189.102 278.819 176.974C278.998 176.648 279.2 176.334 279.414 176.019C279.205 175.731 279.068 175.398 279.013 175.046C278.958 174.695 278.988 174.336 279.099 173.998C280.837 172.113 282.781 170.429 284.894 168.978C285.703 168.484 286.522 168.023 287.376 167.608H287.23C286.635 167.81 286.927 166.564 287.499 166.114C290.195 164.082 300.481 163.341 309.465 165.205C315.947 166.595 322.027 169.445 327.242 173.537C331.577 177.131 334.542 182.847 336.069 188.462C337.641 194.319 337.966 200.44 337.024 206.43C336.833 207.744 336.406 209.002 336.17 210.293C335.98 211.731 335.687 213.153 335.294 214.549C335.002 215.414 334.519 216.268 334.272 217.132C334.06 218.098 334.091 219.101 334.362 220.052C334.686 221.705 335.136 223.331 335.71 224.915C335.874 225.464 336.005 226.023 336.103 226.588C336.176 226.902 336.176 227.229 336.103 227.543C336.038 227.859 335.9 228.155 335.699 228.407C335.518 228.646 335.29 228.845 335.029 228.992C334.769 229.139 334.48 229.23 334.183 229.261C334.35 230.309 334.452 231.367 334.486 232.428C334.351 237.818 349.085 247.734 352.454 250.396C359.192 255.651 360.775 272.272 363.684 305.22C381.225 268.324 384.217 226.173 372.064 187.169C359.911 148.165 333.506 115.173 298.112 94.7701C293.972 92.3444 289.712 90.1209 285.332 88.0995C281.387 86.2203 277.366 84.5321 273.271 83.0347C272.148 82.608 270.924 82.17 269.734 81.7657C269.037 81.5187 268.33 81.2828 267.6 81.0582C254.39 76.7263 240.678 74.107 226.801 73.2646C225.409 73.1748 223.994 73.1074 222.601 73.085C220.692 72.9951 218.783 72.9727 216.863 72.9727C208.971 72.9766 201.09 73.547 193.28 74.6796C191.842 74.8817 190.405 75.1176 188.99 75.3647C184.093 76.2181 179.287 77.2812 174.57 78.554C169.171 80.0045 163.848 81.7287 158.624 83.7198C153.48 85.7337 148.461 87.9797 143.564 90.4578C108.069 108.4 80.3845 138.735 65.7544 175.719C51.1242 212.704 50.5639 253.769 64.1794 291.138L90.7159 288.331L90.3565 202.589Z" fill="#1F244D"/>
<path d="M287.443 300.1H287.499C291.513 290.624 294.452 280.729 296.259 270.598C296.641 268.352 296.989 265.668 297.213 262.737C296.944 265.668 296.641 268.352 296.214 270.598C294.405 280.73 291.463 290.625 287.443 300.1Z" fill="#3F3D56"/>
<path d="M112.491 286.028L117.32 285.523L117.735 279.021L112.491 286.028Z" fill="#3F3D56"/>
<path d="M303.143 213.202C302.638 211.955 302.177 210.697 301.694 209.462L301.458 208.822L300.616 207.497C298.842 204.734 297.056 201.983 295.349 199.164C292.392 194.019 289.137 189.051 285.602 184.284C284.479 182.914 283.423 181.567 282.367 180.186C281.761 179.399 281.166 178.591 280.604 177.782C280.151 177.208 279.741 176.6 279.38 175.963C279.167 176.277 278.965 176.592 278.785 176.918C272.272 189.046 273.058 219.816 281.469 221.984C284.838 222.848 291.969 220.726 299.235 216.369V216.672C299.392 216.492 299.527 216.335 299.662 216.2C301.133 214.819 302.975 214.426 303.143 213.202Z" fill="#F2F2F2"/>
<path d="M282.367 180.185C283.423 181.567 284.479 182.914 285.602 184.284C289.137 189.05 292.392 194.019 295.349 199.164C297.056 201.983 298.842 204.779 300.616 207.497L301.458 208.822L301.694 209.462C302.177 210.697 302.638 211.955 303.143 213.202C303.143 213.202 303.143 213.202 303.143 213.134C303.559 208.081 301.548 203.24 300.077 198.535C298.325 192.92 297.034 187.193 295.226 181.578C294.44 179.152 290.431 166.911 287.365 167.552C286.511 167.967 285.692 168.427 284.883 168.922C282.77 170.373 280.826 172.057 279.088 173.941C278.977 174.279 278.947 174.639 279.002 174.99C279.057 175.341 279.194 175.675 279.403 175.963C279.764 176.6 280.173 177.208 280.627 177.782C281.166 178.591 281.761 179.399 282.367 180.185Z" fill="#2C2C2C"/>
<path d="M328.826 222.286C330.053 222.206 331.262 222.609 332.195 223.409C332.775 224.036 333.165 224.815 333.318 225.655C333.674 226.826 333.947 228.019 334.138 229.227C334.436 229.196 334.724 229.105 334.985 228.958C335.246 228.811 335.473 228.612 335.654 228.373C335.855 228.121 335.994 227.825 336.058 227.508C336.131 227.194 336.131 226.868 336.058 226.554C335.961 225.989 335.829 225.43 335.665 224.881C335.092 223.297 334.641 221.671 334.318 220.018C334.046 219.067 334.016 218.064 334.228 217.098C334.475 216.234 334.958 215.38 335.25 214.515C335.643 213.119 335.935 211.697 336.126 210.259C336.361 208.968 336.788 207.71 336.979 206.396C337.922 200.406 337.597 194.285 336.025 188.428C334.497 182.813 331.533 177.097 327.198 173.503C321.982 169.411 315.903 166.561 309.421 165.171C300.437 163.306 290.15 164.048 287.455 166.08C286.882 166.529 286.59 167.776 287.185 167.574H287.331C290.431 166.934 294.44 179.174 295.192 181.6C297 187.215 298.292 192.942 300.044 198.557C301.515 203.263 303.525 208.103 303.109 213.156C303.109 213.156 303.109 213.156 303.109 213.224C302.941 214.347 301.088 214.841 299.662 216.222C299.527 216.357 299.392 216.514 299.235 216.694C297.671 218.804 296.555 221.212 295.956 223.769C295.877 224.105 295.877 224.455 295.956 224.791C296.007 225.029 296.099 225.257 296.225 225.465C296.57 225.126 296.946 224.821 297.348 224.555C302.469 221.388 327.602 222.286 328.826 222.286Z" fill="#E9E9E9"/>
<path d="M73.2759 311.655C85.2614 334.273 102.437 353.727 123.395 368.423C126.892 370.909 130.493 373.229 134.199 375.386C137.837 377.553 141.554 379.586 145.429 381.45C148.562 382.988 151.729 384.403 154.941 385.728V373.151L73.2759 311.655Z" fill="#5C63AB"/>
<path d="M352.409 250.362C349.04 247.7 334.306 237.784 334.441 232.394C334.407 231.333 334.306 230.275 334.138 229.227C333.947 228.019 333.673 226.826 333.318 225.656C333.165 224.815 332.775 224.036 332.195 223.41C331.262 222.61 330.053 222.206 328.826 222.287C327.602 222.287 302.469 221.388 297.382 224.533C296.979 224.799 296.603 225.104 296.259 225.442C295.83 225.838 295.452 226.287 295.136 226.779C293.721 229.294 294.653 232.27 295.136 233.517C297.239 243.097 297.939 252.933 297.214 262.715C304.861 253.888 310.386 242.837 318.247 233.157L325.412 237.907C316.293 258.896 308.915 283.625 292.643 298.448C290.936 299.032 289.218 299.571 287.5 300.077H287.443C256.46 309.33 223.219 309.566 214.954 318.045C214.718 318.292 214.482 318.55 214.28 318.808C209.698 324.906 203.05 321.212 199.681 322.177V340.146C202.634 338.708 211.776 343.773 221.782 344.638C226.274 345.031 256.875 346.603 283.928 337.473L309.196 356.564H309.51V356.845L310.633 357.687L309.51 357.81V369.04C332.796 352.861 351.448 330.876 363.617 305.265C360.731 272.238 359.136 255.617 352.409 250.362Z" fill="#F2463A"/>
<path d="M204.184 314.373V313.373C194.863 318.067 190.031 319.49 189.686 317.641C189.102 314.272 193.628 313.25 193.594 310.903C193.589 310.703 193.539 310.508 193.448 310.33L184.026 323.424C188.795 324.103 193.506 325.139 198.12 326.524L199.681 326.378V322.234C203.05 321.268 209.698 324.963 214.28 318.865C214.482 318.606 214.718 318.348 214.954 318.101C206.879 317.248 206.711 313.104 204.184 314.373Z" fill="#8991DC"/>
<path d="M154.884 373.151V372.87L309.196 356.564L283.928 337.473C256.875 346.603 226.251 345.031 221.781 344.638C211.775 343.773 202.69 338.708 199.681 340.146V338.034C185.969 342.616 179.085 343.818 179.085 341.594C179.085 338.158 183.667 337.9 184.071 335.575C184.329 334.115 182.083 332.285 178.95 330.421L175.637 335.025L142.992 333.902L142.924 330.151L169.876 294.698L201.062 295.821L201.118 299.055L204.184 299.325V297.528C207.194 296.629 213.595 295.147 217.66 289.667C217.996 289.229 218.372 288.823 218.783 288.454L202.893 276.472L138.634 283.21L139.578 286.579L156.277 287.196L156.344 290.958L130.886 326.468L98.2401 325.345L98.1727 321.594L116.534 297.427L117.286 285.568L112.457 286.073L97.8583 305.591L90.7721 305.097L90.7047 288.375L64.1794 291.138C66.7378 298.177 69.7771 305.033 73.2758 311.655L154.884 373.151ZM108.583 327.669L108.718 328.276H108.179L108.583 327.669Z" fill="#8991DC"/>
<path d="M310.633 357.665L309.51 356.811V357.777L310.633 357.665Z" fill="#F2463A"/>
<path d="M201.118 299.123L201.062 295.888L198.816 298.977C199.613 299.01 200.366 299.066 201.118 299.123Z" fill="#A6A6A6"/>
<path d="M191.842 308.758L181.5 323.132L184.026 323.469L193.448 310.375C193.073 309.698 192.517 309.138 191.842 308.758Z" fill="#A6A6A6"/>
<path d="M175.57 331.33L143.003 330.207L143.07 333.958L175.716 335.081L179.029 330.477C178.411 330.106 177.749 329.735 177.075 329.354L175.57 331.33Z" fill="#A6A6A6"/>
<path d="M189.63 307.522L180.23 320.909H175.671L186.171 306.152L184.296 305.512L172.426 322.458C175.473 322.526 178.497 322.735 181.499 323.087L191.842 308.713C191.135 308.263 190.395 307.865 189.63 307.522Z" fill="#BCBCBC"/>
<path d="M176.996 329.365C175.66 328.635 174.245 327.916 172.841 327.209C171.907 326.784 171.04 326.224 170.269 325.547L167.327 329.735L146.159 328.882L170.865 295.641L190.562 296.539L188.833 298.987C192.158 298.813 195.491 298.813 198.816 298.987L201.062 295.899L169.876 294.776L142.924 330.229L175.491 331.352L176.996 329.365Z" fill="#BCBCBC"/>
<path d="M181.05 304.501C174.919 302.66 177.681 300.672 179.624 299.92C182.69 299.459 185.778 299.156 188.866 298.988L190.573 296.539L170.876 295.641L146.17 328.882L167.305 329.735L170.247 325.547C168.383 323.761 170.584 322.773 172.178 322.447H172.403L184.34 305.512C183.217 305.164 182.094 304.827 181.05 304.501Z" fill="#E9E9E9"/>
<path d="M180.23 320.909L189.63 307.523C188.597 307.051 187.384 306.602 186.171 306.153L175.671 320.909H180.23Z" fill="#E9E9E9"/>
<path d="M287.5 300.077C289.218 299.561 290.936 299.033 292.643 298.449C308.915 283.625 316.293 258.897 325.412 237.908L318.247 233.158C310.386 242.838 304.861 253.888 297.213 262.715C296.989 265.646 296.641 268.33 296.259 270.576C294.452 280.706 291.513 290.602 287.5 300.077Z" fill="#F2463A"/>
<path d="M108.583 327.681L108.179 328.265L108.718 328.287L108.583 327.681Z" fill="#D2D2D2"/>
<path d="M188.833 298.988C185.744 299.156 182.656 299.459 179.59 299.92C177.647 300.672 174.885 302.66 181.016 304.502C182.139 304.827 183.195 305.164 184.262 305.512L186.137 306.152C187.384 306.602 188.563 307.051 189.596 307.522C190.373 307.864 191.124 308.261 191.842 308.713C192.517 309.093 193.073 309.653 193.448 310.33C193.539 310.508 193.588 310.703 193.594 310.903C193.594 313.25 189.102 314.272 189.686 317.641C190.023 319.497 194.856 318.075 204.184 313.373V299.392L201.118 299.122C200.366 299.122 199.613 299.01 198.872 298.976C195.528 298.804 192.177 298.808 188.833 298.988Z" fill="#F2F2F2"/>
<path d="M204.184 314.373C206.711 313.104 206.879 317.248 214.954 318.101C223.219 309.589 256.505 309.353 287.443 300.133C291.467 290.641 294.409 280.726 296.214 270.576C296.641 268.33 296.944 265.646 297.213 262.715C292.182 268.865 285.588 273.547 278.122 276.269C250.407 286.085 226.745 281.424 218.806 288.454C218.395 288.823 218.019 289.229 217.683 289.667C213.617 295.147 207.216 296.629 204.207 297.528V314.373H204.184Z" fill="#D23B30"/>
<path d="M309.51 356.811V356.53H309.196L154.884 372.87V385.728C176.066 394.483 198.86 398.654 221.769 397.969C244.678 397.284 267.182 391.757 287.803 381.753C289.813 380.798 291.789 379.776 293.721 378.732C299.168 375.797 304.443 372.553 309.522 369.018V356.811H309.51Z" fill="#4B518C"/>
<path d="M198.12 326.524C193.506 325.14 188.795 324.103 184.026 323.425L181.5 323.088C178.505 322.743 175.48 322.534 172.426 322.459H172.201C170.606 322.784 168.405 323.773 170.27 325.558C171.04 326.236 171.907 326.796 172.841 327.22C174.245 327.928 175.66 328.646 176.996 329.376C177.67 329.747 178.333 330.118 178.95 330.499C182.084 332.364 184.33 334.194 184.071 335.654C183.667 337.979 179.063 338.237 179.085 341.673C179.085 343.919 185.969 342.695 199.681 338.113V326.378L198.12 326.524Z" fill="#F2F2F2"/>
<path d="M118.286 319.471L115.164 319.258L116.556 297.382L98.2063 321.56L130.818 322.717L156.299 287.275L139.6 286.646L140.487 289.824L118.286 319.471Z" fill="#BCBCBC"/>
<path d="M98.2063 321.56H98.1726L98.24 325.311L130.886 326.479L156.367 291.037L156.299 287.275L130.818 322.717L98.2063 321.56Z" fill="#A6A6A6"/>
<path d="M147.72 135.928L140.645 135.445L90.3567 202.601L90.716 288.33L90.7834 305.063L97.8696 305.557L97.4316 203.095L147.72 135.928Z" fill="#BCBCBC"/>
<path d="M118.286 319.472L121.161 274.45L117.735 279.021L117.32 285.523L116.556 297.382L115.164 319.258L118.286 319.472Z" fill="#A6A6A6"/>
<path d="M148.158 238.39L147.72 135.917L97.4316 203.083L97.8696 305.546L112.469 286.028L117.713 279.021L121.149 274.439L118.263 319.46L140.544 289.813L139.656 286.646L138.713 283.277L132.177 259.828L148.158 238.39ZM100.419 287.611L99.9809 205.352L145.339 143.811L145.766 226.071L100.419 287.611Z" fill="#D2D2D2"/>
<path d="M145.339 143.823L99.9807 205.363L100.419 287.623L145.765 226.082L145.339 143.823Z" fill="#E9E9E9"/>
</svg>
