<svg width="19" height="19" viewBox="0 0 19 19" fill="none" xmlns="http://www.w3.org/2000/svg">
<path d="M8.99901 4.377C6.44501 4.377 4.37601 6.447 4.37601 9C4.37601 11.554 6.44501 13.624 8.99901 13.624C11.551 13.624 13.622 11.554 13.622 9C13.622 6.447 11.551 4.377 8.99901 4.377ZM8.99901 12.004C7.34001 12.004 5.99501 10.659 5.99501 9.00101C5.99501 7.34201 7.34001 5.998 8.99901 5.998C10.658 5.998 12.001 7.34201 12.001 9.00101C12.001 10.659 10.658 12.004 8.99901 12.004Z" fill="#4D4D4D"/>
<path d="M13.806 5.285C14.4014 5.285 14.884 4.80237 14.884 4.207C14.884 3.61164 14.4014 3.129 13.806 3.129C13.2107 3.129 12.728 3.61164 12.728 4.207C12.728 4.80237 13.2107 5.285 13.806 5.285Z" fill="#4D4D4D"/>
<path d="M17.533 3.111C17.064 1.902 16.109 0.946005 14.9 0.479005C14.201 0.216005 13.462 0.0750048 12.714 0.0590048C11.751 0.0170048 11.446 0.00500488 9.00401 0.00500488C6.56201 0.00500488 6.24901 0.00500478 5.29401 0.0590048C4.54801 0.0740048 3.80901 0.215005 3.11001 0.479005C1.90001 0.946005 0.945014 1.902 0.477014 3.111C0.214014 3.811 0.0730142 4.549 0.0580142 5.297C0.0150142 6.259 0.00201416 6.564 0.00201416 9.007C0.00201416 11.449 0.00201415 11.76 0.0580142 12.717C0.0730142 13.465 0.214014 14.203 0.477014 14.904C0.946014 16.112 1.90101 17.068 3.11101 17.536C3.80701 17.808 4.54601 17.962 5.29601 17.986C6.25901 18.028 6.56401 18.041 9.00601 18.041C11.448 18.041 11.761 18.041 12.716 17.986C13.463 17.971 14.202 17.829 14.902 17.567C16.111 17.098 17.066 16.143 17.535 14.934C17.798 14.234 17.939 13.496 17.954 12.748C17.997 11.786 18.01 11.481 18.01 9.038C18.01 6.59501 18.01 6.285 17.954 5.328C17.941 4.57 17.801 3.819 17.533 3.111ZM16.315 12.643C16.308 13.219 16.204 13.79 16.004 14.331C15.699 15.118 15.078 15.74 14.292 16.042C13.757 16.241 13.193 16.345 12.622 16.353C11.672 16.397 11.404 16.408 8.96801 16.408C6.53001 16.408 6.28101 16.408 5.31301 16.353C4.74401 16.346 4.17801 16.241 3.64401 16.042C2.85501 15.741 2.23001 15.119 1.92501 14.331C1.72901 13.797 1.62301 13.232 1.61401 12.662C1.57101 11.712 1.56101 11.444 1.56101 9.00801C1.56101 6.571 1.56101 6.322 1.61401 5.353C1.62101 4.777 1.72501 4.207 1.92501 3.666C2.23001 2.877 2.85501 2.256 3.64401 1.954C4.17801 1.756 4.74401 1.651 5.31301 1.643C6.26401 1.6 6.53101 1.588 8.96801 1.588C11.405 1.588 11.655 1.588 12.622 1.643C13.193 1.65 13.757 1.755 14.292 1.954C15.078 2.257 15.699 2.879 16.004 3.666C16.2 4.2 16.306 4.765 16.315 5.335C16.358 6.28601 16.369 6.553 16.369 8.99C16.369 11.426 16.369 11.688 16.326 12.644H16.315V12.643Z" fill="#4D4D4D"/>
</svg>
