<svg width="148" height="60" viewBox="0 0 148 60" fill="none" xmlns="http://www.w3.org/2000/svg">
    <path fill-rule="evenodd" clip-rule="evenodd" d="M59.4721 40.1818C57.8336 40.1818 56.3862 41.1875 55.646 42.6316C50.9724 51.7497 41.3969 58 30.3436 58C14.6899 58 2 45.464 2 30C2 14.536 14.6899 2 30.3436 2C41.3969 2 50.9723 8.25034 55.646 17.3684C56.3861 18.8125 57.8336 19.8182 59.4721 19.8182L72.3404 19.8182C73.6704 19.8182 74.9125 20.4748 75.6503 21.5681L76.3128 22.5498C77.8874 24.8831 81.3581 24.8831 82.9327 22.5498L84.0196 20.9392C84.4922 20.2388 85.2879 19.8182 86.14 19.8182C86.9074 19.8182 87.6339 20.1598 88.1179 20.7482L90.7682 23.9706C91.1662 24.4545 91.9139 24.4545 92.3119 23.9706L94.5332 21.2699C95.2886 20.3514 96.4227 19.8182 97.6206 19.8182L100.712 19.8182C101.936 19.8182 103.093 20.3753 103.847 21.3286L105.894 23.9181C106.293 24.4216 107.064 24.4216 107.462 23.9181L109.51 21.3286C110.264 20.3753 111.42 19.8182 112.644 19.8182H115.735C116.933 19.8182 118.067 20.3514 118.823 21.2699L121.044 23.9706C121.442 24.4545 122.19 24.4545 122.588 23.9706L124.809 21.2699C125.564 20.3514 126.699 19.8182 127.896 19.8182L133.916 19.8182C133.993 19.8182 134.055 19.88 134.055 19.9563C134.055 20.0025 134.079 20.0457 134.118 20.0713L144.229 26.7302C146.59 28.2857 146.59 31.7143 144.229 33.2698L134.118 39.9287C134.079 39.9543 134.055 39.9974 134.055 40.0436C134.055 40.1199 133.993 40.1818 133.916 40.1818H59.4721ZM31.6318 30C31.6318 34.2174 28.171 37.6363 23.9018 37.6363C19.6326 37.6363 16.1717 34.2174 16.1717 30C16.1717 25.7825 19.6326 22.3636 23.9018 22.3636C28.171 22.3636 31.6318 25.7825 31.6318 30Z" stroke="#797979" stroke-width="4"/>
</svg>
