<svg width="600" height="474" viewBox="0 0 600 474" fill="none" xmlns="http://www.w3.org/2000/svg">
<path d="M1.0027 391.415C31.1373 377.974 65.3476 379.708 96.9564 386.386C130.386 393.453 162.559 405.767 196.292 411.49C214.98 414.656 234.058 415.783 252.876 412.835C253.7 412.705 253.353 411.447 252.529 411.577C217.581 416.997 182.634 408.325 149.204 398.873C117.205 389.811 84.8159 379.752 51.1692 380.012C33.7388 380.142 16.3518 383.177 0.352315 390.288C-0.428149 390.635 0.222238 391.762 1.0027 391.415Z" fill="#E8E8E8"/>
<path d="M169.756 402.602C210.601 403.426 250.144 392.109 290.078 385.388C301.741 383.437 313.492 381.876 325.329 381.096C326.153 381.052 326.153 379.752 325.329 379.795C284.441 382.483 245.028 394.711 204.444 399.48C192.953 400.824 181.377 401.561 169.8 401.344C168.889 401.301 168.889 402.602 169.756 402.602Z" fill="#E8E8E8"/>
<path d="M360.666 388.033C375.192 384.911 390.237 384.391 404.936 386.646C418.464 388.727 431.429 393.193 444.219 397.962C456.837 402.645 469.368 407.632 482.462 410.97C495.99 414.396 509.735 415.263 523.697 415.263C540.173 415.263 556.78 414.612 572.953 418.255C573.776 418.428 574.123 417.171 573.299 416.997C544.726 410.58 515.112 417.084 486.538 410.58C459.872 404.51 435.504 390.852 408.535 385.952C392.579 383.047 376.189 383.394 360.363 386.776C359.496 386.949 359.843 388.207 360.666 388.033Z" fill="#E8E8E8"/>
<path d="M123.839 221.317C120.11 220.19 112.782 217.112 115.514 211.909C117.465 208.18 123.275 207.876 126.874 208.006C139.015 208.353 151.155 209.394 163.296 208.396C174.699 207.443 185.582 204.191 196.682 201.589C207.956 198.901 219.879 196.95 231.24 200.245C236.226 201.676 240.865 204.061 245.765 205.708C248.106 206.489 250.534 207.096 253.006 207.356C255.954 207.659 258.903 207.226 261.808 207.096C264.799 206.966 267.878 207.052 270.436 208.83C272.778 210.434 274.729 213.469 273.211 216.288C271.043 220.364 264.713 219.236 261.071 218.456C250.274 216.201 239.391 215.507 228.421 216.982C222.611 217.762 216.931 219.193 211.381 220.971C205.398 222.878 199.587 224.569 193.214 223.702C187.273 222.878 181.593 220.971 175.566 220.754C169.54 220.494 163.556 221.274 157.616 222.055C146.082 223.616 133.768 225.61 122.972 220.017C122.235 219.626 121.584 220.754 122.321 221.144C132.424 226.39 143.828 225.176 154.754 223.746C160.477 222.965 166.244 222.141 172.054 222.011C178.428 221.881 184.368 223.355 190.569 224.569C196.899 225.783 202.623 225.133 208.78 223.225C214.893 221.317 220.92 219.453 227.251 218.499C233.798 217.502 240.432 217.242 247.022 217.719C252.876 218.109 258.469 219.67 264.236 220.32C267.661 220.71 272.04 220.58 274.165 217.372C276.593 213.686 273.992 209.394 270.653 207.356C265.58 204.277 259.293 206.445 253.786 206.098C247.716 205.708 242.123 202.89 236.529 200.722C224.909 196.213 213.029 196.776 201.018 199.334C188.314 202.023 175.957 206.142 162.949 207.182C155.448 207.789 147.86 207.659 140.359 207.356C136.457 207.182 132.511 207.009 128.609 206.836C126.18 206.749 123.796 206.705 121.411 207.182C117.725 207.92 113.52 210.087 113.78 214.467C114.083 219.28 119.633 221.491 123.536 222.662C124.273 222.835 124.619 221.578 123.839 221.317Z" fill="#E8E8E8"/>
<path d="M443.829 61.3657C440.1 60.8454 433.987 59.5013 432.903 55.2521C431.342 49.3553 439.753 47.4908 443.829 46.7537C455.753 44.7158 467.98 46.5803 479.991 46.5803C503.795 46.5369 527.252 42.0276 550.926 40.3366C562.763 39.4694 574.687 39.3393 586.481 40.8569C589.169 41.2038 591.987 41.4639 594.589 42.2444C595.673 42.5479 596.887 43.0682 597.711 43.8487C599.705 45.7998 597.754 47.5775 595.933 48.5314C591.25 51.0029 585.917 52.0002 580.671 52.217C570.178 52.6939 559.728 50.526 549.235 50.9162C544.336 51.0896 539.523 51.9135 534.883 53.6045C529.463 55.599 524.434 58.4173 518.971 60.2818C512.64 62.4497 505.963 63.5337 499.242 63.5337C492.435 63.5337 485.714 62.4931 478.993 61.7126C465.379 60.1517 451.721 60.195 438.149 62.0161C437.325 62.1462 437.325 63.447 438.149 63.3169C451.417 61.5392 464.858 61.4091 478.17 62.9267C484.76 63.6638 491.351 64.7044 498.028 64.8345C504.185 64.9645 510.385 64.1841 516.326 62.4931C522.396 60.7587 527.946 57.7669 533.799 55.4255C539.479 53.1709 545.333 52.1736 551.403 52.1736C562.59 52.0869 573.82 54.6017 585.006 53.1275C587.738 52.7806 590.383 52.1736 592.984 51.2197C594.979 50.4826 597.667 49.5721 599.098 47.8811C601.786 44.6291 597.884 41.7674 594.979 40.9436C589.256 39.2526 582.795 38.9491 576.855 38.6022C570.394 38.212 563.934 38.2553 557.473 38.5588C531.328 39.8163 505.486 45.2795 479.254 45.1928C471.796 45.1928 464.338 44.499 456.88 44.4557C450.55 44.4123 443.309 44.5424 437.369 47.0139C433.64 48.5748 429.998 52.217 432.079 56.5095C434.03 60.5419 439.537 61.9294 443.526 62.4931C444.306 62.7532 444.653 61.4958 443.829 61.3657Z" fill="#E8E8E8"/>
<path d="M24.5034 120.551C60.6648 104.855 100.295 119.51 133.638 135.25C150.635 143.271 167.372 151.856 185.105 158.187C202.492 164.387 220.573 168.68 238.914 171.151C275.726 176.137 313.405 173.926 349.61 165.818C387.549 157.319 423.494 141.884 461.13 132.215C500.283 122.155 541.214 119.987 581.148 126.448C586.004 127.228 590.817 128.139 595.629 129.179C596.453 129.353 596.8 128.095 595.976 127.922C557.213 119.684 516.933 119.293 478.083 127.011C439.233 134.729 402.681 150.512 364.569 160.788C327.584 170.761 288.951 174.793 250.751 171.194C231.76 169.417 212.942 165.731 194.731 160.008C175.913 154.111 158.266 145.526 140.532 137.027C108.49 121.635 72.3284 106.026 36.0802 115.174C31.8744 116.215 27.842 117.646 23.853 119.38C23.1159 119.77 23.7662 120.898 24.5034 120.551Z" fill="#E8E8E8"/>
<path d="M172.878 105.028C215.24 128.659 265.667 130.437 312.668 123.846C365.87 116.388 417.12 98.828 470.408 91.9772C500.066 88.1616 530.331 87.6847 559.685 94.1886C560.509 94.362 560.855 93.1046 560.032 92.9311C508.131 81.4843 454.886 91.587 404.069 103.424C353.989 115.088 303.346 128.702 251.445 125.364C224.345 123.629 197.376 117.169 173.529 103.901C172.835 103.467 172.184 104.595 172.878 105.028Z" fill="#E8E8E8"/>
<path d="M46.3997 24.0769C82.8213 15.4051 121.671 18.8304 156.011 33.7893C172.878 41.117 188.704 50.656 205.267 58.5907C221.961 66.5688 239.391 72.0754 257.775 74.5469C278.804 77.3652 300.094 76.8883 321.166 75.5008C321.99 75.4574 321.99 74.1567 321.166 74.2C302.132 75.4574 282.924 75.9778 263.932 73.9832C244.681 71.9454 226.297 66.9157 208.736 58.8075C192.043 51.0463 176.26 41.5073 159.48 33.9628C143.004 26.4183 125.53 21.432 107.536 19.3074C87.0271 16.8359 66.1281 18.05 46.0528 22.8195C45.229 22.9929 45.5758 24.2503 46.3997 24.0769Z" fill="#E8E8E8"/>
<path d="M415.819 286.876C412.004 286.096 405.76 284.145 405.456 279.419C405.283 276.514 407.711 274.389 410.269 273.609C413.348 272.611 416.6 273.522 419.592 274.389C425.055 275.993 430.561 277.294 436.285 277.511C441.618 277.728 446.908 276.947 452.068 275.56C457.617 274.085 463.037 272.091 468.544 270.53C474.354 268.882 480.294 268.015 486.365 267.929C497.941 267.755 509.388 269.836 520.922 270.313C526.689 270.53 532.369 270.227 538.049 269.359C544.206 268.405 550.493 266.975 556.78 267.712C561.289 268.232 568.53 271.267 567.056 277.077C565.755 282.15 558.557 285.012 554.135 286.443C531.935 293.64 509.041 281.673 486.538 284.839C473.574 286.66 461.346 292.123 448.252 293.164C442.268 293.64 436.111 293.25 430.431 291.126C425.228 289.131 420.545 284.795 414.605 285.836C413.781 285.966 414.128 287.223 414.952 287.093C418.508 286.486 421.629 288.177 424.621 289.825C427.049 291.126 429.477 292.34 432.122 293.12C437.542 294.768 443.352 294.985 448.989 294.464C461.39 293.294 473.053 288.394 485.324 286.399C498.852 284.232 512.163 287.353 525.518 289.131C536.401 290.562 548.065 290.909 558.297 286.356C562.2 284.622 567.403 281.847 568.4 277.251C569.311 273.132 566.145 269.836 562.72 268.145C557.647 265.674 551.533 266.151 546.157 266.888C539.61 267.755 533.236 269.143 526.602 269.229C513.681 269.446 500.933 266.801 488.056 266.758C481.899 266.758 475.785 267.452 469.801 269.012C463.861 270.573 458.094 272.741 452.198 274.346C444.913 276.297 437.586 276.904 430.128 275.733C426.399 275.126 422.887 274.085 419.288 273.045C416.6 272.264 413.695 271.614 410.876 272.221C406.671 273.132 402.855 277.121 404.719 281.587C406.41 285.662 411.57 287.44 415.559 288.264C416.253 288.307 416.6 287.05 415.819 286.876Z" fill="#E8E8E8"/>
<path d="M221.267 458.102C237.483 454.199 253.353 448.866 268.659 442.232C276.593 438.763 284.355 434.818 292.81 432.736C300.918 430.699 309.329 430.092 317.698 430.308C327.367 430.525 336.949 431.826 346.488 433.344C347.312 433.474 347.659 432.216 346.835 432.086C330.575 429.528 313.839 427.447 297.492 430.395C289.081 431.913 281.363 435.121 273.645 438.633C265.537 442.319 257.342 445.657 248.93 448.606C239.738 451.814 230.416 454.589 220.92 456.844C220.096 457.018 220.443 458.275 221.267 458.102Z" fill="#161616"/>
<path d="M323.724 430.785C331.009 430.612 338.206 429.571 345.231 427.533C352.385 425.495 359.452 422.634 367.04 423.371C370.899 423.718 374.671 424.802 378.4 425.756C382.303 426.753 386.162 427.75 390.064 428.747C397.565 430.655 405.023 432.563 412.524 434.471C413.348 434.688 413.695 433.43 412.871 433.213C405.11 431.219 397.348 429.268 389.587 427.273C382.476 425.452 375.192 423.024 367.907 422.157C360.753 421.333 353.989 423.544 347.225 425.626C339.551 427.967 331.746 429.311 323.768 429.528C322.901 429.484 322.901 430.785 323.724 430.785Z" fill="#161616"/>
<path d="M399.646 437.506C416.686 433.734 434.594 430.482 451.894 434.471C460.479 436.465 468.544 440.281 476.565 443.793C484.977 447.522 493.432 451.207 501.844 454.936C502.624 455.283 503.275 454.156 502.494 453.809C489.313 447.999 476.262 441.712 462.821 436.552C449.813 431.566 436.285 430.569 422.497 432.129C414.692 433.04 406.931 434.558 399.256 436.292C398.476 436.422 398.823 437.679 399.646 437.506Z" fill="#161616"/>
<path d="M245.591 473.147C250.057 472.367 254.567 471.586 259.033 470.806C263.499 470.025 268.008 469.028 272.517 468.551C276.68 468.117 280.929 468.855 285.048 469.245C289.601 469.722 294.197 470.155 298.75 470.632C299.574 470.719 299.574 469.418 298.75 469.332C294.197 468.855 289.601 468.421 285.048 467.944C280.626 467.51 276.16 466.773 271.694 467.337C262.848 468.421 254.046 470.372 245.245 471.89C244.421 472.063 244.768 473.321 245.591 473.147Z" fill="#161616"/>
<path d="M125.834 277.598C128.803 277.598 131.21 275.19 131.21 272.221C131.21 269.252 128.803 266.845 125.834 266.845C122.864 266.845 120.457 269.252 120.457 272.221C120.457 275.19 122.864 277.598 125.834 277.598Z" fill="#F2463A"/>
<path d="M140.359 289.391C141.915 289.391 143.177 288.13 143.177 286.573C143.177 285.016 141.915 283.755 140.359 283.755C138.802 283.755 137.541 285.016 137.541 286.573C137.541 288.13 138.802 289.391 140.359 289.391Z" fill="#F2463A"/>
<path d="M442.745 14.1043C446.409 14.1043 449.379 11.1342 449.379 7.47037C449.379 3.80654 446.409 0.836426 442.745 0.836426C439.081 0.836426 436.111 3.80654 436.111 7.47037C436.111 11.1342 439.081 14.1043 442.745 14.1043Z" fill="#F2463A"/>
<path d="M458.181 21.6054C460.264 21.6054 461.953 19.9165 461.953 17.8332C461.953 15.7498 460.264 14.0609 458.181 14.0609C456.098 14.0609 454.409 15.7498 454.409 17.8332C454.409 19.9165 456.098 21.6054 458.181 21.6054Z" fill="#F2463A"/>
<path d="M455.666 20.0445C459.139 20.0445 461.953 17.2297 461.953 13.7574C461.953 10.2852 459.139 7.47037 455.666 7.47037C452.194 7.47037 449.379 10.2852 449.379 13.7574C449.379 17.2297 452.194 20.0445 455.666 20.0445Z" fill="#5C63AB"/>
<path d="M440.621 343.59C445.314 343.59 449.119 339.785 449.119 335.092C449.119 330.398 445.314 326.593 440.621 326.593C435.927 326.593 432.122 330.398 432.122 335.092C432.122 339.785 435.927 343.59 440.621 343.59Z" fill="#5C63AB"/>
<path d="M132.077 18.3101C135.071 18.3101 137.497 15.8836 137.497 12.8903C137.497 9.89694 135.071 7.47037 132.077 7.47037C129.084 7.47037 126.657 9.89694 126.657 12.8903C126.657 15.8836 129.084 18.3101 132.077 18.3101Z" fill="#5C63AB"/>
<path d="M217.842 388.944C221.505 388.944 224.476 385.974 224.476 382.31C224.476 378.646 221.505 375.676 217.842 375.676C214.178 375.676 211.208 378.646 211.208 382.31C211.208 385.974 214.178 388.944 217.842 388.944Z" fill="#5C63AB"/>
<path d="M265.71 264.156C264.8 263.766 265.84 262.162 266.317 261.945C266.881 261.685 268.008 262.032 268.615 262.205C269.569 262.509 270.393 263.029 271.347 263.289C272.387 263.593 273.645 263.679 274.642 263.202C278.111 261.425 273.992 255.441 279.065 255.441C281.84 255.441 284.181 259.56 286.479 256.482C287.303 255.398 287.65 254.01 288.083 252.709C288.43 251.582 288.734 250.411 289.514 249.501C290.425 248.46 293.2 247.42 293.503 249.674C293.59 250.498 294.934 250.498 294.804 249.674C294.587 248.113 293.46 247.073 291.856 246.986C289.948 246.856 288.56 248.287 287.78 249.848C287.216 250.932 286.956 252.146 286.566 253.316C286.306 254.14 285.959 255.571 285.222 256.091C284.441 256.612 283.834 256.048 283.184 255.658C281.493 254.531 279.455 253.663 277.417 254.4C275.553 255.094 274.815 256.699 274.902 258.606C274.902 259.17 275.076 259.864 275.032 260.427C274.729 262.422 273.385 262.509 271.997 262.205C270.61 261.902 269.439 261.034 268.008 260.774C266.491 260.471 264.973 260.861 264.279 262.379C263.716 263.679 264.062 264.98 265.363 265.5C266.144 265.717 266.491 264.46 265.71 264.156Z" fill="#5C63AB"/>
<path d="M288.083 266.237C287.433 265.24 287.433 263.983 288.127 262.986C289.124 261.555 290.511 261.772 292.029 261.988C293.156 262.162 294.544 262.379 295.368 261.381C295.931 260.731 295.845 259.95 296.061 259.213C296.365 258.129 297.059 257.175 297.969 256.525C299.877 255.138 302.565 254.921 304.473 256.395C304.95 256.742 305.514 256.525 305.6 255.918C306.121 251.712 310.283 248.59 314.446 249.327C315.27 249.458 315.616 248.2 314.793 248.07C309.72 247.203 304.907 250.845 304.3 255.918C304.69 255.745 305.037 255.615 305.427 255.441C303.649 254.054 301.395 253.707 299.27 254.444C296.842 255.268 295.715 256.872 294.804 259.127C294.37 260.254 293.85 260.948 292.593 260.774C291.899 260.688 291.249 260.514 290.555 260.471C289.558 260.427 288.69 260.688 287.91 261.338C286.262 262.725 285.829 265.11 286.999 266.931C287.433 267.625 288.56 266.975 288.083 266.237Z" fill="#5C63AB"/>
<path d="M310.023 28.9331C309.286 28.2394 309.503 27.8058 310.63 27.589C311.107 26.9386 311.627 26.8085 312.191 27.2421C312.972 27.4156 313.492 28.1093 314.055 28.6296C314.749 29.2366 315.356 29.9304 316.137 30.4073C317.221 31.0144 318.565 31.2745 319.692 30.7108C321.08 30.0171 321.123 28.6296 321.6 27.3288C322.901 23.8601 327.323 23.5132 329.405 26.4616C329.665 26.8085 330.315 26.9386 330.532 26.4616C331.356 24.5105 332.396 22.2992 334.261 21.1285C336.125 19.9578 339.247 20.0879 340.071 22.516C340.331 23.2964 341.589 22.9496 341.328 22.1691C340.505 19.8277 338.12 18.7871 335.735 19.1773C332.44 19.741 330.619 23.0363 329.405 25.8113C329.795 25.8113 330.142 25.8113 330.532 25.8113C329.014 23.6433 326.413 22.4726 323.811 23.4265C322.727 23.8167 321.73 24.5972 321.08 25.5945C320.733 26.1148 320.516 26.6784 320.299 27.2855C320.169 27.6757 320.169 28.1527 319.952 28.4995C319.389 29.4534 317.828 29.8437 316.83 29.28C314.706 28.1093 312.625 24.3804 309.676 25.898C308.029 26.7218 307.812 29.0632 309.373 30.0605C310.11 30.494 310.76 29.3667 310.023 28.9331Z" fill="#F2463A"/>
<path d="M337.86 28.5862C337.556 24.2503 343.106 25.6812 345.317 26.7652C346.445 27.3288 347.832 28.3694 349.046 27.4155C349.436 27.112 349.61 26.6784 349.783 26.2448C350.434 24.814 350.867 23.7734 352.602 23.2531C355.29 22.4726 357.891 24.1636 360.059 25.5511C360.753 25.9847 361.404 24.8574 360.71 24.4238C358.412 22.9929 355.81 21.3886 352.992 21.8656C352.081 21.9957 351.171 22.3425 350.434 22.9062C349.306 23.73 349.09 25.1609 347.962 25.8546C346.878 26.505 346.445 25.8546 345.361 25.3343C344.797 25.0741 344.233 24.814 343.626 24.5972C342.499 24.207 341.285 24.0335 340.114 24.2937C338.076 24.7706 336.429 26.4183 336.559 28.5862C336.602 29.4101 337.903 29.4101 337.86 28.5862Z" fill="#F2463A"/>
<path d="M463.341 208.18C460.479 201.893 471.319 199.118 472.056 205.708C472.316 207.92 471.102 210.261 468.847 210.868C466.333 211.518 463.644 209.827 462.951 207.399C462.734 206.575 461.476 206.922 461.693 207.746C462.56 210.868 465.986 212.949 469.194 212.125C472.36 211.302 473.92 207.789 473.183 204.754C472.403 201.546 469.064 199.985 465.986 200.809C462.387 201.763 460.696 205.535 462.214 208.917C462.56 209.611 463.688 208.917 463.341 208.18Z" fill="#F2463A"/>
<path d="M471.406 213.166C469.064 212.949 468.197 209.827 469.801 208.266C471.146 206.922 473.444 207.009 474.874 208.136C476.349 209.307 477.779 212.732 476.132 214.38C473.964 216.548 471.319 213.036 470.278 211.475C469.801 210.781 468.674 211.432 469.151 212.125C470.669 214.467 474.137 218.152 477.042 215.291C479.34 213.036 477.693 208.483 475.438 206.879C473.14 205.231 469.368 205.795 468.067 208.483C466.766 211.085 468.674 214.207 471.449 214.467C472.229 214.553 472.229 213.253 471.406 213.166Z" fill="#F2463A"/>
<path d="M77.5315 158.664C79.2659 158.577 80.1764 157.406 81.3905 156.322C84.2522 153.764 87.5475 156.192 89.3686 158.707C91.1029 161.092 93.6178 162.783 95.8291 159.921C96.8697 158.577 97.39 156.582 98.8209 155.628C101.726 153.677 104.197 157.536 106.018 159.227C108.1 161.135 112.392 162.002 113.346 158.447C113.563 157.623 112.306 157.276 112.089 158.1C111.612 159.964 109.357 159.921 108.013 159.141C106.972 158.533 106.235 157.58 105.411 156.756C104.197 155.455 102.853 154.198 101.032 153.851C98.0404 153.33 96.6963 156.019 95.3521 158.187C95.0053 158.794 94.5717 159.617 93.9213 159.964C92.3604 160.788 91.233 159.141 90.4092 158.057C89.3686 156.582 88.1979 155.325 86.5069 154.544C85.1194 153.894 83.4717 153.677 82.0409 154.284C80.3932 154.978 79.3526 157.319 77.4882 157.406C76.7077 157.406 76.7077 158.707 77.5315 158.664Z" fill="#F2463A"/>
<path d="M107.84 149.732C109.661 151.9 112.913 154.805 115.774 152.42C116.468 151.813 116.858 150.946 117.595 150.339C118.679 149.515 120.11 149.341 121.368 149.732C124.099 150.469 125.704 153.07 127.134 155.282C127.395 155.672 128.045 155.759 128.262 155.282C130.126 151.206 135.112 150.209 139.015 151.769C139.795 152.073 140.142 150.816 139.362 150.512C134.982 148.734 129.216 150.035 127.134 154.588C127.525 154.588 127.871 154.588 128.262 154.588C126.311 151.553 123.839 148.084 119.763 148.214C118.332 148.257 117.032 148.864 116.078 149.905C114.95 151.206 113.997 152.246 112.132 151.683C110.701 151.249 109.661 149.905 108.707 148.778C108.23 148.171 107.319 149.081 107.84 149.732Z" fill="#F2463A"/>
<path d="M185.929 195.085C185.366 193.958 184.715 192.787 184.195 191.616C183.631 190.402 183.891 189.925 184.629 188.885C185.582 187.541 187.057 186.327 188.748 187.237C189.962 187.888 190.742 189.362 191.089 190.619C191.696 192.744 191.176 195.779 188.704 196.473C186.666 197.036 184.022 195.779 184.108 193.438C184.108 192.614 182.807 192.614 182.807 193.438C182.721 196.343 185.626 198.164 188.314 197.86C191.609 197.47 192.997 194.001 192.52 191.053C192.043 188.191 189.398 184.549 186.103 185.893C184.498 186.543 183.284 188.234 182.547 189.752C182.114 190.663 182.2 190.706 182.634 191.616C183.328 193.004 184.022 194.391 184.715 195.736C185.192 196.473 186.32 195.822 185.929 195.085Z" fill="#5C63AB"/>
<path d="M190.742 203.584C189.095 201.632 186.276 197.817 188.704 195.389C190.439 193.654 193.56 194.305 194.991 196.039C196.466 197.817 196.769 201.286 194.471 202.586C192.52 203.714 189.702 202.63 189.355 200.375C189.225 199.551 187.967 199.898 188.097 200.722C188.618 203.67 192.216 205.058 194.818 203.887C197.983 202.413 198.113 198.034 196.249 195.475C194.471 193.004 190.569 192.137 188.141 194.175C184.629 197.08 187.664 201.849 189.875 204.451C190.352 205.145 191.262 204.234 190.742 203.584Z" fill="#F2463A"/>
<path d="M447.125 115.825C447.168 112.009 452.414 113.137 454.669 113.397C456.62 113.613 458.398 113.353 460.132 112.399C462.04 111.402 463.601 109.841 465.465 108.757C466.68 108.02 468.154 107.37 469.585 107.37C471.102 107.413 472.056 108.324 473.4 108.887C476.522 110.145 478.517 107.24 480.468 105.332C484.327 101.56 489.833 103.121 494.343 104.681C495.123 104.942 495.47 103.684 494.689 103.424C490.657 102.037 485.541 100.519 481.552 102.817C479.644 103.901 478.517 105.896 476.782 107.153C474.311 108.931 472.229 106.112 469.628 106.069C464.035 105.982 461.086 112.443 455.45 112.139C453.021 112.009 450.68 111.099 448.339 112.183C446.821 112.876 445.867 114.09 445.824 115.781C445.78 116.649 447.081 116.649 447.125 115.825Z" fill="#5C63AB"/>
<path d="M479.557 114.351C482.332 110.405 487.535 108.497 492.218 109.841C494.256 110.448 496.164 112.096 498.418 111.966C500.283 111.836 501.28 110.318 502.537 109.147C504.575 107.283 507.22 105.765 510.082 105.852C511.816 105.896 513.16 106.546 514.505 107.673C514.938 108.063 515.285 108.41 515.892 108.584C516.759 108.801 517.54 108.41 518.32 108.063C519.664 107.456 521.052 106.936 522.483 106.546C525.431 105.809 528.423 105.679 531.415 106.069C532.238 106.156 532.238 104.855 531.415 104.768C528.553 104.378 525.691 104.465 522.873 105.115C521.616 105.419 520.358 105.809 519.144 106.286C518.19 106.676 517.713 106.936 516.629 106.936C515.459 106.936 515.545 106.763 514.765 106.156C511.079 103.337 506.136 104.638 502.798 107.283C501.887 107.977 501.15 108.931 500.283 109.624C498.202 111.272 496.554 110.231 494.429 109.278C492.608 108.454 490.7 108.063 488.706 108.15C484.587 108.324 480.858 110.362 478.517 113.7C477.953 114.394 479.08 115.044 479.557 114.351Z" fill="#5C63AB"/>
<path d="M385.251 405.16C386.075 410.363 386.899 415.61 387.679 420.813C370.552 426.363 362.141 429.875 362.488 431.349C362.921 433.17 376.623 431.826 403.592 427.447C402.031 419.209 400.513 410.97 398.953 402.732C394.356 403.513 389.804 404.336 385.251 405.16Z" fill="black"/>
<path d="M348.396 230.943C348.092 236.84 347.659 245.252 347.268 255.441C346.878 266.238 346.661 271.874 346.705 278.812C346.705 281.803 346.835 293.987 348.396 309.683C349.697 322.908 351.734 342.68 358.975 367.004C361.837 376.63 366.26 389.551 373.154 404.293C376.319 404.77 380.048 405.03 384.297 404.857C392.275 404.466 398.736 402.515 403.202 400.694C401.901 396.445 400.08 390.418 398.172 383.177C395.614 373.378 388.243 343.85 385.381 304.177C383.95 284.232 383.43 259.343 385.945 230.726C373.457 230.77 360.927 230.857 348.396 230.943Z" fill="white"/>
<path opacity="0.09" d="M384.861 234.282C384.037 237.404 382.953 241.913 381.782 247.376C378.747 261.815 375.625 282.41 375.929 317.228C376.102 338.647 377.62 368.262 383.17 404.033C385.338 403.816 387.549 403.556 389.847 403.209C394.66 402.472 399.126 401.518 403.202 400.434C401.381 394.537 398.866 385.779 396.264 375.112C387.029 337.086 384.427 304.827 383.734 283.538C383.343 270.877 383.343 254.097 384.861 234.282Z" fill="#606060"/>
<path d="M384.991 232.071C380.655 275.95 383.343 320.48 392.926 363.535C395.657 375.763 398.909 387.816 402.725 399.74C402.985 400.521 404.242 400.174 403.982 399.393C390.628 357.465 383.95 313.499 384.297 269.489C384.384 257.002 385.078 244.471 386.292 232.027C386.378 231.247 385.078 231.247 384.991 232.071Z" fill="#161616"/>
<path d="M346.618 270.964C345.014 306.518 350 342.289 361.187 376.066C364.309 385.518 367.951 394.797 372.07 403.859C372.417 404.64 373.544 403.946 373.197 403.209C358.672 370.906 350.13 336.002 348.092 300.665C347.529 290.779 347.485 280.893 347.919 270.964C347.962 270.097 346.661 270.14 346.618 270.964Z" fill="#161616"/>
<path d="M372.59 404.25C374.064 405.897 377.446 405.507 379.441 405.55C382.476 405.594 385.555 405.29 388.546 404.857C391.798 404.38 395.05 403.686 398.259 402.905C399.863 402.515 403.202 402.428 404.026 400.651C404.372 399.914 403.245 399.22 402.898 400C402.508 400.911 400.34 401.084 399.516 401.258C398.302 401.561 397.131 401.821 395.917 402.125C393.619 402.645 391.365 403.122 389.067 403.469C386.682 403.859 384.297 404.119 381.912 404.206C380.091 404.293 374.888 404.857 373.544 403.339C372.937 402.689 372.027 403.643 372.59 404.25Z" fill="#161616"/>
<path d="M335.605 230.683C334.347 233.415 332.656 238.618 331.442 243.214C329.925 249.067 329.535 252.579 328.667 257.696C327.063 267.148 325.979 268.752 323.638 279.115C321.166 290.215 320.039 298.757 319.172 305.564C318.478 310.854 317.221 321.65 316.657 335.612C316.397 341.639 316.267 345.194 316.397 350.094C316.744 365.487 319.215 377.41 320.299 382.093C323.204 394.971 327.453 405.984 331.703 414.916C333.654 415.913 336.602 417.171 340.331 417.994C344.927 418.992 350.824 420.292 356.461 417.431C358.021 416.65 361.577 414.482 364.265 409.366C362.184 403.686 359.626 395.621 357.588 385.735C352.558 361.194 354.379 341.769 355.637 329.542C357.978 306.431 363.355 289.088 372.59 259.17C375.712 249.111 378.487 240.959 380.395 235.539C381.045 231.247 382.563 218.369 375.669 212.993C365.566 205.014 342.022 216.851 335.605 230.683Z" fill="white"/>
<path opacity="0.08" d="M374.281 253.75C371.463 258.216 367.56 264.85 363.702 273.218C358.932 283.538 351.908 301.662 348.136 337.78C346.054 357.508 344.667 385.128 347.875 418.471C349.22 418.601 354.943 419.078 359.843 415.133C362.357 413.095 363.658 410.753 364.309 409.279C362.184 403.426 359.452 394.841 357.371 384.218C351.214 353.259 355.073 328.371 357.935 311.028C360.276 296.546 364.829 276.557 374.281 253.75Z" fill="#606060"/>
<path d="M342.412 417.908C343.886 423.198 345.361 428.531 346.835 433.82C323.594 440.888 312.191 445.311 312.581 447.045C313.015 449.04 328.841 447.565 360.059 442.622C359.236 434.124 358.412 425.669 357.631 417.171C352.515 417.387 347.442 417.648 342.412 417.908Z" fill="black"/>
<path d="M335.128 231.203C330.532 242.824 328.19 255.138 325.719 267.365C323.117 280.156 320.603 292.947 318.782 305.868C315.399 329.802 314.359 354.3 318.998 378.147C321.47 390.982 325.632 403.469 331.746 415.003C332.136 415.74 333.263 415.089 332.873 414.352C309.676 370.256 316.7 318.659 326.153 271.874C328.884 258.303 331.312 244.471 336.429 231.55C336.689 230.77 335.431 230.423 335.128 231.203Z" fill="#161616"/>
<path d="M373.717 253.663C359.192 292.383 349.48 334.008 355.116 375.502C356.677 386.949 359.409 398.179 363.398 409.019C363.701 409.8 364.959 409.453 364.655 408.672C350.217 369.692 353.165 326.94 364.005 287.44C367.127 276.123 370.856 264.98 374.975 253.967C375.278 253.186 374.021 252.883 373.717 253.663Z" fill="#161616"/>
<path d="M331.876 414.959C337.99 418.341 345.014 419.772 351.951 418.862C357.631 418.081 364.222 415.48 364.786 408.932C364.872 408.109 363.572 408.109 363.485 408.932C362.878 415.74 354.64 417.561 349.046 417.821C343.279 418.081 337.599 416.65 332.57 413.832C331.789 413.442 331.139 414.569 331.876 414.959Z" fill="#161616"/>
<path d="M344.537 117.689C343.366 119.077 341.719 121.201 340.158 124.02C334.824 133.385 334.478 142.577 334.391 150.642C334.304 162.392 334.217 168.289 335.475 181.08C336.646 193.047 336.949 210.218 332.743 232.114C336.515 234.889 342.022 238.097 349.22 239.788C369.945 244.645 387.116 232.548 390.367 230.206C386.248 206.055 383.994 186.717 382.693 173.146C381.869 164.56 378.834 152.073 372.807 127.055C370.986 119.424 369.122 112.139 363.485 110.058C355.68 107.11 346.098 116.172 344.537 117.689Z" fill="#F2463A"/>
<path opacity="0.1" d="M363.268 110.665C363.962 113.483 364.959 117.733 365.956 122.979C367.257 129.743 368.991 139.976 370.205 155.195C371.463 170.891 372.894 200.332 373.327 238.401C376.276 237.534 379.831 236.233 383.603 234.152C386.118 232.764 388.286 231.29 390.107 229.903C389.804 226.564 389.24 221.491 388.33 215.377C387.159 207.703 385.988 202.37 385.424 199.725C384.037 192.874 382.476 182.641 382.303 168.419C380.525 160.875 379.181 154.805 378.27 150.772C375.755 139.325 375.018 135.12 373.11 128.182C371.203 121.201 369.208 115.651 367.951 112.313C366.39 111.706 364.829 111.185 363.268 110.665Z" fill="#606060"/>
<path d="M344.494 121.852C344.884 122.632 345.534 122.892 346.965 123.586C348.179 124.193 349.35 124.93 350.564 125.451C354.293 127.055 358.672 134.166 359.366 135.293C362.011 139.586 365.089 144.615 366.867 151.9C367.344 153.807 368.428 158.75 367.17 175.444C365.826 192.57 364.092 194.955 365.436 203.497C366.433 209.697 367.691 217.112 373.804 221.144C379.484 224.873 386.032 223.572 387.376 223.312C395.614 221.708 400.297 215.334 404.849 209.134C411.787 199.725 414.432 190.316 415.559 184.853C416.079 182.294 415.993 174.793 415.863 159.834C415.689 144.398 415.429 139.065 411.397 134.556C408.665 131.521 405.326 130.09 403.028 129.353C403.202 128.399 403.245 126.968 402.465 125.754C400.99 123.499 397.478 123.543 395.224 123.586C385.555 123.846 378.357 130.35 378.01 130.654C371.983 136.247 370.206 143.098 369.642 145.959C368.428 140.583 366.433 136.464 364.872 133.819C363.528 131.521 361.534 129.179 357.501 124.41C354.336 120.681 352.819 119.25 350.434 118.47C349.913 118.296 345.968 117.126 344.667 118.903C344.06 119.727 344.06 120.985 344.494 121.852Z" fill="white"/>
<path opacity="0.11" d="M344.19 120.247C344.45 119.77 347.355 120.854 347.659 120.985C351.951 122.632 355.767 126.058 360.667 133.992C363.181 138.068 366.347 143.835 369.035 151.336C370.943 149.385 372.547 147.78 373.804 146.566C373.804 146.566 378.444 142.1 385.945 137.765C386.682 137.331 387.593 136.811 388.243 137.201C389.587 137.938 388.156 141.537 388.546 144.875C388.85 147.39 390.324 150.859 395.918 154.718C396.048 155.455 396.091 156.496 395.484 157.189C394.27 158.534 391.148 157.45 389.544 156.886C386.942 155.975 381.913 153.591 375.972 146.61C375.409 148.864 374.672 152.073 374.108 156.019C373.588 159.444 372.157 170.848 374.541 185.503C375.495 191.313 377.273 199.074 380.915 207.92C382.52 208.613 384.557 209.264 386.986 209.654C392.059 210.434 396.264 209.437 398.693 208.657C397.262 209.35 395.31 210.521 393.619 212.559C391.582 215.03 391.538 216.895 389.847 219.193C388.72 220.754 386.682 222.705 382.91 224.092C381.739 223.962 379.961 223.659 378.01 222.792C372.07 220.147 369.382 214.553 368.168 211.952C366.563 208.44 364.092 201.329 366.433 177.265C367.777 163.52 369.252 159.227 366.997 151.379C365.263 145.352 362.271 140.366 361.23 138.675C359.366 135.64 356.027 130.22 349.957 125.234C347.095 122.806 343.93 120.811 344.19 120.247Z" fill="#606060"/>
<path d="M392.536 129.96C391.755 131 390.758 132.518 389.977 134.513C389.544 135.683 388.503 138.415 388.763 141.884C389.24 148.778 394.183 152.984 395.094 153.721C395.701 154.198 396.221 154.588 396.568 154.805C396.048 156.582 395.441 159.227 395.224 162.479C394.877 167.075 394.53 172.235 397.218 173.753C398.953 174.706 401.554 174.056 402.985 172.669C403.332 172.322 404.329 171.238 404.589 166.338C404.893 160.528 403.679 158.1 405.413 156.409C406.15 155.628 407.408 155.151 408.492 154.675C409.706 154.154 410.79 153.894 411.57 153.721C411.093 157.276 410.746 160.441 410.486 162.999C410.183 166.165 410.053 167.769 411.137 168.766C412.134 169.677 413.781 169.85 415.039 169.287C416.687 168.549 417.207 166.512 418.117 162.436C418.854 159.227 419.462 156.539 419.071 152.897C418.855 151.032 418.464 149.515 418.117 148.474C418.031 147.737 417.814 146.653 417.467 145.396C416.73 142.881 416.036 142.144 415.603 140.539C414.952 138.241 415.689 137.114 415.863 134.513C416.036 132.475 415.863 129.57 414.389 125.927C413.825 125.971 412.654 126.058 411.44 126.881C409.966 127.835 409.359 129.223 409.142 129.7C408.015 129.44 405.977 129.179 403.635 129.83C399.603 130.914 397.478 133.906 396.915 134.816C398.042 132.345 397.088 129.916 395.571 129.309C394.27 128.746 392.709 129.873 392.536 129.96Z" fill="black"/>
<path d="M397.435 143.401C397.869 142.577 400.037 140.756 400.774 142.274C401.121 143.011 402.248 142.361 401.901 141.623C401.424 140.626 400.253 140.323 399.213 140.539C397.955 140.756 396.915 141.623 396.308 142.751C395.918 143.488 397.045 144.138 397.435 143.401Z" fill="white"/>
<path d="M410.139 140.063C410.399 139.499 410.66 138.848 411.093 138.415C411.527 137.981 412.828 137.504 412.871 138.502C412.914 139.325 414.215 139.325 414.172 138.502C414.085 137.244 413.001 136.42 411.744 136.594C410.313 136.854 409.576 138.155 409.012 139.369C408.665 140.149 409.792 140.843 410.139 140.063Z" fill="white"/>
<path d="M410.486 144.182C410.486 144.225 410.486 144.268 410.486 144.312C410.399 144.398 410.313 144.485 410.269 144.529C410.053 144.659 409.706 144.529 409.749 144.268C409.749 144.268 409.749 144.138 409.792 144.182L409.662 144.312C409.966 144.312 410.269 144.312 410.573 144.312C410.53 144.268 410.53 144.268 410.486 144.225C410.53 144.268 410.53 144.268 410.53 144.268C410.486 144.225 410.53 144.225 410.53 144.312C410.573 144.572 410.443 144.745 410.096 144.875C409.966 144.832 409.879 144.832 409.749 144.789C409.576 144.702 409.619 144.442 409.662 144.312C409.706 144.268 409.662 144.268 409.619 144.355C409.662 144.312 409.662 144.312 409.619 144.355C409.315 144.572 409.185 144.919 409.402 145.266C409.576 145.526 410.009 145.699 410.313 145.482C410.616 145.266 410.92 144.962 410.963 144.529C410.963 144.052 410.616 143.618 410.139 143.618C409.662 143.618 409.315 143.922 409.272 144.398C409.229 144.745 409.446 145.049 409.662 145.266C409.923 145.526 410.313 145.482 410.573 145.266C411.137 144.832 411.267 143.921 410.616 143.488C410.313 143.314 409.922 143.271 409.619 143.445C409.229 143.661 409.185 144.182 409.272 144.572C409.315 144.919 409.749 145.092 410.053 145.005C410.399 144.875 410.53 144.529 410.486 144.182Z" fill="white"/>
<path d="M403.549 145.526C402.291 146.263 400.6 145.916 399.776 144.702C399.3 144.008 398.172 144.659 398.649 145.352C399.907 147.13 402.291 147.737 404.242 146.653C404.936 146.22 404.286 145.092 403.549 145.526Z" fill="white"/>
<path d="M402.595 148.344C401.641 149.081 400.817 150.035 400.253 151.119C399.863 151.856 400.991 152.507 401.381 151.77C401.901 150.772 402.638 149.948 403.549 149.255C403.809 149.038 403.766 148.561 403.549 148.344C403.245 148.084 402.855 148.127 402.595 148.344Z" fill="white"/>
<path d="M413.131 143.575C413.998 142.577 414.649 141.45 415.082 140.193C415.342 139.412 414.085 139.065 413.825 139.846C413.478 140.886 412.914 141.84 412.221 142.664C411.7 143.314 412.611 144.225 413.131 143.575Z" fill="white"/>
<path d="M413.218 145.222C414.258 145.005 415.473 144.745 416.296 145.613C416.86 146.22 417.771 145.309 417.207 144.702C416.036 143.445 414.345 143.661 412.828 144.008C412.047 144.138 412.394 145.396 413.218 145.222Z" fill="white"/>
<path d="M343.973 120.854C345.968 117.733 350.694 119.597 353.079 121.158C355.94 122.979 358.108 125.711 360.06 128.442C364.005 133.949 367.517 139.932 368.818 146.653C368.991 147.477 370.249 147.13 370.075 146.306C368.558 138.285 363.875 130.567 358.585 124.41C355.507 120.854 346.792 114.134 342.846 120.247C342.412 120.898 343.54 121.592 343.973 120.854Z" fill="#161616"/>
<path d="M346.662 123.803C357.068 129.656 362.921 140.626 365.87 151.813C366.086 152.637 367.344 152.29 367.127 151.466C364.092 139.976 357.978 128.659 347.312 122.676C346.575 122.242 345.924 123.369 346.662 123.803Z" fill="#161616"/>
<path d="M370.075 146.089C371.159 138.415 376.059 131.998 382.78 128.312C386.248 126.404 390.107 125.234 394.053 124.67C395.917 124.41 398.085 124.15 399.907 124.844C401.901 125.581 403.809 128.746 401.294 130.177C400.557 130.567 401.207 131.694 401.944 131.304C404.719 129.743 404.026 125.754 401.598 124.236C397.825 121.852 391.582 123.543 387.723 124.844C378.184 127.922 370.292 135.64 368.861 145.829C368.688 146.566 369.945 146.913 370.075 146.089Z" fill="#161616"/>
<path d="M372.981 148.041C375.105 145.569 377.793 143.488 380.395 141.537C382.91 139.629 385.598 138.068 388.72 137.374C389.544 137.201 389.197 135.943 388.373 136.117C385.164 136.854 382.346 138.458 379.745 140.409C377.056 142.447 374.281 144.572 372.07 147.13C371.506 147.737 372.417 148.691 372.981 148.041Z" fill="#161616"/>
<path d="M388.893 137.504C389.804 135.423 390.975 133.429 392.405 131.651C392.666 131.347 392.969 130.827 393.316 130.61C393.619 130.047 394.01 130.003 394.573 130.524C395.267 130.524 395.571 130.784 395.571 131.391C396.048 132.301 396.091 133.862 396.264 134.903C396.438 135.727 397.695 135.38 397.522 134.556C397.175 132.908 396.741 127.011 393.619 128.616C392.405 129.223 391.495 130.74 390.714 131.781C389.544 133.385 388.59 135.076 387.766 136.854C387.419 137.591 388.546 138.285 388.893 137.504Z" fill="#161616"/>
<path d="M397.262 135.293C399.473 132.431 403.982 128.486 407.841 130.61C408.578 131 409.229 129.873 408.492 129.483C404.026 127.098 398.996 131 396.308 134.382C395.831 135.033 396.741 135.943 397.262 135.293Z" fill="#161616"/>
<path d="M409.099 130.393C409.706 129.44 412.524 126.014 413.738 126.925C414.389 127.402 414.519 129.093 414.692 129.873C414.952 131.087 415.039 132.301 415.082 133.559C415.126 134.383 416.426 134.383 416.383 133.559C416.34 131.824 416.123 130.133 415.689 128.442C415.429 127.488 415.212 125.667 414.085 125.364C413.044 125.104 411.614 126.101 410.833 126.665C409.662 127.488 408.752 128.529 408.015 129.743C407.538 130.437 408.665 131.087 409.099 130.393Z" fill="#161616"/>
<path d="M374.672 145.916C377.663 148.821 380.829 151.509 384.211 153.937C387.549 156.322 390.801 158.013 395.007 157.796C395.831 157.753 395.831 156.452 395.007 156.496C390.715 156.712 387.549 154.805 384.211 152.377C381.132 150.122 378.27 147.65 375.539 145.005C374.975 144.442 374.065 145.352 374.672 145.916Z" fill="#161616"/>
<path d="M365.913 150.382C370.639 171.368 358.325 194.305 368.515 214.38C370.422 218.152 373.327 221.578 377.316 223.269C381.219 224.916 385.728 224.786 389.76 223.485C398.692 220.624 404.459 212.342 408.882 204.538C411.7 199.638 414.042 194.391 415.429 188.885C416.123 186.153 416.556 183.292 416.686 180.473C416.817 177.221 416.383 173.969 416.513 170.717C416.556 169.894 415.256 169.894 415.212 170.717C415.039 176.007 415.733 181.037 414.692 186.283C413.781 190.966 412.09 195.519 409.966 199.768C406.02 207.746 400.687 216.721 392.492 220.927C388.243 223.095 382.996 223.919 378.444 222.228C373.978 220.58 371.029 216.635 369.122 212.429C365.046 203.28 365.523 192.874 366.607 183.161C367.821 172.148 369.729 161.005 367.257 149.992C366.954 149.255 365.696 149.558 365.913 150.382Z" fill="#161616"/>
<path d="M385.208 193.784C382.78 198.034 381.175 202.63 380.482 207.486C380.352 208.31 381.609 208.657 381.739 207.833C382.433 203.063 383.95 198.597 386.335 194.435C386.769 193.741 385.641 193.091 385.208 193.784Z" fill="#161616"/>
<path d="M386.032 194.261C392.449 193.698 399.213 192.484 405.63 193.177C406.454 193.264 406.454 191.963 405.63 191.877C399.213 191.14 392.449 192.397 386.032 192.961C385.208 193.047 385.208 194.348 386.032 194.261Z" fill="#161616"/>
<path d="M381.132 208.657C384.297 210.521 387.983 210.348 391.538 210.261C395.267 210.131 398.996 209.697 402.248 207.746C402.985 207.313 402.291 206.185 401.598 206.619C398.519 208.483 395.05 208.83 391.538 208.96C388.243 209.09 384.774 209.307 381.782 207.573C381.089 207.139 380.438 208.266 381.132 208.657Z" fill="#161616"/>
<path d="M405.023 192.874C404.199 197.643 402.942 202.24 401.251 206.749C400.947 207.529 402.205 207.876 402.508 207.096C404.243 202.586 405.5 197.947 406.28 193.221C406.411 192.397 405.153 192.05 405.023 192.874Z" fill="#161616"/>
<path d="M384.861 196.039C386.986 200.722 393.012 201.893 397.652 201.936C398.476 201.936 398.476 200.635 397.652 200.635C393.489 200.548 387.896 199.595 385.988 195.345C385.641 194.608 384.514 195.302 384.861 196.039Z" fill="#161616"/>
<path d="M394.227 200.245C394.096 201.329 393.966 202.413 393.836 203.454C393.75 204.277 395.05 204.277 395.137 203.454C395.267 202.37 395.397 201.286 395.527 200.245C395.614 199.421 394.313 199.421 394.227 200.245Z" fill="#161616"/>
<path d="M396.698 200.245C396.568 201.329 396.438 202.413 396.351 203.497C396.264 204.321 397.565 204.321 397.652 203.497C397.782 202.413 397.912 201.329 397.999 200.245C398.085 199.421 396.785 199.421 396.698 200.245Z" fill="#161616"/>
<path d="M397.825 202.066C400.904 201.372 403.462 199.465 405.066 196.776C405.5 196.039 404.373 195.389 403.939 196.126C402.465 198.554 400.21 200.158 397.478 200.809C396.655 201.025 397.002 202.283 397.825 202.066Z" fill="#161616"/>
<path d="M388.33 135.163C387.029 142.838 388.46 151.986 396.308 155.498C397.045 155.845 397.739 154.718 396.958 154.371C389.63 151.076 388.373 142.621 389.587 135.51C389.717 134.686 388.46 134.339 388.33 135.163Z" fill="#161616"/>
<path d="M414.996 133.082C415.082 135.553 415.039 138.068 415.386 140.496C415.733 143.141 418.117 146.089 416.86 148.734C416.513 149.471 417.64 150.165 417.987 149.385C419.115 147 418.117 145.005 417.294 142.664C416.21 139.672 416.47 136.204 416.34 133.038C416.253 132.215 414.952 132.215 414.996 133.082Z" fill="#161616"/>
<path d="M399.863 154.588C401.771 153.591 403.939 154.631 404.373 156.712C404.416 156.929 404.719 156.843 404.676 156.626C404.156 154.328 401.771 153.2 399.69 154.284C399.516 154.414 399.69 154.718 399.863 154.588Z" fill="white"/>
<path d="M403.159 156.799C403.462 157.146 403.679 157.536 403.809 157.97C403.896 158.187 404.199 158.1 404.112 157.883C403.939 157.406 403.679 156.973 403.375 156.582C403.245 156.409 402.985 156.669 403.159 156.799Z" fill="white"/>
<path d="M411.874 153.764C412.264 151.986 413.391 150.512 415.039 149.688C415.212 149.602 415.082 149.298 414.865 149.428C413.131 150.252 411.96 151.813 411.57 153.677C411.527 153.894 411.83 153.981 411.874 153.764Z" fill="white"/>
<path d="M335.518 61.8427C332.526 63.3603 330.012 66.222 328.884 67.4794C326.109 70.6446 324.678 73.593 323.118 76.8883C321.817 79.5766 320.299 83.3922 319.085 88.1617C320.776 88.4652 322.467 88.7253 324.158 89.0289C324.071 90.6765 324.071 93.1046 324.722 95.9663C325.329 98.5679 326.326 102.73 329.795 105.635C334.564 109.711 340.895 108.714 342.065 108.54C342.152 110.578 342.586 113.483 344.233 116.475C344.667 117.212 345.101 117.906 345.534 118.513C347.919 117.819 351.604 116.388 355.203 113.44C364.395 106.026 365.653 94.9691 366.043 91.7605C366.607 86.8175 367.691 77.4953 361.577 69.7774C355.203 61.7993 343.106 58.0271 335.518 61.8427Z" fill="white"/>
<path d="M326.63 70.8614C327.844 69.0403 330.185 66.352 332.83 64.4876C337.079 61.4958 338.987 62.7532 341.155 60.1083C342.716 58.2005 343.713 55.0787 342.542 53.6045C340.678 51.2631 334.044 54.0814 333.177 54.4716C331.269 55.2955 324.982 57.9404 322.467 64.6177C320.386 70.211 321.773 76.3246 322.727 76.4547C322.987 76.4981 323.161 76.0645 324.548 73.9399C325.199 72.8559 325.936 71.8586 326.63 70.8614Z" fill="#5C63AB"/>
<path d="M336.082 57.8103C335.735 58.9376 335.215 61.1923 336.949 65.6149C340.028 73.5497 347.225 80.6606 350.824 79.3598C351.604 79.0563 352.428 78.2758 353.989 78.1891C354.379 78.1891 355.94 78.1024 357.154 79.0563C359.062 80.5738 359.149 83.8691 357.891 85.9937C357.675 86.384 356.504 88.1617 354.726 88.2918C353.165 88.4218 352.645 87.2078 351.388 87.1211C348.309 86.9476 345.664 93.7116 345.317 94.6222C344.624 96.3566 342.933 100.866 344.147 106.633C344.407 107.89 345.014 110.535 346.878 113.267C350.911 119.12 357.675 120.551 360.19 121.071C362.661 121.592 372.07 123.543 379.398 117.472C380.568 116.519 384.427 113.223 385.468 107.63C387.246 98.1776 379.311 91.1101 378.834 90.7199C378.487 85.8203 377.316 78.0157 373.197 69.4739C370.596 64.054 368.168 59.0677 362.661 55.2955C355.42 50.3959 344.884 49.0084 339.377 53.2576C338.813 53.7779 336.949 55.2521 336.082 57.8103Z" fill="#5C63AB"/>
<path d="M327.844 104.335C327.193 104.985 325.285 106.98 324.939 110.101C324.462 114.437 327.367 117.429 327.974 118.036C331.139 121.288 336.429 122.589 340.244 120.638C340.548 120.508 343.886 118.73 344.017 116.172C344.06 115.044 343.453 114.481 342.586 111.966C342.022 110.318 341.675 108.974 341.415 108.063C340.244 108.454 338.25 108.974 335.778 108.627C331.356 108.064 328.624 105.202 327.844 104.335Z" fill="#5C63AB"/>
<path opacity="0.12" d="M336.515 61.6259C336.559 62.97 336.732 64.9646 337.643 67.0892C338.25 68.52 338.857 69.3872 339.334 70.0809C341.155 72.8559 341.762 75.4575 342.716 78.3625C344.233 82.8719 343.973 86.6441 343.67 91.3269C343.41 95.2292 342.542 101.169 339.724 108.064C340.895 108.41 342.586 109.104 344.407 110.318C347.745 112.573 349.263 115.261 350.217 116.519C352.168 119.077 356.504 121.765 366.954 121.592C365.913 120.551 364.439 118.99 362.834 117.082C359.062 112.66 355.767 108.801 353.816 104.118C352.688 101.43 350.954 95.923 352.298 87.9449C353.512 88.5519 354.943 88.5086 356.07 87.7715C357.241 86.991 357.978 85.4301 357.588 83.9992C357.111 82.3516 355.117 81.2242 353.079 81.7445C352.645 80.6606 351.951 79.0996 350.824 77.4086C349.046 74.7637 347.182 73.1161 346.488 72.5091C344.277 70.6013 341.068 67.3493 336.515 61.6259Z" fill="#606060"/>
<path opacity="0.14" d="M319.562 87.3812C319.605 86.6875 321.817 86.1238 323.681 86.2539C325.329 86.384 327.28 87.1211 327.237 87.7715C327.193 88.3785 325.372 88.8554 324.028 88.8988C321.947 88.9855 319.562 88.075 319.562 87.3812Z" fill="#606060"/>
<path d="M324.939 71.2516C322.467 76.6715 320.256 82.1781 318.348 87.8148C318.218 88.1617 318.478 88.5085 318.782 88.5953C320.473 89.2456 322.164 89.5492 323.941 89.5058C324.765 89.5058 324.765 88.205 323.941 88.205C322.25 88.205 320.689 87.9015 319.128 87.3378C319.259 87.598 319.432 87.8582 319.562 88.1183C321.426 82.5683 323.551 77.1485 326.023 71.8586C326.413 71.1649 325.285 70.4711 324.939 71.2516Z" fill="#161616"/>
<path d="M323.768 89.766C324.115 95.3593 324.635 101.56 328.797 105.765C332.787 109.841 338.553 109.494 343.8 108.887C344.624 108.801 344.624 107.5 343.8 107.587C338.944 108.15 333.437 108.627 329.708 104.855C325.806 100.909 325.415 95.0124 325.069 89.766C325.025 88.9421 323.724 88.9421 323.768 89.766Z" fill="#161616"/>
<path d="M341.242 109.017C341.805 112.053 342.846 114.958 344.32 117.646C344.71 118.383 345.838 117.733 345.447 116.995C344.017 114.351 343.063 111.619 342.499 108.671C342.369 107.847 341.111 108.194 341.242 109.017Z" fill="#161616"/>
<path d="M324.635 96.3999C326.76 98.2643 329.925 97.3972 330.749 94.6655C331.009 93.8417 329.751 93.5382 329.491 94.3187C328.971 96.053 326.933 96.7034 325.589 95.446C324.939 94.9257 324.028 95.8362 324.635 96.3999Z" fill="#161616"/>
<path d="M328.624 94.6222C329.318 94.7956 329.838 95.1859 330.272 95.7062C330.489 95.9663 330.966 95.923 331.182 95.7062C331.442 95.446 331.399 95.0558 331.182 94.7956C330.619 94.1019 329.838 93.5816 328.971 93.3648C328.191 93.148 327.844 94.4054 328.624 94.6222Z" fill="#161616"/>
<path d="M330.575 78.4059C330.922 76.5848 333.177 76.9317 334.391 77.5821C335.431 78.1457 336.169 79.0563 336.602 80.1402C336.906 80.9207 338.163 80.5738 337.86 79.7934C337.166 77.9289 335.735 76.4547 333.74 75.9344C331.919 75.4575 329.751 76.0211 329.361 78.059C329.188 78.8828 330.445 79.2297 330.575 78.4059Z" fill="#161616"/>
<path d="M330.532 70.7313C332.483 67.4794 336.299 69.9942 337.079 72.7258C337.296 73.5497 338.553 73.2028 338.337 72.379C337.773 70.3844 336.385 68.52 334.261 67.9997C332.353 67.5661 330.402 68.3899 329.405 70.0376C328.971 70.818 330.098 71.4684 330.532 70.7313Z" fill="#161616"/>
<path d="M331.833 85.7769C332.656 85.7769 332.656 84.4761 331.833 84.4761C331.009 84.4761 330.965 85.7769 331.833 85.7769Z" fill="#161616"/>
<path d="M334.304 83.8258C334.347 83.8258 334.434 83.8258 334.478 83.8258C334.824 83.8258 335.128 83.5223 335.128 83.1754C335.128 82.8285 334.824 82.525 334.478 82.525C334.434 82.525 334.347 82.525 334.304 82.525C333.957 82.525 333.654 82.8285 333.654 83.1754C333.654 83.5656 333.957 83.8258 334.304 83.8258Z" fill="#161616"/>
<path d="M334.348 86.0371C334.348 86.0804 334.348 86.1238 334.348 86.1672C334.348 86.991 335.648 86.991 335.648 86.1672C335.648 86.1238 335.648 86.0804 335.648 86.0371C335.648 85.2133 334.348 85.2133 334.348 86.0371C334.348 86.0804 334.348 86.1238 334.348 86.1672C334.348 86.991 335.648 86.991 335.648 86.1672C335.648 86.1238 335.648 86.0804 335.648 86.0371C335.648 85.2133 334.348 85.2133 334.348 86.0371Z" fill="#161616"/>
<path d="M353.252 79.4031C354.423 77.7121 356.417 78.7961 357.111 80.1836C357.675 81.2676 357.675 82.5683 357.631 83.739C357.458 86.6875 354.986 88.7687 352.125 86.9476C351.431 86.4707 350.781 87.598 351.474 88.075C353.165 89.2023 355.333 89.3324 357.024 88.0316C358.759 86.6875 359.062 84.4761 358.932 82.3949C358.802 80.4004 358.022 78.1891 355.94 77.452C354.466 76.9317 352.992 77.4953 352.125 78.7527C351.691 79.4031 352.818 80.0535 353.252 79.4031Z" fill="#161616"/>
<path d="M236.616 54.6451C235.706 54.6451 234.795 54.6884 233.928 54.6884C232.454 57.5501 231.63 60.1517 231.153 62.0595C229.765 67.6528 230.112 72.2922 230.372 74.5469C230.546 76.0645 230.806 77.3219 231.023 78.1891C231.803 78.1891 232.584 78.1891 233.364 78.1891C233.668 79.2297 233.971 80.2703 234.275 81.3109C241.602 81.2676 247.629 81.2676 251.835 81.3109C277.33 81.5277 295.108 82.525 299.227 82.7418C304.386 83.0453 308.592 83.3488 311.194 83.5222C311.28 81.918 311.714 81.3543 312.104 81.1809C312.798 80.8773 313.405 81.6144 314.316 81.441C315.27 81.2676 315.877 80.2703 316.267 79.3598C317.047 79.75 318.478 80.2703 320.169 80.0102C320.559 79.9668 320.906 79.8367 321.21 79.75C321.947 78.2758 322.684 76.8016 323.421 75.3274C322.38 74.9805 320.906 74.677 319.129 74.677C318.131 74.677 317.264 74.8071 316.527 74.9371C316.44 74.7204 315.746 72.7692 313.925 72.3356C313.362 72.2055 312.885 72.2489 312.495 72.3356C312.234 71.8586 311.974 71.3817 311.714 70.9048C310.673 70.7313 309.069 70.4712 307.161 70.1243C291.682 67.3059 280.886 63.8806 272.648 61.4091C264.756 59.0244 253.266 55.7724 238.524 52.1736C237.917 52.9974 237.266 53.8213 236.616 54.6451Z" fill="white"/>
<path opacity="0.07" d="M230.502 71.4684C230.893 71.3817 231.326 72.379 231.803 72.2489C232.584 72.0755 232.41 69.3438 232.584 67.306C232.714 65.3548 233.277 62.5365 235.185 59.1111C236.443 59.6314 238.35 60.4552 240.648 61.4525C248.93 65.0513 254.653 67.8263 256.388 68.6067C267.835 73.9399 280.409 76.3247 283.574 76.9317C290.772 78.3192 300.744 79.5332 312.711 79.0129C312.191 80.4438 311.671 81.8746 311.15 83.3055C309.156 83.2621 306.251 83.2621 302.695 83.1754C287.433 82.8719 276.767 82.3949 270.653 82.1348C262.024 81.7879 249.667 81.441 234.058 81.4844C233.884 80.3137 233.711 79.143 233.538 77.9723C232.54 78.1457 231.543 78.3192 230.546 78.4926C229.895 73.0727 230.069 71.5551 230.502 71.4684Z" fill="#606060"/>
<path d="M237.527 52.217C232.107 60.5853 230.589 70.9915 233.364 80.5738C233.581 81.3977 234.838 81.0508 234.622 80.227C231.933 70.9481 233.408 60.9755 238.654 52.8674C239.131 52.1303 238.004 51.4799 237.527 52.217Z" fill="#161616"/>
<path d="M238.654 53.4744C263.065 59.6314 287.433 65.7884 311.844 71.902C312.668 72.1188 313.015 70.8614 312.191 70.6446C287.78 64.4876 263.412 58.3306 239.001 52.217C238.22 52.0002 237.873 53.2576 238.654 53.4744Z" fill="#161616"/>
<path d="M234.275 82.0047C259.726 81.7879 285.178 82.3949 310.587 83.7824C311.411 83.8258 311.411 82.525 310.587 82.4816C285.178 81.0941 259.726 80.4871 234.275 80.7039C233.451 80.7039 233.451 82.0047 234.275 82.0047Z" fill="#161616"/>
<path d="M311.454 71.4251C313.188 75.284 312.798 79.6633 310.413 83.1754C309.936 83.8691 311.064 84.5195 311.541 83.8258C314.186 79.9235 314.532 75.0672 312.581 70.7747C312.234 70.0376 311.107 70.688 311.454 71.4251Z" fill="#161616"/>
<path d="M312.755 73.1161C313.232 73.4629 313.578 73.3329 314.142 73.4629C315.226 73.7665 315.66 74.7637 315.877 75.8043C316.223 77.7121 315.746 81.7445 312.928 80.6172C312.148 80.3137 311.801 81.5711 312.581 81.8746C315.443 83.0019 317.307 80.0102 317.307 77.4953C317.307 76.1079 317.134 74.5469 316.353 73.3762C316.093 72.986 315.746 72.5958 315.313 72.379C314.749 72.1188 313.969 72.2923 313.492 71.9454C312.711 71.5118 312.061 72.6391 312.755 73.1161Z" fill="#161616"/>
<path d="M316.57 75.5008C318.782 75.3707 320.993 75.4141 323.161 75.7176C323.985 75.8043 323.985 74.5036 323.161 74.4168C320.949 74.1567 318.782 74.07 316.57 74.2001C315.746 74.2868 315.746 75.5875 316.57 75.5008Z" fill="#161616"/>
<path d="M316.397 80.2703C318.175 80.5738 319.952 80.7039 321.73 80.5305C322.554 80.4438 322.554 79.143 321.73 79.2297C320.039 79.3598 318.391 79.3164 316.744 79.0129C315.92 78.8828 315.573 80.0969 316.397 80.2703Z" fill="#161616"/>
<path d="M236.789 54.2982C232.584 51.8701 231.413 59.458 230.849 61.8427C229.549 67.3493 228.941 73.0294 230.546 78.536C230.632 78.7961 230.893 79.0129 231.153 79.0129C231.716 79.0129 232.324 79.0129 232.887 79.0129C233.711 79.0129 233.711 77.7121 232.887 77.7121C232.324 77.7121 231.716 77.7121 231.153 77.7121C231.37 77.8856 231.586 78.0156 231.76 78.1891C230.633 74.2 230.632 70.1677 231.283 66.0919C231.586 64.2708 231.977 62.4497 232.454 60.672C232.757 59.5013 233.711 53.9947 236.096 55.4256C236.876 55.8591 237.527 54.7318 236.789 54.2982Z" fill="#161616"/>
<path d="M283.661 63.6204C282.88 62.6665 281.579 62.7966 281.406 62.7966C279.975 62.8833 278.588 64.1841 277.07 67.3493C274.122 73.3762 273.992 79.4031 273.992 80.357C273.948 84.5195 274.338 91.2835 277.287 99.3483C277.547 102.73 278.111 107.456 279.368 112.963C281.579 122.849 283.921 133.255 291.986 142.491C295.021 146.003 301.004 152.81 311.41 155.282C322.294 157.883 331.139 154.024 333.307 153.027C335.215 152.116 340.548 149.428 345.057 143.748C347.789 140.323 350.954 136.594 350.434 131.998C350.217 130.003 349.35 128.312 348.049 125.624C346.748 122.936 346.054 121.592 344.667 121.071C342.759 120.334 340.721 121.635 338.467 122.936C334.651 125.104 334.304 127.185 330.185 129.353C329.101 129.916 328.017 130.307 325.849 131C322.424 132.128 319.042 133.255 315.92 133.472C309.112 133.949 303.649 130.047 302.088 128.919C296.322 124.8 294.067 119.294 292.593 115.695C289.297 107.63 289.558 100.216 290.121 95.8796C292.159 95.5327 293.416 94.7089 294.023 94.2319C296.322 92.4542 296.885 89.9828 297.752 86.1672C298.316 83.7824 298.576 82.525 297.969 82.048C296.712 81.0941 292.853 84.216 291.986 84.9531C292.159 82.0047 292.593 79.6199 293.026 77.9289C293.59 75.6743 293.893 74.5036 294.674 73.593C296.191 71.8153 297.969 71.9887 298.576 70.2977C298.923 69.3872 298.88 68.1298 298.143 67.3927C297.275 66.5255 295.411 66.5688 293.807 67.8263C293.286 66.6989 292.246 66.0052 291.118 65.9618C289.991 65.9184 289.254 66.6122 289.037 66.7856C289.167 65.6149 288.647 64.531 287.78 64.0974C286.609 63.4903 284.745 64.1841 284.051 65.9618C284.094 65.745 284.398 64.531 283.661 63.6204Z" fill="white"/>
<path opacity="0.12" d="M281.406 62.7966C280.365 64.6177 279.065 67.3059 278.197 70.818C276.29 78.4492 277.851 84.823 278.544 87.9015C286.002 119.684 282.75 120.464 287.953 127.922C289.861 130.61 302.956 148.648 322.467 146.263C338.814 144.268 347.485 129.396 348.613 127.402C349.263 129.136 350.044 132.084 349.523 135.597C348.743 140.756 345.534 144.008 344.363 145.222C343.236 146.35 341.849 147.347 339.03 149.298C336.515 151.076 334.044 152.637 332.96 153.2C327.8 156.105 319.822 156.799 314.272 156.062C299.183 154.067 290.121 139.759 286.349 133.819C277.721 120.247 276.853 106.503 276.94 99.6518C276.116 96.8768 275.292 94.0585 274.469 91.2835C273.905 86.991 273.862 83.4355 273.948 80.964C274.165 74.7637 274.339 70.1243 277.504 66.1786C278.891 64.4442 280.409 63.4036 281.406 62.7966Z" fill="#606060"/>
<path d="M340.114 148.648C346.965 145.396 351.561 138.588 350.434 130.87C349.783 126.188 346.011 118.123 339.984 120.985C337.296 122.285 335.085 124.67 332.613 126.361C329.188 128.702 325.242 130.524 321.296 131.781C316.267 133.385 310.673 133.732 305.817 131.304C302.262 129.526 299.487 126.621 297.362 123.326C292.679 116.085 290.251 107.543 290.815 98.9147C290.858 98.0909 289.557 98.0909 289.514 98.9147C289.037 106.199 290.641 113.137 293.85 119.64C296.668 125.451 300.788 130.914 307.031 133.255C314.619 136.073 322.901 133.212 329.751 129.613C332.83 127.965 335.475 125.841 338.25 123.716C340.765 121.765 343.279 120.811 345.838 123.413C349.003 126.621 349.957 132.215 349.003 136.464C347.832 141.537 344.06 145.352 339.464 147.52C338.727 147.867 339.377 148.995 340.114 148.648Z" fill="#161616"/>
<path d="M290.728 99.4784C290.165 97.0936 291.856 96.4866 293.416 95.3593C294.327 94.7089 295.021 93.7983 295.671 92.8878C297.319 90.503 298.62 87.7281 298.966 84.823C299.14 83.3922 299.443 81.1375 297.492 81.0508C295.194 80.964 294.24 83.8691 292.072 84.0859C291.249 84.1726 291.249 85.4734 292.072 85.3867C293.72 85.2132 294.544 84.1726 295.801 83.2187C296.538 82.655 297.362 82.0047 297.752 83.2621C297.969 83.9558 297.622 85.2566 297.449 85.9503C297.145 87.4246 296.495 88.8554 295.801 90.1995C295.151 91.4136 294.414 92.671 293.416 93.6683C292.506 94.6222 291.249 94.839 290.251 95.6194C288.907 96.66 289.124 98.4378 289.471 99.8686C289.688 100.649 290.945 100.302 290.728 99.4784Z" fill="#161616"/>
<path d="M275.596 92.6277C274.729 87.0343 274.642 81.3109 275.509 75.7176C275.856 73.4629 276.29 71.1649 277.07 68.9969C277.547 67.6528 278.197 66.0919 279.151 65.0079C280.452 63.5771 283.01 62.8399 283.704 65.2681C283.921 66.0919 285.178 65.745 284.961 64.9212C284.354 62.8399 282.36 61.7126 280.279 62.5364C277.634 63.6204 276.376 66.8723 275.553 69.3438C273.124 76.8449 273.124 85.2566 274.295 92.9745C274.469 93.7983 275.726 93.4515 275.596 92.6277Z" fill="#161616"/>
<path d="M281.883 70.2543C282.924 67.6962 285.872 62.5364 289.081 66.0485C289.644 66.6555 290.555 65.745 289.991 65.138C288.517 63.5337 286.392 63.2735 284.528 64.3575C282.447 65.5282 281.493 67.8262 280.626 69.9508C280.322 70.6879 281.58 71.0348 281.883 70.2543Z" fill="#161616"/>
<path d="M287.346 71.3383C287.39 69.6907 288.04 67.8696 289.644 67.0891C290.988 66.4387 292.593 66.7423 293.503 67.913C294.023 68.5633 294.934 67.6528 294.414 67.0024C293.156 65.4415 290.902 65.0513 289.124 65.8751C287.043 66.8723 286.089 69.127 286.045 71.3383C286.002 72.1621 287.303 72.1621 287.346 71.3383Z" fill="#161616"/>
<path d="M291.118 71.7719C291.899 68.8668 295.151 66.2219 297.969 68.5633C298.62 69.0836 299.53 68.1731 298.88 67.6528C295.281 64.7044 290.945 67.4794 289.861 71.425C289.644 72.2489 290.902 72.5957 291.118 71.7719Z" fill="#161616"/>
<path d="M297.709 68.3465C299.096 70.2977 296.018 71.5118 294.934 72.4223C294.023 73.1594 293.503 74.1133 293.113 75.1973C292.072 78.1891 291.595 81.441 291.335 84.5628C291.248 85.3867 292.549 85.3867 292.636 84.5628C292.853 82.2648 293.2 79.9668 293.763 77.7121C293.937 76.975 294.11 76.2379 294.37 75.5008C294.934 73.9832 295.758 73.4196 297.015 72.509C298.576 71.3817 300.224 69.5606 298.836 67.6094C298.359 67.0024 297.232 67.6528 297.709 68.3465Z" fill="#161616"/>
<path d="M273.992 91.3269C274.685 94.2753 275.553 97.1803 276.637 100.042C276.94 100.823 278.197 100.476 277.894 99.6952C276.81 96.8335 275.943 93.9284 275.249 90.98C275.076 90.1562 273.818 90.503 273.992 91.3269Z" fill="#161616"/>
<path d="M276.42 100.866C278.067 115.781 281.753 131.087 291.769 142.707C299.747 151.943 312.408 158.967 324.895 156.669C330.792 155.585 336.169 152.637 340.461 148.518C341.068 147.954 340.158 147 339.551 147.607C330.965 155.845 318.738 158.013 307.855 153.114C296.148 147.78 287.953 137.764 283.314 125.927C280.192 117.906 278.631 109.408 277.677 100.909C277.634 100.042 276.333 100.042 276.42 100.866Z" fill="#161616"/>
</svg>
