<svg width="96" height="96" viewBox="0 0 96 96" fill="none" xmlns="http://www.w3.org/2000/svg">
<circle cx="48" cy="48" r="48" fill="#F2463A"/>
<path d="M41.0294 66.8795L21.765 47.6151C21.1142 46.9643 20.955 46.3169 21.01 45.7301C21.0707 45.0829 21.4134 44.371 21.9994 43.785C22.5854 43.1989 23.2973 42.8563 23.9445 42.7956C24.5313 42.7406 25.1787 42.8998 25.8294 43.5506L25.8295 43.5507L39.6404 57.3616L41.0546 58.7759L42.4689 57.3616L70.0655 29.765C70.7163 29.1142 71.3637 28.955 71.9505 29.01C72.5977 29.0707 73.3095 29.4134 73.8956 29.9994C74.4816 30.5854 74.8242 31.2973 74.8849 31.9444C74.94 32.5313 74.7807 33.1787 74.1299 33.8295L41.0797 66.8796L41.0545 66.8545L41.0294 66.8795Z" fill="#F4F4F4" stroke="#F4F4F4" stroke-width="4"/>
</svg>
