<?xml version="1.0" encoding="UTF-8"?>
<svg xmlns="http://www.w3.org/2000/svg" width="398" height="886" viewBox="0 0 398 886" fill="none">
  <path d="M0.5 884.5L274.5 155L267.5 884.5H0.5Z" fill="#F2463A" fill-opacity="0.21"></path>
  <path d="M212.322 23.8976C210.268 18.3852 215.155 12.035 218.966 12.0473" stroke="#F2463A" stroke-width="4" stroke-linecap="round"></path>
  <path d="M201.741 20.5164C199.443 11.7876 207.148 3.5961 213.742 5.70341" stroke="#F2463A" stroke-width="4" stroke-linecap="round"></path>
  <path d="M310.891 107.827L319.343 110.528L320.817 133.926C320.858 134.57 320.769 135.215 320.557 135.825L313.957 154.924C313.69 155.701 313.23 156.396 312.621 156.947C312.011 157.497 311.273 157.885 310.474 158.073L296.2 161.39C295.99 161.441 295.769 161.434 295.562 161.371C295.355 161.308 295.169 161.19 295.022 161.03C294.876 160.871 294.775 160.675 294.73 160.463C294.686 160.251 294.699 160.031 294.768 159.825L296.621 154.025C296.681 153.834 296.789 153.66 296.934 153.522C297.08 153.383 297.258 153.284 297.452 153.234L305.816 150.836C306.007 150.78 306.182 150.679 306.324 150.54C306.466 150.401 306.572 150.229 306.632 150.04L312.064 133.044C312.249 132.471 312.324 131.867 312.286 131.265L310.891 107.827Z" fill="#1F244D"></path>
  <path d="M272.492 96.7606L264.025 94.0546L249.265 112.28C248.859 112.776 248.558 113.348 248.38 113.963L242.68 133.35C242.445 134.137 242.414 134.972 242.592 135.774C242.769 136.576 243.148 137.32 243.692 137.935L253.306 148.887C253.447 149.049 253.629 149.171 253.833 149.24C254.037 149.309 254.256 149.322 254.467 149.279C254.677 149.235 254.873 149.136 255.032 148.992C255.192 148.847 255.311 148.663 255.376 148.458L257.225 142.673C257.287 142.482 257.302 142.278 257.267 142.08C257.233 141.881 257.15 141.695 257.026 141.536L251.598 134.747C251.475 134.587 251.391 134.4 251.354 134.202C251.317 134.003 251.328 133.799 251.385 133.605L256.841 116.535C257.024 115.961 257.313 115.426 257.692 114.957L272.492 96.7606Z" fill="#1F244D"></path>
  <path d="M338.114 72.2597L271.277 50.8991C268.72 50.0818 265.984 51.4926 265.166 54.0502L254.615 87.0664C253.797 89.624 255.208 92.36 257.765 93.1773L324.602 114.538C327.16 115.355 329.895 113.944 330.713 111.387L341.265 78.3706C342.082 75.8129 340.671 73.077 338.114 72.2597Z" fill="#5C63AB"></path>
  <path d="M223.075 54.539C223.467 53.3108 224.332 52.2889 225.478 51.698C226.624 51.107 227.957 50.9955 229.185 51.388L262.604 62.0683L257.196 78.9886L223.778 68.3083C223.169 68.1135 222.604 67.8004 222.115 67.3869C221.627 66.9734 221.226 66.4675 220.933 65.8984C220.641 65.3293 220.464 64.7081 220.412 64.0705C220.361 63.4328 220.435 62.7912 220.632 62.1824L223.075 54.539Z" fill="#5C63AB"></path>
  <path d="M375.271 103.18C375.664 101.952 375.552 100.618 374.961 99.4717C374.371 98.3257 373.349 97.4614 372.121 97.0689L338.702 86.3886L333.295 103.309L366.713 113.989C367.322 114.184 367.964 114.256 368.602 114.203C369.239 114.149 369.86 113.97 370.428 113.676C370.996 113.381 371.501 112.978 371.912 112.489C372.324 111.999 372.636 111.433 372.828 110.823L375.271 103.18Z" fill="#5C63AB"></path>
  <path d="M294.954 95.7297C301.956 97.9675 309.446 94.105 311.684 87.1026C313.922 80.1002 310.06 72.6096 303.058 70.3719C296.056 68.1341 288.566 71.9966 286.328 78.999C284.09 86.0014 287.952 93.492 294.954 95.7297Z" fill="#1F244D"></path>
  <path d="M272.786 63.0265C273.953 63.3995 275.201 62.7558 275.574 61.5887C275.947 60.4216 275.303 59.1732 274.136 58.8003C272.97 58.4273 271.721 59.071 271.348 60.2381C270.975 61.4052 271.619 62.6536 272.786 63.0265Z" fill="#1F244D"></path>
  <path d="M281.238 65.7277C282.405 66.1006 283.653 65.4569 284.026 64.2898C284.399 63.1227 283.756 61.8743 282.589 61.5014C281.422 61.1284 280.173 61.7721 279.8 62.9392C279.427 64.1063 280.071 65.3547 281.238 65.7277Z" fill="#1F244D"></path>
  <path d="M270.42 70.4301L278.872 73.1312" stroke="#1F244D" stroke-width="4" stroke-linecap="round"></path>
  <path d="M267.719 78.8824L276.171 81.5835" stroke="#1F244D" stroke-width="4" stroke-linecap="round"></path>
  <path d="M237.396 49.8328C237.788 48.6046 238.653 47.5826 239.799 46.9917C240.945 46.4007 242.279 46.2893 243.507 46.6818L251.149 49.1244C252.378 49.5169 253.399 50.3812 253.99 51.5272C254.581 52.6732 254.693 54.007 254.3 55.2352L253.079 59.0569L236.175 53.6545L237.396 49.8328Z" fill="#1F244D"></path>
  <path d="M256.962 32.3335L248.51 29.6324L243.102 46.5526L251.554 49.2538L256.962 32.3335Z" fill="#1F244D"></path>
  <path fill-rule="evenodd" clip-rule="evenodd" d="M256.962 32.3333C258.078 28.8414 257.1 25.3904 254.762 24.6432C252.424 23.8961 249.626 26.1402 248.51 29.6321L256.962 32.3333Z" fill="#1F244D"></path>
  <path d="M222.703 21.3853C222.876 20.8468 223.158 20.3497 223.531 19.9253C223.905 19.5008 224.362 19.1582 224.875 18.9187C225.387 18.6792 225.943 18.5481 226.508 18.5336C227.073 18.5191 227.636 18.6215 228.159 18.8344L249.807 27.636C250.094 27.7487 250.327 27.9663 250.459 28.2448C250.591 28.5232 250.612 28.8415 250.518 29.1348L249.852 31.2181C249.759 31.5118 249.557 31.7589 249.288 31.9092C249.019 32.0595 248.703 32.1018 248.404 32.0272L225.664 26.6426C225.114 26.5099 224.597 26.2652 224.145 25.9238C223.693 25.5824 223.317 25.1517 223.039 24.6585C222.762 24.1652 222.588 23.62 222.53 23.0569C222.473 22.4937 222.531 21.9247 222.703 21.3853Z" fill="#1F244D"></path>
  <path d="M282.947 40.6381C283.119 40.098 283.178 39.5281 283.119 38.9643C283.06 38.4004 282.885 37.8549 282.605 37.3619C282.325 36.869 281.946 36.4394 281.492 36.1002C281.038 35.761 280.518 35.5195 279.966 35.3909L257.226 30.0064C256.927 29.9319 256.611 29.974 256.342 30.1243C256.073 30.2747 255.872 30.5219 255.778 30.8156L255.113 32.8988C255.018 33.1921 255.039 33.5103 255.171 33.7888C255.303 34.0672 255.536 34.2849 255.823 34.3976L277.471 43.1991C277.997 43.4102 278.561 43.511 279.127 43.4952C279.694 43.4794 280.251 43.3473 280.765 43.1072C281.278 42.8671 281.737 42.524 282.112 42.0993C282.488 41.6746 282.772 41.1772 282.947 40.6381Z" fill="#1F244D"></path>
  <path d="M349.49 85.6572C349.882 84.429 350.747 83.407 351.893 82.816C353.038 82.2251 354.372 82.1136 355.6 82.5061L363.243 84.9487C364.471 85.3412 365.493 86.2055 366.084 87.3515C366.675 88.4976 366.786 89.8314 366.394 91.0596L365.172 94.8813L348.268 89.4788L349.49 85.6572Z" fill="#1F244D"></path>
  <path d="M368.995 68.1387L360.543 65.4375L355.135 82.3577L363.587 85.0589L368.995 68.1387Z" fill="#1F244D"></path>
  <path fill-rule="evenodd" clip-rule="evenodd" d="M368.995 68.1385C370.111 64.6466 369.133 61.1956 366.795 60.4484C364.457 59.7013 361.659 61.9454 360.543 65.4373L368.995 68.1385Z" fill="#1F244D"></path>
  <path d="M334.738 57.1906C334.911 56.6521 335.193 56.1551 335.566 55.7306C335.94 55.3062 336.397 54.9635 336.91 54.724C337.422 54.4846 337.978 54.3535 338.543 54.339C339.109 54.3245 339.671 54.4269 340.195 54.6398L361.857 63.4461C362.14 63.5616 362.369 63.7796 362.498 64.0567C362.627 64.3338 362.647 64.6494 362.553 64.9402L361.887 67.0234C361.795 67.3148 361.596 67.5605 361.33 67.7115C361.064 67.8624 360.752 67.9074 360.454 67.8373L337.699 62.448C337.149 62.3152 336.632 62.0706 336.18 61.7292C335.729 61.3878 335.352 60.9571 335.075 60.4638C334.797 59.9706 334.623 59.4254 334.566 58.8622C334.508 58.2991 334.567 57.7301 334.738 57.1906Z" fill="#1F244D"></path>
  <path d="M394.996 76.4483C395.169 75.9082 395.227 75.3383 395.168 74.7744C395.11 74.2106 394.935 73.665 394.655 73.1721C394.375 72.6792 393.996 72.2496 393.541 71.9103C393.087 71.5711 392.568 71.3296 392.016 71.2011L369.276 65.8166C368.978 65.7465 368.665 65.7914 368.399 65.9424C368.134 66.0933 367.935 66.3392 367.843 66.6305L367.177 68.7137C367.083 69.0046 367.103 69.3201 367.231 69.5971C367.36 69.8742 367.589 70.0923 367.872 70.2077L389.52 79.0092C390.046 79.2204 390.61 79.3211 391.177 79.3053C391.743 79.2895 392.301 79.1575 392.814 78.9174C393.328 78.6773 393.786 78.3341 394.161 77.9094C394.537 77.4847 394.821 76.9874 394.996 76.4483Z" fill="#1F244D"></path>
  <path d="M245.572 75.3067L254.024 78.0079L229.509 97.5592C229.353 97.6825 229.168 97.7655 228.973 97.8009C228.777 97.8363 228.576 97.8231 228.387 97.7623L222.707 95.9471C222.497 95.8805 222.31 95.7581 222.165 95.593C222.019 95.428 221.922 95.2265 221.882 95.0102C221.843 94.7938 221.863 94.5708 221.94 94.365C222.018 94.1593 222.15 93.9785 222.323 93.8421L245.572 75.3067Z" fill="#1F244D"></path>
  <path d="M221.224 93.1443L229.676 95.8455C230.798 96.2041 231.733 96.9929 232.274 98.0391C232.816 99.0853 232.921 100.304 232.566 101.427C232.204 102.548 231.412 103.48 230.364 104.018C229.315 104.556 228.097 104.657 226.975 104.298L218.523 101.597C217.402 101.239 216.469 100.45 215.93 99.4039C215.391 98.3581 215.289 97.1408 215.647 96.0199C216.006 94.899 216.794 93.9664 217.84 93.4271C218.886 92.8878 220.103 92.7861 221.224 93.1443Z" fill="#1F244D"></path>
  <path d="M300.024 145.136L260.057 132.363C259.42 132.159 258.738 132.511 258.535 133.148L251.163 156.213C250.959 156.85 251.311 157.532 251.948 157.736L291.915 170.509C292.553 170.713 293.234 170.361 293.438 169.724L300.81 146.659C301.013 146.021 300.662 145.34 300.024 145.136Z" fill="#5C63AB"></path>
  <path d="M304.489 138.403L260.295 124.279C259.658 124.076 258.976 124.427 258.773 125.064L256.809 131.209C256.605 131.846 256.957 132.528 257.594 132.732L301.787 146.856C302.425 147.059 303.106 146.708 303.31 146.07L305.274 139.926C305.477 139.288 305.126 138.607 304.489 138.403Z" fill="#1F244D"></path>
  <path d="M103.521 843.098C100.071 845.12 97.2168 848.04 95.2529 851.556L95.2114 851.63C95.0547 851.911 94.9072 852.196 94.7505 852.481C94.7228 852.537 94.6906 852.593 94.6629 852.654C94.5385 852.911 94.4186 853.172 94.3034 853.434C94.2665 853.523 94.225 853.607 94.1882 853.696C94.0868 853.929 93.9946 854.163 93.9024 854.411C93.8563 854.528 93.8103 854.644 93.7688 854.761C93.6904 854.976 93.6167 855.196 93.5429 855.42L93.4 855.841C93.3355 856.042 93.2802 856.247 93.2203 856.453C93.1604 856.658 93.1281 856.775 93.0867 856.92C93.0452 857.065 92.9945 857.308 92.9484 857.504C92.9023 857.7 92.8654 857.855 92.8285 858.032C92.7917 858.21 92.7594 858.42 92.7225 858.612C92.6857 858.803 92.6534 858.976 92.6258 859.158C92.5981 859.341 92.5704 859.565 92.5474 859.771C92.5243 859.976 92.4967 860.126 92.4782 860.303C92.4598 860.481 92.4414 860.771 92.4229 861.018C92.4229 861.168 92.3953 861.317 92.3907 861.486C92.3907 861.878 92.3584 862.271 92.3584 862.663C92.3584 865.632 92.9357 868.571 94.0571 871.313C95.1786 874.055 96.8222 876.546 98.8941 878.644C100.966 880.742 103.425 882.404 106.132 883.537C108.838 884.67 111.738 885.251 114.666 885.247C115.007 885.247 115.348 885.238 115.689 885.219H115.943C116.275 885.219 116.602 885.177 116.929 885.144C117.265 885.112 117.597 885.065 117.929 885.014L118.16 884.976C118.487 884.925 118.809 884.869 119.128 884.799C119.459 884.728 119.782 884.654 120.109 884.57L120.307 884.518C120.959 884.347 121.595 884.146 122.216 883.915L122.381 883.855C123.013 883.616 123.626 883.355 124.225 883.065L124.363 882.995C124.967 882.696 125.552 882.373 126.124 882.023L126.253 881.943C126.53 881.771 126.806 881.593 127.073 881.411C127.35 881.224 127.617 881.028 127.885 880.827L128.023 880.719C128.263 880.532 128.484 880.345 128.733 880.154L128.797 880.098C129.043 879.892 129.283 879.682 129.516 879.467L129.691 879.303L130.254 878.761L130.401 878.616C130.608 878.406 130.807 878.191 131.005 877.976L131.24 877.71C131.369 877.565 131.493 877.415 131.618 877.243C131.742 877.07 131.816 877.004 131.913 876.883C132.01 876.761 132.199 876.523 132.337 876.336C132.475 876.149 132.549 876.046 132.655 875.897C132.715 875.817 132.77 875.733 132.825 875.649C133.216 875.082 133.581 874.498 133.922 873.897C126.168 873.001 118.942 869.469 113.421 863.876C107.9 858.283 104.411 850.959 103.521 843.098Z" fill="#8991DC"></path>
  <path d="M114.665 840.069C110.76 840.063 106.923 841.104 103.544 843.088C104.434 850.953 107.926 858.279 113.45 863.874C118.974 869.468 126.205 872.999 133.963 873.892C135.908 870.46 136.929 866.57 136.924 862.612C136.918 858.654 135.886 854.767 133.931 851.34C131.977 847.914 129.167 845.069 125.786 843.091C122.405 841.113 118.569 840.071 114.665 840.069Z" fill="#8991DC"></path>
  <path d="M154.438 711.327L70.2267 711.673C69.1461 711.673 68.1098 711.237 67.3457 710.463C66.5816 709.688 66.1523 708.637 66.1523 707.542C66.1523 706.446 66.5816 705.395 67.3457 704.621C68.1098 703.846 69.1461 703.411 70.2267 703.411L74.9924 705.476H149.944L154.438 703.065C155.518 703.065 156.555 703.5 157.319 704.275C158.083 705.05 158.512 706.1 158.512 707.196C158.513 707.739 158.408 708.276 158.203 708.777C157.999 709.279 157.699 709.735 157.32 710.118C156.942 710.502 156.492 710.806 155.998 711.014C155.503 711.221 154.973 711.327 154.438 711.327Z" fill="#4B518C"></path>
  <path d="M102.683 694.299C97.5125 694.299 92.5536 692.216 88.8974 688.509C85.2411 684.802 83.1871 679.775 83.1871 674.532C83.1707 663.632 87.0945 653.104 94.2165 644.939C86.4675 648.477 79.8918 654.209 75.2801 661.446C70.6685 668.683 68.2174 677.117 68.2217 685.733V698.252C68.2223 699.203 68.4078 700.146 68.7677 701.024C69.1276 701.903 69.6547 702.701 70.319 703.374C70.9833 704.046 71.7717 704.579 72.6392 704.942C73.5067 705.305 74.4363 705.491 75.3749 705.49H149.285C150.224 705.491 151.154 705.304 152.021 704.94C152.889 704.576 153.677 704.042 154.341 703.369C155.005 702.696 155.531 701.896 155.89 701.017C156.249 700.137 156.434 699.194 156.433 698.243V693.761C154.949 694.12 153.429 694.302 151.903 694.303H102.683V694.299Z" fill="#8991DC"></path>
  <path d="M153.341 669.299C151.151 663.673 147.859 658.555 143.662 654.257C139.466 649.958 134.452 646.567 128.926 644.29C123.399 642.013 117.475 640.896 111.51 641.008C105.546 641.119 99.6656 642.457 94.2257 644.939C87.1038 653.104 83.1799 663.632 83.1963 674.532C83.1963 679.775 85.2504 684.802 88.9066 688.509C92.5628 692.216 97.5218 694.299 102.692 694.299H151.912C153.438 694.298 154.958 694.116 156.443 693.757V685.733C156.453 680.105 155.4 674.526 153.341 669.299Z" fill="#8991DC"></path>
  <path d="M57.2633 730.794C46.7675 738.243 38.1418 748.084 32.0797 759.528C26.0177 770.971 22.6883 783.697 22.3594 796.682H35.7854C36.5914 778.773 44.0774 761.843 56.7287 749.317L57.2633 730.794Z" fill="#8991DC"></path>
  <path d="M29.3405 817.355C32.871 817.084 35.9406 819.247 37.397 821.71C38.8028 824.088 38.5263 826.443 37.9363 830.967C37.4675 834.515 36.5649 837.99 35.2492 841.313C45.2969 835.733 47.9056 823.233 42.7665 815.724C36.9915 807.285 22.8372 807.219 16.993 814.093C12.195 819.728 14.5272 828.233 14.8452 829.336C17.1497 837.331 23.9111 840.756 25.0496 841.313C23.9021 838.682 23.0024 835.947 22.3625 833.144C21.284 828.411 20.7402 826.028 21.8233 823.331C21.9431 823.042 24.183 817.752 29.3405 817.355Z" fill="#8991DC"></path>
  <path d="M167.273 730.374C177.681 737.881 186.22 747.745 192.211 759.182C198.203 770.619 201.482 783.315 201.79 796.261H188.516C188.079 786.628 185.727 777.184 181.603 768.495C178.132 761.209 173.456 754.58 167.776 748.897L167.273 730.374Z" fill="#8991DC"></path>
  <path d="M194.885 816.934C191.392 816.663 188.359 818.803 186.921 821.289C185.538 823.668 185.806 826.023 186.391 830.546C186.855 834.092 187.747 837.566 189.046 840.892C179.109 835.313 176.532 822.813 181.611 815.303C187.322 806.864 201.32 806.799 207.099 813.668C211.842 819.303 209.537 827.808 209.224 828.911C206.919 836.906 200.259 840.336 199.135 840.887C200.271 838.255 201.16 835.521 201.79 832.719C202.854 827.985 203.394 825.602 202.32 822.906C202.2 822.621 199.988 817.331 194.885 816.934Z" fill="#8991DC"></path>
  <path d="M134.914 684.663H89.7455C86.7739 684.663 83.924 683.466 81.8227 681.336C79.7215 679.206 78.541 676.316 78.541 673.303C78.541 670.29 79.7215 667.401 81.8227 665.271C83.924 663.14 86.7739 661.943 89.7455 661.943H134.914C137.885 661.943 140.735 663.14 142.836 665.271C144.938 667.401 146.118 670.29 146.118 673.303C146.118 676.316 144.938 679.206 142.836 681.336C140.735 683.466 137.885 684.663 134.914 684.663Z" fill="#4B518C"></path>
  <path d="M132.371 679.495H92.2999C91.4301 679.495 90.5689 679.321 89.7653 678.984C88.9618 678.646 88.2316 678.152 87.6166 677.528C87.0016 676.905 86.5138 676.164 86.1809 675.35C85.8481 674.535 85.6768 673.662 85.6768 672.78C85.6768 670.999 86.3745 669.291 87.6166 668.032C88.8587 666.773 90.5433 666.065 92.2999 666.065H132.371C134.127 666.065 135.812 666.773 137.054 668.032C138.296 669.291 138.994 670.999 138.994 672.78C138.992 674.561 138.294 676.268 137.052 677.527C135.811 678.786 134.127 679.494 132.371 679.495Z" fill="white"></path>
  <path d="M127.134 665.261C126.687 665.261 126.242 665.302 125.802 665.383C126.534 665.63 127.176 666.094 127.646 666.714C128.906 666.79 130.112 667.258 131.099 668.056C132.086 668.854 132.806 669.943 133.159 671.171C133.511 672.4 133.481 673.71 133.07 674.92C132.66 676.131 131.89 677.183 130.867 677.932C129.843 678.681 128.616 679.091 127.354 679.105C126.091 679.119 124.856 678.737 123.816 678.011C122.776 677.285 121.984 676.25 121.547 675.049C121.111 673.848 121.052 672.54 121.378 671.303C120.939 670.652 120.704 669.882 120.705 669.093C120.705 669.028 120.705 668.962 120.705 668.897C119.976 670.093 119.591 671.472 119.594 672.878C119.587 674.392 120.025 675.874 120.85 677.137C121.675 678.399 122.851 679.385 124.229 679.969C125.607 680.553 127.125 680.709 128.591 680.417C130.057 680.126 131.404 679.4 132.462 678.331C133.521 677.263 134.243 675.9 134.536 674.415C134.83 672.93 134.682 671.391 134.112 669.991C133.542 668.591 132.575 667.395 131.334 666.553C130.092 665.711 128.632 665.261 127.139 665.261H127.134Z" fill="#5C63AB"></path>
  <path d="M104.655 669.579C104.654 670.312 104.453 671.03 104.074 671.654C104.154 672.057 104.194 672.467 104.194 672.878C104.181 674.083 103.817 675.257 103.148 676.253C102.478 677.249 101.533 678.022 100.431 678.474C99.3292 678.926 98.1201 679.038 96.9558 678.795C95.7916 678.552 94.7243 677.965 93.8883 677.108C93.0522 676.252 92.4849 675.163 92.2576 673.98C92.0304 672.797 92.1534 671.573 92.6112 670.461C93.0689 669.348 93.841 668.398 94.8302 667.73C95.8194 667.062 96.9814 666.705 98.1701 666.705H98.2485C98.8714 666.113 99.674 665.752 100.525 665.682C99.0209 665.158 97.3913 665.132 95.8716 665.608C94.3518 666.084 93.0204 667.037 92.0692 668.33C91.1181 669.622 90.5965 671.188 90.5795 672.8C90.5626 674.413 91.0512 675.989 91.9749 677.302C92.8986 678.615 94.2098 679.596 95.7192 680.105C97.2286 680.614 98.8584 680.623 100.373 680.132C101.888 679.641 103.211 678.675 104.149 677.373C105.088 676.071 105.594 674.5 105.595 672.887C105.598 671.564 105.256 670.263 104.604 669.116C104.63 669.269 104.647 669.424 104.655 669.579Z" fill="#5C63AB"></path>
  <path d="M124.559 673.014C123.929 673.014 123.309 672.859 122.753 672.561C122.196 672.262 121.72 671.831 121.365 671.304C121.044 672.535 121.107 673.836 121.544 675.03C121.981 676.224 122.771 677.252 123.807 677.973C124.842 678.694 126.072 679.073 127.328 679.058C128.584 679.043 129.805 678.634 130.823 677.889C131.841 677.143 132.608 676.097 133.017 674.893C133.426 673.689 133.458 672.386 133.109 671.163C132.76 669.94 132.046 668.856 131.066 668.059C130.086 667.263 128.887 666.794 127.633 666.715C128.072 667.295 128.342 667.989 128.413 668.717C128.483 669.445 128.35 670.179 128.03 670.835C127.71 671.49 127.215 672.042 126.602 672.427C125.988 672.812 125.281 673.016 124.559 673.014Z" fill="#231F20"></path>
  <path d="M117.631 671.303C117.973 669.983 118.737 668.815 119.802 667.981C120.868 667.146 122.175 666.693 123.522 666.691C123.646 666.691 123.771 666.691 123.895 666.691C123.425 666.071 122.783 665.607 122.051 665.359C121.005 665.549 120.01 665.96 119.131 666.565C118.252 667.171 117.508 667.957 116.949 668.874C116.949 668.939 116.949 669.004 116.949 669.07C116.945 669.868 117.183 670.647 117.631 671.303Z" fill="white"></path>
  <path d="M100.841 673.5C100.068 673.489 99.3156 673.244 98.6809 672.796C98.0462 672.349 97.5583 671.718 97.2801 670.987C97.0019 670.255 96.9461 669.456 97.12 668.692C97.2939 667.928 97.6894 667.234 98.2557 666.7H98.1773C96.9682 666.686 95.7822 667.036 94.7698 667.706C93.7573 668.376 92.9643 669.336 92.4914 670.465C92.0186 671.593 91.8873 672.838 92.1142 674.042C92.3411 675.246 92.9159 676.355 93.7657 677.227C94.6154 678.099 95.7018 678.695 96.8866 678.94C98.0714 679.185 99.3012 679.067 100.42 678.601C101.538 678.136 102.495 677.343 103.168 676.325C103.842 675.307 104.201 674.109 104.201 672.883C104.201 672.472 104.161 672.061 104.081 671.658C103.742 672.221 103.265 672.685 102.698 673.007C102.131 673.33 101.492 673.499 100.841 673.5Z" fill="#231F20"></path>
  <path d="M106.793 671.654C107.263 670.896 107.457 669.995 107.342 669.107C106.428 667.498 104.971 666.278 103.24 665.673C102.389 665.745 101.587 666.105 100.963 666.696C102.348 666.72 103.682 667.226 104.744 668.128C105.805 669.031 106.529 670.275 106.793 671.654Z" fill="white"></path>
  <path d="M128.903 663.658H96.6445V666.07H128.903V663.658Z" fill="#4B518C"></path>
  <path d="M128.683 760.892H97.4756C95.2545 760.893 93.055 760.45 91.0028 759.588C88.9506 758.727 87.0859 757.464 85.5151 755.872C83.9443 754.28 82.6983 752.39 81.8482 750.309C80.9981 748.229 80.5605 745.999 80.5605 743.747V743.228C80.5642 742.216 80.9625 741.246 81.6688 740.53C82.3751 739.814 83.3319 739.41 84.3307 739.406H141.86C142.859 739.41 143.816 739.814 144.522 740.53C145.228 741.246 145.627 742.216 145.63 743.228V743.747C145.616 748.296 143.824 752.654 140.648 755.867C137.472 759.08 133.17 760.887 128.683 760.892Z" fill="#2B44FF"></path>
  <path d="M118.041 845.21H111.251C109.662 845.21 108.138 844.57 107.015 843.431C105.891 842.291 105.26 840.746 105.26 839.135V833.126H123.968V839.135C123.975 839.929 123.827 840.717 123.533 841.453C123.238 842.189 122.803 842.859 122.252 843.424C121.701 843.989 121.045 844.437 120.322 844.744C119.599 845.05 118.824 845.209 118.041 845.21Z" fill="#4B518C"></path>
  <path d="M167.845 719.406C167.841 718.585 167.712 717.771 167.462 716.99L167.661 756.387C167.78 780.406 152.363 800.733 131.185 807.074C122.52 809.667 113.322 809.814 104.58 807.499C95.839 805.185 87.8862 800.496 81.5783 793.939C71.9995 784.047 66.6111 770.754 66.5622 756.892L66.3318 711.406H65.4791C60.4922 711.434 56.4731 715.256 56.4962 719.957L56.8188 783.929C56.8392 790.562 58.2025 797.119 60.824 803.196C63.7193 809.94 67.983 815.99 73.3374 820.953C76.3486 823.781 79.665 826.257 83.2238 828.331C87.7044 830.935 92.5101 832.915 97.5117 834.219C107.499 836.799 117.971 836.744 127.931 834.06C151.253 827.71 168.246 807.373 168.126 783.354L167.845 719.406Z" fill="#5C63AB"></path>
  <path d="M70.2075 776.182C72.7723 782.821 76.6407 788.862 81.5779 793.939C84.2823 796.742 87.2965 799.219 90.5608 801.322C96.5404 805.152 103.256 807.646 110.261 808.638C117.266 809.63 124.399 809.097 131.185 807.074C152.358 800.733 167.78 780.406 167.66 756.388L167.462 716.99C166.342 713.476 162.853 710.916 158.779 710.948L66.3359 711.416L66.5664 756.902C66.5769 763.503 67.8121 770.043 70.2075 776.182Z" fill="#5C63AB"></path>
  <path d="M128.845 791.878H97.1946C91.6022 791.878 86.2388 789.626 82.2844 785.617C78.33 781.607 76.1084 776.17 76.1084 770.5V743.888C76.1084 741.97 76.8596 740.132 78.1968 738.776C79.534 737.42 81.3475 736.659 83.2386 736.659H142.865C144.756 736.659 146.57 737.42 147.907 738.776C149.244 740.132 149.995 741.97 149.995 743.888V770.5C149.981 776.176 147.745 781.615 143.78 785.623C139.815 789.631 134.444 791.881 128.845 791.878Z" fill="#1F244D"></path>
  <path d="M147.894 779.686C146.18 783.336 143.481 786.418 140.109 788.575C136.737 790.732 132.831 791.876 128.845 791.873H97.1946C91.6022 791.873 86.2388 789.621 82.2844 785.612C78.33 781.602 76.1084 776.165 76.1084 770.495V743.883C76.1084 741.965 76.8596 740.127 78.1968 738.771C79.534 737.415 81.3475 736.654 83.2386 736.654H88.0964V754.177C88.0989 760.942 90.7505 767.429 95.4684 772.212C100.186 776.996 106.585 779.684 113.257 779.686H147.894Z" fill="#1F244D"></path>
  <path d="M84.0986 746.455L120.938 746.444" stroke="white" stroke-width="6.13503" stroke-linecap="round" stroke-linejoin="round"></path>
  <path d="M205.405 808.056L204.967 808.112H204.746L204.285 808.145H204.082C203.861 808.145 203.622 808.145 203.41 808.145C196.584 808.145 191.048 803.303 191.048 797.336C191.048 797.168 191.048 797 191.048 796.836V796.654C191.048 796.551 191.048 796.448 191.076 796.35L191.103 796.121C191.103 796.046 191.104 795.972 191.136 795.892C191.262 795.075 191.491 794.277 191.818 793.518C187.449 795.21 184.264 799.916 184.264 805.49C184.257 807.563 184.709 809.61 185.587 811.481H204.709C205.233 810.371 205.606 809.193 205.815 807.981L205.613 808.014L205.405 808.056Z" fill="#1F244D"></path>
  <path d="M195.154 792.981C194.024 792.982 192.902 793.182 191.84 793.574C191.511 794.332 191.281 795.13 191.158 795.948C191.158 796.023 191.158 796.098 191.126 796.177L191.098 796.406L191.07 796.71V796.892C191.07 797.06 191.07 797.224 191.07 797.392C191.07 803.364 196.601 808.2 203.432 808.2C203.657 808.2 203.893 808.2 204.105 808.2H204.307L204.768 808.168H204.989C205.137 808.168 205.284 808.135 205.427 808.112L205.644 808.079L205.847 808.046C205.992 807.226 206.064 806.394 206.063 805.56C206.04 798.584 201.164 792.981 195.154 792.981Z" fill="#1F244D"></path>
  <path d="M138.971 760.296H135.947C135.514 760.296 135.099 760.122 134.793 759.811C134.487 759.501 134.315 759.08 134.315 758.642V755.576C134.315 755.359 134.358 755.144 134.44 754.943C134.522 754.742 134.642 754.56 134.793 754.406C134.945 754.253 135.125 754.131 135.323 754.048C135.521 753.965 135.733 753.922 135.947 753.922H138.971C139.185 753.922 139.397 753.965 139.595 754.048C139.793 754.131 139.973 754.253 140.124 754.406C140.276 754.56 140.396 754.742 140.478 754.943C140.56 755.144 140.602 755.359 140.602 755.576V758.642C140.601 759.08 140.429 759.5 140.123 759.81C139.817 760.12 139.403 760.295 138.971 760.296Z" fill="white"></path>
  <path d="M138.971 770.833H135.947C135.514 770.833 135.099 770.659 134.793 770.348C134.487 770.038 134.315 769.617 134.315 769.179V766.113C134.315 765.675 134.487 765.254 134.793 764.944C135.099 764.633 135.514 764.459 135.947 764.459H138.971C139.403 764.459 139.818 764.633 140.124 764.944C140.43 765.254 140.602 765.675 140.602 766.113V769.179C140.605 769.397 140.564 769.613 140.483 769.815C140.402 770.017 140.282 770.2 140.13 770.354C139.978 770.508 139.797 770.63 139.598 770.712C139.399 770.794 139.185 770.835 138.971 770.833Z" fill="white"></path>
  <path d="M138.971 781.263H135.947C135.514 781.263 135.099 781.089 134.793 780.778C134.487 780.468 134.315 780.047 134.315 779.609V776.543C134.315 776.105 134.487 775.684 134.793 775.374C135.099 775.063 135.514 774.889 135.947 774.889H138.971C139.403 774.889 139.818 775.063 140.124 775.374C140.43 775.684 140.602 776.105 140.602 776.543V779.609C140.605 779.827 140.564 780.043 140.483 780.245C140.402 780.447 140.282 780.63 140.13 780.784C139.978 780.938 139.797 781.06 139.598 781.142C139.399 781.224 139.185 781.265 138.971 781.263Z" fill="white"></path>
  <path d="M134.6 745.859H139.218" stroke="#F2463A" stroke-width="6.13503" stroke-linecap="round" stroke-linejoin="round"></path>
  <path d="M39.4344 808.495L38.9735 808.556L38.7523 808.584L38.2914 808.621H38.0886C37.8674 808.621 37.6277 808.621 37.4157 808.621C30.5898 808.696 25.0036 803.916 24.9391 797.948C24.9391 797.78 24.9391 797.612 24.9391 797.448C24.9391 797.388 24.9391 797.327 24.9391 797.266C24.9391 797.205 24.9391 797.06 24.9391 796.962C24.9391 796.864 24.9391 796.808 24.9391 796.733C24.9391 796.659 24.9391 796.584 24.9714 796.504C25.0872 795.686 25.3087 794.886 25.6305 794.126C21.2565 795.785 18.1271 800.551 18.1824 806.135C18.1956 808.206 18.6682 810.247 19.5651 812.107L38.6878 811.897C39.2021 810.781 39.5619 809.599 39.7571 808.383L39.5543 808.42L39.4344 808.495Z" fill="#1F244D"></path>
  <path d="M29.0231 793.532C27.8941 793.546 26.776 793.758 25.7184 794.158C25.3994 794.92 25.1778 795.719 25.0593 796.537C25.0593 796.612 25.0593 796.687 25.027 796.766C24.9948 796.845 25.027 796.92 25.027 796.995C25.027 797.07 25.027 797.196 25.027 797.299C25.027 797.401 25.027 797.42 25.027 797.481C25.027 797.649 25.027 797.813 25.027 797.981C25.0916 803.953 30.6776 808.729 37.5036 808.654C37.7294 808.654 37.9645 808.654 38.1765 808.654H38.3793L38.8402 808.616L39.0614 808.588L39.5223 808.528L39.739 808.49L39.9418 808.453C40.0776 807.63 40.1408 806.796 40.1307 805.962C39.9648 799.018 35.0332 793.467 29.0231 793.532Z" fill="#1F244D"></path>
  <path d="M105.228 851.948C102.701 854.228 101.065 857.352 100.619 860.752C100.619 860.85 100.591 860.953 100.582 861.051C100.573 861.149 100.582 861.256 100.55 861.355C100.518 861.453 100.55 861.626 100.518 861.761V861.999C100.518 862.219 100.518 862.467 100.518 862.663C100.518 866.47 102.009 870.121 104.665 872.814C107.32 875.506 110.921 877.018 114.676 877.018C114.935 877.018 115.193 877.018 115.446 876.995H115.677L116.211 876.948L116.465 876.915C116.631 876.915 116.801 876.873 116.967 876.845L117.216 876.798L117.718 876.696L117.94 876.644L118.465 876.509L118.645 876.457C118.838 876.401 119.027 876.341 119.216 876.275L119.336 876.233L120 875.981C122.493 874.936 124.64 873.191 126.19 870.953C121.58 869.446 117.332 866.977 113.722 863.703C110.111 860.43 107.218 856.425 105.228 851.948Z" fill="#1F244D"></path>
  <path d="M114.667 848.308C111.193 848.302 107.839 849.598 105.251 851.948C107.238 856.423 110.128 860.427 113.735 863.701C117.341 866.975 121.584 869.447 126.19 870.957C127.688 868.811 128.577 866.289 128.758 863.666C128.939 861.043 128.406 858.42 127.217 856.083C126.028 853.746 124.229 851.785 122.016 850.414C119.803 849.043 117.261 848.314 114.667 848.308Z" fill="#1F244D"></path>
  <path d="M37.7362 580.35L14.2273 591.592L62.182 642.983L37.7362 580.35Z" fill="#F2463A"></path>
  <path d="M66.3588 599.666L71.677 631.446L82.3303 600.28L66.3588 599.666Z" fill="#F2463A"></path>
  <path d="M23.3295 645.985L29.7372 631.172L52.4873 649.533L23.3295 645.985Z" fill="#F2463A"></path>
</svg>
