<svg width="38" height="36" viewBox="0 0 38 36" fill="none" xmlns="http://www.w3.org/2000/svg">
<ellipse cx="19.1246" cy="7.81818" rx="6.04814" ry="5.81818" stroke="#4D4D4D" stroke-width="4"/>
<path d="M34.9914 32.9385L33.0096 33.2079L34.9914 32.9385ZM3.96877 36H34.0312V32H3.96877V36ZM4.99037 33.2079C5.88373 26.6354 11.7625 21.4545 19 21.4545V17.4545C9.85395 17.4545 2.20194 24.0237 1.02682 32.6691L4.99037 33.2079ZM19 21.4545C26.2375 21.4545 32.1163 26.6354 33.0096 33.2079L36.9732 32.6691C35.7981 24.0237 28.1461 17.4545 19 17.4545V21.4545ZM34.0312 36C35.7229 36 37.227 34.5365 36.9732 32.6691L33.0096 33.2079C32.9114 32.4849 33.4945 32 34.0312 32V36ZM3.96877 32C4.50552 32 5.08864 32.4849 4.99037 33.2079L1.02682 32.6691C0.773002 34.5365 2.27712 36 3.96877 36V32Z" fill="#4D4D4D"/>
</svg>
