<svg width="52" height="36" viewBox="0 0 52 36" fill="none" xmlns="http://www.w3.org/2000/svg">
<path fill-rule="evenodd" clip-rule="evenodd" d="M0 4C0 1.79086 1.79086 0 4 0H40C42.2091 0 44 1.79086 44 4V16H48C50.2091 16 52 17.7909 52 20V28C52 30.2091 50.2091 32 48 32H40.4649C40.8052 31.4117 41 30.7286 41 30C41 29.2714 40.8052 28.5883 40.4649 28H48V20H44C41.7909 20 40 18.2091 40 16V4H4V18V28H9.53513C9.19479 28.5883 9 29.2714 9 30C9 30.7286 9.19479 31.4117 9.53513 32H4C1.79086 32 0 30.2091 0 28V18V4ZM33.5351 28H16.4649C16.8052 28.5883 17 29.2714 17 30C17 30.7286 16.8052 31.4117 16.4649 32H33.5351C33.1948 31.4117 33 30.7286 33 30C33 29.2714 33.1948 28.5883 33.5351 28Z" fill="#4D4D4D"/>
<circle cx="13" cy="30" r="4" stroke="#4D4D4D" stroke-width="4"/>
<circle cx="37" cy="30" r="4" stroke="#4D4D4D" stroke-width="4"/>
</svg>
