<svg width="28" height="36" viewBox="0 0 28 36" fill="none" xmlns="http://www.w3.org/2000/svg">
<path d="M18 3C18 4.81824 17.4448 6.38737 16.6426 7.45685C15.841 8.52572 14.8862 9 14 9V13C16.4275 13 18.4727 11.6834 19.8426 9.85685C21.2121 8.0309 22 5.60004 22 3H18ZM20.955 4H25V0H20.955V4ZM24 3V33H28V3H24ZM25 32H3V36H25V32ZM4 33V3H0V33H4ZM3 4L7.04498 4L7.04498 0L3 0L3 4ZM14 9C13.1138 9 12.159 8.52572 11.3574 7.45685C10.5552 6.38737 10 4.81824 10 3H6C6 5.60004 6.7879 8.0309 8.15736 9.85685C9.52728 11.6834 11.5725 13 14 13V9ZM7.04498 4C6.36003 4 6 3.44577 6 3H10C10 1.4796 8.80456 0 7.04498 0L7.04498 4ZM4 3C4 3.55228 3.55228 4 3 4L3 0C1.34315 0 0 1.34315 0 3H4ZM3 32C3.55228 32 4 32.4477 4 33H0C0 34.6569 1.34315 36 3 36V32ZM24 33C24 32.4477 24.4477 32 25 32V36C26.6569 36 28 34.6569 28 33H24ZM25 4C24.4477 4 24 3.55229 24 3H28C28 1.34314 26.6569 0 25 0V4ZM22 3C22 3.44576 21.64 4 20.955 4V0C19.1954 0 18 1.47961 18 3H22Z" fill="#4D4D4D"/>
<path d="M12 18H16.1315C16.9302 18 17.4066 18.8901 16.9635 19.5547L12.6667 26" stroke="#4D4D4D" stroke-width="4" stroke-linecap="round"/>
</svg>
