<svg width="36" height="36" viewBox="0 0 36 36" fill="none" xmlns="http://www.w3.org/2000/svg">
<path d="M33.5691 12.5595L34.7073 10.915L33.5691 12.5595ZM17.4309 2.17773L16.2927 0.533205L17.4309 2.17773ZM18.5691 2.17774L17.4309 3.82227L18.5691 2.17774ZM2.4309 12.5595L1.29269 10.915L2.4309 12.5595ZM3.5691 14.204L18.5691 3.82226L16.2927 0.533205L1.29269 10.915L3.5691 14.204ZM4 32.9988V13.3818H0V32.9988H4ZM13 31.9988H3V35.9988H13V31.9988ZM16 32.9988V21.8913H12V32.9988H16ZM16 21.8913C16 20.7868 16.8954 19.8913 18 19.8913V15.8913C14.6863 15.8913 12 18.5776 12 21.8913H16ZM18 19.8913C19.1046 19.8913 20 20.7868 20 21.8913H24C24 18.5776 21.3137 15.8913 18 15.8913V19.8913ZM20 21.8913V32.9988H24V21.8913H20ZM33 31.9988H23V35.9988H33V31.9988ZM32 13.3818V32.9988H36V13.3818H32ZM17.4309 3.82227L32.4309 14.204L34.7073 10.915L19.7073 0.533205L17.4309 3.82227ZM36 13.3818C36 12.3972 35.5169 11.4753 34.7073 10.915L32.4309 14.204C32.161 14.0173 32 13.71 32 13.3818H36ZM33 35.9988C34.6569 35.9988 36 34.6557 36 32.9988H32C32 32.4465 32.4477 31.9988 33 31.9988V35.9988ZM13 35.9988C14.6569 35.9988 16 34.6557 16 32.9988H12C12 32.4465 12.4477 31.9988 13 31.9988V35.9988ZM20 32.9988C20 34.6557 21.3431 35.9988 23 35.9988V31.9988C23.5523 31.9988 24 32.4465 24 32.9988H20ZM0 32.9988C0 34.6557 1.34314 35.9988 3 35.9988V31.9988C3.55229 31.9988 4 32.4465 4 32.9988H0ZM18.5691 3.82226C18.2267 4.05925 17.7733 4.05924 17.4309 3.82227L19.7073 0.533205C18.6801 -0.177734 17.3199 -0.177736 16.2927 0.533205L18.5691 3.82226ZM1.29269 10.915C0.483106 11.4753 0 12.3972 0 13.3818H4C4 13.71 3.83897 14.0173 3.5691 14.204L1.29269 10.915Z" fill="#4D4D4D"/>
</svg>
