<svg width="1440" height="723" viewBox="0 0 1440 723" fill="none" xmlns="http://www.w3.org/2000/svg">
<path d="M522.116 547.804C451.779 611.507 326.305 779.39 -10.1047 841.935C-11.3059 842.158 -11.2997 844 -10.0779 844H1449.49C1450.04 844 1450.49 843.552 1450.49 843V183.877C1450.49 158.913 1430.25 138.676 1405.29 138.676C1390.67 138.676 1376.96 131.606 1368.47 119.699L1352.55 97.3425C1325.67 59.6031 1276.11 45.715 1233.54 63.9895L1193.49 81.1762L1058.25 151.815C1043.95 159.278 1028.07 163.176 1011.95 163.176H943.191C898.668 163.176 855.418 178.032 820.293 205.391L817.069 207.903C789.499 229.377 768.037 257.699 754.821 290.049L746.587 310.204C743.206 318.481 738.729 326.268 733.277 333.355L680.192 402.366C668.005 418.209 651.351 430.036 632.377 436.321L620.419 440.283C594.792 448.773 574.235 468.166 564.268 493.256C555.736 514.733 539.245 532.291 522.116 547.804Z" fill="#F4F4F4"/>
<path d="M644.001 577.812H764.001V705C764.001 705.552 763.553 706 763.001 706H645.001C644.449 706 644.001 705.552 644.001 705V577.812Z" fill="white" stroke="#F4F4F4" stroke-width="4"/>
<path d="M703.35 402.558C703.725 402.237 704.277 402.237 704.652 402.558L763.652 453.123C763.873 453.313 764.001 453.591 764.001 453.883V578.259H644.001L644.001 453.883C644.001 453.591 644.128 453.313 644.35 453.123L703.35 402.558Z" fill="white" stroke="#F4F4F4" stroke-width="4"/>
<path fill-rule="evenodd" clip-rule="evenodd" d="M725.401 483.762C725.929 483.762 726.368 483.351 726.38 482.823C726.384 482.645 726.386 482.466 726.386 482.286C726.386 469.335 715.816 458.836 702.778 458.836C689.739 458.836 679.169 469.335 679.169 482.286C679.169 482.466 679.171 482.645 679.175 482.823C679.187 483.351 679.627 483.762 680.155 483.762H725.401Z" fill="white"/>
<path fill-rule="evenodd" clip-rule="evenodd" d="M726.186 482.64C726.713 482.64 727.152 482.231 727.164 481.704C727.167 481.543 727.169 481.381 727.169 481.219C727.169 468.749 716.424 458.64 703.169 458.64C689.914 458.64 679.169 468.749 679.169 481.219C679.169 481.381 679.171 481.543 679.175 481.704C679.186 482.231 679.625 482.64 680.152 482.64H726.186Z" fill="white"/>
<path d="M727.164 481.704L725.164 481.66L727.164 481.704ZM725.169 481.219C725.169 481.366 725.167 481.513 725.164 481.66L729.163 481.749C729.167 481.573 729.169 481.396 729.169 481.219H725.169ZM703.169 460.64C715.436 460.64 725.169 469.966 725.169 481.219H729.169C729.169 467.531 717.412 456.64 703.169 456.64V460.64ZM681.169 481.219C681.169 469.966 690.902 460.64 703.169 460.64V456.64C688.926 456.64 677.169 467.531 677.169 481.219H681.169ZM681.174 481.66C681.171 481.513 681.169 481.366 681.169 481.219H677.169C677.169 481.396 677.171 481.573 677.175 481.749L681.174 481.66ZM680.152 484.64H726.186V480.64H680.152V484.64ZM677.175 481.749C677.212 483.418 678.595 484.64 680.152 484.64V480.64C680.656 480.64 681.16 481.043 681.174 481.66L677.175 481.749ZM725.164 481.66C725.178 481.043 725.683 480.64 726.186 480.64V484.64C727.743 484.64 729.126 483.418 729.163 481.749L725.164 481.66Z" fill="#F4F4F4"/>
<rect x="655.561" y="498" width="16" height="48" rx="1" fill="white" stroke="#F4F4F4" stroke-width="4"/>
<rect x="735.561" y="498" width="16" height="48" rx="1" fill="white" stroke="#F4F4F4" stroke-width="4"/>
<rect x="679.169" y="498" width="48" height="80" rx="1" fill="white" stroke="#F4F4F4" stroke-width="4"/>
<path d="M661.463 457.37H683.168" stroke="#F4F4F4" stroke-width="4" stroke-linecap="round"/>
<path d="M667.794 447.697H689.498" stroke="#F4F4F4" stroke-width="4" stroke-linecap="round"/>
<path d="M675.933 456.491V449.456" stroke="#F4F4F4" stroke-width="4"/>
<path d="M682.263 446.817V439.782" stroke="#F4F4F4" stroke-width="4" stroke-linecap="round"/>
<path d="M702.778 567.828V703.828" stroke="#F4F4F4" stroke-width="4" stroke-linecap="round"/>
<path d="M684.334 579.149C678.432 585.012 669.578 587.857 669.579 606.996C669.579 628.981 710.893 638.508 728.6 656.096C746.306 673.684 745.568 685.409 744.093 700.798" stroke="#F4F4F4" stroke-width="4" stroke-linecap="round"/>
<path d="M691.711 581.348H715.32M691.711 581.348H715.32" stroke="#F4F4F4" stroke-width="4" stroke-linecap="round"/>
<path d="M682.12 593.073H705.729M682.12 593.073H705.729" stroke="#F4F4F4" stroke-width="4" stroke-linecap="round"/>
<path d="M677.694 604.798H701.302M677.694 604.798H701.302" stroke="#F4F4F4" stroke-width="4" stroke-linecap="round"/>
<path d="M680.645 616.523H704.253M680.645 616.523H704.253" stroke="#F4F4F4" stroke-width="4" stroke-linecap="round"/>
<path d="M711.631 700.065H735.239M711.631 700.065H735.239" stroke="#F4F4F4" stroke-width="4" stroke-linecap="round"/>
<path d="M714.582 688.34H738.191M714.582 688.34H738.191" stroke="#F4F4F4" stroke-width="4" stroke-linecap="round"/>
<path d="M716.057 676.615H733.764M716.057 676.615H733.764" stroke="#F4F4F4" stroke-width="4" stroke-linecap="round"/>
<path d="M711.631 666.355H729.337M711.631 666.355H729.337" stroke="#F4F4F4" stroke-width="4" stroke-linecap="round"/>
<path d="M708.68 656.096H720.484M708.68 656.096H720.484" stroke="#F4F4F4" stroke-width="4" stroke-linecap="round"/>
<path d="M689.498 626.783H701.302M689.498 626.783H701.302" stroke="#F4F4F4" stroke-width="4" stroke-linecap="round"/>
<path d="M524 578H644V704.997C644 705.55 643.552 705.997 643 705.997H525C524.448 705.997 524 705.55 524 704.997V578Z" fill="white" stroke="#F4F4F4" stroke-width="4"/>
<path d="M584.33 370.64C584.718 370.281 585.319 370.286 585.701 370.652L643.692 426.228C643.889 426.417 644 426.677 644 426.95V578H524L524 426.96C524 426.682 524.116 426.416 524.32 426.226L584.33 370.64Z" fill="white" stroke="#F4F4F4" stroke-width="4"/>
<path d="M583.317 390.471C583.676 390.193 584.178 390.193 584.538 390.471L612.741 412.208C613.497 412.791 613.085 414 612.131 414H555.724C554.769 414 554.357 412.791 555.113 412.208L583.317 390.471Z" fill="white" stroke="#F4F4F4" stroke-width="4"/>
<path fill-rule="evenodd" clip-rule="evenodd" d="M565.264 465.634C565.264 465.634 565.264 465.634 565.264 465.634C565.264 459.158 559.986 453.909 553.474 453.909C546.963 453.909 541.684 459.158 541.684 465.634C541.684 465.639 541.684 465.644 541.684 465.649V523.26C541.684 523.812 542.132 524.26 542.684 524.26H564.264C564.816 524.26 565.264 523.812 565.264 523.26V465.634Z" fill="white"/>
<path fill-rule="evenodd" clip-rule="evenodd" d="M629.123 474.437C629.651 474.437 630.091 474.027 630.102 473.499C630.106 473.32 630.109 473.142 630.109 472.962C630.109 460.011 619.552 449.512 606.529 449.512C593.506 449.512 582.949 460.011 582.949 472.962C582.949 473.142 582.951 473.32 582.955 473.499C582.967 474.027 583.406 474.437 583.935 474.437H629.123Z" fill="white"/>
<path fill-rule="evenodd" clip-rule="evenodd" d="M629.963 463.964C625.914 468.525 620.01 471.399 613.435 471.399C602.774 471.399 593.876 463.843 591.791 453.789C595.966 450.059 601.487 447.791 607.541 447.791C618.009 447.791 626.884 454.575 629.963 463.964Z" fill="white"/>
<path fill-rule="evenodd" clip-rule="evenodd" d="M563.79 466.864V466.864V520.091H559.053C553.53 520.091 549.053 515.614 549.053 510.091V455.508C549.732 455.334 550.435 455.219 551.155 455.168H552.846C558.963 455.599 563.79 460.671 563.79 466.864Z" fill="white"/>
<path fill-rule="evenodd" clip-rule="evenodd" d="M565.655 465.909V524.909C565.655 525.461 565.207 525.909 564.655 525.909H542.684C542.132 525.909 541.684 525.461 541.684 524.909V465.909C541.684 459.281 547.05 453.909 553.67 453.909C560.289 453.909 565.655 459.281 565.655 465.909Z" fill="white"/>
<path d="M563.655 465.909V524.909H567.655V465.909H563.655ZM564.655 523.909H542.684V527.909H564.655V523.909ZM543.684 524.909V465.909H539.684V524.909H543.684ZM543.684 465.909C543.684 460.384 548.157 455.909 553.67 455.909V451.909C545.944 451.909 539.684 458.179 539.684 465.909H543.684ZM553.67 455.909C559.182 455.909 563.655 460.384 563.655 465.909H567.655C567.655 458.179 561.396 451.909 553.67 451.909V455.909ZM542.684 523.909C543.237 523.909 543.684 524.356 543.684 524.909H539.684C539.684 526.565 541.028 527.909 542.684 527.909V523.909ZM563.655 524.909C563.655 524.356 564.103 523.909 564.655 523.909V527.909C566.312 527.909 567.655 526.565 567.655 524.909H563.655Z" fill="#F4F4F4"/>
<path fill-rule="evenodd" clip-rule="evenodd" d="M629.908 473.512C630.435 473.512 630.874 473.103 630.885 472.577C630.889 472.415 630.891 472.253 630.891 472.091C630.891 459.621 620.159 449.512 606.92 449.512C593.681 449.512 582.949 459.621 582.949 472.091C582.949 472.253 582.951 472.415 582.955 472.577C582.966 473.103 583.405 473.512 583.932 473.512H629.908Z" fill="white"/>
<path d="M630.885 472.577L632.885 472.621L630.885 472.577ZM628.891 472.091C628.891 472.238 628.889 472.385 628.886 472.532L632.885 472.621C632.889 472.445 632.891 472.268 632.891 472.091H628.891ZM606.92 451.512C619.168 451.512 628.891 460.836 628.891 472.091H632.891C632.891 458.405 621.149 447.512 606.92 447.512V451.512ZM584.949 472.091C584.949 460.836 594.671 451.512 606.92 451.512V447.512C592.691 447.512 580.949 458.405 580.949 472.091H584.949ZM584.954 472.532C584.951 472.385 584.949 472.238 584.949 472.091H580.949C580.949 472.268 580.951 472.445 580.955 472.621L584.954 472.532ZM583.932 475.512H629.908V471.512H583.932V475.512ZM580.955 472.621C580.992 474.291 582.375 475.512 583.932 475.512V471.512C584.436 471.512 584.94 471.916 584.954 472.532L580.955 472.621ZM628.886 472.532C628.9 471.916 629.404 471.512 629.908 471.512V475.512C631.465 475.512 632.847 474.291 632.885 472.621L628.886 472.532Z" fill="#F4F4F4"/>
<path d="M543.158 555.038H564.836" stroke="#F4F4F4" stroke-width="4" stroke-linecap="round"/>
<path d="M549.481 545.365H571.159" stroke="#F4F4F4" stroke-width="4" stroke-linecap="round"/>
<path d="M557.61 554.159V547.124" stroke="#F4F4F4" stroke-width="4"/>
<path d="M563.932 544.486V537.451" stroke="#F4F4F4" stroke-width="4" stroke-linecap="round"/>
<path d="M531.892 438.061C573.17 416.328 618.34 429.006 635.766 438.061" stroke="#F4F4F4" stroke-width="4" stroke-linecap="round"/>
<rect x="602" y="626" width="24" height="24" rx="1" fill="white" stroke="#F4F4F4" stroke-width="4"/>
<rect x="538" y="589" width="88" height="24" rx="1" fill="white" stroke="#F4F4F4" stroke-width="4"/>
<path d="M602.107 679.619H623.786" stroke="#F4F4F4" stroke-width="4" stroke-linecap="round"/>
<path d="M608.43 669.945H630.108" stroke="#F4F4F4" stroke-width="4" stroke-linecap="round"/>
<path d="M616.559 678.739V671.704" stroke="#F4F4F4" stroke-width="4"/>
<path d="M622.882 669.066V662.031" stroke="#F4F4F4" stroke-width="4" stroke-linecap="round"/>
<rect x="582.949" y="484.687" width="47.9416" height="80" rx="1" fill="white" stroke="#F4F4F4" stroke-width="4"/>
<rect x="594.934" y="496.116" width="23.9708" height="24" rx="1" fill="white" stroke="#F4F4F4" stroke-width="4"/>
<path d="M537 627C537 626.448 537.448 626 538 626H584C584.552 626 585 626.448 585 627V706H537V627Z" fill="white" stroke="#F4F4F4" stroke-width="4"/>
<path d="M549 641.593H573" stroke="#F4F4F4" stroke-width="4" stroke-linecap="round"/>
<path d="M764.001 578H884.001V704.997C884.001 705.55 883.553 705.997 883.001 705.997H765.001C764.449 705.997 764.001 705.55 764.001 704.997V578Z" fill="white" stroke="#F4F4F4" stroke-width="4"/>
<path d="M824.33 370.64C824.719 370.281 825.32 370.286 825.702 370.652L883.693 426.228C883.89 426.417 884.001 426.677 884.001 426.95V578H764.001L764.001 426.96C764.001 426.682 764.117 426.416 764.321 426.226L824.33 370.64Z" fill="white" stroke="#F4F4F4" stroke-width="4"/>
<path d="M823.317 390.471C823.677 390.193 824.179 390.193 824.538 390.471L852.742 412.208C853.498 412.791 853.086 414 852.131 414H795.724C794.77 414 794.358 412.791 795.114 412.208L823.317 390.471Z" fill="white" stroke="#F4F4F4" stroke-width="4"/>
<path fill-rule="evenodd" clip-rule="evenodd" d="M805.265 465.634C805.265 465.634 805.265 465.634 805.265 465.634C805.265 459.158 799.987 453.909 793.475 453.909C786.964 453.909 781.685 459.158 781.685 465.634C781.685 465.639 781.685 465.644 781.685 465.649V523.26C781.685 523.812 782.133 524.26 782.685 524.26H804.265C804.817 524.26 805.265 523.812 805.265 523.26V465.634Z" fill="white"/>
<path fill-rule="evenodd" clip-rule="evenodd" d="M869.124 474.437C869.652 474.437 870.091 474.027 870.103 473.499C870.107 473.32 870.109 473.142 870.109 472.962C870.109 460.011 859.552 449.512 846.53 449.512C833.507 449.512 822.95 460.011 822.95 472.962C822.95 473.142 822.952 473.32 822.956 473.499C822.968 474.027 823.407 474.437 823.935 474.437H869.124Z" fill="white"/>
<path fill-rule="evenodd" clip-rule="evenodd" d="M869.964 463.964C865.915 468.525 860.011 471.399 853.436 471.399C842.775 471.399 833.877 463.843 831.792 453.789C835.967 450.059 841.488 447.791 847.542 447.791C858.01 447.791 866.885 454.575 869.964 463.964Z" fill="white"/>
<path fill-rule="evenodd" clip-rule="evenodd" d="M803.791 466.864V466.864V520.091H799.054C793.531 520.091 789.054 515.614 789.054 510.091V455.508C789.733 455.334 790.436 455.219 791.156 455.168H792.847C798.963 455.599 803.791 460.671 803.791 466.864Z" fill="white"/>
<path fill-rule="evenodd" clip-rule="evenodd" d="M805.656 465.909V524.909C805.656 525.461 805.208 525.909 804.656 525.909H782.685C782.133 525.909 781.685 525.461 781.685 524.909V465.909C781.685 459.281 787.051 453.909 793.671 453.909C800.29 453.909 805.656 459.281 805.656 465.909Z" fill="white"/>
<path d="M803.656 465.909V524.909H807.656V465.909H803.656ZM804.656 523.909H782.685V527.909H804.656V523.909ZM783.685 524.909V465.909H779.685V524.909H783.685ZM783.685 465.909C783.685 460.384 788.158 455.909 793.671 455.909V451.909C785.944 451.909 779.685 458.179 779.685 465.909H783.685ZM793.671 455.909C799.183 455.909 803.656 460.384 803.656 465.909H807.656C807.656 458.179 801.397 451.909 793.671 451.909V455.909ZM782.685 523.909C783.238 523.909 783.685 524.356 783.685 524.909H779.685C779.685 526.565 781.028 527.909 782.685 527.909V523.909ZM803.656 524.909C803.656 524.356 804.104 523.909 804.656 523.909V527.909C806.313 527.909 807.656 526.565 807.656 524.909H803.656Z" fill="#F4F4F4"/>
<path fill-rule="evenodd" clip-rule="evenodd" d="M869.909 473.512C870.435 473.512 870.874 473.103 870.886 472.577C870.89 472.415 870.892 472.253 870.892 472.091C870.892 459.621 860.159 449.512 846.921 449.512C833.682 449.512 822.95 459.621 822.95 472.091C822.95 472.253 822.952 472.415 822.955 472.577C822.967 473.103 823.406 473.512 823.933 473.512H869.909Z" fill="white"/>
<path d="M870.886 472.577L872.886 472.621L870.886 472.577ZM868.892 472.091C868.892 472.238 868.89 472.385 868.887 472.532L872.886 472.621C872.89 472.445 872.892 472.268 872.892 472.091H868.892ZM846.921 451.512C859.169 451.512 868.892 460.836 868.892 472.091H872.892C872.892 458.405 861.15 447.512 846.921 447.512V451.512ZM824.95 472.091C824.95 460.836 834.672 451.512 846.921 451.512V447.512C832.692 447.512 820.95 458.405 820.95 472.091H824.95ZM824.955 472.532C824.952 472.385 824.95 472.238 824.95 472.091H820.95C820.95 472.268 820.952 472.445 820.956 472.621L824.955 472.532ZM823.933 475.512H869.909V471.512H823.933V475.512ZM820.956 472.621C820.993 474.291 822.376 475.512 823.933 475.512V471.512C824.437 471.512 824.941 471.916 824.955 472.532L820.956 472.621ZM868.887 472.532C868.9 471.916 869.405 471.512 869.909 471.512V475.512C871.466 475.512 872.848 474.291 872.886 472.621L868.887 472.532Z" fill="#F4F4F4"/>
<path d="M783.159 555.038H804.837" stroke="#F4F4F4" stroke-width="4" stroke-linecap="round"/>
<path d="M789.482 545.365H811.16" stroke="#F4F4F4" stroke-width="4" stroke-linecap="round"/>
<path d="M797.611 554.159V547.124" stroke="#F4F4F4" stroke-width="4"/>
<path d="M803.933 544.486V537.451" stroke="#F4F4F4" stroke-width="4" stroke-linecap="round"/>
<path d="M771.893 438.061C813.171 416.328 858.341 429.006 875.767 438.061" stroke="#F4F4F4" stroke-width="4" stroke-linecap="round"/>
<rect x="842.001" y="626" width="24" height="24" rx="1" fill="white" stroke="#F4F4F4" stroke-width="4"/>
<rect x="778.001" y="589" width="88" height="24" rx="1" fill="white" stroke="#F4F4F4" stroke-width="4"/>
<path d="M842.108 679.619H863.786" stroke="#F4F4F4" stroke-width="4" stroke-linecap="round"/>
<path d="M848.431 669.945H870.109" stroke="#F4F4F4" stroke-width="4" stroke-linecap="round"/>
<path d="M856.56 678.739V671.704" stroke="#F4F4F4" stroke-width="4"/>
<path d="M862.883 669.066V662.031" stroke="#F4F4F4" stroke-width="4" stroke-linecap="round"/>
<rect x="822.95" y="484.687" width="47.9416" height="80" rx="1" fill="white" stroke="#F4F4F4" stroke-width="4"/>
<rect x="834.935" y="496.116" width="23.9708" height="24" rx="1" fill="white" stroke="#F4F4F4" stroke-width="4"/>
<path d="M777.001 627C777.001 626.448 777.449 626 778.001 626H824.001C824.553 626 825.001 626.448 825.001 627V706H777.001V627Z" fill="white" stroke="#F4F4F4" stroke-width="4"/>
<path d="M789.001 641.593H813.001" stroke="#F4F4F4" stroke-width="4" stroke-linecap="round"/>
<path d="M420.001 577.997H524.001V704.997C524.001 705.549 523.553 705.997 523.001 705.997H421.001C420.448 705.997 420.001 705.549 420.001 704.997V577.997Z" fill="white" stroke="#F4F4F4" stroke-width="4"/>
<path fill-rule="evenodd" clip-rule="evenodd" d="M523.265 449.235C523.08 449.235 522.901 449.165 522.765 449.038L472.475 402.268C472.091 401.911 471.497 401.911 471.113 402.268L420.704 449.149C420.644 449.204 420.566 449.235 420.485 449.235H420.453C420.293 449.235 420.163 449.365 420.163 449.526V449.595C420.163 449.631 420.147 449.666 420.121 449.691L420.026 449.779C419.972 449.83 420.008 449.92 420.081 449.92C420.126 449.92 420.163 449.956 420.163 450.001V576.997C420.163 577.549 420.61 577.997 421.163 577.997H523.001C523.553 577.997 524.001 577.549 524.001 576.997V449.97C524.001 449.564 523.672 449.235 523.265 449.235Z" fill="white"/>
<path d="M420.026 449.779L418.664 448.315L420.026 449.779ZM420.121 449.691L418.759 448.227L420.121 449.691ZM420.704 449.149L422.066 450.613L420.704 449.149ZM522.765 449.038L521.403 450.503L522.765 449.038ZM472.475 402.268L473.837 400.803L472.475 402.268ZM471.113 402.268L469.751 400.803L471.113 402.268ZM471.113 403.732L521.403 450.503L524.127 447.574L473.837 400.803L471.113 403.732ZM422.066 450.613L472.475 403.732L469.751 400.803L419.342 447.684L422.066 450.613ZM420.453 451.235H420.485V447.235H420.453V451.235ZM422.163 449.595V449.526H418.163V449.595H422.163ZM421.388 451.244L421.483 451.156L418.759 448.227L418.664 448.315L421.388 451.244ZM422.163 576.997V450.001H418.163V576.997H422.163ZM523.001 575.997H421.163V579.997H523.001V575.997ZM522.001 449.97V576.997H526.001V449.97H522.001ZM526.001 449.97C526.001 448.46 524.776 447.235 523.265 447.235V451.235C522.567 451.235 522.001 450.669 522.001 449.97H526.001ZM523.001 579.997C524.658 579.997 526.001 578.654 526.001 576.997H522.001C522.001 576.445 522.449 575.997 523.001 575.997V579.997ZM418.163 576.997C418.163 578.654 419.506 579.997 421.163 579.997V575.997C421.715 575.997 422.163 576.445 422.163 576.997H418.163ZM420.081 451.92C419.022 451.92 418.163 451.061 418.163 450.001H422.163C422.163 448.852 421.231 447.92 420.081 447.92V451.92ZM418.664 448.315C417.279 449.602 418.191 451.92 420.081 451.92V447.92C421.825 447.92 422.665 450.057 421.388 451.244L418.664 448.315ZM418.163 449.595C418.163 449.076 418.379 448.58 418.759 448.227L421.483 451.156C421.916 450.753 422.163 450.187 422.163 449.595H418.163ZM420.453 447.235C419.188 447.235 418.163 448.261 418.163 449.526H422.163C422.163 450.47 421.397 451.235 420.453 451.235V447.235ZM419.342 447.684C419.652 447.396 420.061 447.235 420.485 447.235V451.235C421.071 451.235 421.636 451.013 422.066 450.613L419.342 447.684ZM521.403 450.503C521.909 450.973 522.574 451.235 523.265 451.235V447.235C523.585 447.235 523.893 447.356 524.127 447.574L521.403 450.503ZM473.837 400.803C472.685 399.732 470.902 399.732 469.751 400.803L472.475 403.732C472.091 404.089 471.497 404.089 471.113 403.732L473.837 400.803Z" fill="#F4F4F4"/>
<path fill-rule="evenodd" clip-rule="evenodd" d="M495.018 450.796C495.544 450.796 495.983 450.388 495.995 449.861C495.999 449.7 496.001 449.538 496.001 449.376C496.001 436.905 485.255 426.796 472.001 426.796C458.746 426.796 448.001 436.905 448.001 449.376C448.001 449.538 448.002 449.7 448.006 449.861C448.018 450.388 448.457 450.796 448.984 450.796H495.018Z" fill="white"/>
<path d="M495.995 449.861L493.996 449.816L495.995 449.861ZM494.001 449.376C494.001 449.523 493.999 449.67 493.996 449.816L497.995 449.906C497.999 449.73 498.001 449.553 498.001 449.376H494.001ZM472.001 428.796C484.268 428.796 494.001 438.123 494.001 449.376H498.001C498.001 435.688 486.243 424.796 472.001 424.796V428.796ZM450.001 449.376C450.001 438.123 459.734 428.796 472.001 428.796V424.796C457.758 424.796 446.001 435.688 446.001 449.376H450.001ZM450.006 449.816C450.002 449.67 450.001 449.523 450.001 449.376H446.001C446.001 449.553 446.003 449.73 446.007 449.906L450.006 449.816ZM448.984 452.796H495.018V448.796H448.984V452.796ZM446.007 449.906C446.044 451.575 447.426 452.796 448.984 452.796V448.796C449.487 448.796 449.992 449.2 450.006 449.816L446.007 449.906ZM493.996 449.816C494.01 449.2 494.514 448.796 495.018 448.796V452.796C496.575 452.796 497.957 451.575 497.995 449.906L493.996 449.816Z" fill="#F4F4F4"/>
<path d="M423.778 471.296C461.927 449.563 503.674 462.241 519.778 471.296" stroke="#F4F4F4" stroke-width="4" stroke-linecap="round"/>
<path d="M482.112 494.501H500.692" stroke="#F4F4F4" stroke-width="4" stroke-linecap="round"/>
<path d="M487.531 485.701H506.112" stroke="#F4F4F4" stroke-width="4" stroke-linecap="round"/>
<path d="M494.499 493.701V487.301" stroke="#F4F4F4" stroke-width="4"/>
<path d="M499.918 484.901V478.501" stroke="#F4F4F4" stroke-width="4" stroke-linecap="round"/>
<line x1="456.556" y1="585.774" x2="492.556" y2="585.774" stroke="#F4F4F4" stroke-width="4" stroke-linecap="round"/>
<line x1="456.556" y1="597.592" x2="492.556" y2="597.592" stroke="#F4F4F4" stroke-width="4" stroke-linecap="round"/>
<line x1="456.556" y1="609.41" x2="492.556" y2="609.41" stroke="#F4F4F4" stroke-width="4" stroke-linecap="round"/>
<line x1="456.556" y1="621.229" x2="492.556" y2="621.229" stroke="#F4F4F4" stroke-width="4" stroke-linecap="round"/>
<line x1="456.556" y1="633.047" x2="492.556" y2="633.047" stroke="#F4F4F4" stroke-width="4" stroke-linecap="round"/>
<line x1="456.556" y1="644.865" x2="492.556" y2="644.865" stroke="#F4F4F4" stroke-width="4" stroke-linecap="round"/>
<line x1="456.556" y1="656.683" x2="492.556" y2="656.683" stroke="#F4F4F4" stroke-width="4" stroke-linecap="round"/>
<line x1="456.556" y1="668.502" x2="492.556" y2="668.502" stroke="#F4F4F4" stroke-width="4" stroke-linecap="round"/>
<line x1="456.556" y1="680.32" x2="492.556" y2="680.32" stroke="#F4F4F4" stroke-width="4" stroke-linecap="round"/>
<line x1="456.556" y1="692.138" x2="492.556" y2="692.138" stroke="#F4F4F4" stroke-width="4" stroke-linecap="round"/>
<line x1="456.556" y1="703.956" x2="492.556" y2="703.956" stroke="#F4F4F4" stroke-width="4" stroke-linecap="round"/>
<path d="M454.112 576.956V704.956" stroke="#F4F4F4" stroke-width="4" stroke-linecap="round"/>
<path d="M494.112 576.956V704.956" stroke="#F4F4F4" stroke-width="4" stroke-linecap="round"/>
<rect x="450.334" y="505.047" width="48" height="72" rx="1" fill="white" stroke="#F4F4F4" stroke-width="4"/>
<rect x="462.334" y="515.547" width="24" height="12" rx="1" fill="white" stroke="#F4F4F4" stroke-width="4"/>
<path d="M884.002 577.997H988.002V704.997C988.002 705.549 987.554 705.997 987.002 705.997H885.002C884.449 705.997 884.002 705.549 884.002 704.997V577.997Z" fill="white" stroke="#F4F4F4" stroke-width="4"/>
<path fill-rule="evenodd" clip-rule="evenodd" d="M987.266 449.235C987.081 449.235 986.902 449.165 986.766 449.038L936.476 402.268C936.092 401.911 935.498 401.911 935.114 402.268L884.705 449.149C884.645 449.204 884.567 449.235 884.486 449.235H884.454C884.294 449.235 884.164 449.365 884.164 449.526V449.595C884.164 449.631 884.148 449.666 884.121 449.691L884.027 449.779C883.973 449.83 884.009 449.92 884.082 449.92C884.127 449.92 884.164 449.956 884.164 450.001V576.997C884.164 577.549 884.611 577.997 885.164 577.997H987.002C987.554 577.997 988.002 577.549 988.002 576.997V449.97C988.002 449.564 987.673 449.235 987.266 449.235Z" fill="white"/>
<path d="M884.027 449.779L882.665 448.315L884.027 449.779ZM884.121 449.691L882.759 448.227L884.121 449.691ZM884.705 449.149L886.067 450.613L884.705 449.149ZM986.766 449.038L985.404 450.503L986.766 449.038ZM936.476 402.268L937.838 400.803L936.476 402.268ZM935.114 402.268L933.752 400.803L935.114 402.268ZM935.114 403.732L985.404 450.503L988.128 447.574L937.838 400.803L935.114 403.732ZM886.067 450.613L936.476 403.732L933.752 400.803L883.343 447.684L886.067 450.613ZM884.454 451.235H884.486V447.235H884.454V451.235ZM886.164 449.595V449.526H882.164V449.595H886.164ZM885.389 451.244L885.484 451.156L882.759 448.227L882.665 448.315L885.389 451.244ZM886.164 576.997V450.001H882.164V576.997H886.164ZM987.002 575.997H885.164V579.997H987.002V575.997ZM986.002 449.97V576.997H990.002V449.97H986.002ZM990.002 449.97C990.002 448.46 988.777 447.235 987.266 447.235V451.235C986.568 451.235 986.002 450.669 986.002 449.97H990.002ZM987.002 579.997C988.659 579.997 990.002 578.654 990.002 576.997H986.002C986.002 576.445 986.45 575.997 987.002 575.997V579.997ZM882.164 576.997C882.164 578.654 883.507 579.997 885.164 579.997V575.997C885.716 575.997 886.164 576.445 886.164 576.997H882.164ZM884.082 451.92C883.023 451.92 882.164 451.061 882.164 450.001H886.164C886.164 448.852 885.232 447.92 884.082 447.92V451.92ZM882.665 448.315C881.28 449.602 882.192 451.92 884.082 451.92V447.92C885.825 447.92 886.665 450.057 885.389 451.244L882.665 448.315ZM882.164 449.595C882.164 449.076 882.379 448.58 882.759 448.227L885.484 451.156C885.917 450.753 886.164 450.187 886.164 449.595H882.164ZM884.454 447.235C883.189 447.235 882.164 448.261 882.164 449.526H886.164C886.164 450.47 885.398 451.235 884.454 451.235V447.235ZM883.343 447.684C883.653 447.396 884.062 447.235 884.486 447.235V451.235C885.072 451.235 885.637 451.013 886.067 450.613L883.343 447.684ZM985.404 450.503C985.91 450.973 986.575 451.235 987.266 451.235V447.235C987.586 447.235 987.894 447.356 988.128 447.574L985.404 450.503ZM937.838 400.803C936.686 399.732 934.903 399.732 933.752 400.803L936.476 403.732C936.092 404.089 935.498 404.089 935.114 403.732L937.838 400.803Z" fill="#F4F4F4"/>
<path fill-rule="evenodd" clip-rule="evenodd" d="M959.019 450.796C959.545 450.796 959.984 450.388 959.996 449.861C960 449.7 960.002 449.538 960.002 449.376C960.002 436.905 949.256 426.796 936.002 426.796C922.747 426.796 912.002 436.905 912.002 449.376C912.002 449.538 912.003 449.7 912.007 449.861C912.019 450.388 912.458 450.796 912.984 450.796H959.019Z" fill="white"/>
<path d="M959.996 449.861L957.997 449.816L959.996 449.861ZM958.002 449.376C958.002 449.523 958 449.67 957.997 449.816L961.996 449.906C962 449.73 962.002 449.553 962.002 449.376H958.002ZM936.002 428.796C948.269 428.796 958.002 438.123 958.002 449.376H962.002C962.002 435.688 950.244 424.796 936.002 424.796V428.796ZM914.002 449.376C914.002 438.123 923.735 428.796 936.002 428.796V424.796C921.759 424.796 910.002 435.688 910.002 449.376H914.002ZM914.006 449.816C914.003 449.67 914.002 449.523 914.002 449.376H910.002C910.002 449.553 910.004 449.73 910.007 449.906L914.006 449.816ZM912.984 452.796H959.019V448.796H912.984V452.796ZM910.007 449.906C910.045 451.575 911.427 452.796 912.984 452.796V448.796C913.488 448.796 913.993 449.2 914.006 449.816L910.007 449.906ZM957.997 449.816C958.01 449.2 958.515 448.796 959.019 448.796V452.796C960.576 452.796 961.958 451.575 961.996 449.906L957.997 449.816Z" fill="#F4F4F4"/>
<path d="M887.779 471.296C925.928 449.563 967.675 462.241 983.779 471.296" stroke="#F4F4F4" stroke-width="4" stroke-linecap="round"/>
<path d="M946.113 494.501H964.693" stroke="#F4F4F4" stroke-width="4" stroke-linecap="round"/>
<path d="M951.532 485.701H970.113" stroke="#F4F4F4" stroke-width="4" stroke-linecap="round"/>
<path d="M958.5 493.701V487.301" stroke="#F4F4F4" stroke-width="4"/>
<path d="M963.919 484.901V478.501" stroke="#F4F4F4" stroke-width="4" stroke-linecap="round"/>
<line x1="920.557" y1="585.774" x2="956.557" y2="585.774" stroke="#F4F4F4" stroke-width="4" stroke-linecap="round"/>
<line x1="920.557" y1="597.592" x2="956.557" y2="597.592" stroke="#F4F4F4" stroke-width="4" stroke-linecap="round"/>
<line x1="920.557" y1="609.41" x2="956.557" y2="609.41" stroke="#F4F4F4" stroke-width="4" stroke-linecap="round"/>
<line x1="920.557" y1="621.229" x2="956.557" y2="621.229" stroke="#F4F4F4" stroke-width="4" stroke-linecap="round"/>
<line x1="920.557" y1="633.047" x2="956.557" y2="633.047" stroke="#F4F4F4" stroke-width="4" stroke-linecap="round"/>
<line x1="920.557" y1="644.865" x2="956.557" y2="644.865" stroke="#F4F4F4" stroke-width="4" stroke-linecap="round"/>
<line x1="920.557" y1="656.683" x2="956.557" y2="656.683" stroke="#F4F4F4" stroke-width="4" stroke-linecap="round"/>
<line x1="920.557" y1="668.502" x2="956.557" y2="668.502" stroke="#F4F4F4" stroke-width="4" stroke-linecap="round"/>
<line x1="920.557" y1="680.32" x2="956.557" y2="680.32" stroke="#F4F4F4" stroke-width="4" stroke-linecap="round"/>
<line x1="920.557" y1="692.138" x2="956.557" y2="692.138" stroke="#F4F4F4" stroke-width="4" stroke-linecap="round"/>
<line x1="920.557" y1="703.956" x2="956.557" y2="703.956" stroke="#F4F4F4" stroke-width="4" stroke-linecap="round"/>
<path d="M918.113 576.956V704.956" stroke="#F4F4F4" stroke-width="4" stroke-linecap="round"/>
<path d="M958.113 576.956V704.956" stroke="#F4F4F4" stroke-width="4" stroke-linecap="round"/>
<rect x="914.335" y="505.047" width="48" height="72" rx="1" fill="white" stroke="#F4F4F4" stroke-width="4"/>
<rect x="926.335" y="515.547" width="24" height="12" rx="1" fill="white" stroke="#F4F4F4" stroke-width="4"/>
<path d="M1108 577.812H1228V705C1228 705.552 1227.55 706 1227 706H1109C1108.45 706 1108 705.552 1108 705V577.812Z" fill="white" stroke="#F4F4F4" stroke-width="4"/>
<path d="M1167.35 402.558C1167.73 402.237 1168.28 402.237 1168.65 402.558L1227.65 453.123C1227.87 453.313 1228 453.591 1228 453.883V578.259H1108L1108 453.883C1108 453.591 1108.13 453.313 1108.35 453.123L1167.35 402.558Z" fill="white" stroke="#F4F4F4" stroke-width="4"/>
<path fill-rule="evenodd" clip-rule="evenodd" d="M1189.4 483.762C1189.93 483.762 1190.37 483.351 1190.38 482.823C1190.39 482.645 1190.39 482.466 1190.39 482.286C1190.39 469.335 1179.82 458.836 1166.78 458.836C1153.74 458.836 1143.17 469.335 1143.17 482.286C1143.17 482.466 1143.17 482.645 1143.18 482.823C1143.19 483.351 1143.63 483.762 1144.16 483.762H1189.4Z" fill="white"/>
<path fill-rule="evenodd" clip-rule="evenodd" d="M1190.19 482.64C1190.71 482.64 1191.15 482.231 1191.16 481.704C1191.17 481.543 1191.17 481.381 1191.17 481.219C1191.17 468.749 1180.42 458.64 1167.17 458.64C1153.92 458.64 1143.17 468.749 1143.17 481.219C1143.17 481.381 1143.17 481.543 1143.18 481.704C1143.19 482.231 1143.63 482.64 1144.15 482.64H1190.19Z" fill="white"/>
<path d="M1191.16 481.704L1189.17 481.66L1191.16 481.704ZM1189.17 481.219C1189.17 481.366 1189.17 481.513 1189.17 481.66L1193.16 481.749C1193.17 481.573 1193.17 481.396 1193.17 481.219H1189.17ZM1167.17 460.64C1179.44 460.64 1189.17 469.966 1189.17 481.219H1193.17C1193.17 467.531 1181.41 456.64 1167.17 456.64V460.64ZM1145.17 481.219C1145.17 469.966 1154.9 460.64 1167.17 460.64V456.64C1152.93 456.64 1141.17 467.531 1141.17 481.219H1145.17ZM1145.18 481.66C1145.17 481.513 1145.17 481.366 1145.17 481.219H1141.17C1141.17 481.396 1141.17 481.573 1141.18 481.749L1145.18 481.66ZM1144.15 484.64H1190.19V480.64H1144.15V484.64ZM1141.18 481.749C1141.21 483.418 1142.6 484.64 1144.15 484.64V480.64C1144.66 480.64 1145.16 481.043 1145.18 481.66L1141.18 481.749ZM1189.17 481.66C1189.18 481.043 1189.68 480.64 1190.19 480.64V484.64C1191.74 484.64 1193.13 483.418 1193.16 481.749L1189.17 481.66Z" fill="#F4F4F4"/>
<rect x="1119.56" y="498" width="16" height="48" rx="1" fill="white" stroke="#F4F4F4" stroke-width="4"/>
<rect x="1199.56" y="498" width="16" height="48" rx="1" fill="white" stroke="#F4F4F4" stroke-width="4"/>
<rect x="1143.17" y="498" width="48" height="80" rx="1" fill="white" stroke="#F4F4F4" stroke-width="4"/>
<path d="M1125.46 457.37H1147.17" stroke="#F4F4F4" stroke-width="4" stroke-linecap="round"/>
<path d="M1131.79 447.697H1153.5" stroke="#F4F4F4" stroke-width="4" stroke-linecap="round"/>
<path d="M1139.93 456.491V449.456" stroke="#F4F4F4" stroke-width="4"/>
<path d="M1146.26 446.817V439.782" stroke="#F4F4F4" stroke-width="4" stroke-linecap="round"/>
<path d="M1166.78 567.828V703.828" stroke="#F4F4F4" stroke-width="4" stroke-linecap="round"/>
<path d="M1148.33 579.149C1142.43 585.012 1133.58 587.857 1133.58 606.996C1133.58 628.981 1174.89 638.508 1192.6 656.096C1210.31 673.684 1209.57 685.409 1208.09 700.798" stroke="#F4F4F4" stroke-width="4" stroke-linecap="round"/>
<path d="M1155.71 581.348H1179.32M1155.71 581.348H1179.32" stroke="#F4F4F4" stroke-width="4" stroke-linecap="round"/>
<path d="M1146.12 593.073H1169.73M1146.12 593.073H1169.73" stroke="#F4F4F4" stroke-width="4" stroke-linecap="round"/>
<path d="M1141.69 604.798H1165.3M1141.69 604.798H1165.3" stroke="#F4F4F4" stroke-width="4" stroke-linecap="round"/>
<path d="M1144.65 616.523H1168.25M1144.65 616.523H1168.25" stroke="#F4F4F4" stroke-width="4" stroke-linecap="round"/>
<path d="M1175.63 700.065H1199.24M1175.63 700.065H1199.24" stroke="#F4F4F4" stroke-width="4" stroke-linecap="round"/>
<path d="M1178.58 688.34H1202.19M1178.58 688.34H1202.19" stroke="#F4F4F4" stroke-width="4" stroke-linecap="round"/>
<path d="M1180.06 676.615H1197.76M1180.06 676.615H1197.76" stroke="#F4F4F4" stroke-width="4" stroke-linecap="round"/>
<path d="M1175.63 666.355H1193.34M1175.63 666.355H1193.34" stroke="#F4F4F4" stroke-width="4" stroke-linecap="round"/>
<path d="M1172.68 656.096H1184.48M1172.68 656.096H1184.48" stroke="#F4F4F4" stroke-width="4" stroke-linecap="round"/>
<path d="M1153.5 626.783H1165.3M1153.5 626.783H1165.3" stroke="#F4F4F4" stroke-width="4" stroke-linecap="round"/>
<path d="M988.002 578H1108V704.997C1108 705.55 1107.55 705.997 1107 705.997H989.002C988.449 705.997 988.002 705.55 988.002 704.997V578Z" fill="white" stroke="#F4F4F4" stroke-width="4"/>
<path d="M1048.33 370.64C1048.72 370.281 1049.32 370.286 1049.7 370.652L1107.69 426.228C1107.89 426.417 1108 426.677 1108 426.95V578H988.002L988.002 426.96C988.002 426.682 988.118 426.416 988.322 426.226L1048.33 370.64Z" fill="white" stroke="#F4F4F4" stroke-width="4"/>
<path d="M1047.32 390.471C1047.68 390.193 1048.18 390.193 1048.54 390.471L1076.74 412.208C1077.5 412.791 1077.09 414 1076.13 414H1019.73C1018.77 414 1018.36 412.791 1019.11 412.208L1047.32 390.471Z" fill="white" stroke="#F4F4F4" stroke-width="4"/>
<path fill-rule="evenodd" clip-rule="evenodd" d="M1029.27 465.634C1029.27 465.634 1029.27 465.634 1029.27 465.634C1029.27 459.158 1023.99 453.909 1017.48 453.909C1010.96 453.909 1005.69 459.158 1005.69 465.634C1005.69 465.639 1005.69 465.644 1005.69 465.649V523.26C1005.69 523.812 1006.13 524.26 1006.69 524.26H1028.27C1028.82 524.26 1029.27 523.812 1029.27 523.26V465.634Z" fill="white"/>
<path fill-rule="evenodd" clip-rule="evenodd" d="M1093.12 474.437C1093.65 474.437 1094.09 474.027 1094.1 473.499C1094.11 473.32 1094.11 473.142 1094.11 472.962C1094.11 460.011 1083.55 449.512 1070.53 449.512C1057.51 449.512 1046.95 460.011 1046.95 472.962C1046.95 473.142 1046.95 473.32 1046.96 473.499C1046.97 474.027 1047.41 474.437 1047.94 474.437H1093.12Z" fill="white"/>
<path fill-rule="evenodd" clip-rule="evenodd" d="M1093.97 463.964C1089.92 468.525 1084.01 471.399 1077.44 471.399C1066.78 471.399 1057.88 463.843 1055.79 453.789C1059.97 450.059 1065.49 447.791 1071.54 447.791C1082.01 447.791 1090.89 454.575 1093.97 463.964Z" fill="white"/>
<path fill-rule="evenodd" clip-rule="evenodd" d="M1027.79 466.864V466.864V520.091H1023.05C1017.53 520.091 1013.05 515.614 1013.05 510.091V455.508C1013.73 455.334 1014.44 455.219 1015.16 455.168H1016.85C1022.96 455.599 1027.79 460.671 1027.79 466.864Z" fill="white"/>
<path fill-rule="evenodd" clip-rule="evenodd" d="M1029.66 465.909V524.909C1029.66 525.461 1029.21 525.909 1028.66 525.909H1006.69C1006.13 525.909 1005.69 525.461 1005.69 524.909V465.909C1005.69 459.281 1011.05 453.909 1017.67 453.909C1024.29 453.909 1029.66 459.281 1029.66 465.909Z" fill="white"/>
<path d="M1027.66 465.909V524.909H1031.66V465.909H1027.66ZM1028.66 523.909H1006.69V527.909H1028.66V523.909ZM1007.69 524.909V465.909H1003.69V524.909H1007.69ZM1007.69 465.909C1007.69 460.384 1012.16 455.909 1017.67 455.909V451.909C1009.95 451.909 1003.69 458.179 1003.69 465.909H1007.69ZM1017.67 455.909C1023.18 455.909 1027.66 460.384 1027.66 465.909H1031.66C1031.66 458.179 1025.4 451.909 1017.67 451.909V455.909ZM1006.69 523.909C1007.24 523.909 1007.69 524.356 1007.69 524.909H1003.69C1003.69 526.565 1005.03 527.909 1006.69 527.909V523.909ZM1027.66 524.909C1027.66 524.356 1028.1 523.909 1028.66 523.909V527.909C1030.31 527.909 1031.66 526.565 1031.66 524.909H1027.66Z" fill="#F4F4F4"/>
<path fill-rule="evenodd" clip-rule="evenodd" d="M1093.91 473.512C1094.44 473.512 1094.88 473.103 1094.89 472.577C1094.89 472.415 1094.89 472.253 1094.89 472.091C1094.89 459.621 1084.16 449.512 1070.92 449.512C1057.68 449.512 1046.95 459.621 1046.95 472.091C1046.95 472.253 1046.95 472.415 1046.96 472.577C1046.97 473.103 1047.41 473.512 1047.93 473.512H1093.91Z" fill="white"/>
<path d="M1094.89 472.577L1096.89 472.621L1094.89 472.577ZM1092.89 472.091C1092.89 472.238 1092.89 472.385 1092.89 472.532L1096.89 472.621C1096.89 472.445 1096.89 472.268 1096.89 472.091H1092.89ZM1070.92 451.512C1083.17 451.512 1092.89 460.836 1092.89 472.091H1096.89C1096.89 458.405 1085.15 447.512 1070.92 447.512V451.512ZM1048.95 472.091C1048.95 460.836 1058.67 451.512 1070.92 451.512V447.512C1056.69 447.512 1044.95 458.405 1044.95 472.091H1048.95ZM1048.96 472.532C1048.95 472.385 1048.95 472.238 1048.95 472.091H1044.95C1044.95 472.268 1044.95 472.445 1044.96 472.621L1048.96 472.532ZM1047.93 475.512H1093.91V471.512H1047.93V475.512ZM1044.96 472.621C1044.99 474.291 1046.38 475.512 1047.93 475.512V471.512C1048.44 471.512 1048.94 471.916 1048.96 472.532L1044.96 472.621ZM1092.89 472.532C1092.9 471.916 1093.41 471.512 1093.91 471.512V475.512C1095.47 475.512 1096.85 474.291 1096.89 472.621L1092.89 472.532Z" fill="#F4F4F4"/>
<path d="M1007.16 555.038H1028.84" stroke="#F4F4F4" stroke-width="4" stroke-linecap="round"/>
<path d="M1013.48 545.365H1035.16" stroke="#F4F4F4" stroke-width="4" stroke-linecap="round"/>
<path d="M1021.61 554.159V547.124" stroke="#F4F4F4" stroke-width="4"/>
<path d="M1027.93 544.486V537.451" stroke="#F4F4F4" stroke-width="4" stroke-linecap="round"/>
<path d="M995.894 438.061C1037.17 416.328 1082.34 429.006 1099.77 438.061" stroke="#F4F4F4" stroke-width="4" stroke-linecap="round"/>
<rect x="1066" y="626" width="24" height="24" rx="1" fill="white" stroke="#F4F4F4" stroke-width="4"/>
<rect x="1002" y="589" width="88" height="24" rx="1" fill="white" stroke="#F4F4F4" stroke-width="4"/>
<path d="M1066.11 679.619H1087.79" stroke="#F4F4F4" stroke-width="4" stroke-linecap="round"/>
<path d="M1072.43 669.945H1094.11" stroke="#F4F4F4" stroke-width="4" stroke-linecap="round"/>
<path d="M1080.56 678.739V671.704" stroke="#F4F4F4" stroke-width="4"/>
<path d="M1086.88 669.066V662.031" stroke="#F4F4F4" stroke-width="4" stroke-linecap="round"/>
<rect x="1046.95" y="484.687" width="47.9416" height="80" rx="1" fill="white" stroke="#F4F4F4" stroke-width="4"/>
<rect x="1058.94" y="496.116" width="23.9708" height="24" rx="1" fill="white" stroke="#F4F4F4" stroke-width="4"/>
<path d="M1001 627C1001 626.448 1001.45 626 1002 626H1048C1048.55 626 1049 626.448 1049 627V706H1001V627Z" fill="white" stroke="#F4F4F4" stroke-width="4"/>
<path d="M1013 641.593H1037" stroke="#F4F4F4" stroke-width="4" stroke-linecap="round"/>
<path d="M1228 578H1348V704.997C1348 705.55 1347.55 705.997 1347 705.997H1229C1228.45 705.997 1228 705.55 1228 704.997V578Z" fill="white" stroke="#F4F4F4" stroke-width="4"/>
<path d="M1288.33 370.64C1288.72 370.281 1289.32 370.286 1289.7 370.652L1347.69 426.228C1347.89 426.417 1348 426.677 1348 426.95V578H1228L1228 426.96C1228 426.682 1228.12 426.416 1228.32 426.226L1288.33 370.64Z" fill="white" stroke="#F4F4F4" stroke-width="4"/>
<path d="M1287.32 390.471C1287.68 390.193 1288.18 390.193 1288.54 390.471L1316.74 412.208C1317.5 412.791 1317.09 414 1316.13 414H1259.73C1258.77 414 1258.36 412.791 1259.11 412.208L1287.32 390.471Z" fill="white" stroke="#F4F4F4" stroke-width="4"/>
<path fill-rule="evenodd" clip-rule="evenodd" d="M1269.27 465.634C1269.27 465.634 1269.27 465.634 1269.27 465.634C1269.27 459.158 1263.99 453.909 1257.48 453.909C1250.96 453.909 1245.69 459.158 1245.69 465.634C1245.69 465.639 1245.69 465.644 1245.69 465.649V523.26C1245.69 523.812 1246.13 524.26 1246.69 524.26H1268.27C1268.82 524.26 1269.27 523.812 1269.27 523.26V465.634Z" fill="white"/>
<path fill-rule="evenodd" clip-rule="evenodd" d="M1333.12 474.437C1333.65 474.437 1334.09 474.027 1334.1 473.499C1334.11 473.32 1334.11 473.142 1334.11 472.962C1334.11 460.011 1323.55 449.512 1310.53 449.512C1297.51 449.512 1286.95 460.011 1286.95 472.962C1286.95 473.142 1286.95 473.32 1286.96 473.499C1286.97 474.027 1287.41 474.437 1287.94 474.437H1333.12Z" fill="white"/>
<path fill-rule="evenodd" clip-rule="evenodd" d="M1333.97 463.964C1329.92 468.525 1324.01 471.399 1317.44 471.399C1306.78 471.399 1297.88 463.843 1295.79 453.789C1299.97 450.059 1305.49 447.791 1311.54 447.791C1322.01 447.791 1330.89 454.575 1333.97 463.964Z" fill="white"/>
<path fill-rule="evenodd" clip-rule="evenodd" d="M1267.79 466.864V466.864V520.091H1263.05C1257.53 520.091 1253.05 515.614 1253.05 510.091V455.508C1253.73 455.334 1254.44 455.219 1255.16 455.168H1256.85C1262.96 455.599 1267.79 460.671 1267.79 466.864Z" fill="white"/>
<path fill-rule="evenodd" clip-rule="evenodd" d="M1269.66 465.909V524.909C1269.66 525.461 1269.21 525.909 1268.66 525.909H1246.69C1246.13 525.909 1245.69 525.461 1245.69 524.909V465.909C1245.69 459.281 1251.05 453.909 1257.67 453.909C1264.29 453.909 1269.66 459.281 1269.66 465.909Z" fill="white"/>
<path d="M1267.66 465.909V524.909H1271.66V465.909H1267.66ZM1268.66 523.909H1246.69V527.909H1268.66V523.909ZM1247.69 524.909V465.909H1243.69V524.909H1247.69ZM1247.69 465.909C1247.69 460.384 1252.16 455.909 1257.67 455.909V451.909C1249.95 451.909 1243.69 458.179 1243.69 465.909H1247.69ZM1257.67 455.909C1263.18 455.909 1267.66 460.384 1267.66 465.909H1271.66C1271.66 458.179 1265.4 451.909 1257.67 451.909V455.909ZM1246.69 523.909C1247.24 523.909 1247.69 524.356 1247.69 524.909H1243.69C1243.69 526.565 1245.03 527.909 1246.69 527.909V523.909ZM1267.66 524.909C1267.66 524.356 1268.1 523.909 1268.66 523.909V527.909C1270.31 527.909 1271.66 526.565 1271.66 524.909H1267.66Z" fill="#F4F4F4"/>
<path fill-rule="evenodd" clip-rule="evenodd" d="M1333.91 473.512C1334.44 473.512 1334.88 473.103 1334.89 472.577C1334.89 472.415 1334.89 472.253 1334.89 472.091C1334.89 459.621 1324.16 449.512 1310.92 449.512C1297.68 449.512 1286.95 459.621 1286.95 472.091C1286.95 472.253 1286.95 472.415 1286.96 472.577C1286.97 473.103 1287.41 473.512 1287.93 473.512H1333.91Z" fill="white"/>
<path d="M1334.89 472.577L1336.89 472.621L1334.89 472.577ZM1332.89 472.091C1332.89 472.238 1332.89 472.385 1332.89 472.532L1336.89 472.621C1336.89 472.445 1336.89 472.268 1336.89 472.091H1332.89ZM1310.92 451.512C1323.17 451.512 1332.89 460.836 1332.89 472.091H1336.89C1336.89 458.405 1325.15 447.512 1310.92 447.512V451.512ZM1288.95 472.091C1288.95 460.836 1298.67 451.512 1310.92 451.512V447.512C1296.69 447.512 1284.95 458.405 1284.95 472.091H1288.95ZM1288.96 472.532C1288.95 472.385 1288.95 472.238 1288.95 472.091H1284.95C1284.95 472.268 1284.95 472.445 1284.96 472.621L1288.96 472.532ZM1287.93 475.512H1333.91V471.512H1287.93V475.512ZM1284.96 472.621C1284.99 474.291 1286.38 475.512 1287.93 475.512V471.512C1288.44 471.512 1288.94 471.916 1288.96 472.532L1284.96 472.621ZM1332.89 472.532C1332.9 471.916 1333.41 471.512 1333.91 471.512V475.512C1335.47 475.512 1336.85 474.291 1336.89 472.621L1332.89 472.532Z" fill="#F4F4F4"/>
<path d="M1247.16 555.038H1268.84" stroke="#F4F4F4" stroke-width="4" stroke-linecap="round"/>
<path d="M1253.48 545.365H1275.16" stroke="#F4F4F4" stroke-width="4" stroke-linecap="round"/>
<path d="M1261.61 554.159V547.124" stroke="#F4F4F4" stroke-width="4"/>
<path d="M1267.93 544.486V537.451" stroke="#F4F4F4" stroke-width="4" stroke-linecap="round"/>
<path d="M1235.89 438.061C1277.17 416.328 1322.34 429.006 1339.77 438.061" stroke="#F4F4F4" stroke-width="4" stroke-linecap="round"/>
<rect x="1306" y="626" width="24" height="24" rx="1" fill="white" stroke="#F4F4F4" stroke-width="4"/>
<rect x="1242" y="589" width="88" height="24" rx="1" fill="white" stroke="#F4F4F4" stroke-width="4"/>
<path d="M1306.11 679.619H1327.79" stroke="#F4F4F4" stroke-width="4" stroke-linecap="round"/>
<path d="M1312.43 669.945H1334.11" stroke="#F4F4F4" stroke-width="4" stroke-linecap="round"/>
<path d="M1320.56 678.739V671.704" stroke="#F4F4F4" stroke-width="4"/>
<path d="M1326.88 669.066V662.031" stroke="#F4F4F4" stroke-width="4" stroke-linecap="round"/>
<rect x="1286.95" y="484.687" width="47.9416" height="80" rx="1" fill="white" stroke="#F4F4F4" stroke-width="4"/>
<rect x="1298.94" y="496.116" width="23.9708" height="24" rx="1" fill="white" stroke="#F4F4F4" stroke-width="4"/>
<path d="M1241 627C1241 626.448 1241.45 626 1242 626H1288C1288.55 626 1289 626.448 1289 627V706H1241V627Z" fill="white" stroke="#F4F4F4" stroke-width="4"/>
<path d="M1253 641.593H1277" stroke="#F4F4F4" stroke-width="4" stroke-linecap="round"/>
<path d="M1348 577.997H1452V704.997C1452 705.549 1451.55 705.997 1451 705.997H1349C1348.45 705.997 1348 705.549 1348 704.997V577.997Z" fill="white" stroke="#F4F4F4" stroke-width="4"/>
<path fill-rule="evenodd" clip-rule="evenodd" d="M1451.27 449.235C1451.08 449.235 1450.9 449.165 1450.77 449.038L1400.48 402.268C1400.09 401.911 1399.5 401.911 1399.11 402.268L1348.71 449.149C1348.65 449.204 1348.57 449.235 1348.49 449.235H1348.46C1348.29 449.235 1348.16 449.365 1348.16 449.526V449.595C1348.16 449.631 1348.15 449.666 1348.12 449.691L1348.03 449.779C1347.97 449.83 1348.01 449.92 1348.08 449.92C1348.13 449.92 1348.16 449.956 1348.16 450.001V576.997C1348.16 577.549 1348.61 577.997 1349.16 577.997H1451C1451.56 577.997 1452 577.549 1452 576.997V449.97C1452 449.564 1451.67 449.235 1451.27 449.235Z" fill="white"/>
<path d="M1348.03 449.779L1346.67 448.315L1348.03 449.779ZM1348.12 449.691L1346.76 448.227L1348.12 449.691ZM1348.71 449.149L1350.07 450.613L1348.71 449.149ZM1450.77 449.038L1449.4 450.503L1450.77 449.038ZM1400.48 402.268L1401.84 400.803L1400.48 402.268ZM1399.11 402.268L1397.75 400.803L1399.11 402.268ZM1399.11 403.732L1449.4 450.503L1452.13 447.574L1401.84 400.803L1399.11 403.732ZM1350.07 450.613L1400.48 403.732L1397.75 400.803L1347.34 447.684L1350.07 450.613ZM1348.46 451.235H1348.49V447.235H1348.46V451.235ZM1350.16 449.595V449.526H1346.16V449.595H1350.16ZM1349.39 451.244L1349.48 451.156L1346.76 448.227L1346.67 448.315L1349.39 451.244ZM1350.16 576.997V450.001H1346.16V576.997H1350.16ZM1451 575.997H1349.16V579.997H1451V575.997ZM1450 449.97V576.997H1454V449.97H1450ZM1454 449.97C1454 448.46 1452.78 447.235 1451.27 447.235V451.235C1450.57 451.235 1450 450.669 1450 449.97H1454ZM1451 579.997C1452.66 579.997 1454 578.654 1454 576.997H1450C1450 576.445 1450.45 575.997 1451 575.997V579.997ZM1346.16 576.997C1346.16 578.654 1347.51 579.997 1349.16 579.997V575.997C1349.72 575.997 1350.16 576.445 1350.16 576.997H1346.16ZM1348.08 451.92C1347.02 451.92 1346.16 451.061 1346.16 450.001H1350.16C1350.16 448.852 1349.23 447.92 1348.08 447.92V451.92ZM1346.67 448.315C1345.28 449.602 1346.19 451.92 1348.08 451.92V447.92C1349.83 447.92 1350.67 450.057 1349.39 451.244L1346.67 448.315ZM1346.16 449.595C1346.16 449.076 1346.38 448.58 1346.76 448.227L1349.48 451.156C1349.92 450.753 1350.16 450.187 1350.16 449.595H1346.16ZM1348.46 447.235C1347.19 447.235 1346.16 448.261 1346.16 449.526H1350.16C1350.16 450.47 1349.4 451.235 1348.46 451.235V447.235ZM1347.34 447.684C1347.65 447.396 1348.06 447.235 1348.49 447.235V451.235C1349.07 451.235 1349.64 451.013 1350.07 450.613L1347.34 447.684ZM1449.4 450.503C1449.91 450.973 1450.58 451.235 1451.27 451.235V447.235C1451.59 447.235 1451.89 447.356 1452.13 447.574L1449.4 450.503ZM1401.84 400.803C1400.69 399.732 1398.9 399.732 1397.75 400.803L1400.48 403.732C1400.09 404.089 1399.5 404.089 1399.11 403.732L1401.84 400.803Z" fill="#F4F4F4"/>
<path fill-rule="evenodd" clip-rule="evenodd" d="M1423.02 450.796C1423.55 450.796 1423.99 450.388 1424 449.861C1424 449.7 1424 449.538 1424 449.376C1424 436.905 1413.26 426.796 1400 426.796C1386.75 426.796 1376 436.905 1376 449.376C1376 449.538 1376 449.7 1376.01 449.861C1376.02 450.388 1376.46 450.796 1376.99 450.796H1423.02Z" fill="white"/>
<path d="M1424 449.861L1422 449.816L1424 449.861ZM1422 449.376C1422 449.523 1422 449.67 1422 449.816L1426 449.906C1426 449.73 1426 449.553 1426 449.376H1422ZM1400 428.796C1412.27 428.796 1422 438.123 1422 449.376H1426C1426 435.688 1414.25 424.796 1400 424.796V428.796ZM1378 449.376C1378 438.123 1387.74 428.796 1400 428.796V424.796C1385.76 424.796 1374 435.688 1374 449.376H1378ZM1378.01 449.816C1378 449.67 1378 449.523 1378 449.376H1374C1374 449.553 1374 449.73 1374.01 449.906L1378.01 449.816ZM1376.99 452.796H1423.02V448.796H1376.99V452.796ZM1374.01 449.906C1374.05 451.575 1375.43 452.796 1376.99 452.796V448.796C1377.49 448.796 1377.99 449.2 1378.01 449.816L1374.01 449.906ZM1422 449.816C1422.01 449.2 1422.52 448.796 1423.02 448.796V452.796C1424.58 452.796 1425.96 451.575 1426 449.906L1422 449.816Z" fill="#F4F4F4"/>
<path d="M1351.78 471.296C1389.93 449.563 1431.68 462.241 1447.78 471.296" stroke="#F4F4F4" stroke-width="4" stroke-linecap="round"/>
<path d="M1410.11 494.501H1428.69" stroke="#F4F4F4" stroke-width="4" stroke-linecap="round"/>
<path d="M1415.53 485.701H1434.11" stroke="#F4F4F4" stroke-width="4" stroke-linecap="round"/>
<path d="M1422.5 493.701V487.301" stroke="#F4F4F4" stroke-width="4"/>
<path d="M1427.92 484.901V478.501" stroke="#F4F4F4" stroke-width="4" stroke-linecap="round"/>
<line x1="1384.56" y1="585.774" x2="1420.56" y2="585.774" stroke="#F4F4F4" stroke-width="4" stroke-linecap="round"/>
<line x1="1384.56" y1="597.592" x2="1420.56" y2="597.592" stroke="#F4F4F4" stroke-width="4" stroke-linecap="round"/>
<line x1="1384.56" y1="609.41" x2="1420.56" y2="609.41" stroke="#F4F4F4" stroke-width="4" stroke-linecap="round"/>
<line x1="1384.56" y1="621.229" x2="1420.56" y2="621.229" stroke="#F4F4F4" stroke-width="4" stroke-linecap="round"/>
<line x1="1384.56" y1="633.047" x2="1420.56" y2="633.047" stroke="#F4F4F4" stroke-width="4" stroke-linecap="round"/>
<line x1="1384.56" y1="644.865" x2="1420.56" y2="644.865" stroke="#F4F4F4" stroke-width="4" stroke-linecap="round"/>
<line x1="1384.56" y1="656.683" x2="1420.56" y2="656.683" stroke="#F4F4F4" stroke-width="4" stroke-linecap="round"/>
<line x1="1384.56" y1="668.502" x2="1420.56" y2="668.502" stroke="#F4F4F4" stroke-width="4" stroke-linecap="round"/>
<line x1="1384.56" y1="680.32" x2="1420.56" y2="680.32" stroke="#F4F4F4" stroke-width="4" stroke-linecap="round"/>
<line x1="1384.56" y1="692.138" x2="1420.56" y2="692.138" stroke="#F4F4F4" stroke-width="4" stroke-linecap="round"/>
<line x1="1384.56" y1="703.956" x2="1420.56" y2="703.956" stroke="#F4F4F4" stroke-width="4" stroke-linecap="round"/>
<path d="M1382.11 576.956V704.956" stroke="#F4F4F4" stroke-width="4" stroke-linecap="round"/>
<path d="M1422.11 576.956V704.956" stroke="#F4F4F4" stroke-width="4" stroke-linecap="round"/>
<rect x="1378.34" y="505.047" width="48" height="72" rx="1" fill="white" stroke="#F4F4F4" stroke-width="4"/>
<rect x="1390.34" y="515.547" width="24" height="12" rx="1" fill="white" stroke="#F4F4F4" stroke-width="4"/>
<path d="M435.5 705.5H1447M379 705.5H423" stroke="#4D4D4D" stroke-width="4" stroke-linecap="round"/>
<path d="M715.857 337H670.143L629 409V705H757V409L715.857 337Z" fill="#F4F4F4"/>
<path fill-rule="evenodd" clip-rule="evenodd" d="M662 704.5V352.27L630 408.889V704.5H662Z" fill="#D2D2D2"/>
<path d="M716.145 337.504C715.967 337.192 715.636 337 715.277 337H670.723C670.364 337 670.033 337.192 669.855 337.504L629.132 408.769C629.045 408.921 629 409.092 629 409.266V704C629 704.552 629.448 705 630 705H756C756.552 705 757 704.552 757 704V409.266C757 409.092 756.955 408.921 756.868 408.769L716.145 337.504Z" stroke="#4D4D4D" stroke-width="4"/>
<rect x="637" y="411" width="16" height="16" rx="1" fill="#48DEE2" stroke="#4D4D4D" stroke-width="4"/>
<path fill-rule="evenodd" clip-rule="evenodd" d="M640.808 411H652C652.552 411 653 411.448 653 412V423.192C652.056 423.5 651.047 423.667 650 423.667C644.661 423.667 640.333 419.339 640.333 414C640.333 412.953 640.5 411.944 640.808 411Z" fill="#88FCFF"/>
<rect x="637" y="411" width="16" height="16" rx="1" stroke="#4D4D4D" stroke-width="4"/>
<rect x="733" y="411" width="16" height="16" rx="1" fill="#48DEE2" stroke="#4D4D4D" stroke-width="4"/>
<path fill-rule="evenodd" clip-rule="evenodd" d="M736.808 411H748C748.552 411 749 411.448 749 412V423.192C748.056 423.5 747.047 423.667 746 423.667C740.661 423.667 736.333 419.339 736.333 414C736.333 412.953 736.5 411.944 736.808 411Z" fill="#88FCFF"/>
<rect x="733" y="411" width="16" height="16" rx="1" stroke="#4D4D4D" stroke-width="4"/>
<rect x="710" y="435" width="16" height="16" rx="1" fill="#48DEE2" stroke="#4D4D4D" stroke-width="4"/>
<path fill-rule="evenodd" clip-rule="evenodd" d="M713.808 435H725C725.552 435 726 435.448 726 436V447.192C725.056 447.5 724.047 447.667 723 447.667C717.661 447.667 713.333 443.339 713.333 438C713.333 436.953 713.5 435.944 713.808 435Z" fill="#88FCFF"/>
<rect x="710" y="435" width="16" height="16" rx="1" stroke="#4D4D4D" stroke-width="4"/>
<rect x="662" y="435" width="16" height="16" rx="1" fill="#48DEE2" stroke="#4D4D4D" stroke-width="4"/>
<path fill-rule="evenodd" clip-rule="evenodd" d="M665.808 435H677C677.552 435 678 435.448 678 436V447.192C677.056 447.5 676.047 447.667 675 447.667C669.661 447.667 665.333 443.339 665.333 438C665.333 436.953 665.5 435.944 665.808 435Z" fill="#88FCFF"/>
<rect x="662" y="435" width="16" height="16" rx="1" stroke="#4D4D4D" stroke-width="4"/>
<rect x="686" y="459" width="16" height="16" rx="1" fill="#48DEE2" stroke="#4D4D4D" stroke-width="4"/>
<path fill-rule="evenodd" clip-rule="evenodd" d="M689.808 459H701C701.552 459 702 459.448 702 460V471.192C701.056 471.5 700.047 471.667 699 471.667C693.661 471.667 689.333 467.339 689.333 462C689.333 460.953 689.5 459.944 689.808 459Z" fill="#88FCFF"/>
<rect x="686" y="459" width="16" height="16" rx="1" stroke="#4D4D4D" stroke-width="4"/>
<path d="M642 440V447C642 447.552 642.448 448 643 448H650" stroke="#4D4D4D" stroke-width="4" stroke-linecap="round"/>
<path d="M642 464V471C642 471.552 642.448 472 643 472H650" stroke="#4D4D4D" stroke-width="4" stroke-linecap="round"/>
<path d="M666 464V471C666 471.552 666.448 472 667 472H674" stroke="#4D4D4D" stroke-width="4" stroke-linecap="round"/>
<path d="M737 440V447C737 447.552 737.448 448 738 448H745" stroke="#4D4D4D" stroke-width="4" stroke-linecap="round"/>
<path d="M713 464V471C713 471.552 713.448 472 714 472H721" stroke="#4D4D4D" stroke-width="4" stroke-linecap="round"/>
<path d="M737 464V471C737 471.552 737.448 472 738 472H745" stroke="#4D4D4D" stroke-width="4" stroke-linecap="round"/>
<path d="M642 488V495C642 495.552 642.448 496 643 496H650" stroke="#4D4D4D" stroke-width="4" stroke-linecap="round"/>
<path d="M666 488V495C666 495.552 666.448 496 667 496H674" stroke="#4D4D4D" stroke-width="4" stroke-linecap="round"/>
<path d="M642 512V519C642 519.552 642.448 520 643 520H650" stroke="#4D4D4D" stroke-width="4" stroke-linecap="round"/>
<path d="M666 512V519C666 519.552 666.448 520 667 520H674" stroke="#4D4D4D" stroke-width="4" stroke-linecap="round"/>
<path d="M642 536V543C642 543.552 642.448 544 643 544H650" stroke="#4D4D4D" stroke-width="4" stroke-linecap="round"/>
<path d="M666 536V543C666 543.552 666.448 544 667 544H674" stroke="#4D4D4D" stroke-width="4" stroke-linecap="round"/>
<path d="M642 560V567C642 567.552 642.448 568 643 568H650" stroke="#4D4D4D" stroke-width="4" stroke-linecap="round"/>
<path d="M666 560V567C666 567.552 666.448 568 667 568H674" stroke="#4D4D4D" stroke-width="4" stroke-linecap="round"/>
<path d="M642 584V591C642 591.552 642.448 592 643 592H650" stroke="#4D4D4D" stroke-width="4" stroke-linecap="round"/>
<path d="M666 584V591C666 591.552 666.448 592 667 592H674" stroke="#4D4D4D" stroke-width="4" stroke-linecap="round"/>
<path d="M642 608V615C642 615.552 642.448 616 643 616H650" stroke="#4D4D4D" stroke-width="4" stroke-linecap="round"/>
<path d="M666 608V615C666 615.552 666.448 616 667 616H674" stroke="#4D4D4D" stroke-width="4" stroke-linecap="round"/>
<path d="M642 632V639C642 639.552 642.448 640 643 640H650" stroke="#4D4D4D" stroke-width="4" stroke-linecap="round"/>
<path d="M666 632V639C666 639.552 666.448 640 667 640H674" stroke="#4D4D4D" stroke-width="4" stroke-linecap="round"/>
<path d="M642 656V663C642 663.552 642.448 664 643 664H650" stroke="#4D4D4D" stroke-width="4" stroke-linecap="round"/>
<path d="M666 656V663C666 663.552 666.448 664 667 664H674" stroke="#4D4D4D" stroke-width="4" stroke-linecap="round"/>
<path d="M713 488V495C713 495.552 713.448 496 714 496H721" stroke="#4D4D4D" stroke-width="4" stroke-linecap="round"/>
<path d="M737 488V495C737 495.552 737.448 496 738 496H745" stroke="#4D4D4D" stroke-width="4" stroke-linecap="round"/>
<path d="M713 512V519C713 519.552 713.448 520 714 520H721" stroke="#4D4D4D" stroke-width="4" stroke-linecap="round"/>
<path d="M737 512V519C737 519.552 737.448 520 738 520H745" stroke="#4D4D4D" stroke-width="4" stroke-linecap="round"/>
<path d="M713 536V543C713 543.552 713.448 544 714 544H721" stroke="#4D4D4D" stroke-width="4" stroke-linecap="round"/>
<path d="M737 536V543C737 543.552 737.448 544 738 544H745" stroke="#4D4D4D" stroke-width="4" stroke-linecap="round"/>
<path d="M713 560V567C713 567.552 713.448 568 714 568H721" stroke="#4D4D4D" stroke-width="4" stroke-linecap="round"/>
<path d="M737 560V567C737 567.552 737.448 568 738 568H745" stroke="#4D4D4D" stroke-width="4" stroke-linecap="round"/>
<path d="M713 584V591C713 591.552 713.448 592 714 592H721" stroke="#4D4D4D" stroke-width="4" stroke-linecap="round"/>
<path d="M737 584V591C737 591.552 737.448 592 738 592H745" stroke="#4D4D4D" stroke-width="4" stroke-linecap="round"/>
<path d="M713 608V615C713 615.552 713.448 616 714 616H721" stroke="#4D4D4D" stroke-width="4" stroke-linecap="round"/>
<path d="M737 608V615C737 615.552 737.448 616 738 616H745" stroke="#4D4D4D" stroke-width="4" stroke-linecap="round"/>
<path d="M713 632V639C713 639.552 713.448 640 714 640H721" stroke="#4D4D4D" stroke-width="4" stroke-linecap="round"/>
<path d="M737 632V639C737 639.552 737.448 640 738 640H745" stroke="#4D4D4D" stroke-width="4" stroke-linecap="round"/>
<path d="M713 656V663C713 663.552 713.448 664 714 664H721" stroke="#4D4D4D" stroke-width="4" stroke-linecap="round"/>
<path d="M737 656V663C737 663.552 737.448 664 738 664H745" stroke="#4D4D4D" stroke-width="4" stroke-linecap="round"/>
<path d="M642 680V687C642 687.552 642.448 688 643 688H650" stroke="#4D4D4D" stroke-width="4" stroke-linecap="round"/>
<path d="M666 680V687C666 687.552 666.448 688 667 688H674" stroke="#4D4D4D" stroke-width="4" stroke-linecap="round"/>
<path d="M713 680V687C713 687.552 713.448 688 714 688H721" stroke="#4D4D4D" stroke-width="4" stroke-linecap="round"/>
<path d="M737 680V687C737 687.552 737.448 688 738 688H745" stroke="#4D4D4D" stroke-width="4" stroke-linecap="round"/>
<path d="M689 347V451" stroke="#4D4D4D" stroke-width="4" stroke-linecap="round"/>
<path d="M697 347V451" stroke="#4D4D4D" stroke-width="4" stroke-linecap="round"/>
<path d="M689 483V683" stroke="#4D4D4D" stroke-width="4" stroke-linecap="round"/>
<path d="M697 483V683" stroke="#4D4D4D" stroke-width="4" stroke-linecap="round"/>
<rect x="819" y="481" width="184" height="88" fill="#F4F4F4" stroke="#4D4D4D" stroke-width="4"/>
<path fill-rule="evenodd" clip-rule="evenodd" d="M923 539H899V568H905.052C904.37 565.958 904 563.772 904 561.5C904 550.683 912.378 541.822 923 541.054V539Z" fill="#D2D2D2"/>
<path d="M899 553H923V569H899V553Z" stroke="#4D4D4D" stroke-width="4"/>
<path d="M899 537H923V553H899V537Z" stroke="#4D4D4D" stroke-width="4"/>
<path d="M895 530C895 529.448 895.448 529 896 529H926C926.552 529 927 529.448 927 530V536C927 536.552 926.552 537 926 537H896C895.448 537 895 536.552 895 536V530Z" fill="#F4F4F4" stroke="#4D4D4D" stroke-width="4"/>
<path d="M911 537V569" stroke="#4D4D4D" stroke-width="4"/>
<path fill-rule="evenodd" clip-rule="evenodd" d="M979 539H955V568H961.052C960.37 565.958 960 563.772 960 561.5C960 550.683 968.378 541.822 979 541.054V539Z" fill="#D2D2D2"/>
<path d="M955 553H979V569H955V553Z" stroke="#4D4D4D" stroke-width="4"/>
<path d="M955 537H979V553H955V537Z" stroke="#4D4D4D" stroke-width="4"/>
<path d="M951 530C951 529.448 951.448 529 952 529H982C982.552 529 983 529.448 983 530V536C983 536.552 982.552 537 982 537H952C951.448 537 951 536.552 951 536V530Z" fill="#F4F4F4" stroke="#4D4D4D" stroke-width="4"/>
<path d="M967 537V569" stroke="#4D4D4D" stroke-width="4"/>
<path fill-rule="evenodd" clip-rule="evenodd" d="M867 539H843V568H849.052C848.37 565.958 848 563.772 848 561.5C848 550.683 856.378 541.822 867 541.054V539Z" fill="#D2D2D2"/>
<path d="M843 553H867V569H843V553Z" stroke="#4D4D4D" stroke-width="4"/>
<path d="M843 537H867V553H843V537Z" stroke="#4D4D4D" stroke-width="4"/>
<path d="M839 530C839 529.448 839.448 529 840 529H870C870.552 529 871 529.448 871 530V536C871 536.552 870.552 537 870 537H840C839.448 537 839 536.552 839 536V530Z" fill="#F4F4F4" stroke="#4D4D4D" stroke-width="4"/>
<path d="M855 537V569" stroke="#4D4D4D" stroke-width="4"/>
<rect x="819" y="601" width="184" height="104" fill="#F4F4F4"/>
<path fill-rule="evenodd" clip-rule="evenodd" d="M1003 601H819V696.313C843.249 647.283 898.821 613 963.5 613C977.141 613 990.377 614.525 1003 617.392V601Z" fill="#D2D2D2"/>
<rect x="819" y="601" width="184" height="104" stroke="#4D4D4D" stroke-width="4"/>
<path d="M723.439 482.316C723.223 481.669 723.705 481 724.387 481H819V705H732C731.448 705 731 704.552 731 704V505L723.439 482.316Z" fill="#F4F4F4" stroke="#4D4D4D" stroke-width="4"/>
<path d="M1098.56 482.316C1098.78 481.669 1098.3 481 1097.61 481H1003V705H1090C1090.55 705 1091 704.552 1091 704V505L1098.56 482.316Z" fill="#F4F4F4" stroke="#4D4D4D" stroke-width="4"/>
<rect x="859" y="602" width="16" height="64" rx="1" fill="#F4F4F4"/>
<rect x="859" y="602" width="8" height="64" rx="1" fill="#D2D2D2"/>
<rect x="859" y="602" width="16" height="64" rx="1" stroke="#4D4D4D" stroke-width="4"/>
<rect x="947" y="602" width="16" height="64" rx="1" fill="#F4F4F4"/>
<rect x="947" y="602" width="8" height="64" rx="1" fill="#D2D2D2"/>
<rect x="947" y="602" width="16" height="64" rx="1" stroke="#4D4D4D" stroke-width="4"/>
<rect x="799" y="673" width="40" height="32" rx="1" fill="#F4F4F4" stroke="#4D4D4D" stroke-width="4"/>
<path fill-rule="evenodd" clip-rule="evenodd" d="M800 673C799.448 673 799 673.448 799 674V704C799 704.552 799.448 705 800 705H804.87C808.255 690.667 821.132 680 836.5 680C837.341 680 838.175 680.032 839 680.095V674C839 673.448 838.552 673 838 673H800Z" fill="#D2D2D2"/>
<rect x="799" y="673" width="40" height="32" rx="1" stroke="#4D4D4D" stroke-width="4"/>
<rect x="797" y="667" width="44" height="8" rx="1" fill="#F4F4F4" stroke="#4D4D4D" stroke-width="4"/>
<rect x="983" y="673" width="40" height="32" rx="1" fill="#F4F4F4" stroke="#4D4D4D" stroke-width="4"/>
<path fill-rule="evenodd" clip-rule="evenodd" d="M984 673C983.448 673 983 673.448 983 674V704C983 704.552 983.448 705 984 705H988.87C992.255 690.667 1005.13 680 1020.5 680C1021.34 680 1022.17 680.032 1023 680.095V674C1023 673.448 1022.55 673 1022 673H984Z" fill="#D2D2D2"/>
<rect x="983" y="673" width="40" height="32" rx="1" stroke="#4D4D4D" stroke-width="4"/>
<rect x="981" y="667" width="44" height="8" rx="1" fill="#F4F4F4" stroke="#4D4D4D" stroke-width="4"/>
<path d="M840.5 667H980.5" stroke="#4D4D4D" stroke-width="4"/>
<path d="M848.5 676H972.5" stroke="#4D4D4D" stroke-width="4" stroke-linecap="round"/>
<path d="M848.5 686H972.5" stroke="#4D4D4D" stroke-width="4" stroke-linecap="round"/>
<path d="M848.5 696H972.5" stroke="#4D4D4D" stroke-width="4" stroke-linecap="round"/>
<rect x="895" y="619" width="32" height="48" rx="1" fill="#F2463A" stroke="#4D4D4D" stroke-width="4"/>
<circle cx="819" cy="618" r="9" fill="#FFD081"/>
<circle cx="822" cy="615" r="4" fill="#FFEFB6"/>
<circle cx="819" cy="618" r="9" stroke="#4D4D4D" stroke-width="4"/>
<rect x="815" y="627" width="8" height="32" fill="#F4F4F4"/>
<rect x="815" y="628" width="4" height="32" fill="#D2D2D2"/>
<rect x="815" y="627" width="8" height="32" stroke="#4D4D4D" stroke-width="4"/>
<path d="M813 663C813 660.791 814.791 659 817 659H821C823.209 659 825 660.791 825 663V666C825 666.552 824.552 667 824 667H814C813.448 667 813 666.552 813 666V663Z" fill="#F4F4F4" stroke="#4D4D4D" stroke-width="4"/>
<circle cx="1003" cy="618" r="9" fill="#FFD081"/>
<circle cx="1006" cy="615" r="4" fill="#FFEFB6"/>
<circle cx="1003" cy="618" r="9" stroke="#4D4D4D" stroke-width="4"/>
<rect x="999" y="627" width="8" height="32" fill="#F4F4F4"/>
<rect x="999" y="628" width="4" height="32" fill="#D2D2D2"/>
<rect x="999" y="627" width="8" height="32" stroke="#4D4D4D" stroke-width="4"/>
<path d="M997 663C997 660.791 998.791 659 1001 659H1005C1007.21 659 1009 660.791 1009 663V666C1009 666.552 1008.55 667 1008 667H998C997.448 667 997 666.552 997 666V663Z" fill="#F4F4F4" stroke="#4D4D4D" stroke-width="4"/>
<path fill-rule="evenodd" clip-rule="evenodd" d="M785 619H761V648H767.052C766.37 645.958 766 643.772 766 641.5C766 630.683 774.378 621.822 785 621.054V619Z" fill="#D2D2D2"/>
<path d="M761 633H785V648C785 648.552 784.552 649 784 649H762C761.448 649 761 648.552 761 648V633Z" stroke="#4D4D4D" stroke-width="4"/>
<path d="M761 617H785V633H761V617Z" stroke="#4D4D4D" stroke-width="4"/>
<path d="M757 610C757 609.448 757.448 609 758 609H788C788.552 609 789 609.448 789 610V616C789 616.552 788.552 617 788 617H758C757.448 617 757 616.552 757 616V610Z" fill="#F4F4F4" stroke="#4D4D4D" stroke-width="4"/>
<path fill-rule="evenodd" clip-rule="evenodd" d="M1057 619H1033V648H1039.05C1038.37 645.958 1038 643.772 1038 641.5C1038 630.683 1046.38 621.822 1057 621.054V619Z" fill="#D2D2D2"/>
<path d="M1033 633H1057V648C1057 648.552 1056.55 649 1056 649H1034C1033.45 649 1033 648.552 1033 648V633Z" stroke="#4D4D4D" stroke-width="4"/>
<path d="M1033 617H1057V633H1033V617Z" stroke="#4D4D4D" stroke-width="4"/>
<path d="M1029 610C1029 609.448 1029.45 609 1030 609H1060C1060.55 609 1061 609.448 1061 610V616C1061 616.552 1060.55 617 1060 617H1030C1029.45 617 1029 616.552 1029 616V610Z" fill="#F4F4F4" stroke="#4D4D4D" stroke-width="4"/>
<rect x="899" y="489" width="24" height="24" rx="1" fill="#48DEE2" stroke="#4D4D4D" stroke-width="4"/>
<path fill-rule="evenodd" clip-rule="evenodd" d="M904.712 489H922C922.552 489 923 489.448 923 490V507.288C921.583 507.75 920.071 508 918.5 508C910.492 508 904 501.508 904 493.5C904 491.929 904.25 490.417 904.712 489Z" fill="#88FCFF"/>
<rect x="899" y="489" width="24" height="24" rx="1" stroke="#4D4D4D" stroke-width="4"/>
<rect x="955" y="489" width="24" height="24" rx="1" fill="#48DEE2" stroke="#4D4D4D" stroke-width="4"/>
<path fill-rule="evenodd" clip-rule="evenodd" d="M960.712 489H978C978.552 489 979 489.448 979 490V507.288C977.583 507.75 976.071 508 974.5 508C966.492 508 960 501.508 960 493.5C960 491.929 960.25 490.417 960.712 489Z" fill="#88FCFF"/>
<rect x="955" y="489" width="24" height="24" rx="1" stroke="#4D4D4D" stroke-width="4"/>
<rect x="1033" y="489" width="24" height="24" rx="1" fill="#48DEE2" stroke="#4D4D4D" stroke-width="4"/>
<path fill-rule="evenodd" clip-rule="evenodd" d="M1038.71 489H1056C1056.55 489 1057 489.448 1057 490V507.288C1055.58 507.75 1054.07 508 1052.5 508C1044.49 508 1038 501.508 1038 493.5C1038 491.929 1038.25 490.417 1038.71 489Z" fill="#88FCFF"/>
<rect x="1033" y="489" width="24" height="24" rx="1" stroke="#4D4D4D" stroke-width="4"/>
<rect x="843" y="489" width="24" height="24" rx="1" fill="#48DEE2" stroke="#4D4D4D" stroke-width="4"/>
<path fill-rule="evenodd" clip-rule="evenodd" d="M848.712 489H866C866.552 489 867 489.448 867 490V507.288C865.583 507.75 864.071 508 862.5 508C854.492 508 848 501.508 848 493.5C848 491.929 848.25 490.417 848.712 489Z" fill="#88FCFF"/>
<rect x="843" y="489" width="24" height="24" rx="1" stroke="#4D4D4D" stroke-width="4"/>
<rect x="761" y="489" width="24" height="24" rx="1" fill="#48DEE2" stroke="#4D4D4D" stroke-width="4"/>
<path fill-rule="evenodd" clip-rule="evenodd" d="M766.712 489H784C784.552 489 785 489.448 785 490V507.288C783.583 507.75 782.071 508 780.5 508C772.492 508 766 501.508 766 493.5C766 491.929 766.25 490.417 766.712 489Z" fill="#88FCFF"/>
<rect x="761" y="489" width="24" height="24" rx="1" stroke="#4D4D4D" stroke-width="4"/>
<path d="M732 587H1091" stroke="#4D4D4D" stroke-width="4"/>
<rect x="811" y="569" width="200" height="32" rx="1" fill="#F4F4F4" stroke="#4D4D4D" stroke-width="4"/>
<path fill-rule="evenodd" clip-rule="evenodd" d="M1057 539H1033V568H1039.05C1038.37 565.958 1038 563.772 1038 561.5C1038 550.683 1046.38 541.822 1057 541.054V539Z" fill="#D2D2D2"/>
<path d="M1033 553H1057V568C1057 568.552 1056.55 569 1056 569H1034C1033.45 569 1033 568.552 1033 568V553Z" stroke="#4D4D4D" stroke-width="4"/>
<path d="M1033 537H1057V553H1033V537Z" stroke="#4D4D4D" stroke-width="4"/>
<path d="M1029 530C1029 529.448 1029.45 529 1030 529H1060C1060.55 529 1061 529.448 1061 530V536C1061 536.552 1060.55 537 1060 537H1030C1029.45 537 1029 536.552 1029 536V530Z" fill="#F4F4F4" stroke="#4D4D4D" stroke-width="4"/>
<path d="M1045 537V569" stroke="#4D4D4D" stroke-width="4"/>
<path fill-rule="evenodd" clip-rule="evenodd" d="M785 539H761V568H767.052C766.37 565.958 766 563.772 766 561.5C766 550.683 774.378 541.822 785 541.054V539Z" fill="#D2D2D2"/>
<path d="M761 553H785V568C785 568.552 784.552 569 784 569H762C761.448 569 761 568.552 761 568V553Z" stroke="#4D4D4D" stroke-width="4"/>
<path d="M761 537H785V553H761V537Z" stroke="#4D4D4D" stroke-width="4"/>
<path d="M757 530C757 529.448 757.448 529 758 529H788C788.552 529 789 529.448 789 530V536C789 536.552 788.552 537 788 537H758C757.448 537 757 536.552 757 536V530Z" fill="#F4F4F4" stroke="#4D4D4D" stroke-width="4"/>
<path d="M773 537V569" stroke="#4D4D4D" stroke-width="4"/>
<path d="M963 584H971M987 584H980M980 584V593M980 584H971M980 593H987M980 593H972M971 584V575" stroke="#4D4D4D" stroke-width="4" stroke-linecap="round"/>
<path d="M1054 682H1062M1078 682H1071M1071 682V691M1071 682H1062M1071 691H1078M1071 691H1063M1062 682V673" stroke="#4D4D4D" stroke-width="4" stroke-linecap="round"/>
<path d="M787 522H795M811 522H804M804 522V531M804 522H795M804 531H811M804 531H796M795 522V513" stroke="#4D4D4D" stroke-width="4" stroke-linecap="round"/>
<path fill-rule="evenodd" clip-rule="evenodd" d="M955 429V474.38C955 474.932 954.552 475.38 954 475.38H868C867.448 475.38 867 474.932 867 474.38V429V427.395C867 427.386 867.007 427.38 867.015 427.38C867.023 427.38 867.03 427.373 867.03 427.365C867.89 403.822 887.247 385 911 385C934.753 385 954.11 403.822 954.97 427.365C954.97 427.373 954.977 427.38 954.985 427.38C954.993 427.38 955 427.386 955 427.395V429Z" fill="#F4F4F4"/>
<path fill-rule="evenodd" clip-rule="evenodd" d="M911 385C887.247 385 867.89 403.822 867.03 427.365C867.03 427.373 867.023 427.38 867.015 427.38C867.007 427.38 867 427.386 867 427.395V429V474.38C867 474.932 867.448 475.38 868 475.38H911V385Z" fill="#E9E9E9"/>
<path fill-rule="evenodd" clip-rule="evenodd" d="M880 397.775C872.331 405.389 867.452 415.808 867.03 427.366C867.03 427.374 867.023 427.38 867.015 427.38C867.007 427.38 867 427.387 867 427.395V429V474.38C867 474.932 867.448 475.38 868 475.38H880V397.775Z" fill="#D2D2D2"/>
<path d="M867.03 427.365L869.028 427.438L867.03 427.365ZM954.97 427.365L956.969 427.292L954.97 427.365ZM953 429V474.38H957V429H953ZM954 473.38H868V477.38H954V473.38ZM869 474.38V429H865V474.38H869ZM869 429V427.395H865V429H869ZM869.028 427.438C869.849 404.967 888.327 387 911 387V383C886.167 383 865.93 402.678 865.031 427.292L869.028 427.438ZM911 387C933.673 387 952.151 404.967 952.972 427.438L956.969 427.292C956.07 402.678 935.833 383 911 383V387ZM953 427.395V429H957V427.395H953ZM954.985 429.38C953.889 429.38 953 428.491 953 427.395H957C957 426.282 956.098 425.38 954.985 425.38V429.38ZM867.015 429.38C868.112 429.38 868.989 428.508 869.028 427.438L865.031 427.292C865.07 426.238 865.933 425.38 867.015 425.38V429.38ZM869 427.395C869 428.491 868.111 429.38 867.015 429.38V425.38C865.902 425.38 865 426.282 865 427.395H869ZM952.972 427.438C953.011 428.508 953.887 429.38 954.985 429.38V425.38C956.067 425.38 956.93 426.239 956.969 427.292L952.972 427.438ZM868 473.38C868.552 473.38 869 473.828 869 474.38H865C865 476.037 866.343 477.38 868 477.38V473.38ZM953 474.38C953 473.828 953.448 473.38 954 473.38V477.38C955.657 477.38 957 476.037 957 474.38H953Z" fill="#4D4D4D"/>
<rect x="903" y="403" width="16" height="24" rx="1" fill="#F4F4F4"/>
<path d="M881 404C881 403.448 881.448 403 882 403H896C896.552 403 897 403.448 897 404V425.382C897 426.125 896.218 426.609 895.553 426.276L881.553 419.276C881.214 419.107 881 418.761 881 418.382V404Z" fill="#F4F4F4"/>
<path d="M941 404C941 403.448 940.552 403 940 403H926C925.448 403 925 403.448 925 404V425.382C925 426.125 925.782 426.609 926.447 426.276L940.447 419.276C940.786 419.107 941 418.761 941 418.382V404Z" fill="#F4F4F4"/>
<path fill-rule="evenodd" clip-rule="evenodd" d="M904 403C903.448 403 903 403.448 903 404V426C903 426.552 903.448 427 904 427H907.099C907.033 426.342 907 425.675 907 425C907 416.799 911.936 409.75 919 406.664V404C919 403.448 918.552 403 918 403H904Z" fill="#D2D2D2"/>
<path d="M941 404C941 403.448 940.552 403 940 403H926C925.448 403 925 403.448 925 404V425.382C925 426.125 925.782 426.609 926.447 426.276L940.447 419.276C940.786 419.107 941 418.761 941 418.382V404Z" fill="#F4F4F4"/>
<path fill-rule="evenodd" clip-rule="evenodd" d="M882 403C881.448 403 881 403.448 881 404V418.382C881 418.761 881.214 419.107 881.553 419.276L884.267 420.633C884.092 419.783 884 418.902 884 418C884 410.82 889.82 405 897 405V404C897 403.448 896.552 403 896 403H882Z" fill="#C4C4C4"/>
<path fill-rule="evenodd" clip-rule="evenodd" d="M925 405C924.448 405 924 405.448 924 406V420.382C924 420.761 924.214 421.107 924.553 421.276L927.267 422.633C927.092 421.783 927 420.902 927 420C927 412.82 932.82 407 940 407V406C940 405.448 939.552 405 939 405H925Z" fill="#C4C4C4"/>
<rect x="903" y="403" width="16" height="24" rx="1" stroke="#4D4D4D" stroke-width="4"/>
<path d="M881 404C881 403.448 881.448 403 882 403H896C896.552 403 897 403.448 897 404V425.382C897 426.125 896.218 426.609 895.553 426.276L881.553 419.276C881.214 419.107 881 418.761 881 418.382V404Z" stroke="#4D4D4D" stroke-width="4"/>
<path d="M941 404C941 403.448 940.552 403 940 403H926C925.448 403 925 403.448 925 404V425.382C925 426.125 925.782 426.609 926.447 426.276L940.447 419.276C940.786 419.107 941 418.761 941 418.382V404Z" stroke="#4D4D4D" stroke-width="4"/>
<path d="M911 383V311" stroke="#4D4D4D" stroke-width="4"/>
<path d="M911 312C911 311.448 910.552 311 910 311H879.333C877.492 311 876 312.492 876 314.333C876 316.174 874.508 317.667 872.667 317.667H856C855.448 317.667 855 318.114 855 318.667V350C855 350.552 855.448 351 856 351H886.667C888.508 351 890 349.508 890 347.667C890 345.826 891.492 344.333 893.333 344.333H910C910.552 344.333 911 343.886 911 343.333V312Z" fill="#F2463A"/>
<path d="M911 312C911 311.448 910.552 311 910 311H879.333C877.492 311 876 312.492 876 314.333V314.333C876 316.174 874.508 317.667 872.667 317.667H856C855.448 317.667 855 318.114 855 318.667V350C855 350.552 855.448 351 856 351H886.667C888.508 351 890 349.508 890 347.667V347.667C890 345.826 891.492 344.333 893.333 344.333H910C910.552 344.333 911 343.886 911 343.333V312Z" stroke="#4D4D4D" stroke-width="4"/>
<path d="M910.471 433.241C910.761 433.09 911.106 433.09 911.396 433.241L1002.93 481H818.933L910.471 433.241Z" fill="#F4F4F4" stroke="#4D4D4D" stroke-width="4"/>
<path d="M909.441 446.051C909.735 445.894 910.088 445.894 910.382 446.051L954.391 469.518C955.309 470.007 954.961 471.4 953.92 471.4H865.904C864.863 471.4 864.514 470.007 865.433 469.518L909.441 446.051Z" fill="#F4F4F4" stroke="#4D4D4D" stroke-width="4"/>
<path d="M1139.26 684.208C1139.12 683.586 1139.6 683 1140.23 683H1193.77C1194.4 683 1194.88 683.586 1194.74 684.208L1190.5 704.208C1190.4 704.67 1190 705 1189.52 705H1144.48C1144 705 1143.6 704.67 1143.5 704.208L1139.26 684.208Z" fill="#F4F4F4" stroke="#4D4D4D" stroke-width="4"/>
<path d="M1135 684C1135 683.448 1135.45 683 1136 683H1198C1198.55 683 1199 683.448 1199 684V690C1199 690.552 1198.55 691 1198 691H1136C1135.45 691 1135 690.552 1135 690V684Z" fill="#F4F4F4" stroke="#4D4D4D" stroke-width="4"/>
<path d="M1151.18 613.406L1166.2 593.088C1166.6 592.547 1167.4 592.547 1167.8 593.088L1182.82 613.406C1183.31 614.066 1182.84 615 1182.02 615H1178.39C1177.59 615 1177.11 615.898 1177.56 616.562L1192.44 638.438C1192.89 639.102 1192.41 640 1191.61 640H1185.87C1185.07 640 1184.59 640.89 1185.04 641.555L1196.96 659.445C1197.41 660.11 1196.93 661 1196.13 661H1193.97C1193.15 661 1192.68 661.931 1193.17 662.591L1201.83 674.409C1202.32 675.069 1201.85 676 1201.03 676H1133.03C1132.2 676 1131.73 675.049 1132.23 674.392L1141.27 662.608C1141.77 661.951 1141.3 661 1140.47 661H1136.48C1135.66 661 1135.19 660.066 1135.68 659.406L1148.82 641.594C1149.31 640.934 1148.84 640 1148.02 640H1142.95C1142.14 640 1141.66 639.077 1142.14 638.416L1157.86 616.584C1158.34 615.923 1157.86 615 1157.05 615H1151.98C1151.16 615 1150.69 614.066 1151.18 613.406Z" fill="#F4F4F4" stroke="#4D4D4D" stroke-width="4"/>
<path d="M1158 634L1160.31 638.241C1160.71 638.965 1161.76 638.927 1162.1 638.176L1164 634" stroke="#4D4D4D" stroke-width="4" stroke-linecap="round"/>
<path d="M1173 650L1175.31 654.241C1175.71 654.965 1176.76 654.927 1177.1 654.176L1179 650" stroke="#4D4D4D" stroke-width="4" stroke-linecap="round"/>
<path d="M1152 665L1154.31 669.241C1154.71 669.965 1155.76 669.927 1156.1 669.176L1158 665" stroke="#4D4D4D" stroke-width="4" stroke-linecap="round"/>
<path d="M1167 608L1169.31 612.241C1169.71 612.965 1170.76 612.927 1171.1 612.176L1173 608" stroke="#4D4D4D" stroke-width="4" stroke-linecap="round"/>
<path d="M1167 675.5V683.5" stroke="#4D4D4D" stroke-width="4"/>
<path d="M627.256 684.208C627.124 683.586 627.599 683 628.234 683H681.766C682.401 683 682.876 683.586 682.744 684.208L678.501 704.208C678.403 704.67 677.996 705 677.523 705H632.477C632.004 705 631.597 704.67 631.499 704.208L627.256 684.208Z" fill="#F4F4F4" stroke="#4D4D4D" stroke-width="4"/>
<path d="M623 684C623 683.448 623.448 683 624 683H686C686.552 683 687 683.448 687 684V690C687 690.552 686.552 691 686 691H624C623.448 691 623 690.552 623 690V684Z" fill="#F4F4F4" stroke="#4D4D4D" stroke-width="4"/>
<path d="M639.178 613.406L654.196 593.088C654.596 592.547 655.404 592.547 655.804 593.088L670.822 613.406C671.309 614.066 670.838 615 670.017 615H666.389C665.586 615 665.111 615.898 665.562 616.562L680.438 638.438C680.889 639.102 680.414 640 679.611 640H673.869C673.07 640 672.593 640.89 673.036 641.555L684.964 659.445C685.407 660.11 684.93 661 684.131 661H681.973C681.154 661 680.683 661.931 681.167 662.591L689.833 674.409C690.317 675.069 689.846 676 689.027 676H621.027C620.198 676 619.729 675.049 620.233 674.392L629.267 662.608C629.771 661.951 629.302 661 628.473 661H624.481C623.66 661 623.189 660.066 623.676 659.406L636.824 641.594C637.311 640.934 636.84 640 636.019 640H630.952C630.137 640 629.664 639.077 630.141 638.416L645.859 616.584C646.336 615.923 645.863 615 645.048 615H639.983C639.162 615 638.691 614.066 639.178 613.406Z" fill="#F4F4F4" stroke="#4D4D4D" stroke-width="4"/>
<path d="M646 634L648.313 638.241C648.708 638.965 649.76 638.927 650.102 638.176L652 634" stroke="#4D4D4D" stroke-width="4" stroke-linecap="round"/>
<path d="M661 650L663.313 654.241C663.708 654.965 664.76 654.927 665.102 654.176L667 650" stroke="#4D4D4D" stroke-width="4" stroke-linecap="round"/>
<path d="M640 665L642.313 669.241C642.708 669.965 643.76 669.927 644.102 669.176L646 665" stroke="#4D4D4D" stroke-width="4" stroke-linecap="round"/>
<path d="M655 608L657.313 612.241C657.708 612.965 658.76 612.927 659.102 612.176L661 608" stroke="#4D4D4D" stroke-width="4" stroke-linecap="round"/>
<path d="M655 675.5V683.5" stroke="#4D4D4D" stroke-width="4"/>
<rect x="491" y="681" width="88" height="24" rx="1" fill="#F4F4F4" stroke="#4D4D4D" stroke-width="4"/>
<rect x="496" y="537" width="78" height="156" rx="8" fill="#F4F4F4" stroke="#4D4D4D" stroke-width="4"/>
<path fill-rule="evenodd" clip-rule="evenodd" d="M567 560.062V556C567 555.448 566.552 555 566 555H504C503.448 555 503 555.448 503 556V666C503 666.552 503.448 667 504 667H509.167C509.056 664.849 509 662.682 509 660.5C509 615.554 532.865 576.933 567 560.062Z" fill="#D2D2D2"/>
<rect x="503" y="555" width="64" height="112" rx="1" stroke="#4D4D4D" stroke-width="4"/>
<path d="M523 546.5H547" stroke="#4D4D4D" stroke-width="4" stroke-linecap="round"/>
<circle cx="535" cy="680" r="8" stroke="#4D4D4D" stroke-width="4"/>
<path d="M524 519C531.875 513.244 546.75 514.107 552 519" stroke="#F2463A" stroke-width="4" stroke-linecap="round"/>
<path d="M507 512C519.023 500.498 551.531 499.512 564 512" stroke="#F2463A" stroke-width="4" stroke-linecap="round"/>
<path d="M496 501C530.543 477.456 562.393 491.19 574 501" stroke="#F2463A" stroke-width="4" stroke-linecap="round"/>
<path d="M1247 669C1247 657.954 1255.95 649 1267 649H1387C1398.05 649 1407 657.954 1407 669V705H1247V669Z" fill="#F4F4F4" stroke="#4D4D4D" stroke-width="4"/>
<path d="M1270 606C1270 594.954 1278.95 586 1290 586H1363C1374.05 586 1383 594.954 1383 606V649H1270V606Z" fill="#F4F4F4" stroke="#4D4D4D" stroke-width="4"/>
<rect x="1318.01" y="445.995" width="24" height="88" transform="rotate(60 1318.01 445.995)" fill="#F4F4F4" stroke="#4D4D4D" stroke-width="4"/>
<path d="M1268.1 488.774L1281.96 480.774" stroke="#4D4D4D" stroke-width="4" stroke-linecap="round"/>
<rect x="1153.72" y="379.796" width="16.6903" height="70.7378" transform="rotate(-90 1153.72 379.796)" fill="#F4F4F4" stroke="#4D4D4D" stroke-width="4"/>
<path d="M1210.02 400.659C1198.37 392.835 1194.77 377.327 1201.79 365.176C1208.8 353.026 1224.03 348.385 1236.63 354.559L1351.59 410.89C1357.15 413.612 1360.71 419.308 1360.34 425.483C1358.84 450.422 1352.47 462.193 1332.86 473.41C1327.9 476.243 1321.77 475.743 1317.04 472.561L1210.02 400.659Z" fill="#F4F4F4"/>
<path fill-rule="evenodd" clip-rule="evenodd" d="M1198.9 372.472C1196.45 383.001 1200.61 394.338 1210.02 400.659L1317.04 472.561C1321.77 475.743 1327.91 476.243 1332.86 473.41C1341.55 468.44 1347.64 463.362 1351.86 457.077C1287.29 430.381 1249.57 409.573 1198.9 372.472Z" fill="#D2D2D2"/>
<path d="M1210.02 400.659C1198.37 392.835 1194.77 377.327 1201.79 365.176V365.176C1208.8 353.026 1224.03 348.385 1236.63 354.559L1351.59 410.89C1357.15 413.612 1360.71 419.308 1360.34 425.483C1358.84 450.422 1352.47 462.193 1332.86 473.41C1327.9 476.243 1321.77 475.743 1317.04 472.561L1210.02 400.659Z" stroke="#4D4D4D" stroke-width="4"/>
<circle cx="1334.14" cy="441.588" r="8" transform="rotate(-60 1334.14 441.588)" fill="#F2463A" stroke="#4D4D4D" stroke-width="4"/>
<circle cx="1219.82" cy="375.588" r="8" transform="rotate(-60 1219.82 375.588)" fill="#F2463A" stroke="#4D4D4D" stroke-width="4"/>
<path d="M1242.96 532.367C1231.44 524.193 1228.03 508.594 1235.09 496.361C1242.16 484.128 1257.37 479.279 1270.21 485.17L1344.11 519.074C1350.77 522.129 1354.6 529.355 1352.81 536.462C1347.9 555.996 1340.94 567.226 1328.62 578.719C1323.38 583.607 1315.4 583.759 1309.55 579.612L1242.96 532.367Z" fill="#F4F4F4"/>
<path fill-rule="evenodd" clip-rule="evenodd" d="M1232.59 502.131C1229.25 513.162 1233.19 525.435 1242.96 532.367L1309.55 579.612C1315.4 583.759 1323.38 583.607 1328.62 578.719C1333.48 574.183 1337.51 569.688 1340.91 564.707C1300.07 548.26 1274.85 532.825 1232.59 502.131Z" fill="#D2D2D2"/>
<path d="M1242.96 532.367C1231.44 524.193 1228.03 508.594 1235.09 496.361V496.361C1242.16 484.128 1257.37 479.279 1270.21 485.17L1344.11 519.074C1350.77 522.129 1354.6 529.355 1352.81 536.462C1347.9 555.996 1340.94 567.226 1328.62 578.719C1323.38 583.607 1315.4 583.759 1309.55 579.612L1242.96 532.367Z" stroke="#4D4D4D" stroke-width="4"/>
<circle cx="1254.44" cy="507.131" r="8" transform="rotate(-60 1254.44 507.131)" fill="#F2463A" stroke="#4D4D4D" stroke-width="4"/>
<path d="M1296.86 533L1283 525" stroke="#4D4D4D" stroke-width="4" stroke-linecap="round"/>
<path d="M1289 550C1289 530.118 1305.12 514 1325 514C1344.88 514 1361 530.118 1361 550V586H1289V550Z" fill="#F4F4F4"/>
<path fill-rule="evenodd" clip-rule="evenodd" d="M1307 518.816C1296.24 525.041 1289 536.675 1289 550V586H1307V518.816Z" fill="#D2D2D2"/>
<path d="M1289 550C1289 530.118 1305.12 514 1325 514V514C1344.88 514 1361 530.118 1361 550V586H1289V550Z" stroke="#4D4D4D" stroke-width="4"/>
<path fill-rule="evenodd" clip-rule="evenodd" d="M1116.94 479.073C1118.45 480.578 1120.87 480.641 1122.45 479.217L1148.04 456.168C1149.4 455.58 1150.36 454.264 1150.44 452.7L1152.06 419.892C1152.18 417.607 1150.35 415.691 1148.07 415.69L1140.15 415.686C1137.87 415.685 1136.04 417.599 1136.16 419.883L1137.35 443.379L1113.31 470.075C1111.88 471.657 1111.95 474.076 1113.45 475.58L1116.94 479.073Z" fill="#D2D2D2"/>
<path fill-rule="evenodd" clip-rule="evenodd" d="M1115.45 477.578L1142.63 450.396C1143.85 449.762 1144.71 448.512 1144.78 447.043L1146.34 415.689L1140.15 415.686C1137.87 415.685 1136.04 417.599 1136.16 419.883L1137.35 443.379L1113.31 470.075C1111.88 471.657 1111.95 474.076 1113.45 475.58L1115.45 477.578Z" fill="#F4F4F4"/>
<path d="M1122.45 479.217L1123.79 480.703L1122.45 479.217ZM1148.04 456.168L1147.25 454.334L1146.95 454.464L1146.7 454.682L1148.04 456.168ZM1150.44 452.7L1148.44 452.602L1148.44 452.602L1150.44 452.7ZM1152.06 419.892L1150.07 419.793L1150.07 419.793L1152.06 419.892ZM1148.07 415.69L1148.07 413.69L1148.07 413.69L1148.07 415.69ZM1140.15 415.686L1140.15 417.686L1140.15 415.686ZM1136.16 419.883L1134.16 419.984L1136.16 419.883ZM1137.35 443.379L1138.83 444.717L1139.39 444.103L1139.35 443.278L1137.35 443.379ZM1113.31 470.075L1111.82 468.737L1111.82 468.737L1113.31 470.075ZM1121.11 477.731C1120.32 478.443 1119.11 478.411 1118.36 477.659L1115.53 480.488C1117.79 482.744 1121.42 482.839 1123.79 480.703L1121.11 477.731ZM1146.7 454.682L1121.11 477.731L1123.79 480.703L1149.38 457.655L1146.7 454.682ZM1148.44 452.602C1148.41 453.38 1147.92 454.039 1147.25 454.334L1148.84 458.002C1150.87 457.121 1152.32 455.147 1152.44 452.799L1148.44 452.602ZM1150.07 419.793L1148.44 452.602L1152.44 452.799L1154.06 419.991L1150.07 419.793ZM1148.07 417.69C1149.21 417.691 1150.12 418.65 1150.07 419.793L1154.06 419.991C1154.23 416.565 1151.5 413.692 1148.07 413.69L1148.07 417.69ZM1140.15 417.686L1148.07 417.69L1148.07 413.69L1140.15 413.686L1140.15 417.686ZM1138.16 419.782C1138.1 418.641 1139.01 417.685 1140.15 417.686L1140.15 413.686C1136.72 413.684 1133.99 416.556 1134.16 419.984L1138.16 419.782ZM1139.35 443.278L1138.16 419.782L1134.16 419.984L1135.35 443.48L1139.35 443.278ZM1114.79 471.414L1138.83 444.717L1135.86 442.04L1111.82 468.737L1114.79 471.414ZM1114.86 474.166C1114.11 473.414 1114.08 472.204 1114.79 471.414L1111.82 468.737C1109.68 471.109 1109.78 474.738 1112.04 476.995L1114.86 474.166ZM1118.36 477.659L1114.86 474.166L1112.04 476.995L1115.53 480.488L1118.36 477.659Z" fill="#4D4D4D"/>
<path d="M1149.8 455.29L1137.39 442.876" stroke="#4D4D4D" stroke-width="4"/>
<path fill-rule="evenodd" clip-rule="evenodd" d="M1041.17 403.296C1039.66 401.792 1039.6 399.373 1041.02 397.791L1064.07 372.196C1064.66 370.844 1065.98 369.876 1067.54 369.799L1100.35 368.176C1102.63 368.063 1104.55 369.886 1104.55 372.173L1104.55 380.087C1104.56 382.375 1102.64 384.195 1100.36 384.08L1076.86 382.892L1050.16 406.933C1048.58 408.357 1046.16 408.294 1044.66 406.789L1041.17 403.296Z" fill="#D2D2D2"/>
<path fill-rule="evenodd" clip-rule="evenodd" d="M1041.02 397.791C1039.6 399.373 1039.66 401.792 1041.17 403.296L1044.08 406.206L1071.26 379.025C1071.89 377.8 1073.14 376.942 1074.61 376.87L1104.55 375.389L1104.55 372.173C1104.55 369.886 1102.63 368.063 1100.35 368.176L1067.54 369.799C1065.98 369.876 1064.66 370.844 1064.07 372.196L1041.02 397.791Z" fill="#F4F4F4"/>
<path d="M1041.02 397.791L1039.54 396.453L1039.54 396.453L1041.02 397.791ZM1064.07 372.196L1065.91 372.994L1065.78 373.293L1065.56 373.535L1064.07 372.196ZM1067.54 369.799L1067.64 371.796L1067.64 371.796L1067.54 369.799ZM1100.35 368.176L1100.45 370.174L1100.45 370.174L1100.35 368.176ZM1104.55 372.173L1106.55 372.172L1106.55 372.172L1104.55 372.173ZM1104.55 380.087L1102.55 380.088L1104.55 380.087ZM1100.36 384.08L1100.26 386.077L1100.36 384.08ZM1076.86 382.892L1075.52 381.406L1076.14 380.853L1076.96 380.895L1076.86 382.892ZM1050.16 406.933L1051.5 408.42L1051.5 408.42L1050.16 406.933ZM1042.51 399.13C1041.8 399.92 1041.83 401.13 1042.58 401.882L1039.75 404.711C1037.5 402.454 1037.4 398.825 1039.54 396.453L1042.51 399.13ZM1065.56 373.535L1042.51 399.13L1039.54 396.453L1062.59 370.858L1065.56 373.535ZM1067.64 371.796C1066.86 371.835 1066.2 372.315 1065.91 372.994L1062.24 371.399C1063.12 369.372 1065.09 367.917 1067.44 367.801L1067.64 371.796ZM1100.45 370.174L1067.64 371.796L1067.44 367.801L1100.25 366.178L1100.45 370.174ZM1102.55 372.174C1102.55 371.03 1101.59 370.117 1100.45 370.174L1100.25 366.178C1103.68 366.009 1106.55 368.742 1106.55 372.172L1102.55 372.174ZM1102.55 380.088L1102.55 372.174L1106.55 372.172L1106.55 380.086L1102.55 380.088ZM1100.46 382.082C1101.6 382.14 1102.55 381.231 1102.55 380.088L1106.55 380.086C1106.56 383.518 1103.68 386.25 1100.26 386.077L1100.46 382.082ZM1076.96 380.895L1100.46 382.082L1100.26 386.077L1076.76 384.89L1076.96 380.895ZM1048.83 405.447L1075.52 381.406L1078.2 384.378L1051.5 408.42L1048.83 405.447ZM1046.07 405.375C1046.83 406.127 1048.04 406.159 1048.83 405.447L1051.5 408.42C1049.13 410.555 1045.5 410.461 1043.25 408.204L1046.07 405.375ZM1042.58 401.882L1046.07 405.375L1043.25 408.204L1039.75 404.711L1042.58 401.882Z" fill="#4D4D4D"/>
<path d="M1064.95 370.438L1077.36 382.852" stroke="#4D4D4D" stroke-width="4"/>
<rect x="1167.3" y="415.165" width="88" height="16" rx="8" transform="rotate(-135 1167.3 415.165)" fill="#F2463A"/>
<rect x="1151.89" y="399.465" width="66" height="16" rx="8" transform="rotate(-135 1151.89 399.465)" fill="#F56F65"/>
<rect x="1167.3" y="415.165" width="88" height="16" rx="8" transform="rotate(-135 1167.3 415.165)" stroke="#4D4D4D" stroke-width="4"/>
<path fill-rule="evenodd" clip-rule="evenodd" d="M1107.9 412.337C1092.28 396.716 1092.28 371.389 1107.9 355.768L1164.47 412.337C1148.85 427.958 1123.52 427.958 1107.9 412.337ZM1175.25 400.484C1175.54 400.782 1176.03 400.782 1176.32 400.484C1182.27 394.533 1182.27 384.885 1176.32 378.934L1141.3 343.916C1135.35 337.965 1125.71 337.965 1119.75 343.916C1119.46 344.213 1119.46 344.696 1119.75 344.993L1175.25 400.484Z" fill="#F4F4F4"/>
<path fill-rule="evenodd" clip-rule="evenodd" d="M1097.08 392.467C1098.64 399.749 1102.24 406.679 1107.9 412.337C1123.52 427.958 1148.85 427.958 1164.47 412.337L1154.91 402.777C1137.5 412.884 1114.82 410.484 1099.91 395.576C1098.91 394.573 1097.97 393.536 1097.08 392.467ZM1167.16 392.396C1170.81 387.984 1173.51 383.044 1175.24 377.854L1176.32 378.934C1182.27 384.885 1182.27 394.533 1176.32 400.484C1176.03 400.782 1175.54 400.782 1175.25 400.484L1167.16 392.396Z" fill="#D2D2D2"/>
<path d="M1107.9 355.768L1109.32 354.354L1107.9 352.94L1106.49 354.354L1107.9 355.768ZM1164.47 412.337L1165.88 413.751L1167.3 412.337L1165.88 410.923L1164.47 412.337ZM1106.49 354.354C1090.09 370.756 1090.09 397.349 1106.49 413.751L1109.32 410.923C1094.48 396.083 1094.48 372.022 1109.32 357.182L1106.49 354.354ZM1165.88 410.923L1109.32 354.354L1106.49 357.182L1163.06 413.751L1165.88 410.923ZM1106.49 413.751C1122.89 430.153 1149.48 430.153 1165.88 413.751L1163.06 410.923C1148.22 425.762 1124.16 425.762 1109.32 410.923L1106.49 413.751ZM1174.91 399.07C1175.39 398.587 1176.18 398.587 1176.66 399.07L1173.83 401.899C1174.91 402.977 1176.66 402.977 1177.74 401.899L1174.91 399.07ZM1174.91 380.349C1180.08 385.518 1180.08 393.9 1174.91 399.07L1177.74 401.899C1184.47 395.167 1184.47 384.252 1177.74 377.52L1174.91 380.349ZM1139.89 345.33L1174.91 380.349L1177.74 377.52L1142.72 342.502L1139.89 345.33ZM1121.17 345.33C1126.34 340.16 1134.72 340.16 1139.89 345.33L1142.72 342.502C1135.99 335.77 1125.07 335.77 1118.34 342.502L1121.17 345.33ZM1121.17 343.579C1121.65 344.063 1121.65 344.846 1121.17 345.33L1118.34 342.502C1117.26 343.58 1117.26 345.329 1118.34 346.407L1121.17 343.579ZM1176.66 399.07L1121.17 343.579L1118.34 346.407L1173.83 401.899L1176.66 399.07Z" fill="#4D4D4D"/>
<path d="M1156.13 417.85L1144.82 406.536" stroke="#4D4D4D" stroke-width="4" stroke-linecap="round"/>
<path d="M1117.95 354.21L1112.29 348.553" stroke="#4D4D4D" stroke-width="4" stroke-linecap="round"/>
<path d="M1077.49 451.402C1075.92 452.881 1073.45 452.842 1071.93 451.315L1068.92 448.312C1067.4 446.784 1067.36 444.32 1068.84 442.745L1107.2 401.91C1108.74 400.264 1111.34 400.223 1112.94 401.82L1118.42 407.297C1120.02 408.894 1119.97 411.495 1118.33 413.041L1077.49 451.402Z" fill="#F4F4F4"/>
<path fill-rule="evenodd" clip-rule="evenodd" d="M1071.13 450.521L1071.93 451.315C1073.45 452.842 1075.92 452.881 1077.49 451.402L1118.33 413.041C1119.97 411.495 1120.02 408.894 1118.42 407.297L1116.39 405.266L1071.13 450.521Z" fill="#BCBCBC"/>
<path d="M1077.49 451.402C1075.92 452.881 1073.45 452.842 1071.93 451.315L1068.92 448.312C1067.4 446.784 1067.36 444.32 1068.84 442.745L1107.2 401.91C1108.74 400.264 1111.34 400.223 1112.94 401.82L1118.42 407.297C1120.02 408.894 1119.97 411.495 1118.33 413.041L1077.49 451.402Z" stroke="#4D4D4D" stroke-width="4"/>
<circle cx="1325" cy="538" r="8" fill="#F2463A" stroke="#4D4D4D" stroke-width="4"/>
<rect x="1270" y="2" width="16" height="88" rx="1" stroke="#E9E9E9" stroke-width="4"/>
<rect x="1246" y="43" width="16" height="64" rx="1" transform="rotate(-90 1246 43)" stroke="#E9E9E9" stroke-width="4"/>
<path d="M1181 155L1196.29 139.707C1196.68 139.317 1197.32 139.317 1197.71 139.707L1213 155" stroke="#E9E9E9" stroke-width="4" stroke-linecap="round"/>
<path d="M1181 166.835L1196.29 151.542C1196.68 151.152 1197.32 151.152 1197.71 151.542L1213 166.835" stroke="#E9E9E9" stroke-width="4" stroke-linecap="round"/>
<path d="M1181 178.67L1196.29 163.377C1196.68 162.987 1197.32 162.987 1197.71 163.377L1213 178.67" stroke="#E9E9E9" stroke-width="4" stroke-linecap="round"/>
<path d="M1138 195L1153.29 179.707C1153.68 179.317 1154.32 179.317 1154.71 179.707L1170 195" stroke="#E9E9E9" stroke-width="4" stroke-linecap="round"/>
<path d="M1138 206.835L1153.29 191.542C1153.68 191.152 1154.32 191.152 1154.71 191.542L1170 206.835" stroke="#E9E9E9" stroke-width="4" stroke-linecap="round"/>
<path d="M1138 218.67L1153.29 203.377C1153.68 202.987 1154.32 202.987 1154.71 203.377L1170 218.67" stroke="#E9E9E9" stroke-width="4" stroke-linecap="round"/>
<path d="M1008 385.5C1039.5 273.5 1128.5 273 1182 261.5C1233.33 250.467 1278.5 166 1278.5 118" stroke="#E9E9E9" stroke-width="4" stroke-linecap="round"/>
<path d="M1027.5 407C1059 295 1148 291 1201.5 283C1253.42 275.236 1301.5 166.5 1301.5 118.5" stroke="#E9E9E9" stroke-width="4" stroke-linecap="round"/>
</svg>
