<svg width="246" height="245" viewBox="0 0 246 245" fill="none" xmlns="http://www.w3.org/2000/svg">
<circle cx="98.9227" cy="103.921" r="12.5607" fill="#BCBCBC" stroke="#4D4D4D" stroke-width="4" stroke-linecap="round" stroke-linejoin="round"/>
<circle cx="176.494" cy="48.0121" r="25.113" transform="rotate(-18.9855 176.494 48.0121)" fill="#88FCFF" stroke="#4D4D4D" stroke-width="4" stroke-linecap="round" stroke-linejoin="round"/>
<rect x="11.5259" y="99.4499" width="18.092" height="11.0628" rx="2" transform="rotate(-18.9855 11.5259 99.4499)" fill="#BCBCBC" stroke="#4D4D4D" stroke-width="4" stroke-linecap="round" stroke-linejoin="round"/>
<path d="M22.53 88.2215C22.1707 87.177 22.7261 86.039 23.7706 85.6796L80.6496 66.1106L116.859 53.653C117.903 53.2937 119.041 53.8491 119.401 54.8936L127.579 78.6642C127.938 79.7086 127.383 80.8467 126.338 81.206L90.1291 93.6636L33.2501 113.233C32.2056 113.592 31.0675 113.037 30.7082 111.992L22.53 88.2215Z" fill="white" stroke="#4D4D4D" stroke-width="4" stroke-linecap="round" stroke-linejoin="round"/>
<path d="M26.1195 101.41C37.2944 103.894 54.1126 97.8733 87.3747 84.841L106.956 76.3055L130.771 81.7959L90.7798 95.5548L30.1184 116.425L26.1195 101.41Z" fill="#E9E9E9"/>
<path d="M22.53 88.2215C22.1707 87.177 22.7261 86.039 23.7706 85.6796L80.6496 66.1106L116.859 53.653C117.903 53.2937 119.041 53.8491 119.401 54.8936L127.579 78.6642C127.938 79.7086 127.383 80.8467 126.338 81.206L90.1291 93.6636L33.2501 113.233C32.2056 113.592 31.0675 113.037 30.7082 111.992L22.53 88.2215Z" stroke="#4D4D4D" stroke-width="4" stroke-linecap="round" stroke-linejoin="round"/>
<path d="M93.9516 51.9678C93.5922 50.9233 94.1476 49.7853 95.1921 49.4259L175.936 21.6463C176.981 21.287 178.119 21.8424 178.478 22.8869L193.517 66.5981C193.876 67.6426 193.321 68.7807 192.276 69.14L111.532 96.9196C110.488 97.2789 109.35 96.7235 108.99 95.6791L93.9516 51.9678Z" fill="#E9E9E9" stroke="#4D4D4D" stroke-width="4" stroke-linecap="round" stroke-linejoin="round"/>
<path d="M100.429 69.7299C110.658 86.9635 127.542 80.3222 189.299 57.2259L196.709 69.7299L110.471 95.887L100.429 69.7299Z" fill="#BCBCBC"/>
<path d="M93.9516 51.9678C93.5922 50.9233 94.1476 49.7853 95.1921 49.4259L175.936 21.6463C176.981 21.287 178.119 21.8424 178.478 22.8869L193.517 66.5981C193.876 67.6426 193.321 68.7807 192.276 69.14L111.532 96.9196C110.488 97.2789 109.35 96.7235 108.99 95.6791L93.9516 51.9678Z" stroke="#4D4D4D" stroke-width="4" stroke-linecap="round" stroke-linejoin="round"/>
<path d="M175.862 15.3089L196.443 75.131" stroke="#4D4D4D" stroke-width="4" stroke-linecap="round" stroke-linejoin="round"/>
<path d="M45.8489 68.004L48.7891 76.55" stroke="#4D4D4D" stroke-width="4" stroke-linecap="round" stroke-linejoin="round"/>
<rect x="24.545" y="66.298" width="40.1841" height="9.05439" rx="2" transform="rotate(-18.9855 24.545 66.298)" fill="#E9E9E9" stroke="#4D4D4D" stroke-width="4" stroke-linecap="round" stroke-linejoin="round"/>
<path d="M61.7212 50.8617L66.4582 64.6303" stroke="#4D4D4D" stroke-width="4" stroke-linecap="round" stroke-linejoin="round"/>
<path d="M90.3872 116.473L51.224 243" stroke="#4D4D4D" stroke-width="4" stroke-linecap="round"/>
<path d="M145.617 243L106.454 116.473" stroke="#4D4D4D" stroke-width="4" stroke-linecap="round"/>
<path d="M185.785 29.6109C189.801 31.6193 191.81 33.6276 192.814 36.6402" stroke="white" stroke-width="4" stroke-linecap="round"/>
<path d="M242.723 27.1838L211.376 37.9293" stroke="#BCBCBC" stroke-width="4" stroke-linecap="round"/>
<path d="M232.245 64.745L213.763 57.2803" stroke="#BCBCBC" stroke-width="4" stroke-linecap="round"/>
<path d="M201.064 20.2334L211.08 3.00001" stroke="#BCBCBC" stroke-width="4" stroke-linecap="round"/>
</svg>
